# MagicaVoxel @ Ephtracy

# group
o 

# material
mtllib Climb1.mtl
usemtl palette

# normals
vn -1 0 0
vn 1 0 0
vn 0 0 1
vn 0 0 -1
vn 0 -1 0
vn 0 1 0

# texcoords
vt 0.908203 0.5
vt 0.912109 0.5
vt 0.919922 0.5

# verts
v -0.1 1.4 0.7
v -0.1 1.4 0.5
v -0.1 1.4 0.4
v -0.1 1.5 0.4
v -0.1 1.5 0.3
v -0.1 1.5 0
v -0.1 1.5 -0.2
v -0.1 1.5 -0.4
v -0.1 1.6 0.3
v -0.1 1.6 0
v -0.1 1.7 0.6
v -0.1 1.7 0.5
v -0.1 1.7 0
v -0.1 1.7 -0.1
v -0.1 1.8 0.7
v -0.1 1.8 0.6
v -0.1 1.8 0.5
v -0.1 1.8 0.3
v -0.1 1.8 -0.1
v -0.1 1.8 -0.2
v -0.1 1.8 -0.4
v -0.1 1.9 0.5
v -0.1 1.9 0.4
v -0.1 1.9 0.3
v -0.1 1.9 0.1
v -0.1 2 0.6
v -0.1 2 0.5
v -0.1 2 0.3
v -0.1 2 0.1
v -0.1 2 0
v -0.1 2 -0.1
v -0.1 2 -0.4
v -0.1 2.1 0.7
v -0.1 2.1 0.6
v -0.1 2.1 0.3
v -0.1 2.1 0.1
v -0.1 2.2 0.8
v -0.1 2.2 0.7
v -0.1 2.2 0.5
v -0.1 2.2 0.4
v -0.1 2.2 0.3
v -0.1 2.2 0.1
v -0.1 2.2 0
v -0.1 2.2 -0.1
v -0.1 2.2 -0.2
v -0.1 2.2 -0.4
v -0.1 2.3 0.6
v -0.1 2.3 0.5
v -0.1 2.3 0.4
v -0.1 2.3 0.3
v -0.1 2.3 0.1
v -0.1 2.3 0
v -0.1 2.3 -0.1
v -0.1 2.4 0.9
v -0.1 2.4 0.8
v -0.1 2.4 0.7
v -0.1 2.4 0.6
v -0.1 2.4 0.5
v -0.1 2.4 0.4
v -0.1 2.4 0.3
v -0.1 2.4 0.1
v -0.1 2.4 0
v -0.1 2.4 -0.1
v -0.1 2.4 -0.2
v -0.1 2.4 -0.4
v -0.1 2.5 0.9
v -0.1 2.5 0.7
v -0.1 2.6 0.6
v -0.1 2.6 0.5
v -0.1 2.6 0.3
v -0.1 2.6 0.1
v -0.1 2.6 -0.1
v -0.1 2.6 -0.2
v -0.1 2.7 0.9
v -0.1 2.7 0.7
v -0.1 2.7 0.6
v -0.1 2.7 0.5
v -0.1 2.7 -0.1
v -0.1 2.7 -0.2
v -0.1 2.8 0.6
v -0.1 2.8 0.5
v -0.1 2.8 0.3
v -0.1 2.8 0.1
v -0.1 2.8 -0.1
v -0.1 2.8 -0.2
v -0.1 2.9 0.5
v -0.1 2.9 0.3
v -0.1 2.9 0.1
v -0.1 2.9 -0.1
v 0 1.4 0.7
v 0 1.4 0.5
v 0 1.4 0.4
v 0 1.5 0.4
v 0 1.5 0.3
v 0 1.5 0
v 0 1.5 -0.2
v 0 1.5 -0.4
v 0 1.6 0.3
v 0 1.6 0
v 0 1.7 0.6
v 0 1.7 0.5
v 0 1.7 0
v 0 1.7 -0.1
v 0 1.8 0.7
v 0 1.8 0.6
v 0 1.8 0.5
v 0 1.8 0.3
v 0 1.8 -0.1
v 0 1.8 -0.2
v 0 1.8 -0.4
v 0 1.9 0.5
v 0 1.9 0.4
v 0 1.9 0.3
v 0 1.9 0.1
v 0 2 0.6
v 0 2 0.5
v 0 2 0.3
v 0 2 0.1
v 0 2 0
v 0 2 -0.1
v 0 2 -0.4
v 0 2.1 0.7
v 0 2.1 0.6
v 0 2.1 0.3
v 0 2.1 0.1
v 0 2.2 0.8
v 0 2.2 0.7
v 0 2.2 0.5
v 0 2.2 0.4
v 0 2.2 0.3
v 0 2.2 0.1
v 0 2.2 0
v 0 2.2 -0.1
v 0 2.2 -0.2
v 0 2.2 -0.4
v 0 2.3 0.6
v 0 2.3 0.5
v 0 2.3 0.4
v 0 2.3 0.3
v 0 2.3 0.1
v 0 2.3 0
v 0 2.3 -0.1
v 0 2.4 0.9
v 0 2.4 0.8
v 0 2.4 0.7
v 0 2.4 0.6
v 0 2.4 0.5
v 0 2.4 0.4
v 0 2.4 0.3
v 0 2.4 0.1
v 0 2.4 0
v 0 2.4 -0.1
v 0 2.4 -0.2
v 0 2.4 -0.4
v 0 2.5 0.9
v 0 2.5 0.7
v 0 2.6 0.6
v 0 2.6 0.5
v 0 2.6 0.3
v 0 2.6 0.1
v 0 2.6 -0.1
v 0 2.6 -0.2
v 0 2.7 0.9
v 0 2.7 0.7
v 0 2.7 0.6
v 0 2.7 0.5
v 0 2.7 -0.1
v 0 2.7 -0.2
v 0 2.8 0.6
v 0 2.8 0.5
v 0 2.8 0.3
v 0 2.8 0.1
v 0 2.8 -0.1
v 0 2.8 -0.2
v 0 2.9 0.5
v 0 2.9 0.3
v 0 2.9 0.1
v 0 2.9 -0.1
v -0.1 2.4 0.9
v -0.1 2.5 0.9
v -0.1 2.7 0.9
v 0 2.4 0.9
v 0 2.5 0.9
v 0 2.7 0.9
v -0.1 2.2 0.8
v -0.1 2.4 0.8
v 0 2.2 0.8
v 0 2.4 0.8
v -0.1 1.4 0.7
v -0.1 1.8 0.7
v -0.1 2.1 0.7
v -0.1 2.2 0.7
v 0 1.4 0.7
v 0 1.8 0.7
v 0 2.1 0.7
v 0 2.2 0.7
v -0.1 2 0.6
v -0.1 2.1 0.6
v -0.1 2.4 0.6
v -0.1 2.6 0.6
v -0.1 2.7 0.6
v -0.1 2.8 0.6
v 0 2 0.6
v 0 2.1 0.6
v 0 2.4 0.6
v 0 2.6 0.6
v 0 2.7 0.6
v 0 2.8 0.6
v -0.1 1.7 0.5
v -0.1 1.8 0.5
v -0.1 1.9 0.5
v -0.1 2 0.5
v -0.1 2.3 0.5
v -0.1 2.4 0.5
v -0.1 2.8 0.5
v -0.1 2.9 0.5
v 0 1.7 0.5
v 0 1.8 0.5
v 0 1.9 0.5
v 0 2 0.5
v 0 2.3 0.5
v 0 2.4 0.5
v 0 2.8 0.5
v 0 2.9 0.5
v -0.1 1.5 0
v -0.1 1.6 0
v 0 1.5 0
v 0 1.6 0
v -0.1 2.2 -0.2
v -0.1 2.4 -0.2
v 0 2.2 -0.2
v 0 2.4 -0.2
v -0.1 2.4 0.7
v -0.1 2.5 0.7
v -0.1 2.7 0.7
v 0 2.4 0.7
v 0 2.5 0.7
v 0 2.7 0.7
v -0.1 1.7 0.6
v -0.1 1.8 0.6
v -0.1 2.3 0.6
v -0.1 2.4 0.6
v 0 1.7 0.6
v 0 1.8 0.6
v 0 2.3 0.6
v 0 2.4 0.6
v -0.1 1.4 0.4
v -0.1 1.5 0.4
v 0 1.4 0.4
v 0 1.5 0.4
v -0.1 1.5 0.3
v -0.1 1.6 0.3
v 0 1.5 0.3
v 0 1.6 0.3
v -0.1 1.8 -0.1
v -0.1 2 -0.1
v -0.1 2.2 -0.1
v -0.1 2.3 -0.1
v -0.1 2.4 -0.1
v -0.1 2.8 -0.1
v -0.1 2.9 -0.1
v 0 1.8 -0.1
v 0 2 -0.1
v 0 2.2 -0.1
v 0 2.3 -0.1
v 0 2.4 -0.1
v 0 2.8 -0.1
v 0 2.9 -0.1
v -0.1 2.4 -0.2
v -0.1 2.6 -0.2
v -0.1 2.7 -0.2
v -0.1 2.8 -0.2
v 0 2.4 -0.2
v 0 2.6 -0.2
v 0 2.7 -0.2
v 0 2.8 -0.2
v -0.1 1.5 -0.4
v -0.1 1.8 -0.4
v -0.1 2 -0.4
v -0.1 2.2 -0.4
v -0.1 2.4 -0.4
v 0 1.5 -0.4
v 0 1.8 -0.4
v 0 2 -0.4
v 0 2.2 -0.4
v 0 2.4 -0.4
v -0.1 1.4 0.7
v 0 1.4 0.7
v -0.1 1.4 0.5
v 0 1.4 0.5
v -0.1 1.4 0.4
v 0 1.4 0.4
v -0.1 1.5 0.4
v 0 1.5 0.4
v -0.1 1.5 0.3
v 0 1.5 0.3
v -0.1 1.5 0
v 0 1.5 0
v -0.1 1.5 -0.2
v 0 1.5 -0.2
v -0.1 1.5 -0.4
v 0 1.5 -0.4
v -0.1 1.6 0.3
v 0 1.6 0.3
v -0.1 1.6 0
v 0 1.6 0
v -0.1 2 0.6
v 0 2 0.6
v -0.1 2 0.5
v 0 2 0.5
v -0.1 2 -0.1
v 0 2 -0.1
v -0.1 2 -0.4
v 0 2 -0.4
v -0.1 2.1 0.7
v 0 2.1 0.7
v -0.1 2.1 0.6
v 0 2.1 0.6
v -0.1 2.2 0.8
v 0 2.2 0.8
v -0.1 2.2 0.7
v 0 2.2 0.7
v -0.1 2.4 0.9
v 0 2.4 0.9
v -0.1 2.4 0.8
v 0 2.4 0.8
v -0.1 2.4 0.6
v 0 2.4 0.6
v -0.1 2.4 0.5
v 0 2.4 0.5
v -0.1 2.4 -0.1
v 0 2.4 -0.1
v -0.1 2.4 -0.2
v 0 2.4 -0.2
v -0.1 1.7 0.6
v 0 1.7 0.6
v -0.1 1.7 0.5
v 0 1.7 0.5
v -0.1 1.8 0.7
v 0 1.8 0.7
v -0.1 1.8 0.6
v 0 1.8 0.6
v -0.1 1.8 -0.1
v 0 1.8 -0.1
v -0.1 1.8 -0.2
v 0 1.8 -0.2
v -0.1 1.8 -0.4
v 0 1.8 -0.4
v -0.1 2.2 -0.1
v 0 2.2 -0.1
v -0.1 2.2 -0.2
v 0 2.2 -0.2
v -0.1 2.3 0.6
v 0 2.3 0.6
v -0.1 2.3 0.5
v 0 2.3 0.5
v -0.1 2.4 0.7
v 0 2.4 0.7
v -0.1 2.4 0.6
v 0 2.4 0.6
v -0.1 2.4 -0.2
v 0 2.4 -0.2
v -0.1 2.4 -0.4
v 0 2.4 -0.4
v -0.1 2.7 0.9
v 0 2.7 0.9
v -0.1 2.7 0.7
v 0 2.7 0.7
v -0.1 2.8 0.6
v 0 2.8 0.6
v -0.1 2.8 0.5
v 0 2.8 0.5
v -0.1 2.8 -0.1
v 0 2.8 -0.1
v -0.1 2.8 -0.2
v 0 2.8 -0.2
v -0.1 2.9 0.5
v 0 2.9 0.5
v -0.1 2.9 0.3
v 0 2.9 0.3
v -0.1 2.9 0.1
v 0 2.9 0.1
v -0.1 2.9 -0.1
v 0 2.9 -0.1

# faces
f 4/2/1 3/2/1 2/2/1
f 9/2/1 5/2/1 4/2/1
f 10/2/1 7/2/1 6/2/1
f 11/1/1 2/1/1 1/1/1
f 12/2/1 4/2/1 2/2/1
f 12/1/1 2/1/1 11/1/1
f 12/2/1 9/2/1 4/2/1
f 13/3/1 10/3/1 9/3/1
f 13/2/1 7/2/1 10/2/1
f 14/2/1 7/2/1 13/2/1
f 15/1/1 11/1/1 1/1/1
f 16/1/1 11/1/1 15/1/1
f 17/2/1 9/2/1 12/2/1
f 18/3/1 14/3/1 13/3/1
f 18/2/1 9/2/1 17/2/1
f 18/3/1 13/3/1 9/3/1
f 19/2/1 7/2/1 14/2/1
f 19/3/1 14/3/1 18/3/1
f 20/1/1 8/1/1 7/1/1
f 20/2/1 7/2/1 19/2/1
f 21/1/1 8/1/1 20/1/1
f 22/3/1 18/3/1 17/3/1
f 22/3/1 19/3/1 18/3/1
f 23/3/1 19/3/1 22/3/1
f 24/3/1 19/3/1 23/3/1
f 25/3/1 19/3/1 24/3/1
f 27/2/1 23/2/1 22/2/1
f 28/3/1 24/3/1 23/3/1
f 28/2/1 25/2/1 24/2/1
f 29/3/1 19/3/1 25/3/1
f 29/2/1 25/2/1 28/2/1
f 30/3/1 19/3/1 29/3/1
f 31/3/1 19/3/1 30/3/1
f 34/2/1 27/2/1 26/2/1
f 35/3/1 28/3/1 23/3/1
f 35/1/1 29/1/1 28/1/1
f 36/3/1 30/3/1 29/3/1
f 36/1/1 29/1/1 35/1/1
f 38/2/1 34/2/1 33/2/1
f 39/2/1 23/2/1 27/2/1
f 39/2/1 27/2/1 34/2/1
f 39/2/1 34/2/1 38/2/1
f 40/3/1 35/3/1 23/3/1
f 40/2/1 23/2/1 39/2/1
f 41/2/1 36/2/1 35/2/1
f 41/3/1 35/3/1 40/3/1
f 42/3/1 30/3/1 36/3/1
f 42/2/1 36/2/1 41/2/1
f 43/2/1 32/2/1 31/2/1
f 43/3/1 30/3/1 42/3/1
f 43/2/1 31/2/1 30/2/1
f 44/2/1 32/2/1 43/2/1
f 45/2/1 32/2/1 44/2/1
f 46/2/1 32/2/1 45/2/1
f 47/2/1 38/2/1 37/2/1
f 47/2/1 39/2/1 38/2/1
f 48/3/1 41/3/1 40/3/1
f 48/2/1 39/2/1 47/2/1
f 48/3/1 42/3/1 41/3/1
f 48/3/1 44/3/1 43/3/1
f 48/3/1 43/3/1 42/3/1
f 48/3/1 40/3/1 39/3/1
f 49/3/1 44/3/1 48/3/1
f 50/3/1 44/3/1 49/3/1
f 51/3/1 44/3/1 50/3/1
f 52/3/1 44/3/1 51/3/1
f 53/3/1 44/3/1 52/3/1
f 55/2/1 47/2/1 37/2/1
f 56/2/1 47/2/1 55/2/1
f 57/2/1 47/2/1 56/2/1
f 58/2/1 49/2/1 48/2/1
f 59/3/1 50/3/1 49/3/1
f 59/2/1 49/2/1 58/2/1
f 60/2/1 51/2/1 50/2/1
f 60/3/1 50/3/1 59/3/1
f 61/3/1 52/3/1 51/3/1
f 61/2/1 51/2/1 60/2/1
f 62/2/1 53/2/1 52/2/1
f 62/3/1 52/3/1 61/3/1
f 63/2/1 53/2/1 62/2/1
f 64/1/1 46/1/1 45/1/1
f 65/1/1 46/1/1 64/1/1
f 66/2/1 55/2/1 54/2/1
f 66/2/1 56/2/1 55/2/1
f 67/2/1 56/2/1 66/2/1
f 68/2/1 58/2/1 57/2/1
f 68/2/1 59/2/1 58/2/1
f 68/2/1 60/2/1 59/2/1
f 69/2/1 60/2/1 68/2/1
f 70/3/1 61/3/1 60/3/1
f 70/2/1 60/2/1 69/2/1
f 71/2/1 63/2/1 62/2/1
f 71/3/1 61/3/1 70/3/1
f 71/2/1 62/2/1 61/2/1
f 71/2/1 64/2/1 63/2/1
f 72/2/1 64/2/1 71/2/1
f 73/2/1 64/2/1 72/2/1
f 74/1/1 67/1/1 66/1/1
f 75/1/1 67/1/1 74/1/1
f 76/1/1 69/1/1 68/1/1
f 77/2/1 70/2/1 69/2/1
f 77/1/1 69/1/1 76/1/1
f 77/2/1 71/2/1 70/2/1
f 77/2/1 72/2/1 71/2/1
f 78/1/1 73/1/1 72/1/1
f 78/2/1 72/2/1 77/2/1
f 79/1/1 73/1/1 78/1/1
f 80/2/1 77/2/1 76/2/1
f 80/2/1 79/2/1 78/2/1
f 80/2/1 78/2/1 77/2/1
f 81/2/1 79/2/1 80/2/1
f 82/2/1 79/2/1 81/2/1
f 83/2/1 79/2/1 82/2/1
f 84/2/1 79/2/1 83/2/1
f 85/2/1 79/2/1 84/2/1
f 86/2/1 82/2/1 81/2/1
f 87/1/1 83/1/1 82/1/1
f 87/2/1 82/2/1 86/2/1
f 88/2/1 84/2/1 83/2/1
f 88/1/1 83/1/1 87/1/1
f 89/2/1 84/2/1 88/2/1
f 91/2/2 92/2/2 93/2/2
f 93/2/2 94/2/2 98/2/2
f 95/2/2 96/2/2 99/2/2
f 90/1/2 91/1/2 100/1/2
f 91/2/2 93/2/2 101/2/2
f 100/1/2 91/1/2 101/1/2
f 93/2/2 98/2/2 101/2/2
f 98/3/2 99/3/2 102/3/2
f 99/2/2 96/2/2 102/2/2
f 102/2/2 96/2/2 103/2/2
f 90/1/2 100/1/2 104/1/2
f 104/1/2 100/1/2 105/1/2
f 101/2/2 98/2/2 106/2/2
f 102/3/2 103/3/2 107/3/2
f 106/2/2 98/2/2 107/2/2
f 98/3/2 102/3/2 107/3/2
f 103/2/2 96/2/2 108/2/2
f 107/3/2 103/3/2 108/3/2
f 96/1/2 97/1/2 109/1/2
f 108/2/2 96/2/2 109/2/2
f 109/1/2 97/1/2 110/1/2
f 106/3/2 107/3/2 111/3/2
f 107/3/2 108/3/2 111/3/2
f 111/3/2 108/3/2 112/3/2
f 112/3/2 108/3/2 113/3/2
f 113/3/2 108/3/2 114/3/2
f 111/2/2 112/2/2 116/2/2
f 112/3/2 113/3/2 117/3/2
f 113/2/2 114/2/2 117/2/2
f 114/3/2 108/3/2 118/3/2
f 117/2/2 114/2/2 118/2/2
f 118/3/2 108/3/2 119/3/2
f 119/3/2 108/3/2 120/3/2
f 115/2/2 116/2/2 123/2/2
f 112/3/2 117/3/2 124/3/2
f 117/1/2 118/1/2 124/1/2
f 118/3/2 119/3/2 125/3/2
f 124/1/2 118/1/2 125/1/2
f 122/2/2 123/2/2 127/2/2
f 116/2/2 112/2/2 128/2/2
f 123/2/2 116/2/2 128/2/2
f 127/2/2 123/2/2 128/2/2
f 112/3/2 124/3/2 129/3/2
f 128/2/2 112/2/2 129/2/2
f 124/2/2 125/2/2 130/2/2
f 129/3/2 124/3/2 130/3/2
f 125/3/2 119/3/2 131/3/2
f 130/2/2 125/2/2 131/2/2
f 120/2/2 121/2/2 132/2/2
f 131/3/2 119/3/2 132/3/2
f 119/2/2 120/2/2 132/2/2
f 132/2/2 121/2/2 133/2/2
f 133/2/2 121/2/2 134/2/2
f 134/2/2 121/2/2 135/2/2
f 126/2/2 127/2/2 136/2/2
f 127/2/2 128/2/2 136/2/2
f 129/3/2 130/3/2 137/3/2
f 136/2/2 128/2/2 137/2/2
f 130/3/2 131/3/2 137/3/2
f 132/3/2 133/3/2 137/3/2
f 131/3/2 132/3/2 137/3/2
f 128/3/2 129/3/2 137/3/2
f 137/3/2 133/3/2 138/3/2
f 138/3/2 133/3/2 139/3/2
f 139/3/2 133/3/2 140/3/2
f 140/3/2 133/3/2 141/3/2
f 141/3/2 133/3/2 142/3/2
f 126/2/2 136/2/2 144/2/2
f 144/2/2 136/2/2 145/2/2
f 145/2/2 136/2/2 146/2/2
f 137/2/2 138/2/2 147/2/2
f 138/3/2 139/3/2 148/3/2
f 147/2/2 138/2/2 148/2/2
f 139/2/2 140/2/2 149/2/2
f 148/3/2 139/3/2 149/3/2
f 140/3/2 141/3/2 150/3/2
f 149/2/2 140/2/2 150/2/2
f 141/2/2 142/2/2 151/2/2
f 150/3/2 141/3/2 151/3/2
f 151/2/2 142/2/2 152/2/2
f 134/1/2 135/1/2 153/1/2
f 153/1/2 135/1/2 154/1/2
f 143/2/2 144/2/2 155/2/2
f 144/2/2 145/2/2 155/2/2
f 155/2/2 145/2/2 156/2/2
f 146/2/2 147/2/2 157/2/2
f 147/2/2 148/2/2 157/2/2
f 148/2/2 149/2/2 157/2/2
f 157/2/2 149/2/2 158/2/2
f 149/3/2 150/3/2 159/3/2
f 158/2/2 149/2/2 159/2/2
f 151/2/2 152/2/2 160/2/2
f 159/3/2 150/3/2 160/3/2
f 150/2/2 151/2/2 160/2/2
f 152/2/2 153/2/2 160/2/2
f 160/2/2 153/2/2 161/2/2
f 161/2/2 153/2/2 162/2/2
f 155/1/2 156/1/2 163/1/2
f 163/1/2 156/1/2 164/1/2
f 157/1/2 158/1/2 165/1/2
f 158/2/2 159/2/2 166/2/2
f 165/1/2 158/1/2 166/1/2
f 159/2/2 160/2/2 166/2/2
f 160/2/2 161/2/2 166/2/2
f 161/1/2 162/1/2 167/1/2
f 166/2/2 161/2/2 167/2/2
f 167/1/2 162/1/2 168/1/2
f 165/2/2 166/2/2 169/2/2
f 167/2/2 168/2/2 169/2/2
f 166/2/2 167/2/2 169/2/2
f 169/2/2 168/2/2 170/2/2
f 170/2/2 168/2/2 171/2/2
f 171/2/2 168/2/2 172/2/2
f 172/2/2 168/2/2 173/2/2
f 173/2/2 168/2/2 174/2/2
f 170/2/2 171/2/2 175/2/2
f 171/1/2 172/1/2 176/1/2
f 175/2/2 171/2/2 176/2/2
f 172/2/2 173/2/2 177/2/2
f 176/1/2 172/1/2 177/1/2
f 177/2/2 173/2/2 178/2/2
f 182/2/3 180/2/3 179/2/3
f 183/1/3 181/1/3 180/1/3
f 183/2/3 180/2/3 182/2/3
f 184/1/3 181/1/3 183/1/3
f 187/2/3 186/2/3 185/2/3
f 188/2/3 186/2/3 187/2/3
f 193/1/3 190/1/3 189/1/3
f 194/1/3 190/1/3 193/1/3
f 195/2/3 192/2/3 191/2/3
f 196/2/3 192/2/3 195/2/3
f 203/2/3 198/2/3 197/2/3
f 204/2/3 198/2/3 203/2/3
f 205/2/3 200/2/3 199/2/3
f 206/1/3 201/1/3 200/1/3
f 206/2/3 200/2/3 205/2/3
f 207/2/3 202/2/3 201/2/3
f 207/1/3 201/1/3 206/1/3
f 208/2/3 202/2/3 207/2/3
f 217/2/3 210/2/3 209/2/3
f 218/3/3 211/3/3 210/3/3
f 218/2/3 210/2/3 217/2/3
f 219/2/3 212/2/3 211/2/3
f 219/3/3 211/3/3 218/3/3
f 220/2/3 212/2/3 219/2/3
f 221/2/3 214/2/3 213/2/3
f 222/2/3 214/2/3 221/2/3
f 223/2/3 216/2/3 215/2/3
f 224/2/3 216/2/3 223/2/3
f 227/2/3 226/2/3 225/2/3
f 228/2/3 226/2/3 227/2/3
f 231/1/3 230/1/3 229/1/3
f 232/1/3 230/1/3 231/1/3
f 233/2/4 234/2/4 236/2/4
f 234/1/4 235/1/4 237/1/4
f 236/2/4 234/2/4 237/2/4
f 237/1/4 235/1/4 238/1/4
f 239/1/4 240/1/4 243/1/4
f 243/1/4 240/1/4 244/1/4
f 241/2/4 242/2/4 245/2/4
f 245/2/4 242/2/4 246/2/4
f 247/2/4 248/2/4 249/2/4
f 249/2/4 248/2/4 250/2/4
f 251/2/4 252/2/4 253/2/4
f 253/2/4 252/2/4 254/2/4
f 255/3/4 256/3/4 262/3/4
f 262/3/4 256/3/4 263/3/4
f 257/3/4 258/3/4 264/3/4
f 258/2/4 259/2/4 265/2/4
f 264/3/4 258/3/4 265/3/4
f 265/2/4 259/2/4 266/2/4
f 260/2/4 261/2/4 267/2/4
f 267/2/4 261/2/4 268/2/4
f 269/2/4 270/2/4 273/2/4
f 270/1/4 271/1/4 274/1/4
f 273/2/4 270/2/4 274/2/4
f 271/2/4 272/2/4 275/2/4
f 274/1/4 271/1/4 275/1/4
f 275/2/4 272/2/4 276/2/4
f 277/1/4 278/1/4 282/1/4
f 282/1/4 278/1/4 283/1/4
f 279/2/4 280/2/4 284/2/4
f 280/1/4 281/1/4 285/1/4
f 284/2/4 280/2/4 285/2/4
f 285/1/4 281/1/4 286/1/4
f 289/1/5 288/1/5 287/1/5
f 290/1/5 288/1/5 289/1/5
f 291/2/5 290/2/5 289/2/5
f 292/2/5 290/2/5 291/2/5
f 295/2/5 294/2/5 293/2/5
f 296/2/5 294/2/5 295/2/5
f 299/2/5 298/2/5 297/2/5
f 300/2/5 298/2/5 299/2/5
f 301/1/5 300/1/5 299/1/5
f 302/1/5 300/1/5 301/1/5
f 305/3/5 304/3/5 303/3/5
f 306/3/5 304/3/5 305/3/5
f 309/2/5 308/2/5 307/2/5
f 310/2/5 308/2/5 309/2/5
f 313/2/5 312/2/5 311/2/5
f 314/2/5 312/2/5 313/2/5
f 317/2/5 316/2/5 315/2/5
f 318/2/5 316/2/5 317/2/5
f 321/2/5 320/2/5 319/2/5
f 322/2/5 320/2/5 321/2/5
f 325/2/5 324/2/5 323/2/5
f 326/2/5 324/2/5 325/2/5
f 329/2/5 328/2/5 327/2/5
f 330/2/5 328/2/5 329/2/5
f 333/2/5 332/2/5 331/2/5
f 334/2/5 332/2/5 333/2/5
f 335/1/6 336/1/6 337/1/6
f 337/1/6 336/1/6 338/1/6
f 339/1/6 340/1/6 341/1/6
f 341/1/6 340/1/6 342/1/6
f 343/2/6 344/2/6 345/2/6
f 345/2/6 344/2/6 346/2/6
f 345/1/6 346/1/6 347/1/6
f 347/1/6 346/1/6 348/1/6
f 349/2/6 350/2/6 351/2/6
f 351/2/6 350/2/6 352/2/6
f 353/2/6 354/2/6 355/2/6
f 355/2/6 354/2/6 356/2/6
f 357/2/6 358/2/6 359/2/6
f 359/2/6 358/2/6 360/2/6
f 361/1/6 362/1/6 363/1/6
f 363/1/6 362/1/6 364/1/6
f 365/1/6 366/1/6 367/1/6
f 367/1/6 366/1/6 368/1/6
f 369/2/6 370/2/6 371/2/6
f 371/2/6 370/2/6 372/2/6
f 373/2/6 374/2/6 375/2/6
f 375/2/6 374/2/6 376/2/6
f 377/2/6 378/2/6 379/2/6
f 379/2/6 378/2/6 380/2/6
f 379/1/6 380/1/6 381/1/6
f 381/1/6 380/1/6 382/1/6
f 381/2/6 382/2/6 383/2/6
f 383/2/6 382/2/6 384/2/6
