# MagicaVoxel @ Ephtracy

# group
o 

# material
mtllib Brick4.mtl
usemtl palette

# normals
vn -1 0 0
vn 1 0 0
vn 0 0 1
vn 0 0 -1
vn 0 -1 0
vn 0 1 0

# texcoords
vt 0.939453 0.5
vt 0.943359 0.5
vt 0.947266 0.5

# verts
v -1.6 0 1.6
v -1.6 0 0
v -1.6 0.1 1.5
v -1.6 0.1 1.4
v -1.6 0.1 0.9
v -1.6 0.1 0.8
v -1.6 0.1 0.7
v -1.6 0.1 0.6
v -1.6 0.1 0.1
v -1.6 0.1 0
v -1.6 0.2 1.5
v -1.6 0.2 1.4
v -1.6 0.2 0.9
v -1.6 0.2 0.8
v -1.6 0.2 0.7
v -1.6 0.2 0.6
v -1.6 0.2 0.1
v -1.6 0.2 0
v -1.6 0.7 1.5
v -1.6 0.7 1.4
v -1.6 0.7 0.9
v -1.6 0.7 0.8
v -1.6 0.7 0.7
v -1.6 0.7 0.6
v -1.6 0.7 0.1
v -1.6 0.7 0
v -1.6 0.8 1.5
v -1.6 0.8 1.4
v -1.6 0.8 0.9
v -1.6 0.8 0.8
v -1.6 0.8 0.7
v -1.6 0.8 0.6
v -1.6 0.8 0.1
v -1.6 0.8 0
v -1.6 0.9 1.5
v -1.6 0.9 1.4
v -1.6 0.9 0.9
v -1.6 0.9 0.8
v -1.6 1 1.5
v -1.6 1 1.4
v -1.6 1 0.9
v -1.6 1 0.8
v -1.6 1.5 1.5
v -1.6 1.5 1.4
v -1.6 1.5 0.9
v -1.6 1.5 0.8
v -1.6 1.6 1.6
v -1.6 1.6 1.5
v -1.6 1.6 1.4
v -1.6 1.6 0.9
v -1.6 1.6 0.8
v -1.6 1.6 0
v 0 0 1.6
v 0 0 0
v 0 0.1 1.5
v 0 0.1 0.8
v 0 0.1 0.7
v 0 0.1 0.6
v 0 0.1 0.1
v 0 0.1 0
v 0 0.2 1.4
v 0 0.2 0.9
v 0 0.2 0.7
v 0 0.2 0.6
v 0 0.2 0.1
v 0 0.2 0
v 0 0.7 1.4
v 0 0.7 0.9
v 0 0.7 0.7
v 0 0.7 0.6
v 0 0.7 0.1
v 0 0.7 0
v 0 0.8 1.5
v 0 0.8 0.8
v 0 0.8 0.7
v 0 0.8 0.6
v 0 0.8 0.1
v 0 0.8 0
v 0 0.9 1.5
v 0 0.9 1.4
v 0 0.9 0.9
v 0 0.9 0.8
v 0 0.9 0.7
v 0 0.9 0
v 0 1 1.5
v 0 1 1.4
v 0 1 0.9
v 0 1 0.8
v 0 1 0.6
v 0 1 0.1
v 0 1.5 1.5
v 0 1.5 1.4
v 0 1.5 0.9
v 0 1.5 0.8
v 0 1.5 0.6
v 0 1.5 0.1
v 0 1.6 1.6
v 0 1.6 1.5
v 0 1.6 1.4
v 0 1.6 0.9
v 0 1.6 0.8
v 0 1.6 0.7
v 0 1.6 0
v -1.6 0 1.6
v -1.6 1.6 1.6
v 0 0 1.6
v 0 1.6 1.6
v -1.6 0 0
v -1.6 0.1 0
v -1.6 0.2 0
v -1.6 0.7 0
v -1.6 0.8 0
v -1.6 1.6 0
v -1.5 0.9 0
v -1.5 1.6 0
v -1.4 1 0
v -1.4 1.5 0
v -0.9 0.2 0
v -0.9 0.7 0
v -0.8 0.1 0
v -0.8 0.8 0
v -0.7 0.1 0
v -0.7 0.8 0
v -0.6 0.2 0
v -0.6 0.7 0
v -0.1 1 0
v -0.1 1.5 0
v 0 0 0
v 0 0.1 0
v 0 0.2 0
v 0 0.7 0
v 0 0.8 0
v 0 0.9 0
v 0 1.6 0
v -1.6 0 1.6
v 0 0 1.6
v -1.6 0 0
v 0 0 0
v -1.6 1.6 1.6
v 0 1.6 1.6
v -1.6 1.6 1.5
v -1 1.6 1.5
v -0.9 1.6 1.5
v 0 1.6 1.5
v -1.6 1.6 1.4
v -1.1 1.6 1.4
v -0.8 1.6 1.4
v 0 1.6 1.4
v -1.6 1.6 0.9
v -1.1 1.6 0.9
v -0.8 1.6 0.9
v 0 1.6 0.9
v -1.6 1.6 0.8
v -1 1.6 0.8
v -0.9 1.6 0.8
v 0 1.6 0.8
v -1.5 1.6 0.7
v 0 1.6 0.7
v -1.4 1.6 0.6
v -0.1 1.6 0.6
v -1.4 1.6 0.1
v -0.1 1.6 0.1
v -1.6 1.6 0
v -1.5 1.6 0
v 0 1.6 0

# faces
f 3/3/1 2/3/1 1/3/1
f 4/3/1 2/3/1 3/3/1
f 5/3/1 2/3/1 4/3/1
f 6/3/1 2/3/1 5/3/1
f 7/3/1 2/3/1 6/3/1
f 8/3/1 2/3/1 7/3/1
f 9/3/1 2/3/1 8/3/1
f 10/3/1 2/3/1 9/3/1
f 11/3/1 3/3/1 1/3/1
f 11/2/1 4/2/1 3/2/1
f 12/1/1 5/1/1 4/1/1
f 12/2/1 4/2/1 11/2/1
f 13/2/1 6/2/1 5/2/1
f 13/1/1 5/1/1 12/1/1
f 14/3/1 7/3/1 6/3/1
f 14/2/1 6/2/1 13/2/1
f 15/2/1 8/2/1 7/2/1
f 15/3/1 7/3/1 14/3/1
f 16/1/1 9/1/1 8/1/1
f 16/2/1 8/2/1 15/2/1
f 17/2/1 10/2/1 9/2/1
f 17/1/1 9/1/1 16/1/1
f 18/2/1 10/2/1 17/2/1
f 19/3/1 11/3/1 1/3/1
f 19/1/1 12/1/1 11/1/1
f 19/1/1 13/1/1 12/1/1
f 19/1/1 14/1/1 13/1/1
f 20/1/1 14/1/1 19/1/1
f 21/1/1 14/1/1 20/1/1
f 22/3/1 15/3/1 14/3/1
f 22/1/1 14/1/1 21/1/1
f 23/1/1 16/1/1 15/1/1
f 23/3/1 15/3/1 22/3/1
f 23/1/1 18/1/1 17/1/1
f 23/1/1 17/1/1 16/1/1
f 24/1/1 18/1/1 23/1/1
f 25/1/1 18/1/1 24/1/1
f 26/1/1 18/1/1 25/1/1
f 27/2/1 20/2/1 19/2/1
f 27/3/1 19/3/1 1/3/1
f 28/1/1 21/1/1 20/1/1
f 28/2/1 20/2/1 27/2/1
f 29/2/1 22/2/1 21/2/1
f 29/1/1 21/1/1 28/1/1
f 30/3/1 23/3/1 22/3/1
f 30/2/1 22/2/1 29/2/1
f 31/2/1 24/2/1 23/2/1
f 31/3/1 23/3/1 30/3/1
f 32/1/1 25/1/1 24/1/1
f 32/2/1 24/2/1 31/2/1
f 33/2/1 26/2/1 25/2/1
f 33/1/1 25/1/1 32/1/1
f 34/2/1 26/2/1 33/2/1
f 35/3/1 28/3/1 27/3/1
f 35/3/1 32/3/1 31/3/1
f 35/3/1 34/3/1 33/3/1
f 35/3/1 33/3/1 32/3/1
f 35/3/1 31/3/1 30/3/1
f 35/3/1 30/3/1 29/3/1
f 35/3/1 29/3/1 28/3/1
f 35/3/1 27/3/1 1/3/1
f 36/3/1 34/3/1 35/3/1
f 37/3/1 34/3/1 36/3/1
f 38/3/1 34/3/1 37/3/1
f 39/3/1 35/3/1 1/3/1
f 39/2/1 36/2/1 35/2/1
f 40/1/1 37/1/1 36/1/1
f 40/2/1 36/2/1 39/2/1
f 41/2/1 38/2/1 37/2/1
f 41/1/1 37/1/1 40/1/1
f 42/3/1 34/3/1 38/3/1
f 42/2/1 38/2/1 41/2/1
f 43/1/1 41/1/1 40/1/1
f 43/1/1 40/1/1 39/1/1
f 43/1/1 42/1/1 41/1/1
f 43/3/1 39/3/1 1/3/1
f 44/1/1 42/1/1 43/1/1
f 45/1/1 42/1/1 44/1/1
f 46/3/1 34/3/1 42/3/1
f 46/1/1 42/1/1 45/1/1
f 47/3/1 43/3/1 1/3/1
f 48/2/1 44/2/1 43/2/1
f 48/3/1 43/3/1 47/3/1
f 49/1/1 45/1/1 44/1/1
f 49/2/1 44/2/1 48/2/1
f 50/2/1 46/2/1 45/2/1
f 50/1/1 45/1/1 49/1/1
f 51/3/1 34/3/1 46/3/1
f 51/2/1 46/2/1 50/2/1
f 52/3/1 34/3/1 51/3/1
f 53/3/2 54/3/2 55/3/2
f 55/3/2 54/3/2 56/3/2
f 56/3/2 54/3/2 57/3/2
f 57/3/2 54/3/2 58/3/2
f 58/3/2 54/3/2 59/3/2
f 59/3/2 54/3/2 60/3/2
f 55/2/2 56/2/2 61/2/2
f 61/2/2 56/2/2 62/2/2
f 56/3/2 57/3/2 63/3/2
f 57/2/2 58/2/2 63/2/2
f 58/1/2 59/1/2 64/1/2
f 63/2/2 58/2/2 64/2/2
f 59/2/2 60/2/2 65/2/2
f 64/1/2 59/1/2 65/1/2
f 65/2/2 60/2/2 66/2/2
f 61/1/2 62/1/2 67/1/2
f 55/2/2 61/2/2 67/2/2
f 62/2/2 56/2/2 68/2/2
f 67/1/2 62/1/2 68/1/2
f 56/3/2 63/3/2 69/3/2
f 63/1/2 64/1/2 69/1/2
f 65/1/2 66/1/2 69/1/2
f 64/1/2 65/1/2 69/1/2
f 69/1/2 66/1/2 70/1/2
f 70/1/2 66/1/2 71/1/2
f 71/1/2 66/1/2 72/1/2
f 53/3/2 55/3/2 73/3/2
f 55/2/2 67/2/2 73/2/2
f 67/2/2 68/2/2 73/2/2
f 68/2/2 56/2/2 74/2/2
f 73/2/2 68/2/2 74/2/2
f 56/3/2 69/3/2 74/3/2
f 69/2/2 70/2/2 75/2/2
f 74/3/2 69/3/2 75/3/2
f 70/1/2 71/1/2 76/1/2
f 75/2/2 70/2/2 76/2/2
f 71/2/2 72/2/2 77/2/2
f 76/1/2 71/1/2 77/1/2
f 77/2/2 72/2/2 78/2/2
f 75/3/2 76/3/2 79/3/2
f 53/3/2 73/3/2 79/3/2
f 77/3/2 78/3/2 79/3/2
f 76/3/2 77/3/2 79/3/2
f 73/3/2 74/3/2 79/3/2
f 74/3/2 75/3/2 79/3/2
f 79/3/2 78/3/2 80/3/2
f 80/3/2 78/3/2 81/3/2
f 81/3/2 78/3/2 82/3/2
f 82/3/2 78/3/2 83/3/2
f 83/3/2 78/3/2 84/3/2
f 53/3/2 79/3/2 85/3/2
f 79/2/2 80/2/2 85/2/2
f 80/1/2 81/1/2 86/1/2
f 85/2/2 80/2/2 86/2/2
f 81/2/2 82/2/2 87/2/2
f 86/1/2 81/1/2 87/1/2
f 82/3/2 83/3/2 88/3/2
f 87/2/2 82/2/2 88/2/2
f 83/2/2 84/2/2 89/2/2
f 89/2/2 84/2/2 90/2/2
f 53/3/2 85/3/2 91/3/2
f 85/1/2 86/1/2 91/1/2
f 86/1/2 87/1/2 91/1/2
f 87/1/2 88/1/2 91/1/2
f 91/1/2 88/1/2 92/1/2
f 92/1/2 88/1/2 93/1/2
f 88/3/2 83/3/2 94/3/2
f 93/1/2 88/1/2 94/1/2
f 89/1/2 90/1/2 95/1/2
f 83/2/2 89/2/2 95/2/2
f 90/2/2 84/2/2 96/2/2
f 95/1/2 90/1/2 96/1/2
f 53/3/2 91/3/2 97/3/2
f 91/2/2 92/2/2 98/2/2
f 97/3/2 91/3/2 98/3/2
f 92/1/2 93/1/2 99/1/2
f 98/2/2 92/2/2 99/2/2
f 93/2/2 94/2/2 100/2/2
f 99/1/2 93/1/2 100/1/2
f 94/3/2 83/3/2 101/3/2
f 100/2/2 94/2/2 101/2/2
f 83/2/2 95/2/2 102/2/2
f 101/3/2 83/3/2 102/3/2
f 95/2/2 96/2/2 102/2/2
f 96/2/2 84/2/2 103/2/2
f 102/2/2 96/2/2 103/2/2
f 106/3/3 105/3/3 104/3/3
f 107/3/3 105/3/3 106/3/3
f 112/3/4 113/3/4 114/3/4
f 114/3/4 113/3/4 115/3/4
f 114/2/4 115/2/4 116/2/4
f 116/2/4 115/2/4 117/2/4
f 109/2/4 110/2/4 118/2/4
f 110/1/4 111/1/4 118/1/4
f 111/2/4 112/2/4 119/2/4
f 118/1/4 111/1/4 119/1/4
f 108/3/4 109/3/4 120/3/4
f 109/2/4 118/2/4 120/2/4
f 118/2/4 119/2/4 120/2/4
f 119/2/4 112/2/4 121/2/4
f 120/2/4 119/2/4 121/2/4
f 112/3/4 114/3/4 121/3/4
f 108/3/4 120/3/4 122/3/4
f 120/3/4 121/3/4 122/3/4
f 121/3/4 114/3/4 123/3/4
f 122/3/4 121/3/4 123/3/4
f 122/2/4 123/2/4 124/2/4
f 124/2/4 123/2/4 125/2/4
f 116/1/4 117/1/4 126/1/4
f 114/2/4 116/2/4 126/2/4
f 117/2/4 115/2/4 127/2/4
f 126/1/4 117/1/4 127/1/4
f 108/3/4 122/3/4 128/3/4
f 122/2/4 124/2/4 129/2/4
f 128/3/4 122/3/4 129/3/4
f 124/1/4 125/1/4 130/1/4
f 129/2/4 124/2/4 130/2/4
f 125/2/4 123/2/4 131/2/4
f 130/1/4 125/1/4 131/1/4
f 123/3/4 114/3/4 132/3/4
f 131/2/4 123/2/4 132/2/4
f 114/2/4 126/2/4 133/2/4
f 132/3/4 114/3/4 133/3/4
f 126/2/4 127/2/4 133/2/4
f 127/2/4 115/2/4 134/2/4
f 133/2/4 127/2/4 134/2/4
f 137/3/5 136/3/5 135/3/5
f 138/3/5 136/3/5 137/3/5
f 139/3/6 140/3/6 141/3/6
f 141/3/6 140/3/6 142/3/6
f 142/3/6 140/3/6 143/3/6
f 143/3/6 140/3/6 144/3/6
f 141/2/6 142/2/6 145/2/6
f 145/2/6 142/2/6 146/2/6
f 143/2/6 144/2/6 147/2/6
f 147/2/6 144/2/6 148/2/6
f 145/1/6 146/1/6 149/1/6
f 146/2/6 142/2/6 150/2/6
f 149/1/6 146/1/6 150/1/6
f 143/2/6 147/2/6 151/2/6
f 147/1/6 148/1/6 151/1/6
f 151/1/6 148/1/6 152/1/6
f 149/2/6 150/2/6 153/2/6
f 142/3/6 143/3/6 154/3/6
f 153/2/6 150/2/6 154/2/6
f 150/2/6 142/2/6 154/2/6
f 151/2/6 152/2/6 155/2/6
f 154/3/6 143/3/6 155/3/6
f 143/2/6 151/2/6 155/2/6
f 155/2/6 152/2/6 156/2/6
f 153/3/6 154/3/6 157/3/6
f 154/3/6 155/3/6 157/3/6
f 155/3/6 156/3/6 157/3/6
f 157/3/6 156/3/6 158/3/6
f 157/2/6 158/2/6 159/2/6
f 159/2/6 158/2/6 160/2/6
f 157/2/6 159/2/6 161/2/6
f 159/1/6 160/1/6 161/1/6
f 160/2/6 158/2/6 162/2/6
f 161/1/6 160/1/6 162/1/6
f 153/3/6 157/3/6 163/3/6
f 157/2/6 161/2/6 164/2/6
f 163/3/6 157/3/6 164/3/6
f 161/2/6 162/2/6 164/2/6
f 162/2/6 158/2/6 165/2/6
f 164/2/6 162/2/6 165/2/6
