# MagicaVoxel @ Ephtracy

# group
o 

# material
mtllib Die4.mtl
usemtl palette

# normals
vn -1 0 0
vn 1 0 0
vn 0 0 1
vn 0 0 -1
vn 0 -1 0
vn 0 1 0

# texcoords
vt 0.970703 0.5
vt 0.974609 0.5
vt 0.978516 0.5
vt 0.982422 0.5

# verts
v -0.1 0.9 0.9
v -0.1 0.9 0.8
v -0.1 1 0.9
v -0.1 1 0.8
v -0.1 1 0.3
v -0.1 1 0.2
v -0.1 1 -0.2
v -0.1 1 -0.3
v -0.1 1.1 0.3
v -0.1 1.1 0.2
v -0.1 1.1 -0.2
v -0.1 1.1 -0.3
v -0.1 1.2 0.6
v -0.1 1.2 0.1
v -0.1 1.2 0
v -0.1 1.2 -0.1
v -0.1 1.3 1
v -0.1 1.3 0.9
v -0.1 1.3 0.7
v -0.1 1.3 0.6
v -0.1 1.3 0.5
v -0.1 1.3 0.4
v -0.1 1.3 0.3
v -0.1 1.3 0.2
v -0.1 1.3 0.1
v -0.1 1.3 0
v -0.1 1.3 -0.1
v -0.1 1.4 1
v -0.1 1.4 0.9
v -0.1 1.4 0.8
v -0.1 1.4 0.7
v -0.1 1.4 0.6
v -0.1 1.4 0.5
v -0.1 1.4 0.4
v -0.1 1.4 0.3
v -0.1 1.4 0.2
v -0.1 1.4 0
v -0.1 1.4 -0.1
v -0.1 1.5 0.9
v -0.1 1.5 0.8
v -0.1 1.5 0.7
v -0.1 1.5 0.6
v -0.1 1.5 0.5
v -0.1 1.5 0.3
v -0.1 1.5 0.2
v -0.1 1.5 0.1
v -0.1 1.5 0
v -0.1 1.5 -0.1
v -0.1 1.6 0.5
v -0.1 1.6 0.2
v -0.1 1.6 0.1
v -0.1 1.6 0
v -0.1 1.6 -0.1
v -0.1 1.6 -0.2
v -0.1 1.7 0.9
v -0.1 1.7 0.7
v -0.1 1.7 0.6
v -0.1 1.7 0.5
v -0.1 1.7 0.2
v -0.1 1.7 0.1
v -0.1 1.7 0
v -0.1 1.7 -0.1
v -0.1 1.7 -0.2
v -0.1 1.8 0.7
v -0.1 1.8 0.6
v -0.1 1.8 0.1
v -0.1 1.8 0
v -0.1 1.8 -0.1
v -0.1 1.9 0.7
v -0.1 1.9 0.6
v -0.1 1.9 0.5
v -0.1 1.9 0.2
v -0.1 1.9 0.1
v -0.1 1.9 0
v -0.1 1.9 -0.1
v -0.1 1.9 -0.2
v -0.1 2 0.6
v -0.1 2 0.1
v -0.1 2 -0.1
v -0.1 2 -0.2
v -0.1 2.1 1
v -0.1 2.1 0.9
v -0.1 2.1 0.6
v -0.1 2.1 0.5
v -0.1 2.1 0.2
v -0.1 2.1 0.1
v -0.1 2.2 1
v -0.1 2.2 0.9
v -0.1 2.2 0.6
v -0.1 2.2 0.5
v -0.1 2.2 0.2
v -0.1 2.2 0.1
v -0.1 2.2 -0.2
v -0.1 2.2 -0.3
v -0.1 2.3 0.4
v -0.1 2.3 0.3
v -0.1 2.3 -0.2
v -0.1 2.3 -0.3
v -0.1 2.4 0.4
v -0.1 2.4 0.3
v 0 0.9 0.9
v 0 0.9 0.8
v 0 1 0.9
v 0 1 0.8
v 0 1 0.3
v 0 1 0.2
v 0 1 -0.2
v 0 1 -0.3
v 0 1.1 0.3
v 0 1.1 0.2
v 0 1.1 -0.2
v 0 1.1 -0.3
v 0 1.2 0.6
v 0 1.2 0.1
v 0 1.2 0
v 0 1.2 -0.1
v 0 1.3 1
v 0 1.3 0.9
v 0 1.3 0.7
v 0 1.3 0.6
v 0 1.3 0.5
v 0 1.3 0.4
v 0 1.3 0.3
v 0 1.3 0.2
v 0 1.3 0.1
v 0 1.3 0
v 0 1.3 -0.1
v 0 1.4 1
v 0 1.4 0.9
v 0 1.4 0.8
v 0 1.4 0.7
v 0 1.4 0.6
v 0 1.4 0.5
v 0 1.4 0.4
v 0 1.4 0.3
v 0 1.4 0.2
v 0 1.4 0
v 0 1.4 -0.1
v 0 1.5 0.9
v 0 1.5 0.8
v 0 1.5 0.7
v 0 1.5 0.6
v 0 1.5 0.5
v 0 1.5 0.3
v 0 1.5 0.2
v 0 1.5 0.1
v 0 1.5 0
v 0 1.5 -0.1
v 0 1.6 0.5
v 0 1.6 0.2
v 0 1.6 0.1
v 0 1.6 0
v 0 1.6 -0.1
v 0 1.6 -0.2
v 0 1.7 0.9
v 0 1.7 0.7
v 0 1.7 0.6
v 0 1.7 0.5
v 0 1.7 0.2
v 0 1.7 0.1
v 0 1.7 0
v 0 1.7 -0.1
v 0 1.7 -0.2
v 0 1.8 0.7
v 0 1.8 0.6
v 0 1.8 0.1
v 0 1.8 0
v 0 1.8 -0.1
v 0 1.9 0.7
v 0 1.9 0.6
v 0 1.9 0.5
v 0 1.9 0.2
v 0 1.9 0.1
v 0 1.9 0
v 0 1.9 -0.1
v 0 1.9 -0.2
v 0 2 0.6
v 0 2 0.1
v 0 2 -0.1
v 0 2 -0.2
v 0 2.1 1
v 0 2.1 0.9
v 0 2.1 0.6
v 0 2.1 0.5
v 0 2.1 0.2
v 0 2.1 0.1
v 0 2.2 1
v 0 2.2 0.9
v 0 2.2 0.6
v 0 2.2 0.5
v 0 2.2 0.2
v 0 2.2 0.1
v 0 2.2 -0.2
v 0 2.2 -0.3
v 0 2.3 0.4
v 0 2.3 0.3
v 0 2.3 -0.2
v 0 2.3 -0.3
v 0 2.4 0.4
v 0 2.4 0.3
v -0.1 1.3 1
v -0.1 1.4 1
v -0.1 2.1 1
v -0.1 2.2 1
v 0 1.3 1
v 0 1.4 1
v 0 2.1 1
v 0 2.2 1
v -0.1 0.9 0.9
v -0.1 1 0.9
v -0.1 1.5 0.9
v -0.1 1.7 0.9
v 0 0.9 0.9
v 0 1 0.9
v 0 1.5 0.9
v 0 1.7 0.9
v -0.1 1.4 0.8
v -0.1 1.5 0.8
v 0 1.4 0.8
v 0 1.5 0.8
v -0.1 1.3 0.7
v -0.1 1.4 0.7
v -0.1 1.8 0.7
v -0.1 1.9 0.7
v 0 1.3 0.7
v 0 1.4 0.7
v 0 1.8 0.7
v 0 1.9 0.7
v -0.1 1.2 0.6
v -0.1 1.3 0.6
v -0.1 1.7 0.6
v -0.1 1.8 0.6
v -0.1 1.9 0.6
v -0.1 2 0.6
v -0.1 2.1 0.6
v -0.1 2.2 0.6
v 0 1.2 0.6
v 0 1.3 0.6
v 0 1.7 0.6
v 0 1.8 0.6
v 0 1.9 0.6
v 0 2 0.6
v 0 2.1 0.6
v 0 2.2 0.6
v -0.1 2.3 0.4
v -0.1 2.4 0.4
v 0 2.3 0.4
v 0 2.4 0.4
v -0.1 1 0.3
v -0.1 1.1 0.3
v 0 1 0.3
v 0 1.1 0.3
v -0.1 2.1 0.2
v -0.1 2.2 0.2
v 0 2.1 0.2
v 0 2.2 0.2
v -0.1 1.2 0
v -0.1 1.3 0
v -0.1 1.7 0
v -0.1 1.8 0
v 0 1.2 0
v 0 1.3 0
v 0 1.7 0
v 0 1.8 0
v -0.1 1.9 -0.1
v -0.1 2 -0.1
v 0 1.9 -0.1
v 0 2 -0.1
v -0.1 1 -0.2
v -0.1 1.1 -0.2
v -0.1 2.2 -0.2
v -0.1 2.3 -0.2
v 0 1 -0.2
v 0 1.1 -0.2
v 0 2.2 -0.2
v 0 2.3 -0.2
v -0.1 1.3 0.9
v -0.1 1.4 0.9
v -0.1 2.1 0.9
v -0.1 2.2 0.9
v 0 1.3 0.9
v 0 1.4 0.9
v 0 2.1 0.9
v 0 2.2 0.9
v -0.1 0.9 0.8
v -0.1 1 0.8
v 0 0.9 0.8
v 0 1 0.8
v -0.1 2.1 0.5
v -0.1 2.2 0.5
v 0 2.1 0.5
v 0 2.2 0.5
v -0.1 2.3 0.3
v -0.1 2.4 0.3
v 0 2.3 0.3
v 0 2.4 0.3
v -0.1 1 0.2
v -0.1 1.1 0.2
v 0 1 0.2
v 0 1.1 0.2
v -0.1 1.2 0.1
v -0.1 1.3 0.1
v -0.1 1.7 0.1
v -0.1 1.8 0.1
v -0.1 1.9 0.1
v -0.1 2 0.1
v -0.1 2.1 0.1
v -0.1 2.2 0.1
v 0 1.2 0.1
v 0 1.3 0.1
v 0 1.7 0.1
v 0 1.8 0.1
v 0 1.9 0.1
v 0 2 0.1
v 0 2.1 0.1
v 0 2.2 0.1
v -0.1 1.3 0
v -0.1 1.4 0
v -0.1 1.8 0
v -0.1 1.9 0
v 0 1.3 0
v 0 1.4 0
v 0 1.8 0
v 0 1.9 0
v -0.1 1.2 -0.1
v -0.1 1.3 -0.1
v -0.1 1.4 -0.1
v -0.1 1.5 -0.1
v -0.1 1.6 -0.1
v -0.1 1.7 -0.1
v -0.1 1.8 -0.1
v 0 1.2 -0.1
v 0 1.3 -0.1
v 0 1.4 -0.1
v 0 1.5 -0.1
v 0 1.6 -0.1
v 0 1.7 -0.1
v 0 1.8 -0.1
v -0.1 1.6 -0.2
v -0.1 1.7 -0.2
v -0.1 1.9 -0.2
v -0.1 2 -0.2
v 0 1.6 -0.2
v 0 1.7 -0.2
v 0 1.9 -0.2
v 0 2 -0.2
v -0.1 1 -0.3
v -0.1 1.1 -0.3
v -0.1 2.2 -0.3
v -0.1 2.3 -0.3
v 0 1 -0.3
v 0 1.1 -0.3
v 0 2.2 -0.3
v 0 2.3 -0.3
v -0.1 0.9 0.9
v 0 0.9 0.9
v -0.1 0.9 0.8
v 0 0.9 0.8
v -0.1 1 0.3
v 0 1 0.3
v -0.1 1 0.2
v 0 1 0.2
v -0.1 1 -0.2
v 0 1 -0.2
v -0.1 1 -0.3
v 0 1 -0.3
v -0.1 1.2 0.6
v 0 1.2 0.6
v -0.1 1.2 0.1
v 0 1.2 0.1
v -0.1 1.2 0
v 0 1.2 0
v -0.1 1.2 -0.1
v 0 1.2 -0.1
v -0.1 1.3 1
v 0 1.3 1
v -0.1 1.3 0.9
v 0 1.3 0.9
v -0.1 1.3 0.7
v 0 1.3 0.7
v -0.1 1.3 0.6
v 0 1.3 0.6
v -0.1 1.3 0.1
v 0 1.3 0.1
v -0.1 1.3 0
v 0 1.3 0
v -0.1 1.4 0.8
v 0 1.4 0.8
v -0.1 1.4 0.7
v 0 1.4 0.7
v -0.1 1.4 0
v 0 1.4 0
v -0.1 1.4 -0.1
v 0 1.4 -0.1
v -0.1 1.5 0.9
v 0 1.5 0.9
v -0.1 1.5 0.8
v 0 1.5 0.8
v -0.1 1.6 -0.1
v 0 1.6 -0.1
v -0.1 1.6 -0.2
v 0 1.6 -0.2
v -0.1 1.8 0.7
v 0 1.8 0.7
v -0.1 1.8 0.6
v 0 1.8 0.6
v -0.1 1.8 0.1
v 0 1.8 0.1
v -0.1 1.8 0
v 0 1.8 0
v -0.1 1.9 -0.1
v 0 1.9 -0.1
v -0.1 1.9 -0.2
v 0 1.9 -0.2
v -0.1 2.1 1
v 0 2.1 1
v -0.1 2.1 0.9
v 0 2.1 0.9
v -0.1 2.1 0.6
v 0 2.1 0.6
v -0.1 2.1 0.5
v 0 2.1 0.5
v -0.1 2.1 0.2
v 0 2.1 0.2
v -0.1 2.1 0.1
v 0 2.1 0.1
v -0.1 2.2 -0.2
v 0 2.2 -0.2
v -0.1 2.2 -0.3
v 0 2.2 -0.3
v -0.1 2.3 0.4
v 0 2.3 0.4
v -0.1 2.3 0.3
v 0 2.3 0.3
v -0.1 1 0.9
v 0 1 0.9
v -0.1 1 0.8
v 0 1 0.8
v -0.1 1.1 0.3
v 0 1.1 0.3
v -0.1 1.1 0.2
v 0 1.1 0.2
v -0.1 1.1 -0.2
v 0 1.1 -0.2
v -0.1 1.1 -0.3
v 0 1.1 -0.3
v -0.1 1.3 0
v 0 1.3 0
v -0.1 1.3 -0.1
v 0 1.3 -0.1
v -0.1 1.4 1
v 0 1.4 1
v -0.1 1.4 0.9
v 0 1.4 0.9
v -0.1 1.7 0.9
v 0 1.7 0.9
v -0.1 1.7 0.7
v 0 1.7 0.7
v -0.1 1.7 0.6
v 0 1.7 0.6
v -0.1 1.7 0.1
v 0 1.7 0.1
v -0.1 1.7 0
v 0 1.7 0
v -0.1 1.7 -0.1
v 0 1.7 -0.1
v -0.1 1.7 -0.2
v 0 1.7 -0.2
v -0.1 1.8 0
v 0 1.8 0
v -0.1 1.8 -0.1
v 0 1.8 -0.1
v -0.1 1.9 0.7
v 0 1.9 0.7
v -0.1 1.9 0.6
v 0 1.9 0.6
v -0.1 1.9 0.1
v 0 1.9 0.1
v -0.1 1.9 0
v 0 1.9 0
v -0.1 2 0.6
v 0 2 0.6
v -0.1 2 0.1
v 0 2 0.1
v -0.1 2 -0.1
v 0 2 -0.1
v -0.1 2 -0.2
v 0 2 -0.2
v -0.1 2.2 1
v 0 2.2 1
v -0.1 2.2 0.9
v 0 2.2 0.9
v -0.1 2.2 0.6
v 0 2.2 0.6
v -0.1 2.2 0.5
v 0 2.2 0.5
v -0.1 2.2 0.2
v 0 2.2 0.2
v -0.1 2.2 0.1
v 0 2.2 0.1
v -0.1 2.3 -0.2
v 0 2.3 -0.2
v -0.1 2.3 -0.3
v 0 2.3 -0.3
v -0.1 2.4 0.4
v 0 2.4 0.4
v -0.1 2.4 0.3
v 0 2.4 0.3

# faces
f 3/3/1 2/3/1 1/3/1
f 4/3/1 2/3/1 3/3/1
f 9/3/1 6/3/1 5/3/1
f 10/3/1 6/3/1 9/3/1
f 11/1/1 8/1/1 7/1/1
f 12/1/1 8/1/1 11/1/1
f 20/2/1 14/2/1 13/2/1
f 21/2/1 14/2/1 20/2/1
f 22/2/1 14/2/1 21/2/1
f 23/2/1 14/2/1 22/2/1
f 24/2/1 14/2/1 23/2/1
f 25/2/1 14/2/1 24/2/1
f 26/3/1 16/3/1 15/3/1
f 27/3/1 16/3/1 26/3/1
f 28/3/1 18/3/1 17/3/1
f 29/3/1 18/3/1 28/3/1
f 31/2/1 20/2/1 19/2/1
f 31/2/1 21/2/1 20/2/1
f 32/2/1 21/2/1 31/2/1
f 33/3/1 22/3/1 21/3/1
f 33/2/1 21/2/1 32/2/1
f 34/2/1 23/2/1 22/2/1
f 34/3/1 22/3/1 33/3/1
f 35/3/1 24/3/1 23/3/1
f 35/2/1 23/2/1 34/2/1
f 36/2/1 25/2/1 24/2/1
f 36/3/1 24/3/1 35/3/1
f 36/2/1 26/2/1 25/2/1
f 37/2/1 26/2/1 36/2/1
f 40/1/1 32/1/1 31/1/1
f 40/1/1 31/1/1 30/1/1
f 41/1/1 32/1/1 40/1/1
f 42/2/1 33/2/1 32/2/1
f 42/1/1 32/1/1 41/1/1
f 43/1/1 35/1/1 34/1/1
f 43/2/1 33/2/1 42/2/1
f 43/1/1 34/1/1 33/1/1
f 44/2/1 36/2/1 35/2/1
f 44/1/1 35/1/1 43/1/1
f 45/1/1 37/1/1 36/1/1
f 45/2/1 36/2/1 44/2/1
f 46/1/1 37/1/1 45/1/1
f 47/2/1 38/2/1 37/2/1
f 47/1/1 37/1/1 46/1/1
f 48/2/1 38/2/1 47/2/1
f 49/1/1 44/1/1 43/1/1
f 49/1/1 43/1/1 42/1/1
f 49/1/1 45/1/1 44/1/1
f 50/2/1 46/2/1 45/2/1
f 50/1/1 45/1/1 49/1/1
f 51/1/1 48/1/1 47/1/1
f 51/2/1 46/2/1 50/2/1
f 51/1/1 47/1/1 46/1/1
f 52/1/1 48/1/1 51/1/1
f 53/1/1 48/1/1 52/1/1
f 55/1/1 41/1/1 40/1/1
f 55/1/1 40/1/1 39/1/1
f 56/2/1 42/2/1 41/2/1
f 56/1/1 41/1/1 55/1/1
f 57/1/1 49/1/1 42/1/1
f 57/2/1 42/2/1 56/2/1
f 58/3/1 50/3/1 49/3/1
f 58/1/1 49/1/1 57/1/1
f 59/1/1 51/1/1 50/1/1
f 59/3/1 50/3/1 58/3/1
f 60/2/1 52/2/1 51/2/1
f 60/1/1 51/1/1 59/1/1
f 61/1/1 53/1/1 52/1/1
f 61/2/1 52/2/1 60/2/1
f 61/1/1 54/1/1 53/1/1
f 62/1/1 54/1/1 61/1/1
f 63/1/1 54/1/1 62/1/1
f 65/3/1 58/3/1 57/3/1
f 66/3/1 60/3/1 59/3/1
f 67/1/1 62/1/1 61/1/1
f 68/1/1 62/1/1 67/1/1
f 69/3/1 65/3/1 64/3/1
f 70/3/1 58/3/1 65/3/1
f 70/3/1 65/3/1 69/3/1
f 71/4/1 59/4/1 58/4/1
f 71/3/1 58/3/1 70/3/1
f 72/3/1 66/3/1 59/3/1
f 72/4/1 59/4/1 71/4/1
f 72/3/1 67/3/1 66/3/1
f 73/3/1 67/3/1 72/3/1
f 74/3/1 67/3/1 73/3/1
f 77/3/1 73/3/1 72/3/1
f 77/3/1 72/3/1 71/3/1
f 77/3/1 71/3/1 70/3/1
f 78/3/1 73/3/1 77/3/1
f 79/1/1 76/1/1 75/1/1
f 80/1/1 76/1/1 79/1/1
f 87/3/1 82/3/1 81/3/1
f 88/3/1 82/3/1 87/3/1
f 89/1/1 84/1/1 83/1/1
f 90/1/1 84/1/1 89/1/1
f 91/3/1 86/3/1 85/3/1
f 92/3/1 86/3/1 91/3/1
f 97/2/1 94/2/1 93/2/1
f 98/2/1 94/2/1 97/2/1
f 99/2/1 96/2/1 95/2/1
f 100/2/1 96/2/1 99/2/1
f 101/3/2 102/3/2 103/3/2
f 103/3/2 102/3/2 104/3/2
f 105/3/2 106/3/2 109/3/2
f 109/3/2 106/3/2 110/3/2
f 107/1/2 108/1/2 111/1/2
f 111/1/2 108/1/2 112/1/2
f 113/2/2 114/2/2 120/2/2
f 120/2/2 114/2/2 121/2/2
f 121/2/2 114/2/2 122/2/2
f 122/2/2 114/2/2 123/2/2
f 123/2/2 114/2/2 124/2/2
f 124/2/2 114/2/2 125/2/2
f 115/3/2 116/3/2 126/3/2
f 126/3/2 116/3/2 127/3/2
f 117/3/2 118/3/2 128/3/2
f 128/3/2 118/3/2 129/3/2
f 119/2/2 120/2/2 131/2/2
f 120/2/2 121/2/2 131/2/2
f 131/2/2 121/2/2 132/2/2
f 121/3/2 122/3/2 133/3/2
f 132/2/2 121/2/2 133/2/2
f 122/2/2 123/2/2 134/2/2
f 133/3/2 122/3/2 134/3/2
f 123/3/2 124/3/2 135/3/2
f 134/2/2 123/2/2 135/2/2
f 124/2/2 125/2/2 136/2/2
f 135/3/2 124/3/2 136/3/2
f 125/2/2 126/2/2 136/2/2
f 136/2/2 126/2/2 137/2/2
f 131/1/2 132/1/2 140/1/2
f 130/1/2 131/1/2 140/1/2
f 140/1/2 132/1/2 141/1/2
f 132/2/2 133/2/2 142/2/2
f 141/1/2 132/1/2 142/1/2
f 134/1/2 135/1/2 143/1/2
f 142/2/2 133/2/2 143/2/2
f 133/1/2 134/1/2 143/1/2
f 135/2/2 136/2/2 144/2/2
f 143/1/2 135/1/2 144/1/2
f 136/1/2 137/1/2 145/1/2
f 144/2/2 136/2/2 145/2/2
f 145/1/2 137/1/2 146/1/2
f 137/2/2 138/2/2 147/2/2
f 146/1/2 137/1/2 147/1/2
f 147/2/2 138/2/2 148/2/2
f 143/1/2 144/1/2 149/1/2
f 142/1/2 143/1/2 149/1/2
f 144/1/2 145/1/2 149/1/2
f 145/2/2 146/2/2 150/2/2
f 149/1/2 145/1/2 150/1/2
f 147/1/2 148/1/2 151/1/2
f 150/2/2 146/2/2 151/2/2
f 146/1/2 147/1/2 151/1/2
f 151/1/2 148/1/2 152/1/2
f 152/1/2 148/1/2 153/1/2
f 140/1/2 141/1/2 155/1/2
f 139/1/2 140/1/2 155/1/2
f 141/2/2 142/2/2 156/2/2
f 155/1/2 141/1/2 156/1/2
f 142/1/2 149/1/2 157/1/2
f 156/2/2 142/2/2 157/2/2
f 149/3/2 150/3/2 158/3/2
f 157/1/2 149/1/2 158/1/2
f 150/1/2 151/1/2 159/1/2
f 158/3/2 150/3/2 159/3/2
f 151/2/2 152/2/2 160/2/2
f 159/1/2 151/1/2 160/1/2
f 152/1/2 153/1/2 161/1/2
f 160/2/2 152/2/2 161/2/2
f 153/1/2 154/1/2 161/1/2
f 161/1/2 154/1/2 162/1/2
f 162/1/2 154/1/2 163/1/2
f 157/3/2 158/3/2 165/3/2
f 159/3/2 160/3/2 166/3/2
f 161/1/2 162/1/2 167/1/2
f 167/1/2 162/1/2 168/1/2
f 164/3/2 165/3/2 169/3/2
f 165/3/2 158/3/2 170/3/2
f 169/3/2 165/3/2 170/3/2
f 158/4/2 159/4/2 171/4/2
f 170/3/2 158/3/2 171/3/2
f 159/3/2 166/3/2 172/3/2
f 171/4/2 159/4/2 172/4/2
f 166/3/2 167/3/2 172/3/2
f 172/3/2 167/3/2 173/3/2
f 173/3/2 167/3/2 174/3/2
f 172/3/2 173/3/2 177/3/2
f 171/3/2 172/3/2 177/3/2
f 170/3/2 171/3/2 177/3/2
f 177/3/2 173/3/2 178/3/2
f 175/1/2 176/1/2 179/1/2
f 179/1/2 176/1/2 180/1/2
f 181/3/2 182/3/2 187/3/2
f 187/3/2 182/3/2 188/3/2
f 183/1/2 184/1/2 189/1/2
f 189/1/2 184/1/2 190/1/2
f 185/3/2 186/3/2 191/3/2
f 191/3/2 186/3/2 192/3/2
f 193/2/2 194/2/2 197/2/2
f 197/2/2 194/2/2 198/2/2
f 195/2/2 196/2/2 199/2/2
f 199/2/2 196/2/2 200/2/2
f 205/3/3 202/3/3 201/3/3
f 206/3/3 202/3/3 205/3/3
f 207/3/3 204/3/3 203/3/3
f 208/3/3 204/3/3 207/3/3
f 213/3/3 210/3/3 209/3/3
f 214/3/3 210/3/3 213/3/3
f 215/1/3 212/1/3 211/1/3
f 216/1/3 212/1/3 215/1/3
f 219/1/3 218/1/3 217/1/3
f 220/1/3 218/1/3 219/1/3
f 225/2/3 222/2/3 221/2/3
f 226/2/3 222/2/3 225/2/3
f 227/3/3 224/3/3 223/3/3
f 228/3/3 224/3/3 227/3/3
f 237/2/3 230/2/3 229/2/3
f 238/2/3 230/2/3 237/2/3
f 239/3/3 232/3/3 231/3/3
f 240/3/3 232/3/3 239/3/3
f 241/3/3 234/3/3 233/3/3
f 242/3/3 234/3/3 241/3/3
f 243/1/3 236/1/3 235/1/3
f 244/1/3 236/1/3 243/1/3
f 247/2/3 246/2/3 245/2/3
f 248/2/3 246/2/3 247/2/3
f 251/3/3 250/3/3 249/3/3
f 252/3/3 250/3/3 251/3/3
f 255/3/3 254/3/3 253/3/3
f 256/3/3 254/3/3 255/3/3
f 261/3/3 258/3/3 257/3/3
f 262/3/3 258/3/3 261/3/3
f 263/1/3 260/1/3 259/1/3
f 264/1/3 260/1/3 263/1/3
f 267/1/3 266/1/3 265/1/3
f 268/1/3 266/1/3 267/1/3
f 273/1/3 270/1/3 269/1/3
f 274/1/3 270/1/3 273/1/3
f 275/2/3 272/2/3 271/2/3
f 276/2/3 272/2/3 275/2/3
f 277/3/4 278/3/4 281/3/4
f 281/3/4 278/3/4 282/3/4
f 279/3/4 280/3/4 283/3/4
f 283/3/4 280/3/4 284/3/4
f 285/3/4 286/3/4 287/3/4
f 287/3/4 286/3/4 288/3/4
f 289/1/4 290/1/4 291/1/4
f 291/1/4 290/1/4 292/1/4
f 293/2/4 294/2/4 295/2/4
f 295/2/4 294/2/4 296/2/4
f 297/3/4 298/3/4 299/3/4
f 299/3/4 298/3/4 300/3/4
f 301/2/4 302/2/4 309/2/4
f 309/2/4 302/2/4 310/2/4
f 303/3/4 304/3/4 311/3/4
f 311/3/4 304/3/4 312/3/4
f 305/3/4 306/3/4 313/3/4
f 313/3/4 306/3/4 314/3/4
f 307/3/4 308/3/4 315/3/4
f 315/3/4 308/3/4 316/3/4
f 317/2/4 318/2/4 321/2/4
f 321/2/4 318/2/4 322/2/4
f 319/3/4 320/3/4 323/3/4
f 323/3/4 320/3/4 324/3/4
f 325/3/4 326/3/4 332/3/4
f 332/3/4 326/3/4 333/3/4
f 327/2/4 328/2/4 334/2/4
f 328/1/4 329/1/4 335/1/4
f 334/2/4 328/2/4 335/2/4
f 335/1/4 329/1/4 336/1/4
f 330/1/4 331/1/4 337/1/4
f 337/1/4 331/1/4 338/1/4
f 339/1/4 340/1/4 343/1/4
f 343/1/4 340/1/4 344/1/4
f 341/1/4 342/1/4 345/1/4
f 345/1/4 342/1/4 346/1/4
f 347/1/4 348/1/4 351/1/4
f 351/1/4 348/1/4 352/1/4
f 349/2/4 350/2/4 353/2/4
f 353/2/4 350/2/4 354/2/4
f 357/3/5 356/3/5 355/3/5
f 358/3/5 356/3/5 357/3/5
f 361/3/5 360/3/5 359/3/5
f 362/3/5 360/3/5 361/3/5
f 365/1/5 364/1/5 363/1/5
f 366/1/5 364/1/5 365/1/5
f 369/2/5 368/2/5 367/2/5
f 370/2/5 368/2/5 369/2/5
f 373/3/5 372/3/5 371/3/5
f 374/3/5 372/3/5 373/3/5
f 377/3/5 376/3/5 375/3/5
f 378/3/5 376/3/5 377/3/5
f 381/2/5 380/2/5 379/2/5
f 382/2/5 380/2/5 381/2/5
f 385/2/5 384/2/5 383/2/5
f 386/2/5 384/2/5 385/2/5
f 389/1/5 388/1/5 387/1/5
f 390/1/5 388/1/5 389/1/5
f 393/2/5 392/2/5 391/2/5
f 394/2/5 392/2/5 393/2/5
f 397/1/5 396/1/5 395/1/5
f 398/1/5 396/1/5 397/1/5
f 401/1/5 400/1/5 399/1/5
f 402/1/5 400/1/5 401/1/5
f 405/3/5 404/3/5 403/3/5
f 406/3/5 404/3/5 405/3/5
f 409/3/5 408/3/5 407/3/5
f 410/3/5 408/3/5 409/3/5
f 413/1/5 412/1/5 411/1/5
f 414/1/5 412/1/5 413/1/5
f 417/3/5 416/3/5 415/3/5
f 418/3/5 416/3/5 417/3/5
f 421/1/5 420/1/5 419/1/5
f 422/1/5 420/1/5 421/1/5
f 425/3/5 424/3/5 423/3/5
f 426/3/5 424/3/5 425/3/5
f 429/2/5 428/2/5 427/2/5
f 430/2/5 428/2/5 429/2/5
f 433/2/5 432/2/5 431/2/5
f 434/2/5 432/2/5 433/2/5
f 435/3/6 436/3/6 437/3/6
f 437/3/6 436/3/6 438/3/6
f 439/3/6 440/3/6 441/3/6
f 441/3/6 440/3/6 442/3/6
f 443/1/6 444/1/6 445/1/6
f 445/1/6 444/1/6 446/1/6
f 447/3/6 448/3/6 449/3/6
f 449/3/6 448/3/6 450/3/6
f 451/3/6 452/3/6 453/3/6
f 453/3/6 452/3/6 454/3/6
f 455/1/6 456/1/6 457/1/6
f 457/1/6 456/1/6 458/1/6
f 457/2/6 458/2/6 459/2/6
f 459/2/6 458/2/6 460/2/6
f 461/2/6 462/2/6 463/2/6
f 463/2/6 462/2/6 464/2/6
f 465/1/6 466/1/6 467/1/6
f 467/1/6 466/1/6 468/1/6
f 469/1/6 470/1/6 471/1/6
f 471/1/6 470/1/6 472/1/6
f 473/3/6 474/3/6 475/3/6
f 475/3/6 474/3/6 476/3/6
f 477/3/6 478/3/6 479/3/6
f 479/3/6 478/3/6 480/3/6
f 481/3/6 482/3/6 483/3/6
f 483/3/6 482/3/6 484/3/6
f 485/1/6 486/1/6 487/1/6
f 487/1/6 486/1/6 488/1/6
f 489/3/6 490/3/6 491/3/6
f 491/3/6 490/3/6 492/3/6
f 493/1/6 494/1/6 495/1/6
f 495/1/6 494/1/6 496/1/6
f 497/3/6 498/3/6 499/3/6
f 499/3/6 498/3/6 500/3/6
f 501/2/6 502/2/6 503/2/6
f 503/2/6 502/2/6 504/2/6
f 505/2/6 506/2/6 507/2/6
f 507/2/6 506/2/6 508/2/6
