# MagicaVoxel @ Ephtracy

# group
o 

# material
mtllib Die5.mtl
usemtl palette

# normals
vn -1 0 0
vn 1 0 0
vn 0 0 1
vn 0 0 -1
vn 0 -1 0
vn 0 1 0

# texcoords
vt 0.970703 0.5
vt 0.974609 0.5
vt 0.978516 0.5

# verts
v -0.1 1.1 0.2
v -0.1 1.1 0.1
v -0.1 1.2 0.9
v -0.1 1.2 0.8
v -0.1 1.2 0.2
v -0.1 1.2 0.1
v -0.1 1.3 0.9
v -0.1 1.3 0.8
v -0.1 1.3 0.6
v -0.1 1.3 0.5
v -0.1 1.3 0.4
v -0.1 1.3 0.3
v -0.1 1.3 0.2
v -0.1 1.3 0
v -0.1 1.3 -0.1
v -0.1 1.4 1.1
v -0.1 1.4 1
v -0.1 1.4 0.7
v -0.1 1.4 0.6
v -0.1 1.4 0.5
v -0.1 1.4 0.4
v -0.1 1.4 0.3
v -0.1 1.4 0.2
v -0.1 1.4 0.1
v -0.1 1.4 0
v -0.1 1.4 -0.1
v -0.1 1.5 1.1
v -0.1 1.5 1
v -0.1 1.5 0.7
v -0.1 1.5 0.6
v -0.1 1.5 0.5
v -0.1 1.5 0.3
v -0.1 1.5 0.2
v -0.1 1.5 0.1
v -0.1 1.6 0.5
v -0.1 1.6 0.2
v -0.1 1.6 0.1
v -0.1 1.7 0.7
v -0.1 1.7 0.6
v -0.1 1.7 0.5
v -0.1 1.7 0.2
v -0.1 1.7 0.1
v -0.1 1.8 0.9
v -0.1 1.8 0.8
v -0.1 1.8 0.6
v -0.1 1.8 0.2
v -0.1 1.8 -0.1
v -0.1 1.8 -0.2
v -0.1 1.9 0.9
v -0.1 1.9 0.8
v -0.1 1.9 -0.1
v -0.1 1.9 -0.2
v -0.1 2 0.6
v -0.1 2 0.5
v -0.1 2 0.1
v -0.1 2 0
v -0.1 2.1 1.1
v -0.1 2.1 1
v -0.1 2.1 0.6
v -0.1 2.1 0.5
v -0.1 2.1 0.1
v -0.1 2.1 0
v -0.1 2.2 1.1
v -0.1 2.2 1
v -0.1 2.2 0.4
v -0.1 2.2 0.3
v -0.1 2.3 0.4
v -0.1 2.3 0.3
v 0 1.1 0.2
v 0 1.1 0.1
v 0 1.2 0.9
v 0 1.2 0.8
v 0 1.2 0.2
v 0 1.2 0.1
v 0 1.3 0.9
v 0 1.3 0.8
v 0 1.3 0.6
v 0 1.3 0.5
v 0 1.3 0.4
v 0 1.3 0.3
v 0 1.3 0.2
v 0 1.3 0
v 0 1.3 -0.1
v 0 1.4 1.1
v 0 1.4 1
v 0 1.4 0.7
v 0 1.4 0.6
v 0 1.4 0.5
v 0 1.4 0.4
v 0 1.4 0.3
v 0 1.4 0.2
v 0 1.4 0.1
v 0 1.4 0
v 0 1.4 -0.1
v 0 1.5 1.1
v 0 1.5 1
v 0 1.5 0.7
v 0 1.5 0.6
v 0 1.5 0.5
v 0 1.5 0.3
v 0 1.5 0.2
v 0 1.5 0.1
v 0 1.6 0.5
v 0 1.6 0.2
v 0 1.6 0.1
v 0 1.7 0.7
v 0 1.7 0.6
v 0 1.7 0.5
v 0 1.7 0.2
v 0 1.7 0.1
v 0 1.8 0.9
v 0 1.8 0.8
v 0 1.8 0.6
v 0 1.8 0.2
v 0 1.8 -0.1
v 0 1.8 -0.2
v 0 1.9 0.9
v 0 1.9 0.8
v 0 1.9 -0.1
v 0 1.9 -0.2
v 0 2 0.6
v 0 2 0.5
v 0 2 0.1
v 0 2 0
v 0 2.1 1.1
v 0 2.1 1
v 0 2.1 0.6
v 0 2.1 0.5
v 0 2.1 0.1
v 0 2.1 0
v 0 2.2 1.1
v 0 2.2 1
v 0 2.2 0.4
v 0 2.2 0.3
v 0 2.3 0.4
v 0 2.3 0.3
v -0.1 1.4 1.1
v -0.1 1.5 1.1
v -0.1 2.1 1.1
v -0.1 2.2 1.1
v 0 1.4 1.1
v 0 1.5 1.1
v 0 2.1 1.1
v 0 2.2 1.1
v -0.1 1.2 0.9
v -0.1 1.3 0.9
v -0.1 1.8 0.9
v -0.1 1.9 0.9
v 0 1.2 0.9
v 0 1.3 0.9
v 0 1.8 0.9
v 0 1.9 0.9
v -0.1 1.4 0.7
v -0.1 1.5 0.7
v -0.1 1.7 0.7
v 0 1.4 0.7
v 0 1.5 0.7
v 0 1.7 0.7
v -0.1 1.3 0.6
v -0.1 1.4 0.6
v -0.1 1.7 0.6
v -0.1 1.8 0.6
v -0.1 2 0.6
v -0.1 2.1 0.6
v 0 1.3 0.6
v 0 1.4 0.6
v 0 1.7 0.6
v 0 1.8 0.6
v 0 2 0.6
v 0 2.1 0.6
v -0.1 2.2 0.4
v -0.1 2.3 0.4
v 0 2.2 0.4
v 0 2.3 0.4
v -0.1 1.1 0.2
v -0.1 1.2 0.2
v 0 1.1 0.2
v 0 1.2 0.2
v -0.1 2 0.1
v -0.1 2.1 0.1
v 0 2 0.1
v 0 2.1 0.1
v -0.1 1.3 0
v -0.1 1.4 0
v 0 1.3 0
v 0 1.4 0
v -0.1 1.8 -0.1
v -0.1 1.9 -0.1
v 0 1.8 -0.1
v 0 1.9 -0.1
v -0.1 1.4 1
v -0.1 1.5 1
v -0.1 2.1 1
v -0.1 2.2 1
v 0 1.4 1
v 0 1.5 1
v 0 2.1 1
v 0 2.2 1
v -0.1 1.2 0.8
v -0.1 1.3 0.8
v -0.1 1.8 0.8
v -0.1 1.9 0.8
v 0 1.2 0.8
v 0 1.3 0.8
v 0 1.8 0.8
v 0 1.9 0.8
v -0.1 2 0.5
v -0.1 2.1 0.5
v 0 2 0.5
v 0 2.1 0.5
v -0.1 2.2 0.3
v -0.1 2.3 0.3
v 0 2.2 0.3
v 0 2.3 0.3
v -0.1 1.3 0.2
v -0.1 1.4 0.2
v -0.1 1.7 0.2
v -0.1 1.8 0.2
v 0 1.3 0.2
v 0 1.4 0.2
v 0 1.7 0.2
v 0 1.8 0.2
v -0.1 1.1 0.1
v -0.1 1.2 0.1
v -0.1 1.4 0.1
v -0.1 1.5 0.1
v -0.1 1.6 0.1
v -0.1 1.7 0.1
v 0 1.1 0.1
v 0 1.2 0.1
v 0 1.4 0.1
v 0 1.5 0.1
v 0 1.6 0.1
v 0 1.7 0.1
v -0.1 2 0
v -0.1 2.1 0
v 0 2 0
v 0 2.1 0
v -0.1 1.3 -0.1
v -0.1 1.4 -0.1
v 0 1.3 -0.1
v 0 1.4 -0.1
v -0.1 1.8 -0.2
v -0.1 1.9 -0.2
v 0 1.8 -0.2
v 0 1.9 -0.2
v -0.1 1.1 0.2
v 0 1.1 0.2
v -0.1 1.1 0.1
v 0 1.1 0.1
v -0.1 1.2 0.9
v 0 1.2 0.9
v -0.1 1.2 0.8
v 0 1.2 0.8
v -0.1 1.3 0.6
v 0 1.3 0.6
v -0.1 1.3 0.5
v 0 1.3 0.5
v -0.1 1.3 0.4
v 0 1.3 0.4
v -0.1 1.3 0.3
v 0 1.3 0.3
v -0.1 1.3 0.2
v 0 1.3 0.2
v -0.1 1.3 0
v 0 1.3 0
v -0.1 1.3 -0.1
v 0 1.3 -0.1
v -0.1 1.4 1.1
v 0 1.4 1.1
v -0.1 1.4 1
v 0 1.4 1
v -0.1 1.4 0.7
v 0 1.4 0.7
v -0.1 1.4 0.6
v 0 1.4 0.6
v -0.1 1.4 0.2
v 0 1.4 0.2
v -0.1 1.4 0.1
v 0 1.4 0.1
v -0.1 1.8 0.9
v 0 1.8 0.9
v -0.1 1.8 0.8
v 0 1.8 0.8
v -0.1 1.8 -0.1
v 0 1.8 -0.1
v -0.1 1.8 -0.2
v 0 1.8 -0.2
v -0.1 2 0.6
v 0 2 0.6
v -0.1 2 0.5
v 0 2 0.5
v -0.1 2 0.1
v 0 2 0.1
v -0.1 2 0
v 0 2 0
v -0.1 2.1 1.1
v 0 2.1 1.1
v -0.1 2.1 1
v 0 2.1 1
v -0.1 2.2 0.4
v 0 2.2 0.4
v -0.1 2.2 0.3
v 0 2.2 0.3
v -0.1 1.2 0.2
v 0 1.2 0.2
v -0.1 1.2 0.1
v 0 1.2 0.1
v -0.1 1.3 0.9
v 0 1.3 0.9
v -0.1 1.3 0.8
v 0 1.3 0.8
v -0.1 1.4 0
v 0 1.4 0
v -0.1 1.4 -0.1
v 0 1.4 -0.1
v -0.1 1.5 1.1
v 0 1.5 1.1
v -0.1 1.5 1
v 0 1.5 1
v -0.1 1.7 0.7
v 0 1.7 0.7
v -0.1 1.7 0.6
v 0 1.7 0.6
v -0.1 1.7 0.2
v 0 1.7 0.2
v -0.1 1.7 0.1
v 0 1.7 0.1
v -0.1 1.8 0.6
v 0 1.8 0.6
v -0.1 1.8 0.2
v 0 1.8 0.2
v -0.1 1.9 0.9
v 0 1.9 0.9
v -0.1 1.9 0.8
v 0 1.9 0.8
v -0.1 1.9 -0.1
v 0 1.9 -0.1
v -0.1 1.9 -0.2
v 0 1.9 -0.2
v -0.1 2.1 0.6
v 0 2.1 0.6
v -0.1 2.1 0.5
v 0 2.1 0.5
v -0.1 2.1 0.1
v 0 2.1 0.1
v -0.1 2.1 0
v 0 2.1 0
v -0.1 2.2 1.1
v 0 2.2 1.1
v -0.1 2.2 1
v 0 2.2 1
v -0.1 2.3 0.4
v 0 2.3 0.4
v -0.1 2.3 0.3
v 0 2.3 0.3

# faces
f 5/1/1 2/1/1 1/1/1
f 6/1/1 2/1/1 5/1/1
f 7/1/1 4/1/1 3/1/1
f 8/1/1 4/1/1 7/1/1
f 19/2/1 10/2/1 9/2/1
f 20/3/1 11/3/1 10/3/1
f 20/2/1 10/2/1 19/2/1
f 21/2/1 12/2/1 11/2/1
f 21/3/1 11/3/1 20/3/1
f 22/3/1 13/3/1 12/3/1
f 22/2/1 12/2/1 21/2/1
f 23/3/1 13/3/1 22/3/1
f 25/2/1 15/2/1 14/2/1
f 26/2/1 15/2/1 25/2/1
f 27/2/1 17/2/1 16/2/1
f 28/2/1 17/2/1 27/2/1
f 29/1/1 19/1/1 18/1/1
f 30/2/1 20/2/1 19/2/1
f 30/1/1 19/1/1 29/1/1
f 31/1/1 21/1/1 20/1/1
f 31/2/1 20/2/1 30/2/1
f 31/1/1 22/1/1 21/1/1
f 32/2/1 23/2/1 22/2/1
f 32/1/1 22/1/1 31/1/1
f 33/1/1 24/1/1 23/1/1
f 33/2/1 23/2/1 32/2/1
f 34/1/1 24/1/1 33/1/1
f 35/1/1 32/1/1 31/1/1
f 35/1/1 31/1/1 30/1/1
f 35/1/1 33/1/1 32/1/1
f 36/2/1 34/2/1 33/2/1
f 36/1/1 33/1/1 35/1/1
f 37/2/1 34/2/1 36/2/1
f 38/2/1 30/2/1 29/2/1
f 39/1/1 35/1/1 30/1/1
f 39/2/1 30/2/1 38/2/1
f 40/3/1 36/3/1 35/3/1
f 40/1/1 35/1/1 39/1/1
f 41/1/1 37/1/1 36/1/1
f 41/3/1 36/3/1 40/3/1
f 42/1/1 37/1/1 41/1/1
f 45/3/1 40/3/1 39/3/1
f 45/3/1 41/3/1 40/3/1
f 46/3/1 41/3/1 45/3/1
f 49/1/1 44/1/1 43/1/1
f 50/1/1 44/1/1 49/1/1
f 51/1/1 48/1/1 47/1/1
f 52/1/1 48/1/1 51/1/1
f 59/3/1 54/3/1 53/3/1
f 60/3/1 54/3/1 59/3/1
f 61/2/1 56/2/1 55/2/1
f 62/2/1 56/2/1 61/2/1
f 63/2/1 58/2/1 57/2/1
f 64/2/1 58/2/1 63/2/1
f 67/1/1 66/1/1 65/1/1
f 68/1/1 66/1/1 67/1/1
f 69/1/2 70/1/2 73/1/2
f 73/1/2 70/1/2 74/1/2
f 71/1/2 72/1/2 75/1/2
f 75/1/2 72/1/2 76/1/2
f 77/2/2 78/2/2 87/2/2
f 78/3/2 79/3/2 88/3/2
f 87/2/2 78/2/2 88/2/2
f 79/2/2 80/2/2 89/2/2
f 88/3/2 79/3/2 89/3/2
f 80/3/2 81/3/2 90/3/2
f 89/2/2 80/2/2 90/2/2
f 90/3/2 81/3/2 91/3/2
f 82/2/2 83/2/2 93/2/2
f 93/2/2 83/2/2 94/2/2
f 84/2/2 85/2/2 95/2/2
f 95/2/2 85/2/2 96/2/2
f 86/1/2 87/1/2 97/1/2
f 87/2/2 88/2/2 98/2/2
f 97/1/2 87/1/2 98/1/2
f 88/1/2 89/1/2 99/1/2
f 98/2/2 88/2/2 99/2/2
f 89/1/2 90/1/2 99/1/2
f 90/2/2 91/2/2 100/2/2
f 99/1/2 90/1/2 100/1/2
f 91/1/2 92/1/2 101/1/2
f 100/2/2 91/2/2 101/2/2
f 101/1/2 92/1/2 102/1/2
f 99/1/2 100/1/2 103/1/2
f 98/1/2 99/1/2 103/1/2
f 100/1/2 101/1/2 103/1/2
f 101/2/2 102/2/2 104/2/2
f 103/1/2 101/1/2 104/1/2
f 104/2/2 102/2/2 105/2/2
f 97/2/2 98/2/2 106/2/2
f 98/1/2 103/1/2 107/1/2
f 106/2/2 98/2/2 107/2/2
f 103/3/2 104/3/2 108/3/2
f 107/1/2 103/1/2 108/1/2
f 104/1/2 105/1/2 109/1/2
f 108/3/2 104/3/2 109/3/2
f 109/1/2 105/1/2 110/1/2
f 107/3/2 108/3/2 113/3/2
f 108/3/2 109/3/2 113/3/2
f 113/3/2 109/3/2 114/3/2
f 111/1/2 112/1/2 117/1/2
f 117/1/2 112/1/2 118/1/2
f 115/1/2 116/1/2 119/1/2
f 119/1/2 116/1/2 120/1/2
f 121/3/2 122/3/2 127/3/2
f 127/3/2 122/3/2 128/3/2
f 123/2/2 124/2/2 129/2/2
f 129/2/2 124/2/2 130/2/2
f 125/2/2 126/2/2 131/2/2
f 131/2/2 126/2/2 132/2/2
f 133/1/2 134/1/2 135/1/2
f 135/1/2 134/1/2 136/1/2
f 141/2/3 138/2/3 137/2/3
f 142/2/3 138/2/3 141/2/3
f 143/2/3 140/2/3 139/2/3
f 144/2/3 140/2/3 143/2/3
f 149/1/3 146/1/3 145/1/3
f 150/1/3 146/1/3 149/1/3
f 151/1/3 148/1/3 147/1/3
f 152/1/3 148/1/3 151/1/3
f 156/1/3 154/1/3 153/1/3
f 157/2/3 155/2/3 154/2/3
f 157/1/3 154/1/3 156/1/3
f 158/2/3 155/2/3 157/2/3
f 165/2/3 160/2/3 159/2/3
f 166/2/3 160/2/3 165/2/3
f 167/3/3 162/3/3 161/3/3
f 168/3/3 162/3/3 167/3/3
f 169/3/3 164/3/3 163/3/3
f 170/3/3 164/3/3 169/3/3
f 173/1/3 172/1/3 171/1/3
f 174/1/3 172/1/3 173/1/3
f 177/1/3 176/1/3 175/1/3
f 178/1/3 176/1/3 177/1/3
f 181/2/3 180/2/3 179/2/3
f 182/2/3 180/2/3 181/2/3
f 185/2/3 184/2/3 183/2/3
f 186/2/3 184/2/3 185/2/3
f 189/1/3 188/1/3 187/1/3
f 190/1/3 188/1/3 189/1/3
f 191/2/4 192/2/4 195/2/4
f 195/2/4 192/2/4 196/2/4
f 193/2/4 194/2/4 197/2/4
f 197/2/4 194/2/4 198/2/4
f 199/1/4 200/1/4 203/1/4
f 203/1/4 200/1/4 204/1/4
f 201/1/4 202/1/4 205/1/4
f 205/1/4 202/1/4 206/1/4
f 207/3/4 208/3/4 209/3/4
f 209/3/4 208/3/4 210/3/4
f 211/1/4 212/1/4 213/1/4
f 213/1/4 212/1/4 214/1/4
f 215/3/4 216/3/4 219/3/4
f 219/3/4 216/3/4 220/3/4
f 217/3/4 218/3/4 221/3/4
f 221/3/4 218/3/4 222/3/4
f 223/1/4 224/1/4 229/1/4
f 229/1/4 224/1/4 230/1/4
f 225/1/4 226/1/4 231/1/4
f 226/2/4 227/2/4 232/2/4
f 231/1/4 226/1/4 232/1/4
f 227/1/4 228/1/4 233/1/4
f 232/2/4 227/2/4 233/2/4
f 233/1/4 228/1/4 234/1/4
f 235/2/4 236/2/4 237/2/4
f 237/2/4 236/2/4 238/2/4
f 239/2/4 240/2/4 241/2/4
f 241/2/4 240/2/4 242/2/4
f 243/1/4 244/1/4 245/1/4
f 245/1/4 244/1/4 246/1/4
f 249/1/5 248/1/5 247/1/5
f 250/1/5 248/1/5 249/1/5
f 253/1/5 252/1/5 251/1/5
f 254/1/5 252/1/5 253/1/5
f 257/2/5 256/2/5 255/2/5
f 258/2/5 256/2/5 257/2/5
f 259/3/5 258/3/5 257/3/5
f 260/3/5 258/3/5 259/3/5
f 261/2/5 260/2/5 259/2/5
f 262/2/5 260/2/5 261/2/5
f 263/3/5 262/3/5 261/3/5
f 264/3/5 262/3/5 263/3/5
f 267/2/5 266/2/5 265/2/5
f 268/2/5 266/2/5 267/2/5
f 271/2/5 270/2/5 269/2/5
f 272/2/5 270/2/5 271/2/5
f 275/1/5 274/1/5 273/1/5
f 276/1/5 274/1/5 275/1/5
f 279/1/5 278/1/5 277/1/5
f 280/1/5 278/1/5 279/1/5
f 283/1/5 282/1/5 281/1/5
f 284/1/5 282/1/5 283/1/5
f 287/1/5 286/1/5 285/1/5
f 288/1/5 286/1/5 287/1/5
f 291/3/5 290/3/5 289/3/5
f 292/3/5 290/3/5 291/3/5
f 295/2/5 294/2/5 293/2/5
f 296/2/5 294/2/5 295/2/5
f 299/2/5 298/2/5 297/2/5
f 300/2/5 298/2/5 299/2/5
f 303/1/5 302/1/5 301/1/5
f 304/1/5 302/1/5 303/1/5
f 305/1/6 306/1/6 307/1/6
f 307/1/6 306/1/6 308/1/6
f 309/1/6 310/1/6 311/1/6
f 311/1/6 310/1/6 312/1/6
f 313/2/6 314/2/6 315/2/6
f 315/2/6 314/2/6 316/2/6
f 317/2/6 318/2/6 319/2/6
f 319/2/6 318/2/6 320/2/6
f 321/2/6 322/2/6 323/2/6
f 323/2/6 322/2/6 324/2/6
f 325/1/6 326/1/6 327/1/6
f 327/1/6 326/1/6 328/1/6
f 329/3/6 330/3/6 331/3/6
f 331/3/6 330/3/6 332/3/6
f 333/1/6 334/1/6 335/1/6
f 335/1/6 334/1/6 336/1/6
f 337/1/6 338/1/6 339/1/6
f 339/1/6 338/1/6 340/1/6
f 341/3/6 342/3/6 343/3/6
f 343/3/6 342/3/6 344/3/6
f 345/2/6 346/2/6 347/2/6
f 347/2/6 346/2/6 348/2/6
f 349/2/6 350/2/6 351/2/6
f 351/2/6 350/2/6 352/2/6
f 353/1/6 354/1/6 355/1/6
f 355/1/6 354/1/6 356/1/6
