# MagicaVoxel @ Ephtracy

# group
o 

# material
mtllib Run1.mtl
usemtl palette

# normals
vn 0 0 1
vn 0 0 -1
vn 1 0 0
vn -1 0 0
vn 0 -1 0
vn 0 1 0

# texcoords
vt 0.970703 0.5
vt 0.974609 0.5
vt 0.978516 0.5
vt 0.982422 0.5

# verts
v -0.7 0 0.1
v -0.9 0 0.1
v -0.7 0.1 0.1
v -0.8 0.1 0.1
v -0.9 0.1 0.1
v -1 0.1 0.1
v 0 0.2 0.1
v -0.2 0.2 0.1
v -0.4 0.2 0.1
v -0.6 0.2 0.1
v -0.8 0.2 0.1
v -0.9 0.2 0.1
v -1 0.2 0.1
v -1.1 0.2 0.1
v -0.4 0.3 0.1
v -0.6 0.3 0.1
v -0.9 0.3 0.1
v -1 0.3 0.1
v -1.1 0.3 0.1
v -0.9 0.4 0.1
v -1 0.4 0.1
v -0.1 0.5 0.1
v -0.2 0.5 0.1
v -0.3 0.5 0.1
v -0.4 0.5 0.1
v -0.6 0.5 0.1
v 0 0.6 0.1
v -0.1 0.6 0.1
v -0.3 0.6 0.1
v -0.4 0.6 0.1
v -0.6 0.6 0.1
v -0.7 0.6 0.1
v -0.8 0.6 0.1
v -0.9 0.6 0.1
v -1.1 0.6 0.1
v 0 0.7 0.1
v -0.1 0.7 0.1
v -0.2 0.7 0.1
v -0.9 0.7 0.1
v -1 0.7 0.1
v -0.2 0.8 0.1
v -0.4 0.8 0.1
v -0.9 0.8 0.1
v -1 0.8 0.1
v -1.1 0.8 0.1
v 0 0.9 0.1
v -0.2 0.9 0.1
v -0.3 0.9 0.1
v -0.4 0.9 0.1
v -0.7 0.9 0.1
v -0.8 0.9 0.1
v -0.9 0.9 0.1
v -0.2 1 0.1
v -0.3 1 0.1
v -0.6 1 0.1
v -0.8 1 0.1
v -0.9 1 0.1
v -0.1 1.1 0.1
v -0.2 1.1 0.1
v -0.3 1.1 0.1
v -0.4 1.1 0.1
v -0.5 1.1 0.1
v -0.6 1.1 0.1
v -0.9 1.1 0.1
v -1 1.1 0.1
v -0.1 1.2 0.1
v -0.2 1.2 0.1
v -0.6 1.2 0.1
v -0.8 1.2 0.1
v -0.3 1.3 0.1
v -0.4 1.3 0.1
v -0.1 1.4 0.1
v -0.2 1.4 0.1
v -0.5 1.4 0.1
v -0.6 1.4 0.1
v -0.8 1.4 0.1
v -0.9 1.4 0.1
v -1 1.4 0.1
v -0.1 1.5 0.1
v -0.2 1.5 0.1
v -0.8 1.5 0.1
v -0.9 1.5 0.1
v -1 1.5 0.1
v -0.2 1.6 0.1
v -0.8 1.6 0.1
v -0.9 1.6 0.1
v -1 1.6 0.1
v -0.7 0 0
v -0.9 0 0
v -0.7 0.1 0
v -0.8 0.1 0
v -0.9 0.1 0
v -1 0.1 0
v 0 0.2 0
v -0.2 0.2 0
v -0.4 0.2 0
v -0.6 0.2 0
v -0.8 0.2 0
v -0.9 0.2 0
v -1 0.2 0
v -1.1 0.2 0
v -0.4 0.3 0
v -0.6 0.3 0
v -0.9 0.3 0
v -1 0.3 0
v -1.1 0.3 0
v -0.9 0.4 0
v -1 0.4 0
v -0.1 0.5 0
v -0.2 0.5 0
v -0.3 0.5 0
v -0.4 0.5 0
v -0.6 0.5 0
v 0 0.6 0
v -0.1 0.6 0
v -0.3 0.6 0
v -0.4 0.6 0
v -0.6 0.6 0
v -0.7 0.6 0
v -0.8 0.6 0
v -0.9 0.6 0
v -1.1 0.6 0
v 0 0.7 0
v -0.1 0.7 0
v -0.2 0.7 0
v -0.9 0.7 0
v -1 0.7 0
v -0.2 0.8 0
v -0.4 0.8 0
v -0.9 0.8 0
v -1 0.8 0
v -1.1 0.8 0
v 0 0.9 0
v -0.2 0.9 0
v -0.3 0.9 0
v -0.4 0.9 0
v -0.7 0.9 0
v -0.8 0.9 0
v -0.9 0.9 0
v -0.2 1 0
v -0.3 1 0
v -0.6 1 0
v -0.8 1 0
v -0.9 1 0
v -0.1 1.1 0
v -0.2 1.1 0
v -0.3 1.1 0
v -0.4 1.1 0
v -0.5 1.1 0
v -0.6 1.1 0
v -0.9 1.1 0
v -1 1.1 0
v -0.1 1.2 0
v -0.2 1.2 0
v -0.6 1.2 0
v -0.8 1.2 0
v -0.3 1.3 0
v -0.4 1.3 0
v -0.1 1.4 0
v -0.2 1.4 0
v -0.5 1.4 0
v -0.6 1.4 0
v -0.8 1.4 0
v -0.9 1.4 0
v -1 1.4 0
v -0.1 1.5 0
v -0.2 1.5 0
v -0.8 1.5 0
v -0.9 1.5 0
v -1 1.5 0
v -0.2 1.6 0
v -0.8 1.6 0
v -0.9 1.6 0
v -1 1.6 0
v 0 0.2 0.1
v 0 0.6 0.1
v 0 0.7 0.1
v 0 0.9 0.1
v 0 0.2 0
v 0 0.6 0
v 0 0.7 0
v 0 0.9 0
v -0.1 0.6 0.1
v -0.1 0.7 0.1
v -0.1 1.1 0.1
v -0.1 1.2 0.1
v -0.1 1.4 0.1
v -0.1 1.5 0.1
v -0.1 0.6 0
v -0.1 0.7 0
v -0.1 1.1 0
v -0.1 1.2 0
v -0.1 1.4 0
v -0.1 1.5 0
v -0.2 1 0.1
v -0.2 1.1 0.1
v -0.2 1.2 0.1
v -0.2 1.4 0.1
v -0.2 1.5 0.1
v -0.2 1.6 0.1
v -0.2 1 0
v -0.2 1.1 0
v -0.2 1.2 0
v -0.2 1.4 0
v -0.2 1.5 0
v -0.2 1.6 0
v -0.3 0.5 0.1
v -0.3 0.6 0.1
v -0.3 0.9 0.1
v -0.3 1 0.1
v -0.3 0.5 0
v -0.3 0.6 0
v -0.3 0.9 0
v -0.3 1 0
v -0.4 0.8 0.1
v -0.4 0.9 0.1
v -0.4 0.8 0
v -0.4 0.9 0
v -0.6 0.2 0.1
v -0.6 0.3 0.1
v -0.6 0.2 0
v -0.6 0.3 0
v -0.7 0 0.1
v -0.7 0.1 0.1
v -0.7 0 0
v -0.7 0.1 0
v -0.8 0.1 0.1
v -0.8 0.2 0.1
v -0.8 0.1 0
v -0.8 0.2 0
v -0.9 1.5 0.1
v -0.9 1.6 0.1
v -0.9 1.5 0
v -0.9 1.6 0
v -0.1 0.5 0.1
v -0.1 0.6 0.1
v -0.1 0.5 0
v -0.1 0.6 0
v -0.2 0.8 0.1
v -0.2 0.9 0.1
v -0.2 0.8 0
v -0.2 0.9 0
v -0.4 0.2 0.1
v -0.4 0.3 0.1
v -0.4 0.2 0
v -0.4 0.3 0
v -0.8 0.9 0.1
v -0.8 1 0.1
v -0.8 1.5 0.1
v -0.8 1.6 0.1
v -0.8 0.9 0
v -0.8 1 0
v -0.8 1.5 0
v -0.8 1.6 0
v -0.9 0 0.1
v -0.9 0.1 0.1
v -0.9 0.4 0.1
v -0.9 0.6 0.1
v -0.9 0.8 0.1
v -0.9 0.9 0.1
v -0.9 1 0.1
v -0.9 1.1 0.1
v -0.9 1.4 0.1
v -0.9 1.5 0.1
v -0.9 0 0
v -0.9 0.1 0
v -0.9 0.4 0
v -0.9 0.6 0
v -0.9 0.8 0
v -0.9 0.9 0
v -0.9 1 0
v -0.9 1.1 0
v -0.9 1.4 0
v -0.9 1.5 0
v -1 0.1 0.1
v -1 0.2 0.1
v -1 0.3 0.1
v -1 0.4 0.1
v -1 1.1 0.1
v -1 1.4 0.1
v -1 1.5 0.1
v -1 1.6 0.1
v -1 0.1 0
v -1 0.2 0
v -1 0.3 0
v -1 0.4 0
v -1 1.1 0
v -1 1.4 0
v -1 1.5 0
v -1 1.6 0
v -1.1 0.2 0.1
v -1.1 0.3 0.1
v -1.1 0.6 0.1
v -1.1 0.8 0.1
v -1.1 0.2 0
v -1.1 0.3 0
v -1.1 0.6 0
v -1.1 0.8 0
v -0.7 0 0.1
v -0.7 0 0
v -0.9 0 0.1
v -0.9 0 0
v -0.9 0.1 0.1
v -0.9 0.1 0
v -1 0.1 0.1
v -1 0.1 0
v 0 0.2 0.1
v 0 0.2 0
v -0.2 0.2 0.1
v -0.2 0.2 0
v -0.4 0.2 0.1
v -0.4 0.2 0
v -0.6 0.2 0.1
v -0.6 0.2 0
v -0.8 0.2 0.1
v -0.8 0.2 0
v -1 0.2 0.1
v -1 0.2 0
v -1.1 0.2 0.1
v -1.1 0.2 0
v -0.4 0.3 0.1
v -0.4 0.3 0
v -0.6 0.3 0.1
v -0.6 0.3 0
v -0.1 0.6 0.1
v -0.1 0.6 0
v -0.3 0.6 0.1
v -0.3 0.6 0
v -0.9 0.6 0.1
v -0.9 0.6 0
v -1.1 0.6 0.1
v -1.1 0.6 0
v 0 0.7 0.1
v 0 0.7 0
v -0.1 0.7 0.1
v -0.1 0.7 0
v -0.3 0.9 0.1
v -0.3 0.9 0
v -0.4 0.9 0.1
v -0.4 0.9 0
v -0.2 1 0.1
v -0.2 1 0
v -0.3 1 0.1
v -0.3 1 0
v -0.8 1 0.1
v -0.8 1 0
v -0.9 1 0.1
v -0.9 1 0
v -0.1 1.1 0.1
v -0.1 1.1 0
v -0.2 1.1 0.1
v -0.2 1.1 0
v -0.9 1.1 0.1
v -0.9 1.1 0
v -1 1.1 0.1
v -1 1.1 0
v -0.1 1.4 0.1
v -0.1 1.4 0
v -0.2 1.4 0.1
v -0.2 1.4 0
v -0.9 1.5 0.1
v -0.9 1.5 0
v -1 1.5 0.1
v -1 1.5 0
v -0.7 0.1 0.1
v -0.7 0.1 0
v -0.8 0.1 0.1
v -0.8 0.1 0
v -1 0.3 0.1
v -1 0.3 0
v -1.1 0.3 0.1
v -1.1 0.3 0
v -0.9 0.4 0.1
v -0.9 0.4 0
v -1 0.4 0.1
v -1 0.4 0
v -0.1 0.5 0.1
v -0.1 0.5 0
v -0.2 0.5 0.1
v -0.2 0.5 0
v -0.3 0.5 0.1
v -0.3 0.5 0
v 0 0.6 0.1
v 0 0.6 0
v -0.1 0.6 0.1
v -0.1 0.6 0
v -0.2 0.8 0.1
v -0.2 0.8 0
v -0.4 0.8 0.1
v -0.4 0.8 0
v -0.9 0.8 0.1
v -0.9 0.8 0
v -1 0.8 0.1
v -1 0.8 0
v -1.1 0.8 0.1
v -1.1 0.8 0
v 0 0.9 0.1
v 0 0.9 0
v -0.2 0.9 0.1
v -0.2 0.9 0
v -0.8 0.9 0.1
v -0.8 0.9 0
v -0.9 0.9 0.1
v -0.9 0.9 0
v -0.1 1.2 0.1
v -0.1 1.2 0
v -0.2 1.2 0.1
v -0.2 1.2 0
v -0.9 1.4 0.1
v -0.9 1.4 0
v -1 1.4 0.1
v -1 1.4 0
v -0.1 1.5 0.1
v -0.1 1.5 0
v -0.2 1.5 0.1
v -0.2 1.5 0
v -0.8 1.5 0.1
v -0.8 1.5 0
v -0.9 1.5 0.1
v -0.9 1.5 0
v -0.2 1.6 0.1
v -0.2 1.6 0
v -0.8 1.6 0.1
v -0.8 1.6 0
v -0.9 1.6 0.1
v -0.9 1.6 0
v -1 1.6 0.1
v -1 1.6 0

# faces
f 3/1/1 2/1/1 1/1/1
f 4/1/1 2/1/1 3/1/1
f 5/1/1 2/1/1 4/1/1
f 11/1/1 6/1/1 5/1/1
f 11/1/1 5/1/1 4/1/1
f 12/1/1 6/1/1 11/1/1
f 13/1/1 6/1/1 12/1/1
f 15/2/1 9/2/1 8/2/1
f 16/2/1 11/2/1 10/2/1
f 16/2/1 12/2/1 11/2/1
f 17/1/1 14/1/1 13/1/1
f 17/1/1 13/1/1 12/1/1
f 17/2/1 12/2/1 16/2/1
f 18/1/1 14/1/1 17/1/1
f 19/1/1 14/1/1 18/1/1
f 20/2/1 16/2/1 15/2/1
f 20/2/1 17/2/1 16/2/1
f 20/2/1 18/2/1 17/2/1
f 21/2/1 18/2/1 20/2/1
f 22/1/1 8/1/1 7/1/1
f 23/2/1 15/2/1 8/2/1
f 23/1/1 8/1/1 22/1/1
f 23/2/1 20/2/1 15/2/1
f 24/2/1 20/2/1 23/2/1
f 25/2/1 20/2/1 24/2/1
f 26/2/1 20/2/1 25/2/1
f 27/1/1 22/1/1 7/1/1
f 28/1/1 22/1/1 27/1/1
f 29/2/1 25/2/1 24/2/1
f 30/1/1 26/1/1 25/1/1
f 30/2/1 25/2/1 29/2/1
f 31/2/1 20/2/1 26/2/1
f 31/1/1 26/1/1 30/1/1
f 32/2/1 20/2/1 31/2/1
f 33/2/1 20/2/1 32/2/1
f 34/2/1 20/2/1 33/2/1
f 37/1/1 30/1/1 29/1/1
f 37/1/1 29/1/1 28/1/1
f 37/1/1 32/1/1 31/1/1
f 37/1/1 31/1/1 30/1/1
f 38/1/1 32/1/1 37/1/1
f 39/1/1 34/1/1 33/1/1
f 39/3/1 35/3/1 34/3/1
f 40/3/1 35/3/1 39/3/1
f 41/1/1 32/1/1 38/1/1
f 41/3/1 38/3/1 37/3/1
f 41/3/1 37/3/1 36/3/1
f 42/1/1 32/1/1 41/1/1
f 43/1/1 40/1/1 39/1/1
f 43/1/1 39/1/1 33/1/1
f 44/3/1 35/3/1 40/3/1
f 44/1/1 40/1/1 43/1/1
f 45/3/1 35/3/1 44/3/1
f 46/3/1 41/3/1 36/3/1
f 47/3/1 41/3/1 46/3/1
f 49/1/1 32/1/1 42/1/1
f 50/2/1 33/2/1 32/2/1
f 50/1/1 32/1/1 49/1/1
f 51/1/1 43/1/1 33/1/1
f 51/2/1 33/2/1 50/2/1
f 52/1/1 43/1/1 51/1/1
f 54/3/1 50/3/1 49/3/1
f 54/3/1 51/3/1 50/3/1
f 54/3/1 49/3/1 48/3/1
f 55/3/1 51/3/1 54/3/1
f 56/3/1 51/3/1 55/3/1
f 59/3/1 54/3/1 53/3/1
f 59/3/1 55/3/1 54/3/1
f 60/3/1 55/3/1 59/3/1
f 61/3/1 55/3/1 60/3/1
f 62/3/1 55/3/1 61/3/1
f 63/2/1 57/2/1 56/2/1
f 63/3/1 55/3/1 62/3/1
f 63/2/1 56/2/1 55/2/1
f 64/2/1 57/2/1 63/2/1
f 66/3/1 59/3/1 58/3/1
f 66/3/1 60/3/1 59/3/1
f 67/3/1 60/3/1 66/3/1
f 68/2/1 64/2/1 63/2/1
f 68/2/1 65/2/1 64/2/1
f 68/2/1 63/2/1 62/2/1
f 69/2/1 65/2/1 68/2/1
f 70/3/1 60/3/1 67/3/1
f 70/4/1 61/4/1 60/4/1
f 71/3/1 62/3/1 61/3/1
f 71/4/1 61/4/1 70/4/1
f 73/3/1 70/3/1 67/3/1
f 73/3/1 71/3/1 70/3/1
f 74/3/1 62/3/1 71/3/1
f 74/2/1 68/2/1 62/2/1
f 74/3/1 71/3/1 73/3/1
f 75/1/1 69/1/1 68/1/1
f 75/2/1 68/2/1 74/2/1
f 76/2/1 65/2/1 69/2/1
f 76/1/1 69/1/1 75/1/1
f 77/2/1 65/2/1 76/2/1
f 78/2/1 65/2/1 77/2/1
f 79/2/1 75/2/1 74/2/1
f 79/2/1 73/2/1 72/2/1
f 79/2/1 74/2/1 73/2/1
f 79/2/1 76/2/1 75/2/1
f 80/2/1 76/2/1 79/2/1
f 81/1/1 77/1/1 76/1/1
f 81/2/1 76/2/1 80/2/1
f 82/1/1 77/1/1 81/1/1
f 84/2/1 81/2/1 80/2/1
f 85/2/1 81/2/1 84/2/1
f 86/1/1 83/1/1 82/1/1
f 87/1/1 83/1/1 86/1/1
f 88/1/2 89/1/2 90/1/2
f 90/1/2 89/1/2 91/1/2
f 91/1/2 89/1/2 92/1/2
f 92/1/2 93/1/2 98/1/2
f 91/1/2 92/1/2 98/1/2
f 98/1/2 93/1/2 99/1/2
f 99/1/2 93/1/2 100/1/2
f 95/2/2 96/2/2 102/2/2
f 97/2/2 98/2/2 103/2/2
f 98/2/2 99/2/2 103/2/2
f 100/1/2 101/1/2 104/1/2
f 99/1/2 100/1/2 104/1/2
f 103/2/2 99/2/2 104/2/2
f 104/1/2 101/1/2 105/1/2
f 105/1/2 101/1/2 106/1/2
f 102/2/2 103/2/2 107/2/2
f 103/2/2 104/2/2 107/2/2
f 104/2/2 105/2/2 107/2/2
f 107/2/2 105/2/2 108/2/2
f 94/1/2 95/1/2 109/1/2
f 95/2/2 102/2/2 110/2/2
f 109/1/2 95/1/2 110/1/2
f 102/2/2 107/2/2 110/2/2
f 110/2/2 107/2/2 111/2/2
f 111/2/2 107/2/2 112/2/2
f 112/2/2 107/2/2 113/2/2
f 94/1/2 109/1/2 114/1/2
f 114/1/2 109/1/2 115/1/2
f 111/2/2 112/2/2 116/2/2
f 112/1/2 113/1/2 117/1/2
f 116/2/2 112/2/2 117/2/2
f 113/2/2 107/2/2 118/2/2
f 117/1/2 113/1/2 118/1/2
f 118/2/2 107/2/2 119/2/2
f 119/2/2 107/2/2 120/2/2
f 120/2/2 107/2/2 121/2/2
f 116/1/2 117/1/2 124/1/2
f 115/1/2 116/1/2 124/1/2
f 118/1/2 119/1/2 124/1/2
f 117/1/2 118/1/2 124/1/2
f 124/1/2 119/1/2 125/1/2
f 120/1/2 121/1/2 126/1/2
f 121/3/2 122/3/2 126/3/2
f 126/3/2 122/3/2 127/3/2
f 125/1/2 119/1/2 128/1/2
f 124/3/2 125/3/2 128/3/2
f 123/3/2 124/3/2 128/3/2
f 128/1/2 119/1/2 129/1/2
f 126/1/2 127/1/2 130/1/2
f 120/1/2 126/1/2 130/1/2
f 127/3/2 122/3/2 131/3/2
f 130/1/2 127/1/2 131/1/2
f 131/3/2 122/3/2 132/3/2
f 123/3/2 128/3/2 133/3/2
f 133/3/2 128/3/2 134/3/2
f 129/1/2 119/1/2 136/1/2
f 119/2/2 120/2/2 137/2/2
f 136/1/2 119/1/2 137/1/2
f 120/1/2 130/1/2 138/1/2
f 137/2/2 120/2/2 138/2/2
f 138/1/2 130/1/2 139/1/2
f 136/3/2 137/3/2 141/3/2
f 137/3/2 138/3/2 141/3/2
f 135/3/2 136/3/2 141/3/2
f 141/3/2 138/3/2 142/3/2
f 142/3/2 138/3/2 143/3/2
f 140/3/2 141/3/2 146/3/2
f 141/3/2 142/3/2 146/3/2
f 146/3/2 142/3/2 147/3/2
f 147/3/2 142/3/2 148/3/2
f 148/3/2 142/3/2 149/3/2
f 143/2/2 144/2/2 150/2/2
f 149/3/2 142/3/2 150/3/2
f 142/2/2 143/2/2 150/2/2
f 150/2/2 144/2/2 151/2/2
f 145/3/2 146/3/2 153/3/2
f 146/3/2 147/3/2 153/3/2
f 153/3/2 147/3/2 154/3/2
f 150/2/2 151/2/2 155/2/2
f 151/2/2 152/2/2 155/2/2
f 149/2/2 150/2/2 155/2/2
f 155/2/2 152/2/2 156/2/2
f 154/3/2 147/3/2 157/3/2
f 147/4/2 148/4/2 157/4/2
f 148/3/2 149/3/2 158/3/2
f 157/4/2 148/4/2 158/4/2
f 154/3/2 157/3/2 160/3/2
f 157/3/2 158/3/2 160/3/2
f 158/3/2 149/3/2 161/3/2
f 149/2/2 155/2/2 161/2/2
f 160/3/2 158/3/2 161/3/2
f 155/1/2 156/1/2 162/1/2
f 161/2/2 155/2/2 162/2/2
f 156/2/2 152/2/2 163/2/2
f 162/1/2 156/1/2 163/1/2
f 163/2/2 152/2/2 164/2/2
f 164/2/2 152/2/2 165/2/2
f 161/2/2 162/2/2 166/2/2
f 159/2/2 160/2/2 166/2/2
f 160/2/2 161/2/2 166/2/2
f 162/2/2 163/2/2 166/2/2
f 166/2/2 163/2/2 167/2/2
f 163/1/2 164/1/2 168/1/2
f 167/2/2 163/2/2 168/2/2
f 168/1/2 164/1/2 169/1/2
f 167/2/2 168/2/2 171/2/2
f 171/2/2 168/2/2 172/2/2
f 169/1/2 170/1/2 173/1/2
f 173/1/2 170/1/2 174/1/2
f 179/1/3 176/1/3 175/1/3
f 180/1/3 176/1/3 179/1/3
f 181/3/3 178/3/3 177/3/3
f 182/3/3 178/3/3 181/3/3
f 189/1/3 184/1/3 183/1/3
f 190/1/3 184/1/3 189/1/3
f 191/3/3 186/3/3 185/3/3
f 192/3/3 186/3/3 191/3/3
f 193/2/3 188/2/3 187/2/3
f 194/2/3 188/2/3 193/2/3
f 201/3/3 196/3/3 195/3/3
f 202/3/3 196/3/3 201/3/3
f 203/3/3 198/3/3 197/3/3
f 204/3/3 198/3/3 203/3/3
f 205/2/3 200/2/3 199/2/3
f 206/2/3 200/2/3 205/2/3
f 211/2/3 208/2/3 207/2/3
f 212/2/3 208/2/3 211/2/3
f 213/3/3 210/3/3 209/3/3
f 214/3/3 210/3/3 213/3/3
f 217/1/3 216/1/3 215/1/3
f 218/1/3 216/1/3 217/1/3
f 221/2/3 220/2/3 219/2/3
f 222/2/3 220/2/3 221/2/3
f 225/1/3 224/1/3 223/1/3
f 226/1/3 224/1/3 225/1/3
f 229/1/3 228/1/3 227/1/3
f 230/1/3 228/1/3 229/1/3
f 233/1/3 232/1/3 231/1/3
f 234/1/3 232/1/3 233/1/3
f 235/1/4 236/1/4 237/1/4
f 237/1/4 236/1/4 238/1/4
f 239/3/4 240/3/4 241/3/4
f 241/3/4 240/3/4 242/3/4
f 243/2/4 244/2/4 245/2/4
f 245/2/4 244/2/4 246/2/4
f 247/3/4 248/3/4 251/3/4
f 251/3/4 248/3/4 252/3/4
f 249/2/4 250/2/4 253/2/4
f 253/2/4 250/2/4 254/2/4
f 255/1/4 256/1/4 265/1/4
f 265/1/4 256/1/4 266/1/4
f 257/2/4 258/2/4 267/2/4
f 267/2/4 258/2/4 268/2/4
f 259/1/4 260/1/4 269/1/4
f 269/1/4 260/1/4 270/1/4
f 261/2/4 262/2/4 271/2/4
f 271/2/4 262/2/4 272/2/4
f 263/1/4 264/1/4 273/1/4
f 273/1/4 264/1/4 274/1/4
f 275/1/4 276/1/4 283/1/4
f 283/1/4 276/1/4 284/1/4
f 277/2/4 278/2/4 285/2/4
f 285/2/4 278/2/4 286/2/4
f 279/2/4 280/2/4 287/2/4
f 287/2/4 280/2/4 288/2/4
f 281/1/4 282/1/4 289/1/4
f 289/1/4 282/1/4 290/1/4
f 291/1/4 292/1/4 295/1/4
f 295/1/4 292/1/4 296/1/4
f 293/3/4 294/3/4 297/3/4
f 297/3/4 294/3/4 298/3/4
f 301/1/5 300/1/5 299/1/5
f 302/1/5 300/1/5 301/1/5
f 305/1/5 304/1/5 303/1/5
f 306/1/5 304/1/5 305/1/5
f 309/1/5 308/1/5 307/1/5
f 310/1/5 308/1/5 309/1/5
f 311/2/5 310/2/5 309/2/5
f 312/2/5 310/2/5 311/2/5
f 315/2/5 314/2/5 313/2/5
f 316/2/5 314/2/5 315/2/5
f 319/1/5 318/1/5 317/1/5
f 320/1/5 318/1/5 319/1/5
f 323/2/5 322/2/5 321/2/5
f 324/2/5 322/2/5 323/2/5
f 327/1/5 326/1/5 325/1/5
f 328/1/5 326/1/5 327/1/5
f 331/3/5 330/3/5 329/3/5
f 332/3/5 330/3/5 331/3/5
f 335/3/5 334/3/5 333/3/5
f 336/3/5 334/3/5 335/3/5
f 339/3/5 338/3/5 337/3/5
f 340/3/5 338/3/5 339/3/5
f 343/3/5 342/3/5 341/3/5
f 344/3/5 342/3/5 343/3/5
f 347/2/5 346/2/5 345/2/5
f 348/2/5 346/2/5 347/2/5
f 351/3/5 350/3/5 349/3/5
f 352/3/5 350/3/5 351/3/5
f 355/2/5 354/2/5 353/2/5
f 356/2/5 354/2/5 355/2/5
f 359/2/5 358/2/5 357/2/5
f 360/2/5 358/2/5 359/2/5
f 363/1/5 362/1/5 361/1/5
f 364/1/5 362/1/5 363/1/5
f 365/1/6 366/1/6 367/1/6
f 367/1/6 366/1/6 368/1/6
f 369/1/6 370/1/6 371/1/6
f 371/1/6 370/1/6 372/1/6
f 373/2/6 374/2/6 375/2/6
f 375/2/6 374/2/6 376/2/6
f 377/1/6 378/1/6 379/1/6
f 379/1/6 378/1/6 380/1/6
f 379/2/6 380/2/6 381/2/6
f 381/2/6 380/2/6 382/2/6
f 383/1/6 384/1/6 385/1/6
f 385/1/6 384/1/6 386/1/6
f 387/1/6 388/1/6 389/1/6
f 389/1/6 388/1/6 390/1/6
f 391/1/6 392/1/6 393/1/6
f 393/1/6 392/1/6 394/1/6
f 393/3/6 394/3/6 395/3/6
f 395/3/6 394/3/6 396/3/6
f 397/3/6 398/3/6 399/3/6
f 399/3/6 398/3/6 400/3/6
f 401/1/6 402/1/6 403/1/6
f 403/1/6 402/1/6 404/1/6
f 405/3/6 406/3/6 407/3/6
f 407/3/6 406/3/6 408/3/6
f 409/2/6 410/2/6 411/2/6
f 411/2/6 410/2/6 412/2/6
f 413/2/6 414/2/6 415/2/6
f 415/2/6 414/2/6 416/2/6
f 417/1/6 418/1/6 419/1/6
f 419/1/6 418/1/6 420/1/6
f 421/2/6 422/2/6 423/2/6
f 423/2/6 422/2/6 424/2/6
f 425/1/6 426/1/6 427/1/6
f 427/1/6 426/1/6 428/1/6
