# MagicaVoxel @ Ephtracy

# group
o 

# material
mtllib fall2.mtl
usemtl palette

# normals
vn -1 0 0
vn 1 0 0
vn 0 0 1
vn 0 0 -1
vn 0 -1 0
vn 0 1 0

# texcoords
vt 0.970703 0.5
vt 0.974609 0.5
vt 0.978516 0.5
vt 0.982422 0.5

# verts
v 0.5 0 0.5
v 0.5 0 0.3
v 0.5 0 0.1
v 0.5 0 -0.2
v 0.5 0 -0.4
v 0.5 0 -0.6
v 0.5 0.1 0.1
v 0.5 0.1 -0.2
v 0.5 0.3 0.4
v 0.5 0.3 0.3
v 0.5 0.3 0.2
v 0.5 0.3 0.1
v 0.5 0.3 -0.2
v 0.5 0.3 -0.3
v 0.5 0.3 -0.4
v 0.5 0.3 -0.5
v 0.5 0.4 0.5
v 0.5 0.4 0.4
v 0.5 0.4 0.3
v 0.5 0.4 0.2
v 0.5 0.4 0.1
v 0.5 0.4 -0.2
v 0.5 0.4 -0.3
v 0.5 0.4 -0.4
v 0.5 0.4 -0.5
v 0.5 0.4 -0.6
v 0.5 0.5 0.4
v 0.5 0.5 0.3
v 0.5 0.5 -0.4
v 0.5 0.5 -0.5
v 0.5 0.6 0.5
v 0.5 0.6 0.4
v 0.5 0.6 -0.5
v 0.5 0.6 -0.6
v 0.5 0.7 0.7
v 0.5 0.7 0.5
v 0.5 0.7 0.3
v 0.5 0.7 0.2
v 0.5 0.7 0.1
v 0.5 0.7 -0.2
v 0.5 0.7 -0.3
v 0.5 0.7 -0.4
v 0.5 0.7 -0.6
v 0.5 0.7 -0.8
v 0.5 0.8 0.5
v 0.5 0.8 0.3
v 0.5 0.8 0.2
v 0.5 0.8 -0.1
v 0.5 0.8 -0.3
v 0.5 0.8 -0.4
v 0.5 0.8 -0.6
v 0.5 0.9 0.7
v 0.5 0.9 0.5
v 0.5 0.9 0.4
v 0.5 0.9 0.3
v 0.5 0.9 0.2
v 0.5 0.9 0.1
v 0.5 0.9 0
v 0.5 0.9 -0.1
v 0.5 0.9 -0.4
v 0.5 0.9 -0.5
v 0.5 0.9 -0.6
v 0.5 0.9 -0.8
v 0.5 1 0.4
v 0.5 1 0.3
v 0.5 1 -0.1
v 0.5 1 -0.3
v 0.5 1.1 0.2
v 0.5 1.1 0.1
v 0.5 1.2 0.4
v 0.5 1.2 0.3
v 0.5 1.2 0
v 0.5 1.2 -0.1
v 0.5 1.2 -0.3
v 0.5 1.2 -0.4
v 0.5 1.2 -0.5
v 0.5 1.3 0.4
v 0.5 1.3 0.3
v 0.5 1.3 -0.3
v 0.5 1.3 -0.4
v 0.5 1.3 -0.5
v 0.5 1.4 0.3
v 0.5 1.4 -0.3
v 0.5 1.4 -0.4
v 0.5 1.4 -0.5
v 0.6 0 0.5
v 0.6 0 0.3
v 0.6 0 0.1
v 0.6 0 -0.2
v 0.6 0 -0.4
v 0.6 0 -0.6
v 0.6 0.1 0.1
v 0.6 0.1 -0.2
v 0.6 0.3 0.4
v 0.6 0.3 0.3
v 0.6 0.3 0.2
v 0.6 0.3 0.1
v 0.6 0.3 -0.2
v 0.6 0.3 -0.3
v 0.6 0.3 -0.4
v 0.6 0.3 -0.5
v 0.6 0.4 0.5
v 0.6 0.4 0.4
v 0.6 0.4 0.3
v 0.6 0.4 0.2
v 0.6 0.4 0.1
v 0.6 0.4 -0.2
v 0.6 0.4 -0.3
v 0.6 0.4 -0.4
v 0.6 0.4 -0.5
v 0.6 0.4 -0.6
v 0.6 0.5 0.4
v 0.6 0.5 0.3
v 0.6 0.5 -0.4
v 0.6 0.5 -0.5
v 0.6 0.6 0.5
v 0.6 0.6 0.4
v 0.6 0.6 -0.5
v 0.6 0.6 -0.6
v 0.6 0.7 0.7
v 0.6 0.7 0.5
v 0.6 0.7 0.3
v 0.6 0.7 0.2
v 0.6 0.7 0.1
v 0.6 0.7 -0.2
v 0.6 0.7 -0.3
v 0.6 0.7 -0.4
v 0.6 0.7 -0.6
v 0.6 0.7 -0.8
v 0.6 0.8 0.5
v 0.6 0.8 0.3
v 0.6 0.8 0.2
v 0.6 0.8 -0.1
v 0.6 0.8 -0.3
v 0.6 0.8 -0.4
v 0.6 0.8 -0.6
v 0.6 0.9 0.7
v 0.6 0.9 0.5
v 0.6 0.9 0.4
v 0.6 0.9 0.3
v 0.6 0.9 0.2
v 0.6 0.9 0.1
v 0.6 0.9 0
v 0.6 0.9 -0.1
v 0.6 0.9 -0.4
v 0.6 0.9 -0.5
v 0.6 0.9 -0.6
v 0.6 0.9 -0.8
v 0.6 1 0.4
v 0.6 1 0.3
v 0.6 1 -0.1
v 0.6 1 -0.3
v 0.6 1.1 0.2
v 0.6 1.1 0.1
v 0.6 1.2 0.4
v 0.6 1.2 0.3
v 0.6 1.2 0
v 0.6 1.2 -0.1
v 0.6 1.2 -0.3
v 0.6 1.2 -0.4
v 0.6 1.2 -0.5
v 0.6 1.3 0.4
v 0.6 1.3 0.3
v 0.6 1.3 -0.3
v 0.6 1.3 -0.4
v 0.6 1.3 -0.5
v 0.6 1.4 0.3
v 0.6 1.4 -0.3
v 0.6 1.4 -0.4
v 0.6 1.4 -0.5
v 0.5 0.7 0.7
v 0.5 0.9 0.7
v 0.6 0.7 0.7
v 0.6 0.9 0.7
v 0.5 0 0.5
v 0.5 0.4 0.5
v 0.5 0.6 0.5
v 0.5 0.7 0.5
v 0.6 0 0.5
v 0.6 0.4 0.5
v 0.6 0.6 0.5
v 0.6 0.7 0.5
v 0.5 0.5 0.4
v 0.5 0.6 0.4
v 0.5 0.9 0.4
v 0.5 1 0.4
v 0.5 1.2 0.4
v 0.5 1.3 0.4
v 0.6 0.5 0.4
v 0.6 0.6 0.4
v 0.6 0.9 0.4
v 0.6 1 0.4
v 0.6 1.2 0.4
v 0.6 1.3 0.4
v 0.5 0.3 0.3
v 0.5 0.4 0.3
v 0.5 0.5 0.3
v 0.5 0.8 0.3
v 0.5 0.9 0.3
v 0.5 1 0.3
v 0.5 1.2 0.3
v 0.5 1.3 0.3
v 0.5 1.4 0.3
v 0.6 0.3 0.3
v 0.6 0.4 0.3
v 0.6 0.5 0.3
v 0.6 0.8 0.3
v 0.6 0.9 0.3
v 0.6 1 0.3
v 0.6 1.2 0.3
v 0.6 1.3 0.3
v 0.6 1.4 0.3
v 0.5 0.7 0.2
v 0.5 0.8 0.2
v 0.6 0.7 0.2
v 0.6 0.8 0.2
v 0.5 0 -0.2
v 0.5 0.1 -0.2
v 0.6 0 -0.2
v 0.6 0.1 -0.2
v 0.5 0.7 -0.4
v 0.5 0.8 -0.4
v 0.5 1.3 -0.4
v 0.5 1.4 -0.4
v 0.6 0.7 -0.4
v 0.6 0.8 -0.4
v 0.6 1.3 -0.4
v 0.6 1.4 -0.4
v 0.5 0.3 -0.5
v 0.5 0.4 -0.5
v 0.6 0.3 -0.5
v 0.6 0.4 -0.5
v 0.5 0.8 -0.6
v 0.5 0.9 -0.6
v 0.6 0.8 -0.6
v 0.6 0.9 -0.6
v 0.5 0.8 0.5
v 0.5 0.9 0.5
v 0.6 0.8 0.5
v 0.6 0.9 0.5
v 0.5 0.3 0.4
v 0.5 0.4 0.4
v 0.6 0.3 0.4
v 0.6 0.4 0.4
v 0.5 0.7 0.3
v 0.5 0.8 0.3
v 0.6 0.7 0.3
v 0.6 0.8 0.3
v 0.5 0 0.1
v 0.5 0.1 0.1
v 0.6 0 0.1
v 0.6 0.1 0.1
v 0.5 0.7 -0.3
v 0.5 0.8 -0.3
v 0.5 1.3 -0.3
v 0.5 1.4 -0.3
v 0.6 0.7 -0.3
v 0.6 0.8 -0.3
v 0.6 1.3 -0.3
v 0.6 1.4 -0.3
v 0.5 0.3 -0.4
v 0.5 0.4 -0.4
v 0.5 0.5 -0.4
v 0.5 0.8 -0.4
v 0.5 0.9 -0.4
v 0.5 1.2 -0.4
v 0.5 1.3 -0.4
v 0.6 0.3 -0.4
v 0.6 0.4 -0.4
v 0.6 0.5 -0.4
v 0.6 0.8 -0.4
v 0.6 0.9 -0.4
v 0.6 1.2 -0.4
v 0.6 1.3 -0.4
v 0.5 0.5 -0.5
v 0.5 0.6 -0.5
v 0.5 0.9 -0.5
v 0.5 1.2 -0.5
v 0.5 1.3 -0.5
v 0.5 1.4 -0.5
v 0.6 0.5 -0.5
v 0.6 0.6 -0.5
v 0.6 0.9 -0.5
v 0.6 1.2 -0.5
v 0.6 1.3 -0.5
v 0.6 1.4 -0.5
v 0.5 0 -0.6
v 0.5 0.4 -0.6
v 0.5 0.6 -0.6
v 0.5 0.7 -0.6
v 0.6 0 -0.6
v 0.6 0.4 -0.6
v 0.6 0.6 -0.6
v 0.6 0.7 -0.6
v 0.5 0.7 -0.8
v 0.5 0.9 -0.8
v 0.6 0.7 -0.8
v 0.6 0.9 -0.8
v 0.5 0 0.5
v 0.6 0 0.5
v 0.5 0 0.3
v 0.6 0 0.3
v 0.5 0 0.1
v 0.6 0 0.1
v 0.5 0 -0.2
v 0.6 0 -0.2
v 0.5 0 -0.4
v 0.6 0 -0.4
v 0.5 0 -0.6
v 0.6 0 -0.6
v 0.5 0.1 0.1
v 0.6 0.1 0.1
v 0.5 0.1 -0.2
v 0.6 0.1 -0.2
v 0.5 0.5 0.4
v 0.6 0.5 0.4
v 0.5 0.5 0.3
v 0.6 0.5 0.3
v 0.5 0.5 -0.4
v 0.6 0.5 -0.4
v 0.5 0.5 -0.5
v 0.6 0.5 -0.5
v 0.5 0.6 0.5
v 0.6 0.6 0.5
v 0.5 0.6 0.4
v 0.6 0.6 0.4
v 0.5 0.6 -0.5
v 0.6 0.6 -0.5
v 0.5 0.6 -0.6
v 0.6 0.6 -0.6
v 0.5 0.7 0.7
v 0.6 0.7 0.7
v 0.5 0.7 0.5
v 0.6 0.7 0.5
v 0.5 0.7 -0.6
v 0.6 0.7 -0.6
v 0.5 0.7 -0.8
v 0.6 0.7 -0.8
v 0.5 0.8 0.3
v 0.6 0.8 0.3
v 0.5 0.8 0.2
v 0.6 0.8 0.2
v 0.5 0.8 -0.3
v 0.6 0.8 -0.3
v 0.5 0.8 -0.4
v 0.6 0.8 -0.4
v 0.5 0.9 0.4
v 0.6 0.9 0.4
v 0.5 0.9 0.3
v 0.6 0.9 0.3
v 0.5 0.9 -0.4
v 0.6 0.9 -0.4
v 0.5 0.9 -0.5
v 0.6 0.9 -0.5
v 0.5 1.2 0.4
v 0.6 1.2 0.4
v 0.5 1.2 0.3
v 0.6 1.2 0.3
v 0.5 1.3 -0.4
v 0.6 1.3 -0.4
v 0.5 1.3 -0.5
v 0.6 1.3 -0.5
v 0.5 0.3 0.4
v 0.6 0.3 0.4
v 0.5 0.3 0.3
v 0.6 0.3 0.3
v 0.5 0.3 -0.4
v 0.6 0.3 -0.4
v 0.5 0.3 -0.5
v 0.6 0.3 -0.5
v 0.5 0.4 0.5
v 0.6 0.4 0.5
v 0.5 0.4 0.4
v 0.6 0.4 0.4
v 0.5 0.4 -0.5
v 0.6 0.4 -0.5
v 0.5 0.4 -0.6
v 0.6 0.4 -0.6
v 0.5 0.7 0.3
v 0.6 0.7 0.3
v 0.5 0.7 0.2
v 0.6 0.7 0.2
v 0.5 0.7 -0.3
v 0.6 0.7 -0.3
v 0.5 0.7 -0.4
v 0.6 0.7 -0.4
v 0.5 0.8 0.5
v 0.6 0.8 0.5
v 0.5 0.8 0.3
v 0.6 0.8 0.3
v 0.5 0.8 -0.4
v 0.6 0.8 -0.4
v 0.5 0.8 -0.6
v 0.6 0.8 -0.6
v 0.5 0.9 0.7
v 0.6 0.9 0.7
v 0.5 0.9 0.5
v 0.6 0.9 0.5
v 0.5 0.9 -0.6
v 0.6 0.9 -0.6
v 0.5 0.9 -0.8
v 0.6 0.9 -0.8
v 0.5 1 0.4
v 0.6 1 0.4
v 0.5 1 0.3
v 0.6 1 0.3
v 0.5 1.2 -0.4
v 0.6 1.2 -0.4
v 0.5 1.2 -0.5
v 0.6 1.2 -0.5
v 0.5 1.3 0.4
v 0.6 1.3 0.4
v 0.5 1.3 0.3
v 0.6 1.3 0.3
v 0.5 1.3 -0.3
v 0.6 1.3 -0.3
v 0.5 1.3 -0.4
v 0.6 1.3 -0.4
v 0.5 1.4 0.3
v 0.6 1.4 0.3
v 0.5 1.4 -0.3
v 0.6 1.4 -0.3
v 0.5 1.4 -0.4
v 0.6 1.4 -0.4
v 0.5 1.4 -0.5
v 0.6 1.4 -0.5

# faces
f 7/2/1 3/2/1 2/2/1
f 8/2/1 5/2/1 4/2/1
f 9/1/1 2/1/1 1/1/1
f 10/2/1 8/2/1 7/2/1
f 10/1/1 2/1/1 9/1/1
f 10/2/1 7/2/1 2/2/1
f 11/2/1 8/2/1 10/2/1
f 12/2/1 8/2/1 11/2/1
f 13/2/1 5/2/1 8/2/1
f 13/2/1 8/2/1 12/2/1
f 14/2/1 5/2/1 13/2/1
f 15/1/1 6/1/1 5/1/1
f 15/2/1 5/2/1 14/2/1
f 16/1/1 6/1/1 15/1/1
f 17/1/1 9/1/1 1/1/1
f 18/1/1 9/1/1 17/1/1
f 19/2/1 11/2/1 10/2/1
f 20/3/1 12/3/1 11/3/1
f 20/2/1 11/2/1 19/2/1
f 21/2/1 13/2/1 12/2/1
f 21/3/1 12/3/1 20/3/1
f 22/3/1 14/3/1 13/3/1
f 22/2/1 13/2/1 21/2/1
f 23/2/1 15/2/1 14/2/1
f 23/3/1 14/3/1 22/3/1
f 24/2/1 15/2/1 23/2/1
f 25/1/1 6/1/1 16/1/1
f 26/1/1 6/1/1 25/1/1
f 28/1/1 20/1/1 19/1/1
f 29/1/1 24/1/1 23/1/1
f 32/1/1 28/1/1 27/1/1
f 33/1/1 30/1/1 29/1/1
f 36/1/1 32/1/1 31/1/1
f 37/1/1 20/1/1 28/1/1
f 37/1/1 28/1/1 32/1/1
f 37/1/1 32/1/1 36/1/1
f 38/2/1 21/2/1 20/2/1
f 38/1/1 20/1/1 37/1/1
f 39/1/1 22/1/1 21/1/1
f 39/2/1 21/2/1 38/2/1
f 40/2/1 23/2/1 22/2/1
f 40/1/1 22/1/1 39/1/1
f 41/1/1 34/1/1 33/1/1
f 41/2/1 23/2/1 40/2/1
f 41/1/1 29/1/1 23/1/1
f 41/1/1 33/1/1 29/1/1
f 42/1/1 34/1/1 41/1/1
f 43/1/1 34/1/1 42/1/1
f 45/1/1 37/1/1 36/1/1
f 45/3/1 36/3/1 35/3/1
f 46/1/1 37/1/1 45/1/1
f 47/3/1 40/3/1 39/3/1
f 47/3/1 41/3/1 40/3/1
f 47/3/1 39/3/1 38/3/1
f 48/3/1 41/3/1 47/3/1
f 49/3/1 41/3/1 48/3/1
f 50/1/1 43/1/1 42/1/1
f 51/3/1 44/3/1 43/3/1
f 51/1/1 43/1/1 50/1/1
f 52/3/1 45/3/1 35/3/1
f 53/3/1 45/3/1 52/3/1
f 55/3/1 47/3/1 46/3/1
f 55/3/1 48/3/1 47/3/1
f 56/3/1 48/3/1 55/3/1
f 57/3/1 48/3/1 56/3/1
f 58/3/1 48/3/1 57/3/1
f 59/2/1 50/2/1 49/2/1
f 59/3/1 48/3/1 58/3/1
f 59/2/1 49/2/1 48/2/1
f 60/2/1 50/2/1 59/2/1
f 62/3/1 44/3/1 51/3/1
f 63/3/1 44/3/1 62/3/1
f 64/3/1 55/3/1 54/3/1
f 64/3/1 56/3/1 55/3/1
f 65/3/1 56/3/1 64/3/1
f 66/2/1 61/2/1 60/2/1
f 66/2/1 60/2/1 59/2/1
f 66/2/1 59/2/1 58/2/1
f 67/2/1 61/2/1 66/2/1
f 68/3/1 56/3/1 65/3/1
f 68/4/1 57/4/1 56/4/1
f 69/3/1 58/3/1 57/3/1
f 69/4/1 57/4/1 68/4/1
f 71/3/1 68/3/1 65/3/1
f 71/3/1 69/3/1 68/3/1
f 72/3/1 58/3/1 69/3/1
f 72/2/1 66/2/1 58/2/1
f 72/3/1 69/3/1 71/3/1
f 73/1/1 67/1/1 66/1/1
f 73/2/1 66/2/1 72/2/1
f 74/2/1 61/2/1 67/2/1
f 74/1/1 67/1/1 73/1/1
f 75/2/1 61/2/1 74/2/1
f 76/2/1 61/2/1 75/2/1
f 77/2/1 73/2/1 72/2/1
f 77/2/1 71/2/1 70/2/1
f 77/2/1 72/2/1 71/2/1
f 77/2/1 74/2/1 73/2/1
f 78/2/1 74/2/1 77/2/1
f 79/1/1 75/1/1 74/1/1
f 79/2/1 74/2/1 78/2/1
f 80/1/1 75/1/1 79/1/1
f 82/2/1 79/2/1 78/2/1
f 83/2/1 79/2/1 82/2/1
f 84/1/1 81/1/1 80/1/1
f 85/1/1 81/1/1 84/1/1
f 87/2/2 88/2/2 92/2/2
f 89/2/2 90/2/2 93/2/2
f 86/1/2 87/1/2 94/1/2
f 92/2/2 93/2/2 95/2/2
f 94/1/2 87/1/2 95/1/2
f 87/2/2 92/2/2 95/2/2
f 95/2/2 93/2/2 96/2/2
f 96/2/2 93/2/2 97/2/2
f 93/2/2 90/2/2 98/2/2
f 97/2/2 93/2/2 98/2/2
f 98/2/2 90/2/2 99/2/2
f 90/1/2 91/1/2 100/1/2
f 99/2/2 90/2/2 100/2/2
f 100/1/2 91/1/2 101/1/2
f 86/1/2 94/1/2 102/1/2
f 102/1/2 94/1/2 103/1/2
f 95/2/2 96/2/2 104/2/2
f 96/3/2 97/3/2 105/3/2
f 104/2/2 96/2/2 105/2/2
f 97/2/2 98/2/2 106/2/2
f 105/3/2 97/3/2 106/3/2
f 98/3/2 99/3/2 107/3/2
f 106/2/2 98/2/2 107/2/2
f 99/2/2 100/2/2 108/2/2
f 107/3/2 99/3/2 108/3/2
f 108/2/2 100/2/2 109/2/2
f 101/1/2 91/1/2 110/1/2
f 110/1/2 91/1/2 111/1/2
f 104/1/2 105/1/2 113/1/2
f 108/1/2 109/1/2 114/1/2
f 112/1/2 113/1/2 117/1/2
f 114/1/2 115/1/2 118/1/2
f 116/1/2 117/1/2 121/1/2
f 113/1/2 105/1/2 122/1/2
f 117/1/2 113/1/2 122/1/2
f 121/1/2 117/1/2 122/1/2
f 105/2/2 106/2/2 123/2/2
f 122/1/2 105/1/2 123/1/2
f 106/1/2 107/1/2 124/1/2
f 123/2/2 106/2/2 124/2/2
f 107/2/2 108/2/2 125/2/2
f 124/1/2 107/1/2 125/1/2
f 118/1/2 119/1/2 126/1/2
f 125/2/2 108/2/2 126/2/2
f 108/1/2 114/1/2 126/1/2
f 114/1/2 118/1/2 126/1/2
f 126/1/2 119/1/2 127/1/2
f 127/1/2 119/1/2 128/1/2
f 121/1/2 122/1/2 130/1/2
f 120/3/2 121/3/2 130/3/2
f 130/1/2 122/1/2 131/1/2
f 124/3/2 125/3/2 132/3/2
f 125/3/2 126/3/2 132/3/2
f 123/3/2 124/3/2 132/3/2
f 132/3/2 126/3/2 133/3/2
f 133/3/2 126/3/2 134/3/2
f 127/1/2 128/1/2 135/1/2
f 128/3/2 129/3/2 136/3/2
f 135/1/2 128/1/2 136/1/2
f 120/3/2 130/3/2 137/3/2
f 137/3/2 130/3/2 138/3/2
f 131/3/2 132/3/2 140/3/2
f 132/3/2 133/3/2 140/3/2
f 140/3/2 133/3/2 141/3/2
f 141/3/2 133/3/2 142/3/2
f 142/3/2 133/3/2 143/3/2
f 134/2/2 135/2/2 144/2/2
f 143/3/2 133/3/2 144/3/2
f 133/2/2 134/2/2 144/2/2
f 144/2/2 135/2/2 145/2/2
f 136/3/2 129/3/2 147/3/2
f 147/3/2 129/3/2 148/3/2
f 139/3/2 140/3/2 149/3/2
f 140/3/2 141/3/2 149/3/2
f 149/3/2 141/3/2 150/3/2
f 145/2/2 146/2/2 151/2/2
f 144/2/2 145/2/2 151/2/2
f 143/2/2 144/2/2 151/2/2
f 151/2/2 146/2/2 152/2/2
f 150/3/2 141/3/2 153/3/2
f 141/4/2 142/4/2 153/4/2
f 142/3/2 143/3/2 154/3/2
f 153/4/2 142/4/2 154/4/2
f 150/3/2 153/3/2 156/3/2
f 153/3/2 154/3/2 156/3/2
f 154/3/2 143/3/2 157/3/2
f 143/2/2 151/2/2 157/2/2
f 156/3/2 154/3/2 157/3/2
f 151/1/2 152/1/2 158/1/2
f 157/2/2 151/2/2 158/2/2
f 152/2/2 146/2/2 159/2/2
f 158/1/2 152/1/2 159/1/2
f 159/2/2 146/2/2 160/2/2
f 160/2/2 146/2/2 161/2/2
f 157/2/2 158/2/2 162/2/2
f 155/2/2 156/2/2 162/2/2
f 156/2/2 157/2/2 162/2/2
f 158/2/2 159/2/2 162/2/2
f 162/2/2 159/2/2 163/2/2
f 159/1/2 160/1/2 164/1/2
f 163/2/2 159/2/2 164/2/2
f 164/1/2 160/1/2 165/1/2
f 163/2/2 164/2/2 167/2/2
f 167/2/2 164/2/2 168/2/2
f 165/1/2 166/1/2 169/1/2
f 169/1/2 166/1/2 170/1/2
f 173/3/3 172/3/3 171/3/3
f 174/3/3 172/3/3 173/3/3
f 179/1/3 176/1/3 175/1/3
f 180/1/3 176/1/3 179/1/3
f 181/1/3 178/1/3 177/1/3
f 182/1/3 178/1/3 181/1/3
f 189/1/3 184/1/3 183/1/3
f 190/1/3 184/1/3 189/1/3
f 191/3/3 186/3/3 185/3/3
f 192/3/3 186/3/3 191/3/3
f 193/2/3 188/2/3 187/2/3
f 194/2/3 188/2/3 193/2/3
f 204/2/3 196/2/3 195/2/3
f 205/1/3 197/1/3 196/1/3
f 205/2/3 196/2/3 204/2/3
f 206/1/3 197/1/3 205/1/3
f 207/3/3 199/3/3 198/3/3
f 208/3/3 199/3/3 207/3/3
f 209/3/3 201/3/3 200/3/3
f 210/3/3 201/3/3 209/3/3
f 211/2/3 203/2/3 202/2/3
f 212/2/3 203/2/3 211/2/3
f 215/3/3 214/3/3 213/3/3
f 216/3/3 214/3/3 215/3/3
f 219/2/3 218/2/3 217/2/3
f 220/2/3 218/2/3 219/2/3
f 225/1/3 222/1/3 221/1/3
f 226/1/3 222/1/3 225/1/3
f 227/1/3 224/1/3 223/1/3
f 228/1/3 224/1/3 227/1/3
f 231/1/3 230/1/3 229/1/3
f 232/1/3 230/1/3 231/1/3
f 235/3/3 234/3/3 233/3/3
f 236/3/3 234/3/3 235/3/3
f 237/3/4 238/3/4 239/3/4
f 239/3/4 238/3/4 240/3/4
f 241/1/4 242/1/4 243/1/4
f 243/1/4 242/1/4 244/1/4
f 245/1/4 246/1/4 247/1/4
f 247/1/4 246/1/4 248/1/4
f 249/2/4 250/2/4 251/2/4
f 251/2/4 250/2/4 252/2/4
f 253/3/4 254/3/4 257/3/4
f 257/3/4 254/3/4 258/3/4
f 255/2/4 256/2/4 259/2/4
f 259/2/4 256/2/4 260/2/4
f 261/2/4 262/2/4 268/2/4
f 262/1/4 263/1/4 269/1/4
f 268/2/4 262/2/4 269/2/4
f 269/1/4 263/1/4 270/1/4
f 264/2/4 265/2/4 271/2/4
f 271/2/4 265/2/4 272/2/4
f 266/1/4 267/1/4 273/1/4
f 273/1/4 267/1/4 274/1/4
f 275/1/4 276/1/4 281/1/4
f 281/1/4 276/1/4 282/1/4
f 277/2/4 278/2/4 283/2/4
f 283/2/4 278/2/4 284/2/4
f 279/1/4 280/1/4 285/1/4
f 285/1/4 280/1/4 286/1/4
f 287/1/4 288/1/4 291/1/4
f 291/1/4 288/1/4 292/1/4
f 289/1/4 290/1/4 293/1/4
f 293/1/4 290/1/4 294/1/4
f 295/3/4 296/3/4 297/3/4
f 297/3/4 296/3/4 298/3/4
f 301/1/5 300/1/5 299/1/5
f 302/1/5 300/1/5 301/1/5
f 303/2/5 302/2/5 301/2/5
f 304/2/5 302/2/5 303/2/5
f 307/2/5 306/2/5 305/2/5
f 308/2/5 306/2/5 307/2/5
f 309/1/5 308/1/5 307/1/5
f 310/1/5 308/1/5 309/1/5
f 313/2/5 312/2/5 311/2/5
f 314/2/5 312/2/5 313/2/5
f 317/1/5 316/1/5 315/1/5
f 318/1/5 316/1/5 317/1/5
f 321/1/5 320/1/5 319/1/5
f 322/1/5 320/1/5 321/1/5
f 325/1/5 324/1/5 323/1/5
f 326/1/5 324/1/5 325/1/5
f 329/1/5 328/1/5 327/1/5
f 330/1/5 328/1/5 329/1/5
f 333/3/5 332/3/5 331/3/5
f 334/3/5 332/3/5 333/3/5
f 337/3/5 336/3/5 335/3/5
f 338/3/5 336/3/5 337/3/5
f 341/3/5 340/3/5 339/3/5
f 342/3/5 340/3/5 341/3/5
f 345/2/5 344/2/5 343/2/5
f 346/2/5 344/2/5 345/2/5
f 349/3/5 348/3/5 347/3/5
f 350/3/5 348/3/5 349/3/5
f 353/2/5 352/2/5 351/2/5
f 354/2/5 352/2/5 353/2/5
f 357/2/5 356/2/5 355/2/5
f 358/2/5 356/2/5 357/2/5
f 361/1/5 360/1/5 359/1/5
f 362/1/5 360/1/5 361/1/5
f 363/1/6 364/1/6 365/1/6
f 365/1/6 364/1/6 366/1/6
f 367/1/6 368/1/6 369/1/6
f 369/1/6 368/1/6 370/1/6
f 371/1/6 372/1/6 373/1/6
f 373/1/6 372/1/6 374/1/6
f 375/1/6 376/1/6 377/1/6
f 377/1/6 376/1/6 378/1/6
f 379/1/6 380/1/6 381/1/6
f 381/1/6 380/1/6 382/1/6
f 383/1/6 384/1/6 385/1/6
f 385/1/6 384/1/6 386/1/6
f 387/1/6 388/1/6 389/1/6
f 389/1/6 388/1/6 390/1/6
f 391/1/6 392/1/6 393/1/6
f 393/1/6 392/1/6 394/1/6
f 395/3/6 396/3/6 397/3/6
f 397/3/6 396/3/6 398/3/6
f 399/3/6 400/3/6 401/3/6
f 401/3/6 400/3/6 402/3/6
f 403/3/6 404/3/6 405/3/6
f 405/3/6 404/3/6 406/3/6
f 407/2/6 408/2/6 409/2/6
f 409/2/6 408/2/6 410/2/6
f 411/2/6 412/2/6 413/2/6
f 413/2/6 412/2/6 414/2/6
f 415/1/6 416/1/6 417/1/6
f 417/1/6 416/1/6 418/1/6
f 419/2/6 420/2/6 421/2/6
f 421/2/6 420/2/6 422/2/6
f 423/1/6 424/1/6 425/1/6
f 425/1/6 424/1/6 426/1/6
