# MagicaVoxel @ Ephtracy

# group
o 

# material
mtllib fall1.mtl
usemtl palette

# normals
vn 0 0 1
vn 0 0 -1
vn 1 0 0
vn -1 0 0
vn 0 -1 0
vn 0 1 0

# texcoords
vt 0.970703 0.5
vt 0.974609 0.5
vt 0.978516 0.5
vt 0.982422 0.5

# verts
v -0.9 0 0.1
v -1.1 0 0.1
v -0.9 0.1 0.1
v -1 0.1 0.1
v -1.1 0.1 0.1
v -1.2 0.1 0.1
v -0.2 0.2 0.1
v -0.4 0.2 0.1
v -0.6 0.2 0.1
v -0.8 0.2 0.1
v -1 0.2 0.1
v -1.1 0.2 0.1
v -1.2 0.2 0.1
v -1.3 0.2 0.1
v -0.6 0.3 0.1
v -0.8 0.3 0.1
v -1.1 0.3 0.1
v -1.2 0.3 0.1
v -1.3 0.3 0.1
v -1.1 0.4 0.1
v -1.2 0.4 0.1
v -0.3 0.5 0.1
v -0.4 0.5 0.1
v -0.5 0.5 0.1
v -0.6 0.5 0.1
v -0.9 0.5 0.1
v -1 0.5 0.1
v -0.2 0.6 0.1
v -0.3 0.6 0.1
v -0.4 0.6 0.1
v -0.5 0.6 0.1
v -0.6 0.6 0.1
v -0.9 0.6 0.1
v -1 0.6 0.1
v -1.1 0.6 0.1
v -0.3 0.7 0.1
v -0.4 0.7 0.1
v -1.1 0.7 0.1
v -1.3 0.7 0.1
v -0.2 0.8 0.1
v -0.3 0.8 0.1
v -1.3 0.8 0.1
v -1.5 0.8 0.1
v 0 0.9 0.1
v -0.2 0.9 0.1
v -0.4 0.9 0.1
v -0.5 0.9 0.1
v -0.6 0.9 0.1
v -0.9 0.9 0.1
v -1 0.9 0.1
v -1.3 0.9 0.1
v -0.2 1 0.1
v -0.4 1 0.1
v -0.5 1 0.1
v -0.8 1 0.1
v -1 1 0.1
v -1.1 1 0.1
v -1.3 1 0.1
v -1.5 1 0.1
v 0 1.1 0.1
v -0.2 1.1 0.1
v -0.3 1.1 0.1
v -0.4 1.1 0.1
v -0.5 1.1 0.1
v -0.6 1.1 0.1
v -0.7 1.1 0.1
v -0.8 1.1 0.1
v -1.1 1.1 0.1
v -1.2 1.1 0.1
v -0.3 1.2 0.1
v -0.4 1.2 0.1
v -0.8 1.2 0.1
v -1 1.2 0.1
v -0.5 1.3 0.1
v -0.6 1.3 0.1
v -0.3 1.4 0.1
v -0.4 1.4 0.1
v -0.7 1.4 0.1
v -0.8 1.4 0.1
v -1 1.4 0.1
v -1.1 1.4 0.1
v -1.2 1.4 0.1
v -0.3 1.5 0.1
v -0.4 1.5 0.1
v -1 1.5 0.1
v -1.1 1.5 0.1
v -1.2 1.5 0.1
v -0.4 1.6 0.1
v -1 1.6 0.1
v -1.1 1.6 0.1
v -1.2 1.6 0.1
v -0.9 0 0
v -1.1 0 0
v -0.9 0.1 0
v -1 0.1 0
v -1.1 0.1 0
v -1.2 0.1 0
v -0.2 0.2 0
v -0.4 0.2 0
v -0.6 0.2 0
v -0.8 0.2 0
v -1 0.2 0
v -1.1 0.2 0
v -1.2 0.2 0
v -1.3 0.2 0
v -0.6 0.3 0
v -0.8 0.3 0
v -1.1 0.3 0
v -1.2 0.3 0
v -1.3 0.3 0
v -1.1 0.4 0
v -1.2 0.4 0
v -0.3 0.5 0
v -0.4 0.5 0
v -0.5 0.5 0
v -0.6 0.5 0
v -0.9 0.5 0
v -1 0.5 0
v -0.2 0.6 0
v -0.3 0.6 0
v -0.4 0.6 0
v -0.5 0.6 0
v -0.6 0.6 0
v -0.9 0.6 0
v -1 0.6 0
v -1.1 0.6 0
v -0.3 0.7 0
v -0.4 0.7 0
v -1.1 0.7 0
v -1.3 0.7 0
v -0.2 0.8 0
v -0.3 0.8 0
v -1.3 0.8 0
v -1.5 0.8 0
v 0 0.9 0
v -0.2 0.9 0
v -0.4 0.9 0
v -0.5 0.9 0
v -0.6 0.9 0
v -0.9 0.9 0
v -1 0.9 0
v -1.3 0.9 0
v -0.2 1 0
v -0.4 1 0
v -0.5 1 0
v -0.8 1 0
v -1 1 0
v -1.1 1 0
v -1.3 1 0
v -1.5 1 0
v 0 1.1 0
v -0.2 1.1 0
v -0.3 1.1 0
v -0.4 1.1 0
v -0.5 1.1 0
v -0.6 1.1 0
v -0.7 1.1 0
v -0.8 1.1 0
v -1.1 1.1 0
v -1.2 1.1 0
v -0.3 1.2 0
v -0.4 1.2 0
v -0.8 1.2 0
v -1 1.2 0
v -0.5 1.3 0
v -0.6 1.3 0
v -0.3 1.4 0
v -0.4 1.4 0
v -0.7 1.4 0
v -0.8 1.4 0
v -1 1.4 0
v -1.1 1.4 0
v -1.2 1.4 0
v -0.3 1.5 0
v -0.4 1.5 0
v -1 1.5 0
v -1.1 1.5 0
v -1.2 1.5 0
v -0.4 1.6 0
v -1 1.6 0
v -1.1 1.6 0
v -1.2 1.6 0
v 0 0.9 0.1
v 0 1.1 0.1
v 0 0.9 0
v 0 1.1 0
v -0.2 0.2 0.1
v -0.2 0.6 0.1
v -0.2 0.8 0.1
v -0.2 0.9 0.1
v -0.2 0.2 0
v -0.2 0.6 0
v -0.2 0.8 0
v -0.2 0.9 0
v -0.3 0.7 0.1
v -0.3 0.8 0.1
v -0.3 1.1 0.1
v -0.3 1.2 0.1
v -0.3 1.4 0.1
v -0.3 1.5 0.1
v -0.3 0.7 0
v -0.3 0.8 0
v -0.3 1.1 0
v -0.3 1.2 0
v -0.3 1.4 0
v -0.3 1.5 0
v -0.4 0.5 0.1
v -0.4 0.6 0.1
v -0.4 0.7 0.1
v -0.4 1 0.1
v -0.4 1.1 0.1
v -0.4 1.2 0.1
v -0.4 1.4 0.1
v -0.4 1.5 0.1
v -0.4 1.6 0.1
v -0.4 0.5 0
v -0.4 0.6 0
v -0.4 0.7 0
v -0.4 1 0
v -0.4 1.1 0
v -0.4 1.2 0
v -0.4 1.4 0
v -0.4 1.5 0
v -0.4 1.6 0
v -0.5 0.9 0.1
v -0.5 1 0.1
v -0.5 0.9 0
v -0.5 1 0
v -0.8 0.2 0.1
v -0.8 0.3 0.1
v -0.8 0.2 0
v -0.8 0.3 0
v -0.9 0 0.1
v -0.9 0.1 0.1
v -0.9 0 0
v -0.9 0.1 0
v -1 0.1 0.1
v -1 0.2 0.1
v -1 0.1 0
v -1 0.2 0
v -1.1 1.5 0.1
v -1.1 1.6 0.1
v -1.1 1.5 0
v -1.1 1.6 0
v -1.3 0.9 0.1
v -1.3 1 0.1
v -1.3 0.9 0
v -1.3 1 0
v -0.2 1 0.1
v -0.2 1.1 0.1
v -0.2 1 0
v -0.2 1.1 0
v -0.3 0.5 0.1
v -0.3 0.6 0.1
v -0.3 0.5 0
v -0.3 0.6 0
v -0.4 0.9 0.1
v -0.4 1 0.1
v -0.4 0.9 0
v -0.4 1 0
v -0.6 0.2 0.1
v -0.6 0.3 0.1
v -0.6 0.2 0
v -0.6 0.3 0
v -1 0.9 0.1
v -1 1 0.1
v -1 1.5 0.1
v -1 1.6 0.1
v -1 0.9 0
v -1 1 0
v -1 1.5 0
v -1 1.6 0
v -1.1 0 0.1
v -1.1 0.1 0.1
v -1.1 0.4 0.1
v -1.1 0.6 0.1
v -1.1 0.7 0.1
v -1.1 1 0.1
v -1.1 1.1 0.1
v -1.1 1.4 0.1
v -1.1 1.5 0.1
v -1.1 0 0
v -1.1 0.1 0
v -1.1 0.4 0
v -1.1 0.6 0
v -1.1 0.7 0
v -1.1 1 0
v -1.1 1.1 0
v -1.1 1.4 0
v -1.1 1.5 0
v -1.2 0.1 0.1
v -1.2 0.2 0.1
v -1.2 0.3 0.1
v -1.2 0.4 0.1
v -1.2 1.1 0.1
v -1.2 1.4 0.1
v -1.2 1.5 0.1
v -1.2 1.6 0.1
v -1.2 0.1 0
v -1.2 0.2 0
v -1.2 0.3 0
v -1.2 0.4 0
v -1.2 1.1 0
v -1.2 1.4 0
v -1.2 1.5 0
v -1.2 1.6 0
v -1.3 0.2 0.1
v -1.3 0.3 0.1
v -1.3 0.7 0.1
v -1.3 0.8 0.1
v -1.3 0.2 0
v -1.3 0.3 0
v -1.3 0.7 0
v -1.3 0.8 0
v -1.5 0.8 0.1
v -1.5 1 0.1
v -1.5 0.8 0
v -1.5 1 0
v -0.9 0 0.1
v -0.9 0 0
v -1.1 0 0.1
v -1.1 0 0
v -1.1 0.1 0.1
v -1.1 0.1 0
v -1.2 0.1 0.1
v -1.2 0.1 0
v -0.2 0.2 0.1
v -0.2 0.2 0
v -0.4 0.2 0.1
v -0.4 0.2 0
v -0.6 0.2 0.1
v -0.6 0.2 0
v -0.8 0.2 0.1
v -0.8 0.2 0
v -1 0.2 0.1
v -1 0.2 0
v -1.2 0.2 0.1
v -1.2 0.2 0
v -1.3 0.2 0.1
v -1.3 0.2 0
v -0.6 0.3 0.1
v -0.6 0.3 0
v -0.8 0.3 0.1
v -0.8 0.3 0
v -0.3 0.7 0.1
v -0.3 0.7 0
v -0.4 0.7 0.1
v -0.4 0.7 0
v -1.1 0.7 0.1
v -1.1 0.7 0
v -1.3 0.7 0.1
v -1.3 0.7 0
v -0.2 0.8 0.1
v -0.2 0.8 0
v -0.3 0.8 0.1
v -0.3 0.8 0
v -1.3 0.8 0.1
v -1.3 0.8 0
v -1.5 0.8 0.1
v -1.5 0.8 0
v 0 0.9 0.1
v 0 0.9 0
v -0.2 0.9 0.1
v -0.2 0.9 0
v -0.4 1 0.1
v -0.4 1 0
v -0.5 1 0.1
v -0.5 1 0
v -1 1 0.1
v -1 1 0
v -1.1 1 0.1
v -1.1 1 0
v -0.3 1.1 0.1
v -0.3 1.1 0
v -0.4 1.1 0.1
v -0.4 1.1 0
v -1.1 1.1 0.1
v -1.1 1.1 0
v -1.2 1.1 0.1
v -1.2 1.1 0
v -0.3 1.4 0.1
v -0.3 1.4 0
v -0.4 1.4 0.1
v -0.4 1.4 0
v -1.1 1.5 0.1
v -1.1 1.5 0
v -1.2 1.5 0.1
v -1.2 1.5 0
v -0.9 0.1 0.1
v -0.9 0.1 0
v -1 0.1 0.1
v -1 0.1 0
v -1.2 0.3 0.1
v -1.2 0.3 0
v -1.3 0.3 0.1
v -1.3 0.3 0
v -1.1 0.4 0.1
v -1.1 0.4 0
v -1.2 0.4 0.1
v -1.2 0.4 0
v -0.3 0.5 0.1
v -0.3 0.5 0
v -0.4 0.5 0.1
v -0.4 0.5 0
v -0.2 0.6 0.1
v -0.2 0.6 0
v -0.3 0.6 0.1
v -0.3 0.6 0
v -0.4 0.9 0.1
v -0.4 0.9 0
v -0.5 0.9 0.1
v -0.5 0.9 0
v -1 0.9 0.1
v -1 0.9 0
v -1.3 0.9 0.1
v -1.3 0.9 0
v -0.2 1 0.1
v -0.2 1 0
v -0.4 1 0.1
v -0.4 1 0
v -1.3 1 0.1
v -1.3 1 0
v -1.5 1 0.1
v -1.5 1 0
v 0 1.1 0.1
v 0 1.1 0
v -0.2 1.1 0.1
v -0.2 1.1 0
v -0.3 1.2 0.1
v -0.3 1.2 0
v -0.4 1.2 0.1
v -0.4 1.2 0
v -1.1 1.4 0.1
v -1.1 1.4 0
v -1.2 1.4 0.1
v -1.2 1.4 0
v -0.3 1.5 0.1
v -0.3 1.5 0
v -0.4 1.5 0.1
v -0.4 1.5 0
v -1 1.5 0.1
v -1 1.5 0
v -1.1 1.5 0.1
v -1.1 1.5 0
v -0.4 1.6 0.1
v -0.4 1.6 0
v -1 1.6 0.1
v -1 1.6 0
v -1.1 1.6 0.1
v -1.1 1.6 0
v -1.2 1.6 0.1
v -1.2 1.6 0

# faces
f 3/1/1 2/1/1 1/1/1
f 4/1/1 2/1/1 3/1/1
f 5/1/1 2/1/1 4/1/1
f 11/1/1 6/1/1 5/1/1
f 11/1/1 5/1/1 4/1/1
f 12/1/1 6/1/1 11/1/1
f 13/1/1 6/1/1 12/1/1
f 15/2/1 9/2/1 8/2/1
f 16/2/1 11/2/1 10/2/1
f 16/2/1 12/2/1 11/2/1
f 17/1/1 14/1/1 13/1/1
f 17/1/1 13/1/1 12/1/1
f 17/2/1 12/2/1 16/2/1
f 18/1/1 14/1/1 17/1/1
f 19/1/1 14/1/1 18/1/1
f 20/2/1 16/2/1 15/2/1
f 20/2/1 17/2/1 16/2/1
f 20/2/1 18/2/1 17/2/1
f 21/2/1 18/2/1 20/2/1
f 22/1/1 8/1/1 7/1/1
f 23/2/1 15/2/1 8/2/1
f 23/1/1 8/1/1 22/1/1
f 23/2/1 20/2/1 15/2/1
f 24/2/1 20/2/1 23/2/1
f 25/2/1 20/2/1 24/2/1
f 26/2/1 20/2/1 25/2/1
f 27/2/1 20/2/1 26/2/1
f 28/1/1 22/1/1 7/1/1
f 29/1/1 22/1/1 28/1/1
f 30/2/1 24/2/1 23/2/1
f 31/3/1 25/3/1 24/3/1
f 31/2/1 24/2/1 30/2/1
f 32/2/1 26/2/1 25/2/1
f 32/3/1 25/3/1 31/3/1
f 33/3/1 27/3/1 26/3/1
f 33/2/1 26/2/1 32/2/1
f 34/2/1 20/2/1 27/2/1
f 34/3/1 27/3/1 33/3/1
f 35/2/1 20/2/1 34/2/1
f 37/1/1 31/1/1 30/1/1
f 38/1/1 35/1/1 34/1/1
f 41/1/1 37/1/1 36/1/1
f 42/1/1 39/1/1 38/1/1
f 45/1/1 41/1/1 40/1/1
f 46/1/1 31/1/1 37/1/1
f 46/1/1 37/1/1 41/1/1
f 46/1/1 41/1/1 45/1/1
f 47/2/1 32/2/1 31/2/1
f 47/1/1 31/1/1 46/1/1
f 48/1/1 33/1/1 32/1/1
f 48/2/1 32/2/1 47/2/1
f 49/2/1 34/2/1 33/2/1
f 49/1/1 33/1/1 48/1/1
f 50/1/1 42/1/1 38/1/1
f 50/2/1 34/2/1 49/2/1
f 50/1/1 38/1/1 34/1/1
f 51/3/1 43/3/1 42/3/1
f 51/1/1 42/1/1 50/1/1
f 52/1/1 46/1/1 45/1/1
f 52/3/1 45/3/1 44/3/1
f 53/1/1 46/1/1 52/1/1
f 54/3/1 49/3/1 48/3/1
f 54/3/1 50/3/1 49/3/1
f 54/3/1 48/3/1 47/3/1
f 55/3/1 50/3/1 54/3/1
f 56/3/1 50/3/1 55/3/1
f 58/3/1 43/3/1 51/3/1
f 59/3/1 43/3/1 58/3/1
f 60/3/1 52/3/1 44/3/1
f 61/3/1 52/3/1 60/3/1
f 63/3/1 54/3/1 53/3/1
f 63/3/1 55/3/1 54/3/1
f 64/3/1 55/3/1 63/3/1
f 65/3/1 55/3/1 64/3/1
f 66/3/1 55/3/1 65/3/1
f 67/2/1 57/2/1 56/2/1
f 67/3/1 55/3/1 66/3/1
f 67/2/1 56/2/1 55/2/1
f 68/2/1 57/2/1 67/2/1
f 70/3/1 63/3/1 62/3/1
f 70/3/1 64/3/1 63/3/1
f 71/3/1 64/3/1 70/3/1
f 72/2/1 69/2/1 68/2/1
f 72/2/1 68/2/1 67/2/1
f 72/2/1 67/2/1 66/2/1
f 73/2/1 69/2/1 72/2/1
f 74/3/1 64/3/1 71/3/1
f 74/4/1 65/4/1 64/4/1
f 75/3/1 66/3/1 65/3/1
f 75/4/1 65/4/1 74/4/1
f 77/3/1 74/3/1 71/3/1
f 77/3/1 75/3/1 74/3/1
f 78/3/1 66/3/1 75/3/1
f 78/2/1 72/2/1 66/2/1
f 78/3/1 75/3/1 77/3/1
f 79/1/1 73/1/1 72/1/1
f 79/2/1 72/2/1 78/2/1
f 80/2/1 69/2/1 73/2/1
f 80/1/1 73/1/1 79/1/1
f 81/2/1 69/2/1 80/2/1
f 82/2/1 69/2/1 81/2/1
f 83/2/1 77/2/1 76/2/1
f 83/2/1 79/2/1 78/2/1
f 83/2/1 78/2/1 77/2/1
f 83/2/1 80/2/1 79/2/1
f 84/2/1 80/2/1 83/2/1
f 85/1/1 81/1/1 80/1/1
f 85/2/1 80/2/1 84/2/1
f 86/1/1 81/1/1 85/1/1
f 88/2/1 85/2/1 84/2/1
f 89/2/1 85/2/1 88/2/1
f 90/1/1 87/1/1 86/1/1
f 91/1/1 87/1/1 90/1/1
f 92/1/2 93/1/2 94/1/2
f 94/1/2 93/1/2 95/1/2
f 95/1/2 93/1/2 96/1/2
f 96/1/2 97/1/2 102/1/2
f 95/1/2 96/1/2 102/1/2
f 102/1/2 97/1/2 103/1/2
f 103/1/2 97/1/2 104/1/2
f 99/2/2 100/2/2 106/2/2
f 101/2/2 102/2/2 107/2/2
f 102/2/2 103/2/2 107/2/2
f 104/1/2 105/1/2 108/1/2
f 103/1/2 104/1/2 108/1/2
f 107/2/2 103/2/2 108/2/2
f 108/1/2 105/1/2 109/1/2
f 109/1/2 105/1/2 110/1/2
f 106/2/2 107/2/2 111/2/2
f 107/2/2 108/2/2 111/2/2
f 108/2/2 109/2/2 111/2/2
f 111/2/2 109/2/2 112/2/2
f 98/1/2 99/1/2 113/1/2
f 99/2/2 106/2/2 114/2/2
f 113/1/2 99/1/2 114/1/2
f 106/2/2 111/2/2 114/2/2
f 114/2/2 111/2/2 115/2/2
f 115/2/2 111/2/2 116/2/2
f 116/2/2 111/2/2 117/2/2
f 117/2/2 111/2/2 118/2/2
f 98/1/2 113/1/2 119/1/2
f 119/1/2 113/1/2 120/1/2
f 114/2/2 115/2/2 121/2/2
f 115/3/2 116/3/2 122/3/2
f 121/2/2 115/2/2 122/2/2
f 116/2/2 117/2/2 123/2/2
f 122/3/2 116/3/2 123/3/2
f 117/3/2 118/3/2 124/3/2
f 123/2/2 117/2/2 124/2/2
f 118/2/2 111/2/2 125/2/2
f 124/3/2 118/3/2 125/3/2
f 125/2/2 111/2/2 126/2/2
f 121/1/2 122/1/2 128/1/2
f 125/1/2 126/1/2 129/1/2
f 127/1/2 128/1/2 132/1/2
f 129/1/2 130/1/2 133/1/2
f 131/1/2 132/1/2 136/1/2
f 128/1/2 122/1/2 137/1/2
f 132/1/2 128/1/2 137/1/2
f 136/1/2 132/1/2 137/1/2
f 122/2/2 123/2/2 138/2/2
f 137/1/2 122/1/2 138/1/2
f 123/1/2 124/1/2 139/1/2
f 138/2/2 123/2/2 139/2/2
f 124/2/2 125/2/2 140/2/2
f 139/1/2 124/1/2 140/1/2
f 129/1/2 133/1/2 141/1/2
f 140/2/2 125/2/2 141/2/2
f 125/1/2 129/1/2 141/1/2
f 133/3/2 134/3/2 142/3/2
f 141/1/2 133/1/2 142/1/2
f 136/1/2 137/1/2 143/1/2
f 135/3/2 136/3/2 143/3/2
f 143/1/2 137/1/2 144/1/2
f 139/3/2 140/3/2 145/3/2
f 140/3/2 141/3/2 145/3/2
f 138/3/2 139/3/2 145/3/2
f 145/3/2 141/3/2 146/3/2
f 146/3/2 141/3/2 147/3/2
f 142/3/2 134/3/2 149/3/2
f 149/3/2 134/3/2 150/3/2
f 135/3/2 143/3/2 151/3/2
f 151/3/2 143/3/2 152/3/2
f 144/3/2 145/3/2 154/3/2
f 145/3/2 146/3/2 154/3/2
f 154/3/2 146/3/2 155/3/2
f 155/3/2 146/3/2 156/3/2
f 156/3/2 146/3/2 157/3/2
f 147/2/2 148/2/2 158/2/2
f 157/3/2 146/3/2 158/3/2
f 146/2/2 147/2/2 158/2/2
f 158/2/2 148/2/2 159/2/2
f 153/3/2 154/3/2 161/3/2
f 154/3/2 155/3/2 161/3/2
f 161/3/2 155/3/2 162/3/2
f 159/2/2 160/2/2 163/2/2
f 158/2/2 159/2/2 163/2/2
f 157/2/2 158/2/2 163/2/2
f 163/2/2 160/2/2 164/2/2
f 162/3/2 155/3/2 165/3/2
f 155/4/2 156/4/2 165/4/2
f 156/3/2 157/3/2 166/3/2
f 165/4/2 156/4/2 166/4/2
f 162/3/2 165/3/2 168/3/2
f 165/3/2 166/3/2 168/3/2
f 166/3/2 157/3/2 169/3/2
f 157/2/2 163/2/2 169/2/2
f 168/3/2 166/3/2 169/3/2
f 163/1/2 164/1/2 170/1/2
f 169/2/2 163/2/2 170/2/2
f 164/2/2 160/2/2 171/2/2
f 170/1/2 164/1/2 171/1/2
f 171/2/2 160/2/2 172/2/2
f 172/2/2 160/2/2 173/2/2
f 167/2/2 168/2/2 174/2/2
f 169/2/2 170/2/2 174/2/2
f 168/2/2 169/2/2 174/2/2
f 170/2/2 171/2/2 174/2/2
f 174/2/2 171/2/2 175/2/2
f 171/1/2 172/1/2 176/1/2
f 175/2/2 171/2/2 176/2/2
f 176/1/2 172/1/2 177/1/2
f 175/2/2 176/2/2 179/2/2
f 179/2/2 176/2/2 180/2/2
f 177/1/2 178/1/2 181/1/2
f 181/1/2 178/1/2 182/1/2
f 185/3/3 184/3/3 183/3/3
f 186/3/3 184/3/3 185/3/3
f 191/1/3 188/1/3 187/1/3
f 192/1/3 188/1/3 191/1/3
f 193/1/3 190/1/3 189/1/3
f 194/1/3 190/1/3 193/1/3
f 201/1/3 196/1/3 195/1/3
f 202/1/3 196/1/3 201/1/3
f 203/3/3 198/3/3 197/3/3
f 204/3/3 198/3/3 203/3/3
f 205/2/3 200/2/3 199/2/3
f 206/2/3 200/2/3 205/2/3
f 216/2/3 208/2/3 207/2/3
f 217/1/3 209/1/3 208/1/3
f 217/2/3 208/2/3 216/2/3
f 218/1/3 209/1/3 217/1/3
f 219/3/3 211/3/3 210/3/3
f 220/3/3 211/3/3 219/3/3
f 221/3/3 213/3/3 212/3/3
f 222/3/3 213/3/3 221/3/3
f 223/2/3 215/2/3 214/2/3
f 224/2/3 215/2/3 223/2/3
f 227/3/3 226/3/3 225/3/3
f 228/3/3 226/3/3 227/3/3
f 231/2/3 230/2/3 229/2/3
f 232/2/3 230/2/3 231/2/3
f 235/1/3 234/1/3 233/1/3
f 236/1/3 234/1/3 235/1/3
f 239/1/3 238/1/3 237/1/3
f 240/1/3 238/1/3 239/1/3
f 243/1/3 242/1/3 241/1/3
f 244/1/3 242/1/3 243/1/3
f 247/3/3 246/3/3 245/3/3
f 248/3/3 246/3/3 247/3/3
f 249/3/4 250/3/4 251/3/4
f 251/3/4 250/3/4 252/3/4
f 253/1/4 254/1/4 255/1/4
f 255/1/4 254/1/4 256/1/4
f 257/1/4 258/1/4 259/1/4
f 259/1/4 258/1/4 260/1/4
f 261/2/4 262/2/4 263/2/4
f 263/2/4 262/2/4 264/2/4
f 265/3/4 266/3/4 269/3/4
f 269/3/4 266/3/4 270/3/4
f 267/2/4 268/2/4 271/2/4
f 271/2/4 268/2/4 272/2/4
f 273/1/4 274/1/4 282/1/4
f 282/1/4 274/1/4 283/1/4
f 275/2/4 276/2/4 284/2/4
f 276/1/4 277/1/4 285/1/4
f 284/2/4 276/2/4 285/2/4
f 285/1/4 277/1/4 286/1/4
f 278/2/4 279/2/4 287/2/4
f 287/2/4 279/2/4 288/2/4
f 280/1/4 281/1/4 289/1/4
f 289/1/4 281/1/4 290/1/4
f 291/1/4 292/1/4 299/1/4
f 299/1/4 292/1/4 300/1/4
f 293/2/4 294/2/4 301/2/4
f 301/2/4 294/2/4 302/2/4
f 295/2/4 296/2/4 303/2/4
f 303/2/4 296/2/4 304/2/4
f 297/1/4 298/1/4 305/1/4
f 305/1/4 298/1/4 306/1/4
f 307/1/4 308/1/4 311/1/4
f 311/1/4 308/1/4 312/1/4
f 309/1/4 310/1/4 313/1/4
f 313/1/4 310/1/4 314/1/4
f 315/3/4 316/3/4 317/3/4
f 317/3/4 316/3/4 318/3/4
f 321/1/5 320/1/5 319/1/5
f 322/1/5 320/1/5 321/1/5
f 325/1/5 324/1/5 323/1/5
f 326/1/5 324/1/5 325/1/5
f 329/1/5 328/1/5 327/1/5
f 330/1/5 328/1/5 329/1/5
f 331/2/5 330/2/5 329/2/5
f 332/2/5 330/2/5 331/2/5
f 335/2/5 334/2/5 333/2/5
f 336/2/5 334/2/5 335/2/5
f 339/1/5 338/1/5 337/1/5
f 340/1/5 338/1/5 339/1/5
f 343/2/5 342/2/5 341/2/5
f 344/2/5 342/2/5 343/2/5
f 347/1/5 346/1/5 345/1/5
f 348/1/5 346/1/5 347/1/5
f 351/1/5 350/1/5 349/1/5
f 352/1/5 350/1/5 351/1/5
f 355/1/5 354/1/5 353/1/5
f 356/1/5 354/1/5 355/1/5
f 359/3/5 358/3/5 357/3/5
f 360/3/5 358/3/5 359/3/5
f 363/3/5 362/3/5 361/3/5
f 364/3/5 362/3/5 363/3/5
f 367/3/5 366/3/5 365/3/5
f 368/3/5 366/3/5 367/3/5
f 371/2/5 370/2/5 369/2/5
f 372/2/5 370/2/5 371/2/5
f 375/3/5 374/3/5 373/3/5
f 376/3/5 374/3/5 375/3/5
f 379/2/5 378/2/5 377/2/5
f 380/2/5 378/2/5 379/2/5
f 383/2/5 382/2/5 381/2/5
f 384/2/5 382/2/5 383/2/5
f 387/1/5 386/1/5 385/1/5
f 388/1/5 386/1/5 387/1/5
f 389/1/6 390/1/6 391/1/6
f 391/1/6 390/1/6 392/1/6
f 393/1/6 394/1/6 395/1/6
f 395/1/6 394/1/6 396/1/6
f 397/2/6 398/2/6 399/2/6
f 399/2/6 398/2/6 400/2/6
f 401/1/6 402/1/6 403/1/6
f 403/1/6 402/1/6 404/1/6
f 405/1/6 406/1/6 407/1/6
f 407/1/6 406/1/6 408/1/6
f 409/1/6 410/1/6 411/1/6
f 411/1/6 410/1/6 412/1/6
f 413/1/6 414/1/6 415/1/6
f 415/1/6 414/1/6 416/1/6
f 417/1/6 418/1/6 419/1/6
f 419/1/6 418/1/6 420/1/6
f 421/3/6 422/3/6 423/3/6
f 423/3/6 422/3/6 424/3/6
f 425/3/6 426/3/6 427/3/6
f 427/3/6 426/3/6 428/3/6
f 429/3/6 430/3/6 431/3/6
f 431/3/6 430/3/6 432/3/6
f 433/2/6 434/2/6 435/2/6
f 435/2/6 434/2/6 436/2/6
f 437/2/6 438/2/6 439/2/6
f 439/2/6 438/2/6 440/2/6
f 441/1/6 442/1/6 443/1/6
f 443/1/6 442/1/6 444/1/6
f 445/2/6 446/2/6 447/2/6
f 447/2/6 446/2/6 448/2/6
f 449/1/6 450/1/6 451/1/6
f 451/1/6 450/1/6 452/1/6
