# MagicaVoxel @ Ephtracy

# group
o 

# material
mtllib Run3.mtl
usemtl palette

# normals
vn 0 0 1
vn 0 0 -1
vn 1 0 0
vn -1 0 0
vn 0 -1 0
vn 0 1 0

# texcoords
vt 0.970703 0.5
vt 0.974609 0.5
vt 0.978516 0.5
vt 0.982422 0.5

# verts
v -0.4 0 0.1
v -0.7 0 0.1
v -0.4 0.1 0.1
v -0.5 0.1 0.1
v -1.1 0.1 0.1
v -1.2 0.1 0.1
v -0.4 0.2 0.1
v -0.5 0.2 0.1
v -0.7 0.2 0.1
v -0.8 0.2 0.1
v -1 0.2 0.1
v -1.1 0.2 0.1
v -0.3 0.3 0.1
v -0.4 0.3 0.1
v -0.7 0.3 0.1
v -0.8 0.3 0.1
v -1.1 0.3 0.1
v -1.2 0.3 0.1
v -0.2 0.4 0.1
v -0.3 0.4 0.1
v -0.5 0.4 0.1
v -0.6 0.4 0.1
v -0.9 0.4 0.1
v -1 0.4 0.1
v -1.1 0.4 0.1
v 0 0.5 0.1
v -0.2 0.5 0.1
v -0.3 0.5 0.1
v -0.4 0.5 0.1
v -0.5 0.5 0.1
v -0.6 0.5 0.1
v -0.9 0.5 0.1
v -0.2 0.6 0.1
v -0.3 0.6 0.1
v -0.4 0.6 0.1
v -0.5 0.6 0.1
v -0.9 0.6 0.1
v -1 0.6 0.1
v -1.1 0.6 0.1
v 0 0.7 0.1
v -0.2 0.7 0.1
v -0.3 0.7 0.1
v -0.4 0.7 0.1
v -0.5 0.7 0.1
v -0.6 0.7 0.1
v -0.7 0.7 0.1
v -0.9 0.7 0.1
v -1 0.7 0.1
v -0.3 0.8 0.1
v -0.4 0.8 0.1
v -0.6 0.8 0.1
v -0.7 0.8 0.1
v -0.8 0.8 0.1
v -0.9 0.8 0.1
v -0.2 0.9 0.1
v -0.3 0.9 0.1
v -0.6 0.9 0.1
v -0.8 0.9 0.1
v -0.9 0.9 0.1
v -0.1 1 0.1
v -0.2 1 0.1
v -0.3 1 0.1
v -0.4 1 0.1
v -0.5 1 0.1
v -0.6 1 0.1
v -0.9 1 0.1
v -1 1 0.1
v -0.1 1.1 0.1
v -0.2 1.1 0.1
v -0.6 1.1 0.1
v -0.8 1.1 0.1
v -0.3 1.2 0.1
v -0.4 1.2 0.1
v -0.1 1.3 0.1
v -0.2 1.3 0.1
v -0.5 1.3 0.1
v -0.6 1.3 0.1
v -0.8 1.3 0.1
v -0.9 1.3 0.1
v -1 1.3 0.1
v -0.1 1.4 0.1
v -0.2 1.4 0.1
v -0.8 1.4 0.1
v -0.9 1.4 0.1
v -1 1.4 0.1
v -0.2 1.5 0.1
v -0.8 1.5 0.1
v -0.9 1.5 0.1
v -1 1.5 0.1
v -0.4 0 0
v -0.7 0 0
v -0.4 0.1 0
v -0.5 0.1 0
v -1.1 0.1 0
v -1.2 0.1 0
v -0.4 0.2 0
v -0.5 0.2 0
v -0.7 0.2 0
v -0.8 0.2 0
v -1 0.2 0
v -1.1 0.2 0
v -0.3 0.3 0
v -0.4 0.3 0
v -0.7 0.3 0
v -0.8 0.3 0
v -1.1 0.3 0
v -1.2 0.3 0
v -0.2 0.4 0
v -0.3 0.4 0
v -0.5 0.4 0
v -0.6 0.4 0
v -0.9 0.4 0
v -1 0.4 0
v -1.1 0.4 0
v 0 0.5 0
v -0.2 0.5 0
v -0.3 0.5 0
v -0.4 0.5 0
v -0.5 0.5 0
v -0.6 0.5 0
v -0.9 0.5 0
v -0.2 0.6 0
v -0.3 0.6 0
v -0.4 0.6 0
v -0.5 0.6 0
v -0.9 0.6 0
v -1 0.6 0
v -1.1 0.6 0
v 0 0.7 0
v -0.2 0.7 0
v -0.3 0.7 0
v -0.4 0.7 0
v -0.5 0.7 0
v -0.6 0.7 0
v -0.7 0.7 0
v -0.9 0.7 0
v -1 0.7 0
v -0.3 0.8 0
v -0.4 0.8 0
v -0.6 0.8 0
v -0.7 0.8 0
v -0.8 0.8 0
v -0.9 0.8 0
v -0.2 0.9 0
v -0.3 0.9 0
v -0.6 0.9 0
v -0.8 0.9 0
v -0.9 0.9 0
v -0.1 1 0
v -0.2 1 0
v -0.3 1 0
v -0.4 1 0
v -0.5 1 0
v -0.6 1 0
v -0.9 1 0
v -1 1 0
v -0.1 1.1 0
v -0.2 1.1 0
v -0.6 1.1 0
v -0.8 1.1 0
v -0.3 1.2 0
v -0.4 1.2 0
v -0.1 1.3 0
v -0.2 1.3 0
v -0.5 1.3 0
v -0.6 1.3 0
v -0.8 1.3 0
v -0.9 1.3 0
v -1 1.3 0
v -0.1 1.4 0
v -0.2 1.4 0
v -0.8 1.4 0
v -0.9 1.4 0
v -1 1.4 0
v -0.2 1.5 0
v -0.8 1.5 0
v -0.9 1.5 0
v -1 1.5 0
v 0 0.5 0.1
v 0 0.7 0.1
v 0 0.5 0
v 0 0.7 0
v -0.1 1 0.1
v -0.1 1.1 0.1
v -0.1 1.3 0.1
v -0.1 1.4 0.1
v -0.1 1 0
v -0.1 1.1 0
v -0.1 1.3 0
v -0.1 1.4 0
v -0.2 0.4 0.1
v -0.2 0.5 0.1
v -0.2 0.9 0.1
v -0.2 1 0.1
v -0.2 1.1 0.1
v -0.2 1.3 0.1
v -0.2 1.4 0.1
v -0.2 1.5 0.1
v -0.2 0.4 0
v -0.2 0.5 0
v -0.2 0.9 0
v -0.2 1 0
v -0.2 1.1 0
v -0.2 1.3 0
v -0.2 1.4 0
v -0.2 1.5 0
v -0.3 0.3 0.1
v -0.3 0.4 0.1
v -0.3 0.6 0.1
v -0.3 0.7 0.1
v -0.3 0.8 0.1
v -0.3 0.9 0.1
v -0.3 0.3 0
v -0.3 0.4 0
v -0.3 0.6 0
v -0.3 0.7 0
v -0.3 0.8 0
v -0.3 0.9 0
v -0.4 0 0.1
v -0.4 0.1 0.1
v -0.4 0.2 0.1
v -0.4 0.3 0.1
v -0.4 0.7 0.1
v -0.4 0.8 0.1
v -0.4 0 0
v -0.4 0.1 0
v -0.4 0.2 0
v -0.4 0.3 0
v -0.4 0.7 0
v -0.4 0.8 0
v -0.5 0.1 0.1
v -0.5 0.2 0.1
v -0.5 0.1 0
v -0.5 0.2 0
v -0.8 0.2 0.1
v -0.8 0.3 0.1
v -0.8 0.2 0
v -0.8 0.3 0
v -0.9 1.4 0.1
v -0.9 1.5 0.1
v -0.9 1.4 0
v -0.9 1.5 0
v -1.1 0.1 0.1
v -1.1 0.2 0.1
v -1.1 0.1 0
v -1.1 0.2 0
v -0.2 0.6 0.1
v -0.2 0.7 0.1
v -0.2 0.6 0
v -0.2 0.7 0
v -0.7 0 0.1
v -0.7 0.2 0.1
v -0.7 0.3 0.1
v -0.7 0 0
v -0.7 0.2 0
v -0.7 0.3 0
v -0.8 0.8 0.1
v -0.8 0.9 0.1
v -0.8 1.4 0.1
v -0.8 1.5 0.1
v -0.8 0.8 0
v -0.8 0.9 0
v -0.8 1.4 0
v -0.8 1.5 0
v -0.9 0.7 0.1
v -0.9 0.8 0.1
v -0.9 0.9 0.1
v -0.9 1 0.1
v -0.9 1.3 0.1
v -0.9 1.4 0.1
v -0.9 0.7 0
v -0.9 0.8 0
v -0.9 0.9 0
v -0.9 1 0
v -0.9 1.3 0
v -0.9 1.4 0
v -1 0.6 0.1
v -1 0.7 0.1
v -1 1 0.1
v -1 1.3 0.1
v -1 1.4 0.1
v -1 1.5 0.1
v -1 0.6 0
v -1 0.7 0
v -1 1 0
v -1 1.3 0
v -1 1.4 0
v -1 1.5 0
v -1.1 0.3 0.1
v -1.1 0.4 0.1
v -1.1 0.6 0.1
v -1.1 0.3 0
v -1.1 0.4 0
v -1.1 0.6 0
v -1.2 0.1 0.1
v -1.2 0.3 0.1
v -1.2 0.1 0
v -1.2 0.3 0
v -0.4 0 0.1
v -0.4 0 0
v -0.7 0 0.1
v -0.7 0 0
v -1.1 0.1 0.1
v -1.1 0.1 0
v -1.2 0.1 0.1
v -1.2 0.1 0
v -0.4 0.2 0.1
v -0.4 0.2 0
v -0.5 0.2 0.1
v -0.5 0.2 0
v -0.8 0.2 0.1
v -0.8 0.2 0
v -1 0.2 0.1
v -1 0.2 0
v -1.1 0.2 0.1
v -1.1 0.2 0
v -0.3 0.3 0.1
v -0.3 0.3 0
v -0.4 0.3 0.1
v -0.4 0.3 0
v -0.7 0.3 0.1
v -0.7 0.3 0
v -0.8 0.3 0.1
v -0.8 0.3 0
v -0.2 0.4 0.1
v -0.2 0.4 0
v -0.3 0.4 0.1
v -0.3 0.4 0
v 0 0.5 0.1
v 0 0.5 0
v -0.2 0.5 0.1
v -0.2 0.5 0
v -0.3 0.8 0.1
v -0.3 0.8 0
v -0.4 0.8 0.1
v -0.4 0.8 0
v -0.2 0.9 0.1
v -0.2 0.9 0
v -0.3 0.9 0.1
v -0.3 0.9 0
v -0.8 0.9 0.1
v -0.8 0.9 0
v -0.9 0.9 0.1
v -0.9 0.9 0
v -0.1 1 0.1
v -0.1 1 0
v -0.2 1 0.1
v -0.2 1 0
v -0.9 1 0.1
v -0.9 1 0
v -1 1 0.1
v -1 1 0
v -0.1 1.3 0.1
v -0.1 1.3 0
v -0.2 1.3 0.1
v -0.2 1.3 0
v -0.9 1.4 0.1
v -0.9 1.4 0
v -1 1.4 0.1
v -1 1.4 0
v -0.4 0.1 0.1
v -0.4 0.1 0
v -0.5 0.1 0.1
v -0.5 0.1 0
v -1.1 0.3 0.1
v -1.1 0.3 0
v -1.2 0.3 0.1
v -1.2 0.3 0
v -0.2 0.6 0.1
v -0.2 0.6 0
v -0.3 0.6 0.1
v -0.3 0.6 0
v -1 0.6 0.1
v -1 0.6 0
v -1.1 0.6 0.1
v -1.1 0.6 0
v 0 0.7 0.1
v 0 0.7 0
v -0.2 0.7 0.1
v -0.2 0.7 0
v -0.3 0.7 0.1
v -0.3 0.7 0
v -0.4 0.7 0.1
v -0.4 0.7 0
v -0.9 0.7 0.1
v -0.9 0.7 0
v -1 0.7 0.1
v -1 0.7 0
v -0.8 0.8 0.1
v -0.8 0.8 0
v -0.9 0.8 0.1
v -0.9 0.8 0
v -0.1 1.1 0.1
v -0.1 1.1 0
v -0.2 1.1 0.1
v -0.2 1.1 0
v -0.9 1.3 0.1
v -0.9 1.3 0
v -1 1.3 0.1
v -1 1.3 0
v -0.1 1.4 0.1
v -0.1 1.4 0
v -0.2 1.4 0.1
v -0.2 1.4 0
v -0.8 1.4 0.1
v -0.8 1.4 0
v -0.9 1.4 0.1
v -0.9 1.4 0
v -0.2 1.5 0.1
v -0.2 1.5 0
v -0.8 1.5 0.1
v -0.8 1.5 0
v -0.9 1.5 0.1
v -0.9 1.5 0
v -1 1.5 0.1
v -1 1.5 0

# faces
f 3/1/1 2/1/1 1/1/1
f 4/1/1 2/1/1 3/1/1
f 8/1/1 2/1/1 4/1/1
f 9/1/1 2/1/1 8/1/1
f 12/1/1 6/1/1 5/1/1
f 14/2/1 8/2/1 7/2/1
f 14/2/1 9/2/1 8/2/1
f 15/2/1 9/2/1 14/2/1
f 16/2/1 11/2/1 10/2/1
f 17/1/1 12/1/1 11/1/1
f 17/1/1 6/1/1 12/1/1
f 18/1/1 6/1/1 17/1/1
f 20/2/1 15/2/1 14/2/1
f 20/2/1 16/2/1 15/2/1
f 20/2/1 14/2/1 13/2/1
f 21/2/1 16/2/1 20/2/1
f 22/2/1 16/2/1 21/2/1
f 23/2/1 11/2/1 16/2/1
f 23/2/1 16/2/1 22/2/1
f 24/1/1 17/1/1 11/1/1
f 24/2/1 11/2/1 23/2/1
f 25/1/1 17/1/1 24/1/1
f 27/1/1 20/1/1 19/1/1
f 28/2/1 21/2/1 20/2/1
f 28/1/1 20/1/1 27/1/1
f 29/2/1 21/2/1 28/2/1
f 30/3/1 22/3/1 21/3/1
f 30/2/1 21/2/1 29/2/1
f 31/2/1 23/2/1 22/2/1
f 31/3/1 22/3/1 30/3/1
f 32/3/1 24/3/1 23/3/1
f 32/2/1 23/2/1 31/2/1
f 32/3/1 25/3/1 24/3/1
f 33/1/1 29/1/1 28/1/1
f 33/3/1 27/3/1 26/3/1
f 33/1/1 28/1/1 27/1/1
f 34/1/1 29/1/1 33/1/1
f 35/2/1 30/2/1 29/2/1
f 35/1/1 29/1/1 34/1/1
f 35/2/1 31/2/1 30/2/1
f 36/2/1 31/2/1 35/2/1
f 37/3/1 25/3/1 32/3/1
f 37/1/1 32/1/1 31/1/1
f 38/3/1 25/3/1 37/3/1
f 39/3/1 25/3/1 38/3/1
f 40/3/1 33/3/1 26/3/1
f 41/3/1 33/3/1 40/3/1
f 42/1/1 36/1/1 35/1/1
f 42/1/1 35/1/1 34/1/1
f 43/1/1 36/1/1 42/1/1
f 44/2/1 31/2/1 36/2/1
f 44/1/1 36/1/1 43/1/1
f 45/1/1 38/1/1 37/1/1
f 45/2/1 31/2/1 44/2/1
f 45/1/1 37/1/1 31/1/1
f 46/1/1 38/1/1 45/1/1
f 47/1/1 38/1/1 46/1/1
f 48/1/1 38/1/1 47/1/1
f 50/1/1 44/1/1 43/1/1
f 50/1/1 45/1/1 44/1/1
f 51/2/1 46/2/1 45/2/1
f 51/1/1 45/1/1 50/1/1
f 52/1/1 47/1/1 46/1/1
f 52/2/1 46/2/1 51/2/1
f 53/1/1 47/1/1 52/1/1
f 54/1/1 47/1/1 53/1/1
f 56/3/1 51/3/1 50/3/1
f 56/3/1 50/3/1 49/3/1
f 56/3/1 53/3/1 52/3/1
f 56/3/1 52/3/1 51/3/1
f 57/3/1 53/3/1 56/3/1
f 58/3/1 53/3/1 57/3/1
f 61/3/1 56/3/1 55/3/1
f 61/3/1 57/3/1 56/3/1
f 62/3/1 57/3/1 61/3/1
f 63/3/1 57/3/1 62/3/1
f 64/3/1 57/3/1 63/3/1
f 65/2/1 59/2/1 58/2/1
f 65/3/1 57/3/1 64/3/1
f 65/2/1 58/2/1 57/2/1
f 66/2/1 59/2/1 65/2/1
f 68/3/1 61/3/1 60/3/1
f 68/3/1 62/3/1 61/3/1
f 69/3/1 62/3/1 68/3/1
f 70/2/1 66/2/1 65/2/1
f 70/2/1 67/2/1 66/2/1
f 70/2/1 65/2/1 64/2/1
f 71/2/1 67/2/1 70/2/1
f 72/3/1 62/3/1 69/3/1
f 72/4/1 63/4/1 62/4/1
f 73/3/1 64/3/1 63/3/1
f 73/4/1 63/4/1 72/4/1
f 75/3/1 72/3/1 69/3/1
f 75/3/1 73/3/1 72/3/1
f 76/3/1 64/3/1 73/3/1
f 76/2/1 70/2/1 64/2/1
f 76/3/1 73/3/1 75/3/1
f 77/1/1 71/1/1 70/1/1
f 77/2/1 70/2/1 76/2/1
f 78/2/1 67/2/1 71/2/1
f 78/1/1 71/1/1 77/1/1
f 79/2/1 67/2/1 78/2/1
f 80/2/1 67/2/1 79/2/1
f 81/2/1 77/2/1 76/2/1
f 81/2/1 75/2/1 74/2/1
f 81/2/1 76/2/1 75/2/1
f 81/2/1 78/2/1 77/2/1
f 82/2/1 78/2/1 81/2/1
f 83/1/1 79/1/1 78/1/1
f 83/2/1 78/2/1 82/2/1
f 84/1/1 79/1/1 83/1/1
f 86/2/1 83/2/1 82/2/1
f 87/2/1 83/2/1 86/2/1
f 88/1/1 85/1/1 84/1/1
f 89/1/1 85/1/1 88/1/1
f 90/1/2 91/1/2 92/1/2
f 92/1/2 91/1/2 93/1/2
f 93/1/2 91/1/2 97/1/2
f 97/1/2 91/1/2 98/1/2
f 94/1/2 95/1/2 101/1/2
f 96/2/2 97/2/2 103/2/2
f 97/2/2 98/2/2 103/2/2
f 103/2/2 98/2/2 104/2/2
f 99/2/2 100/2/2 105/2/2
f 100/1/2 101/1/2 106/1/2
f 101/1/2 95/1/2 106/1/2
f 106/1/2 95/1/2 107/1/2
f 103/2/2 104/2/2 109/2/2
f 104/2/2 105/2/2 109/2/2
f 102/2/2 103/2/2 109/2/2
f 109/2/2 105/2/2 110/2/2
f 110/2/2 105/2/2 111/2/2
f 105/2/2 100/2/2 112/2/2
f 111/2/2 105/2/2 112/2/2
f 100/1/2 106/1/2 113/1/2
f 112/2/2 100/2/2 113/2/2
f 113/1/2 106/1/2 114/1/2
f 108/1/2 109/1/2 116/1/2
f 109/2/2 110/2/2 117/2/2
f 116/1/2 109/1/2 117/1/2
f 117/2/2 110/2/2 118/2/2
f 110/3/2 111/3/2 119/3/2
f 118/2/2 110/2/2 119/2/2
f 111/2/2 112/2/2 120/2/2
f 119/3/2 111/3/2 120/3/2
f 112/3/2 113/3/2 121/3/2
f 120/2/2 112/2/2 121/2/2
f 113/3/2 114/3/2 121/3/2
f 117/1/2 118/1/2 122/1/2
f 115/3/2 116/3/2 122/3/2
f 116/1/2 117/1/2 122/1/2
f 122/1/2 118/1/2 123/1/2
f 118/2/2 119/2/2 124/2/2
f 123/1/2 118/1/2 124/1/2
f 119/2/2 120/2/2 124/2/2
f 124/2/2 120/2/2 125/2/2
f 121/3/2 114/3/2 126/3/2
f 120/1/2 121/1/2 126/1/2
f 126/3/2 114/3/2 127/3/2
f 127/3/2 114/3/2 128/3/2
f 115/3/2 122/3/2 129/3/2
f 129/3/2 122/3/2 130/3/2
f 124/1/2 125/1/2 131/1/2
f 123/1/2 124/1/2 131/1/2
f 131/1/2 125/1/2 132/1/2
f 125/2/2 120/2/2 133/2/2
f 132/1/2 125/1/2 133/1/2
f 126/1/2 127/1/2 134/1/2
f 133/2/2 120/2/2 134/2/2
f 120/1/2 126/1/2 134/1/2
f 134/1/2 127/1/2 135/1/2
f 135/1/2 127/1/2 136/1/2
f 136/1/2 127/1/2 137/1/2
f 132/1/2 133/1/2 139/1/2
f 133/1/2 134/1/2 139/1/2
f 134/2/2 135/2/2 140/2/2
f 139/1/2 134/1/2 140/1/2
f 135/1/2 136/1/2 141/1/2
f 140/2/2 135/2/2 141/2/2
f 141/1/2 136/1/2 142/1/2
f 142/1/2 136/1/2 143/1/2
f 139/3/2 140/3/2 145/3/2
f 138/3/2 139/3/2 145/3/2
f 141/3/2 142/3/2 145/3/2
f 140/3/2 141/3/2 145/3/2
f 145/3/2 142/3/2 146/3/2
f 146/3/2 142/3/2 147/3/2
f 144/3/2 145/3/2 150/3/2
f 145/3/2 146/3/2 150/3/2
f 150/3/2 146/3/2 151/3/2
f 151/3/2 146/3/2 152/3/2
f 152/3/2 146/3/2 153/3/2
f 147/2/2 148/2/2 154/2/2
f 153/3/2 146/3/2 154/3/2
f 146/2/2 147/2/2 154/2/2
f 154/2/2 148/2/2 155/2/2
f 149/3/2 150/3/2 157/3/2
f 150/3/2 151/3/2 157/3/2
f 157/3/2 151/3/2 158/3/2
f 154/2/2 155/2/2 159/2/2
f 155/2/2 156/2/2 159/2/2
f 153/2/2 154/2/2 159/2/2
f 159/2/2 156/2/2 160/2/2
f 158/3/2 151/3/2 161/3/2
f 151/4/2 152/4/2 161/4/2
f 152/3/2 153/3/2 162/3/2
f 161/4/2 152/4/2 162/4/2
f 158/3/2 161/3/2 164/3/2
f 161/3/2 162/3/2 164/3/2
f 162/3/2 153/3/2 165/3/2
f 153/2/2 159/2/2 165/2/2
f 164/3/2 162/3/2 165/3/2
f 159/1/2 160/1/2 166/1/2
f 165/2/2 159/2/2 166/2/2
f 160/2/2 156/2/2 167/2/2
f 166/1/2 160/1/2 167/1/2
f 167/2/2 156/2/2 168/2/2
f 168/2/2 156/2/2 169/2/2
f 165/2/2 166/2/2 170/2/2
f 163/2/2 164/2/2 170/2/2
f 164/2/2 165/2/2 170/2/2
f 166/2/2 167/2/2 170/2/2
f 170/2/2 167/2/2 171/2/2
f 167/1/2 168/1/2 172/1/2
f 171/2/2 167/2/2 172/2/2
f 172/1/2 168/1/2 173/1/2
f 171/2/2 172/2/2 175/2/2
f 175/2/2 172/2/2 176/2/2
f 173/1/2 174/1/2 177/1/2
f 177/1/2 174/1/2 178/1/2
f 181/3/3 180/3/3 179/3/3
f 182/3/3 180/3/3 181/3/3
f 187/3/3 184/3/3 183/3/3
f 188/3/3 184/3/3 187/3/3
f 189/2/3 186/2/3 185/2/3
f 190/2/3 186/2/3 189/2/3
f 199/1/3 192/1/3 191/1/3
f 200/1/3 192/1/3 199/1/3
f 201/3/3 194/3/3 193/3/3
f 202/3/3 194/3/3 201/3/3
f 203/3/3 196/3/3 195/3/3
f 204/3/3 196/3/3 203/3/3
f 205/2/3 198/2/3 197/2/3
f 206/2/3 198/2/3 205/2/3
f 213/2/3 208/2/3 207/2/3
f 214/2/3 208/2/3 213/2/3
f 215/1/3 210/1/3 209/1/3
f 216/1/3 210/1/3 215/1/3
f 217/3/3 212/3/3 211/3/3
f 218/3/3 212/3/3 217/3/3
f 225/1/3 220/1/3 219/1/3
f 226/1/3 220/1/3 225/1/3
f 227/2/3 222/2/3 221/2/3
f 228/2/3 222/2/3 227/2/3
f 229/1/3 224/1/3 223/1/3
f 230/1/3 224/1/3 229/1/3
f 233/1/3 232/1/3 231/1/3
f 234/1/3 232/1/3 233/1/3
f 237/2/3 236/2/3 235/2/3
f 238/2/3 236/2/3 237/2/3
f 241/1/3 240/1/3 239/1/3
f 242/1/3 240/1/3 241/1/3
f 245/1/3 244/1/3 243/1/3
f 246/1/3 244/1/3 245/1/3
f 247/3/4 248/3/4 249/3/4
f 249/3/4 248/3/4 250/3/4
f 251/1/4 252/1/4 254/1/4
f 252/2/4 253/2/4 255/2/4
f 254/1/4 252/1/4 255/1/4
f 255/2/4 253/2/4 256/2/4
f 257/3/4 258/3/4 261/3/4
f 261/3/4 258/3/4 262/3/4
f 259/2/4 260/2/4 263/2/4
f 263/2/4 260/2/4 264/2/4
f 265/1/4 266/1/4 271/1/4
f 271/1/4 266/1/4 272/1/4
f 267/2/4 268/2/4 273/2/4
f 273/2/4 268/2/4 274/2/4
f 269/1/4 270/1/4 275/1/4
f 275/1/4 270/1/4 276/1/4
f 277/1/4 278/1/4 283/1/4
f 283/1/4 278/1/4 284/1/4
f 279/2/4 280/2/4 285/2/4
f 285/2/4 280/2/4 286/2/4
f 281/1/4 282/1/4 287/1/4
f 287/1/4 282/1/4 288/1/4
f 289/1/4 290/1/4 292/1/4
f 290/3/4 291/3/4 293/3/4
f 292/1/4 290/1/4 293/1/4
f 293/3/4 291/3/4 294/3/4
f 295/1/4 296/1/4 297/1/4
f 297/1/4 296/1/4 298/1/4
f 301/1/5 300/1/5 299/1/5
f 302/1/5 300/1/5 301/1/5
f 305/1/5 304/1/5 303/1/5
f 306/1/5 304/1/5 305/1/5
f 309/2/5 308/2/5 307/2/5
f 310/2/5 308/2/5 309/2/5
f 313/2/5 312/2/5 311/2/5
f 314/2/5 312/2/5 313/2/5
f 315/1/5 314/1/5 313/1/5
f 316/1/5 314/1/5 315/1/5
f 319/2/5 318/2/5 317/2/5
f 320/2/5 318/2/5 319/2/5
f 323/2/5 322/2/5 321/2/5
f 324/2/5 322/2/5 323/2/5
f 327/1/5 326/1/5 325/1/5
f 328/1/5 326/1/5 327/1/5
f 331/3/5 330/3/5 329/3/5
f 332/3/5 330/3/5 331/3/5
f 335/3/5 334/3/5 333/3/5
f 336/3/5 334/3/5 335/3/5
f 339/3/5 338/3/5 337/3/5
f 340/3/5 338/3/5 339/3/5
f 343/2/5 342/2/5 341/2/5
f 344/2/5 342/2/5 343/2/5
f 347/3/5 346/3/5 345/3/5
f 348/3/5 346/3/5 347/3/5
f 351/2/5 350/2/5 349/2/5
f 352/2/5 350/2/5 351/2/5
f 355/2/5 354/2/5 353/2/5
f 356/2/5 354/2/5 355/2/5
f 359/1/5 358/1/5 357/1/5
f 360/1/5 358/1/5 359/1/5
f 361/1/6 362/1/6 363/1/6
f 363/1/6 362/1/6 364/1/6
f 365/1/6 366/1/6 367/1/6
f 367/1/6 366/1/6 368/1/6
f 369/1/6 370/1/6 371/1/6
f 371/1/6 370/1/6 372/1/6
f 373/3/6 374/3/6 375/3/6
f 375/3/6 374/3/6 376/3/6
f 377/3/6 378/3/6 379/3/6
f 379/3/6 378/3/6 380/3/6
f 381/1/6 382/1/6 383/1/6
f 383/1/6 382/1/6 384/1/6
f 385/1/6 386/1/6 387/1/6
f 387/1/6 386/1/6 388/1/6
f 389/1/6 390/1/6 391/1/6
f 391/1/6 390/1/6 392/1/6
f 393/3/6 394/3/6 395/3/6
f 395/3/6 394/3/6 396/3/6
f 397/2/6 398/2/6 399/2/6
f 399/2/6 398/2/6 400/2/6
f 401/2/6 402/2/6 403/2/6
f 403/2/6 402/2/6 404/2/6
f 405/1/6 406/1/6 407/1/6
f 407/1/6 406/1/6 408/1/6
f 409/2/6 410/2/6 411/2/6
f 411/2/6 410/2/6 412/2/6
f 413/1/6 414/1/6 415/1/6
f 415/1/6 414/1/6 416/1/6
