# MagicaVoxel @ Ephtracy

# group
o 

# material
mtllib Crawl1.mtl
usemtl palette

# normals
vn -1 0 0
vn 1 0 0
vn 0 0 1
vn 0 0 -1
vn 0 -1 0
vn 0 1 0

# texcoords
vt 0.970703 0.5
vt 0.974609 0.5
vt 0.978516 0.5
vt 0.982422 0.5

# verts
v -0.1 0 0.2
v -0.1 0 0.1
v -0.1 0 0
v -0.1 0 -0.3
v -0.1 0.1 0.2
v -0.1 0.1 0.1
v -0.1 0.1 0
v -0.1 0.1 -0.3
v -0.1 0.1 -0.4
v -0.1 0.2 0.2
v -0.1 0.2 0.1
v -0.1 0.2 0
v -0.1 0.2 -0.2
v -0.1 0.2 -0.4
v -0.1 0.2 -0.5
v -0.1 0.2 -0.8
v -0.1 0.3 -0.8
v -0.1 0.3 -0.9
v -0.1 0.4 0
v -0.1 0.4 -0.2
v -0.1 0.4 -0.3
v -0.1 0.4 -0.4
v -0.1 0.4 -0.7
v -0.1 0.4 -0.8
v -0.1 0.4 -0.9
v -0.1 0.4 -1
v -0.1 0.5 0
v -0.1 0.5 -0.3
v -0.1 0.5 -1
v -0.1 0.5 -1.1
v -0.1 0.6 -0.1
v -0.1 0.6 -0.3
v -0.1 0.6 -0.6
v -0.1 0.6 -0.7
v -0.1 0.6 -0.8
v -0.1 0.6 -0.9
v -0.1 0.6 -1.1
v -0.1 0.6 -1.2
v -0.1 0.7 -0.1
v -0.1 0.7 -0.3
v -0.1 0.7 -0.4
v -0.1 0.7 -0.5
v -0.1 0.7 -0.6
v -0.1 0.7 -0.8
v -0.1 0.7 -0.9
v -0.1 0.8 0.2
v -0.1 0.8 0.1
v -0.1 0.8 0
v -0.1 0.8 -0.2
v -0.1 0.8 -0.3
v -0.1 0.8 -0.4
v -0.1 0.8 -0.5
v -0.1 0.8 -1.2
v -0.1 0.8 -1.3
v -0.1 0.9 0.1
v -0.1 0.9 0
v -0.1 0.9 -0.2
v -0.1 0.9 -0.3
v -0.1 0.9 -0.4
v -0.1 0.9 -0.7
v -0.1 0.9 -0.8
v -0.1 1 -0.2
v -0.1 1 -0.3
v -0.1 1 -0.6
v -0.1 1 -0.7
v -0.1 1 -1
v -0.1 1 -1.2
v -0.1 1 -1.3
v -0.1 1 -1.4
v -0.1 1.1 -0.1
v -0.1 1.1 -0.2
v -0.1 1.1 -1.1
v -0.1 1.1 -1.2
v -0.1 1.1 -1.3
v -0.1 1.1 -1.4
v -0.1 1.2 -0.3
v -0.1 1.2 -0.4
v -0.1 1.2 -1
v -0.1 1.2 -1.1
v -0.1 1.2 -1.2
v -0.1 1.2 -1.3
v -0.1 1.2 -1.4
v -0.1 1.3 0
v -0.1 1.3 -0.1
v -0.1 1.3 -0.2
v -0.1 1.3 -0.3
v -0.1 1.3 -0.4
v -0.1 1.3 -0.6
v -0.1 1.3 -1
v -0.1 1.3 -1.1
v -0.1 1.3 -1.2
v -0.1 1.3 -1.3
v -0.1 1.4 -1
v -0.1 1.4 -1.1
v -0.1 1.4 -1.2
v -0.1 1.4 -1.3
v -0.1 1.4 -1.4
v -0.1 1.5 0
v -0.1 1.5 -0.2
v -0.1 1.5 -0.4
v -0.1 1.5 -0.6
v -0.1 1.5 -1
v -0.1 1.5 -1.3
v 0 0 0.2
v 0 0 0.1
v 0 0 0
v 0 0 -0.3
v 0 0.1 0.2
v 0 0.1 0.1
v 0 0.1 0
v 0 0.1 -0.3
v 0 0.1 -0.4
v 0 0.2 0.2
v 0 0.2 0.1
v 0 0.2 0
v 0 0.2 -0.2
v 0 0.2 -0.4
v 0 0.2 -0.5
v 0 0.2 -0.8
v 0 0.3 -0.8
v 0 0.3 -0.9
v 0 0.4 0
v 0 0.4 -0.2
v 0 0.4 -0.3
v 0 0.4 -0.4
v 0 0.4 -0.7
v 0 0.4 -0.8
v 0 0.4 -0.9
v 0 0.4 -1
v 0 0.5 0
v 0 0.5 -0.3
v 0 0.5 -1
v 0 0.5 -1.1
v 0 0.6 -0.1
v 0 0.6 -0.3
v 0 0.6 -0.6
v 0 0.6 -0.7
v 0 0.6 -0.8
v 0 0.6 -0.9
v 0 0.6 -1.1
v 0 0.6 -1.2
v 0 0.7 -0.1
v 0 0.7 -0.3
v 0 0.7 -0.4
v 0 0.7 -0.5
v 0 0.7 -0.6
v 0 0.7 -0.8
v 0 0.7 -0.9
v 0 0.8 0.2
v 0 0.8 0.1
v 0 0.8 0
v 0 0.8 -0.2
v 0 0.8 -0.3
v 0 0.8 -0.4
v 0 0.8 -0.5
v 0 0.8 -1.2
v 0 0.8 -1.3
v 0 0.9 0.1
v 0 0.9 0
v 0 0.9 -0.2
v 0 0.9 -0.3
v 0 0.9 -0.4
v 0 0.9 -0.7
v 0 0.9 -0.8
v 0 1 -0.2
v 0 1 -0.3
v 0 1 -0.6
v 0 1 -0.7
v 0 1 -1
v 0 1 -1.2
v 0 1 -1.3
v 0 1 -1.4
v 0 1.1 -0.1
v 0 1.1 -0.2
v 0 1.1 -1.1
v 0 1.1 -1.2
v 0 1.1 -1.3
v 0 1.1 -1.4
v 0 1.2 -0.3
v 0 1.2 -0.4
v 0 1.2 -1
v 0 1.2 -1.1
v 0 1.2 -1.2
v 0 1.2 -1.3
v 0 1.2 -1.4
v 0 1.3 0
v 0 1.3 -0.1
v 0 1.3 -0.2
v 0 1.3 -0.3
v 0 1.3 -0.4
v 0 1.3 -0.6
v 0 1.3 -1
v 0 1.3 -1.1
v 0 1.3 -1.2
v 0 1.3 -1.3
v 0 1.4 -1
v 0 1.4 -1.1
v 0 1.4 -1.2
v 0 1.4 -1.3
v 0 1.4 -1.4
v 0 1.5 0
v 0 1.5 -0.2
v 0 1.5 -0.4
v 0 1.5 -0.6
v 0 1.5 -1
v 0 1.5 -1.3
v -0.1 0 0.2
v -0.1 0.1 0.2
v -0.1 0.2 0.2
v -0.1 0.8 0.2
v 0 0 0.2
v 0 0.1 0.2
v 0 0.2 0.2
v 0 0.8 0.2
v -0.1 0.1 0.1
v -0.1 0.2 0.1
v -0.1 0.8 0.1
v -0.1 0.9 0.1
v 0 0.1 0.1
v 0 0.2 0.1
v 0 0.8 0.1
v 0 0.9 0.1
v -0.1 0 0
v -0.1 0.1 0
v -0.1 1.3 0
v -0.1 1.5 0
v 0 0 0
v 0 0.1 0
v 0 1.3 0
v 0 1.5 0
v -0.1 1.1 -0.1
v -0.1 1.3 -0.1
v 0 1.1 -0.1
v 0 1.3 -0.1
v -0.1 0.8 -0.2
v -0.1 0.9 -0.2
v -0.1 1 -0.2
v -0.1 1.1 -0.2
v 0 0.8 -0.2
v 0 0.9 -0.2
v 0 1 -0.2
v 0 1.1 -0.2
v -0.1 0.9 -0.3
v -0.1 1 -0.3
v 0 0.9 -0.3
v 0 1 -0.3
v -0.1 0.8 -0.4
v -0.1 0.9 -0.4
v -0.1 1.2 -0.4
v -0.1 1.3 -0.4
v -0.1 1.5 -0.4
v 0 0.8 -0.4
v 0 0.9 -0.4
v 0 1.2 -0.4
v 0 1.3 -0.4
v 0 1.5 -0.4
v -0.1 0.7 -0.5
v -0.1 0.8 -0.5
v 0 0.7 -0.5
v 0 0.8 -0.5
v -0.1 1 -1
v -0.1 1.2 -1
v -0.1 1.3 -1
v -0.1 1.4 -1
v -0.1 1.5 -1
v 0 1 -1
v 0 1.2 -1
v 0 1.3 -1
v 0 1.4 -1
v 0 1.5 -1
v -0.1 1.3 -1.1
v -0.1 1.4 -1.1
v 0 1.3 -1.1
v 0 1.4 -1.1
v -0.1 0 0.1
v -0.1 0.1 0.1
v 0 0 0.1
v 0 0.1 0.1
v -0.1 0.8 0
v -0.1 0.9 0
v 0 0.8 0
v 0 0.9 0
v -0.1 1.3 -0.2
v -0.1 1.5 -0.2
v 0 1.3 -0.2
v 0 1.5 -0.2
v -0.1 0 -0.3
v -0.1 0.1 -0.3
v -0.1 0.8 -0.3
v -0.1 0.9 -0.3
v -0.1 1.2 -0.3
v -0.1 1.3 -0.3
v 0 0 -0.3
v 0 0.1 -0.3
v 0 0.8 -0.3
v 0 0.9 -0.3
v 0 1.2 -0.3
v 0 1.3 -0.3
v -0.1 0.1 -0.4
v -0.1 0.2 -0.4
v -0.1 0.7 -0.4
v -0.1 0.8 -0.4
v 0 0.1 -0.4
v 0 0.2 -0.4
v 0 0.7 -0.4
v 0 0.8 -0.4
v -0.1 1 -0.6
v -0.1 1.3 -0.6
v -0.1 1.5 -0.6
v 0 1 -0.6
v 0 1.3 -0.6
v 0 1.5 -0.6
v -0.1 0.2 -0.8
v -0.1 0.3 -0.8
v 0 0.2 -0.8
v 0 0.3 -0.8
v -0.1 0.3 -0.9
v -0.1 0.4 -0.9
v 0 0.3 -0.9
v 0 0.4 -0.9
v -0.1 0.4 -1
v -0.1 0.5 -1
v 0 0.4 -1
v 0 0.5 -1
v -0.1 0.5 -1.1
v -0.1 0.6 -1.1
v 0 0.5 -1.1
v 0 0.6 -1.1
v -0.1 0.6 -1.2
v -0.1 0.8 -1.2
v 0 0.6 -1.2
v 0 0.8 -1.2
v -0.1 0.8 -1.3
v -0.1 1 -1.3
v -0.1 1.1 -1.3
v -0.1 1.2 -1.3
v -0.1 1.4 -1.3
v -0.1 1.5 -1.3
v 0 0.8 -1.3
v 0 1 -1.3
v 0 1.1 -1.3
v 0 1.2 -1.3
v 0 1.4 -1.3
v 0 1.5 -1.3
v -0.1 1 -1.4
v -0.1 1.1 -1.4
v -0.1 1.2 -1.4
v -0.1 1.4 -1.4
v 0 1 -1.4
v 0 1.1 -1.4
v 0 1.2 -1.4
v 0 1.4 -1.4
v -0.1 0 0.2
v 0 0 0.2
v -0.1 0 0.1
v 0 0 0.1
v -0.1 0 0
v 0 0 0
v -0.1 0 -0.3
v 0 0 -0.3
v -0.1 0.1 0.1
v 0 0.1 0.1
v -0.1 0.1 0
v 0 0.1 0
v -0.1 0.1 -0.3
v 0 0.1 -0.3
v -0.1 0.1 -0.4
v 0 0.1 -0.4
v -0.1 0.2 0.2
v 0 0.2 0.2
v -0.1 0.2 0.1
v 0 0.2 0.1
v -0.1 0.2 -0.4
v 0 0.2 -0.4
v -0.1 0.2 -0.5
v 0 0.2 -0.5
v -0.1 0.2 -0.8
v 0 0.2 -0.8
v -0.1 0.3 -0.8
v 0 0.3 -0.8
v -0.1 0.3 -0.9
v 0 0.3 -0.9
v -0.1 0.4 -0.9
v 0 0.4 -0.9
v -0.1 0.4 -1
v 0 0.4 -1
v -0.1 0.5 -1
v 0 0.5 -1
v -0.1 0.5 -1.1
v 0 0.5 -1.1
v -0.1 0.6 -1.1
v 0 0.6 -1.1
v -0.1 0.6 -1.2
v 0 0.6 -1.2
v -0.1 0.8 -0.4
v 0 0.8 -0.4
v -0.1 0.8 -0.5
v 0 0.8 -0.5
v -0.1 0.8 -1.2
v 0 0.8 -1.2
v -0.1 0.8 -1.3
v 0 0.8 -1.3
v -0.1 0.9 -0.3
v 0 0.9 -0.3
v -0.1 0.9 -0.4
v 0 0.9 -0.4
v -0.1 1 -0.2
v 0 1 -0.2
v -0.1 1 -0.3
v 0 1 -0.3
v -0.1 1 -1.3
v 0 1 -1.3
v -0.1 1 -1.4
v 0 1 -1.4
v -0.1 1.1 -0.1
v 0 1.1 -0.1
v -0.1 1.1 -0.2
v 0 1.1 -0.2
v -0.1 1.2 -1.3
v 0 1.2 -1.3
v -0.1 1.2 -1.4
v 0 1.2 -1.4
v -0.1 1.3 0
v 0 1.3 0
v -0.1 1.3 -0.1
v 0 1.3 -0.1
v -0.1 1.4 -1
v 0 1.4 -1
v -0.1 1.4 -1.1
v 0 1.4 -1.1
v -0.1 0.1 0.2
v 0 0.1 0.2
v -0.1 0.1 0.1
v 0 0.1 0.1
v -0.1 0.7 -0.4
v 0 0.7 -0.4
v -0.1 0.7 -0.5
v 0 0.7 -0.5
v -0.1 0.8 0.2
v 0 0.8 0.2
v -0.1 0.8 0.1
v 0 0.8 0.1
v -0.1 0.8 0
v 0 0.8 0
v -0.1 0.8 -0.2
v 0 0.8 -0.2
v -0.1 0.8 -0.3
v 0 0.8 -0.3
v -0.1 0.8 -0.4
v 0 0.8 -0.4
v -0.1 0.9 0.1
v 0 0.9 0.1
v -0.1 0.9 0
v 0 0.9 0
v -0.1 0.9 -0.2
v 0 0.9 -0.2
v -0.1 0.9 -0.3
v 0 0.9 -0.3
v -0.1 1 -0.6
v 0 1 -0.6
v -0.1 1 -0.7
v 0 1 -0.7
v -0.1 1 -1
v 0 1 -1
v -0.1 1.1 -1.3
v 0 1.1 -1.3
v -0.1 1.1 -1.4
v 0 1.1 -1.4
v -0.1 1.2 -0.3
v 0 1.2 -0.3
v -0.1 1.2 -0.4
v 0 1.2 -0.4
v -0.1 1.3 -0.2
v 0 1.3 -0.2
v -0.1 1.3 -0.3
v 0 1.3 -0.3
v -0.1 1.3 -1
v 0 1.3 -1
v -0.1 1.3 -1.1
v 0 1.3 -1.1
v -0.1 1.4 -1.3
v 0 1.4 -1.3
v -0.1 1.4 -1.4
v 0 1.4 -1.4
v -0.1 1.5 0
v 0 1.5 0
v -0.1 1.5 -0.2
v 0 1.5 -0.2
v -0.1 1.5 -0.4
v 0 1.5 -0.4
v -0.1 1.5 -0.6
v 0 1.5 -0.6
v -0.1 1.5 -1
v 0 1.5 -1
v -0.1 1.5 -1.3
v 0 1.5 -1.3

# faces
f 5/1/1 2/1/1 1/1/1
f 6/1/1 2/1/1 5/1/1
f 7/2/1 4/2/1 3/2/1
f 8/2/1 4/2/1 7/2/1
f 11/1/1 7/1/1 6/1/1
f 12/2/1 9/2/1 8/2/1
f 12/2/1 8/2/1 7/2/1
f 12/1/1 7/1/1 11/1/1
f 13/2/1 9/2/1 12/2/1
f 14/2/1 9/2/1 13/2/1
f 17/1/1 16/1/1 15/1/1
f 19/2/1 11/2/1 10/2/1
f 19/2/1 12/2/1 11/2/1
f 19/1/1 13/1/1 12/1/1
f 20/2/1 14/2/1 13/2/1
f 20/1/1 13/1/1 19/1/1
f 21/2/1 14/2/1 20/2/1
f 22/3/1 15/3/1 14/3/1
f 22/2/1 14/2/1 21/2/1
f 23/1/1 17/1/1 15/1/1
f 24/2/1 18/2/1 17/2/1
f 24/1/1 17/1/1 23/1/1
f 25/2/1 18/2/1 24/2/1
f 27/2/1 21/2/1 20/2/1
f 27/2/1 19/2/1 10/2/1
f 27/2/1 20/2/1 19/2/1
f 28/3/1 22/3/1 21/3/1
f 28/2/1 21/2/1 27/2/1
f 29/2/1 26/2/1 25/2/1
f 29/2/1 25/2/1 24/2/1
f 29/2/1 24/2/1 23/2/1
f 31/3/1 28/3/1 27/3/1
f 32/3/1 22/3/1 28/3/1
f 32/3/1 28/3/1 31/3/1
f 33/1/1 23/1/1 15/1/1
f 34/2/1 30/2/1 29/2/1
f 34/1/1 23/1/1 33/1/1
f 34/2/1 29/2/1 23/2/1
f 35/2/1 30/2/1 34/2/1
f 36/2/1 30/2/1 35/2/1
f 37/2/1 30/2/1 36/2/1
f 39/3/1 31/3/1 27/3/1
f 39/4/1 32/4/1 31/4/1
f 40/3/1 22/3/1 32/3/1
f 40/4/1 32/4/1 39/4/1
f 41/3/1 15/3/1 22/3/1
f 41/3/1 22/3/1 40/3/1
f 42/1/1 33/1/1 15/1/1
f 42/3/1 15/3/1 41/3/1
f 43/2/1 34/2/1 33/2/1
f 43/1/1 33/1/1 42/1/1
f 43/2/1 35/2/1 34/2/1
f 44/3/1 36/3/1 35/3/1
f 44/2/1 35/2/1 43/2/1
f 45/2/1 38/2/1 37/2/1
f 45/3/1 36/3/1 44/3/1
f 45/2/1 37/2/1 36/2/1
f 46/2/1 27/2/1 10/2/1
f 47/2/1 27/2/1 46/2/1
f 48/3/1 39/3/1 27/3/1
f 48/2/1 27/2/1 47/2/1
f 48/3/1 40/3/1 39/3/1
f 48/3/1 41/3/1 40/3/1
f 49/3/1 41/3/1 48/3/1
f 50/3/1 41/3/1 49/3/1
f 51/3/1 41/3/1 50/3/1
f 52/1/1 44/1/1 43/1/1
f 52/1/1 43/1/1 42/1/1
f 53/2/1 45/2/1 44/2/1
f 53/2/1 38/2/1 45/2/1
f 55/2/1 48/2/1 47/2/1
f 56/2/1 48/2/1 55/2/1
f 57/3/1 50/3/1 49/3/1
f 58/3/1 50/3/1 57/3/1
f 59/1/1 52/1/1 51/1/1
f 60/1/1 44/1/1 52/1/1
f 60/1/1 52/1/1 59/1/1
f 61/2/1 54/2/1 53/2/1
f 61/1/1 44/1/1 60/1/1
f 61/2/1 53/2/1 44/2/1
f 63/1/1 60/1/1 59/1/1
f 63/1/1 59/1/1 58/1/1
f 64/1/1 60/1/1 63/1/1
f 65/2/1 61/2/1 60/2/1
f 65/1/1 60/1/1 64/1/1
f 66/2/1 54/2/1 61/2/1
f 66/2/1 61/2/1 65/2/1
f 67/2/1 54/2/1 66/2/1
f 68/2/1 54/2/1 67/2/1
f 71/1/1 64/1/1 63/1/1
f 71/1/1 63/1/1 62/1/1
f 72/2/1 67/2/1 66/2/1
f 73/1/1 69/1/1 68/1/1
f 73/2/1 67/2/1 72/2/1
f 73/1/1 68/1/1 67/1/1
f 74/1/1 69/1/1 73/1/1
f 75/1/1 69/1/1 74/1/1
f 76/1/1 71/1/1 70/1/1
f 76/1/1 64/1/1 71/1/1
f 77/1/1 64/1/1 76/1/1
f 78/2/1 72/2/1 66/2/1
f 79/1/1 74/1/1 73/1/1
f 79/2/1 72/2/1 78/2/1
f 79/1/1 73/1/1 72/1/1
f 80/1/1 74/1/1 79/1/1
f 81/1/1 74/1/1 80/1/1
f 84/1/1 76/1/1 70/1/1
f 85/1/1 76/1/1 84/1/1
f 86/1/1 76/1/1 85/1/1
f 87/1/1 64/1/1 77/1/1
f 88/1/1 64/1/1 87/1/1
f 89/1/1 79/1/1 78/1/1
f 89/1/1 80/1/1 79/1/1
f 90/1/1 80/1/1 89/1/1
f 91/2/1 81/2/1 80/2/1
f 91/1/1 80/1/1 90/1/1
f 92/1/1 82/1/1 81/1/1
f 92/2/1 81/2/1 91/2/1
f 94/2/1 91/2/1 90/2/1
f 95/1/1 92/1/1 91/1/1
f 95/2/1 91/2/1 94/2/1
f 96/1/1 82/1/1 92/1/1
f 96/1/1 92/1/1 95/1/1
f 97/1/1 82/1/1 96/1/1
f 98/3/1 84/3/1 83/3/1
f 98/3/1 85/3/1 84/3/1
f 99/3/1 85/3/1 98/3/1
f 100/3/1 88/3/1 87/3/1
f 101/3/1 88/3/1 100/3/1
f 102/1/1 95/1/1 94/1/1
f 102/1/1 94/1/1 93/1/1
f 102/1/1 96/1/1 95/1/1
f 103/1/1 96/1/1 102/1/1
f 104/1/2 105/1/2 108/1/2
f 108/1/2 105/1/2 109/1/2
f 106/2/2 107/2/2 110/2/2
f 110/2/2 107/2/2 111/2/2
f 109/1/2 110/1/2 114/1/2
f 111/2/2 112/2/2 115/2/2
f 110/2/2 111/2/2 115/2/2
f 114/1/2 110/1/2 115/1/2
f 115/2/2 112/2/2 116/2/2
f 116/2/2 112/2/2 117/2/2
f 118/1/2 119/1/2 120/1/2
f 113/2/2 114/2/2 122/2/2
f 114/2/2 115/2/2 122/2/2
f 115/1/2 116/1/2 122/1/2
f 116/2/2 117/2/2 123/2/2
f 122/1/2 116/1/2 123/1/2
f 123/2/2 117/2/2 124/2/2
f 117/3/2 118/3/2 125/3/2
f 124/2/2 117/2/2 125/2/2
f 118/1/2 120/1/2 126/1/2
f 120/2/2 121/2/2 127/2/2
f 126/1/2 120/1/2 127/1/2
f 127/2/2 121/2/2 128/2/2
f 123/2/2 124/2/2 130/2/2
f 113/2/2 122/2/2 130/2/2
f 122/2/2 123/2/2 130/2/2
f 124/3/2 125/3/2 131/3/2
f 130/2/2 124/2/2 131/2/2
f 128/2/2 129/2/2 132/2/2
f 127/2/2 128/2/2 132/2/2
f 126/2/2 127/2/2 132/2/2
f 130/3/2 131/3/2 134/3/2
f 131/3/2 125/3/2 135/3/2
f 134/3/2 131/3/2 135/3/2
f 118/1/2 126/1/2 136/1/2
f 132/2/2 133/2/2 137/2/2
f 136/1/2 126/1/2 137/1/2
f 126/2/2 132/2/2 137/2/2
f 137/2/2 133/2/2 138/2/2
f 138/2/2 133/2/2 139/2/2
f 139/2/2 133/2/2 140/2/2
f 130/3/2 134/3/2 142/3/2
f 134/4/2 135/4/2 142/4/2
f 135/3/2 125/3/2 143/3/2
f 142/4/2 135/4/2 143/4/2
f 125/3/2 118/3/2 144/3/2
f 143/3/2 125/3/2 144/3/2
f 118/1/2 136/1/2 145/1/2
f 144/3/2 118/3/2 145/3/2
f 136/2/2 137/2/2 146/2/2
f 145/1/2 136/1/2 146/1/2
f 137/2/2 138/2/2 146/2/2
f 138/3/2 139/3/2 147/3/2
f 146/2/2 138/2/2 147/2/2
f 140/2/2 141/2/2 148/2/2
f 147/3/2 139/3/2 148/3/2
f 139/2/2 140/2/2 148/2/2
f 113/2/2 130/2/2 149/2/2
f 149/2/2 130/2/2 150/2/2
f 130/3/2 142/3/2 151/3/2
f 150/2/2 130/2/2 151/2/2
f 142/3/2 143/3/2 151/3/2
f 143/3/2 144/3/2 151/3/2
f 151/3/2 144/3/2 152/3/2
f 152/3/2 144/3/2 153/3/2
f 153/3/2 144/3/2 154/3/2
f 146/1/2 147/1/2 155/1/2
f 145/1/2 146/1/2 155/1/2
f 147/2/2 148/2/2 156/2/2
f 148/2/2 141/2/2 156/2/2
f 150/2/2 151/2/2 158/2/2
f 158/2/2 151/2/2 159/2/2
f 152/3/2 153/3/2 160/3/2
f 160/3/2 153/3/2 161/3/2
f 154/1/2 155/1/2 162/1/2
f 155/1/2 147/1/2 163/1/2
f 162/1/2 155/1/2 163/1/2
f 156/2/2 157/2/2 164/2/2
f 163/1/2 147/1/2 164/1/2
f 147/2/2 156/2/2 164/2/2
f 162/1/2 163/1/2 166/1/2
f 161/1/2 162/1/2 166/1/2
f 166/1/2 163/1/2 167/1/2
f 163/2/2 164/2/2 168/2/2
f 167/1/2 163/1/2 168/1/2
f 164/2/2 157/2/2 169/2/2
f 168/2/2 164/2/2 169/2/2
f 169/2/2 157/2/2 170/2/2
f 170/2/2 157/2/2 171/2/2
f 166/1/2 167/1/2 174/1/2
f 165/1/2 166/1/2 174/1/2
f 169/2/2 170/2/2 175/2/2
f 171/1/2 172/1/2 176/1/2
f 175/2/2 170/2/2 176/2/2
f 170/1/2 171/1/2 176/1/2
f 176/1/2 172/1/2 177/1/2
f 177/1/2 172/1/2 178/1/2
f 173/1/2 174/1/2 179/1/2
f 174/1/2 167/1/2 179/1/2
f 179/1/2 167/1/2 180/1/2
f 169/2/2 175/2/2 181/2/2
f 176/1/2 177/1/2 182/1/2
f 181/2/2 175/2/2 182/2/2
f 175/1/2 176/1/2 182/1/2
f 182/1/2 177/1/2 183/1/2
f 183/1/2 177/1/2 184/1/2
f 173/1/2 179/1/2 187/1/2
f 187/1/2 179/1/2 188/1/2
f 188/1/2 179/1/2 189/1/2
f 180/1/2 167/1/2 190/1/2
f 190/1/2 167/1/2 191/1/2
f 181/1/2 182/1/2 192/1/2
f 182/1/2 183/1/2 192/1/2
f 192/1/2 183/1/2 193/1/2
f 183/2/2 184/2/2 194/2/2
f 193/1/2 183/1/2 194/1/2
f 184/1/2 185/1/2 195/1/2
f 194/2/2 184/2/2 195/2/2
f 193/2/2 194/2/2 197/2/2
f 194/1/2 195/1/2 198/1/2
f 197/2/2 194/2/2 198/2/2
f 195/1/2 185/1/2 199/1/2
f 198/1/2 195/1/2 199/1/2
f 199/1/2 185/1/2 200/1/2
f 186/3/2 187/3/2 201/3/2
f 187/3/2 188/3/2 201/3/2
f 201/3/2 188/3/2 202/3/2
f 190/3/2 191/3/2 203/3/2
f 203/3/2 191/3/2 204/3/2
f 197/1/2 198/1/2 205/1/2
f 196/1/2 197/1/2 205/1/2
f 198/1/2 199/1/2 205/1/2
f 205/1/2 199/1/2 206/1/2
f 211/1/3 208/1/3 207/1/3
f 212/1/3 208/1/3 211/1/3
f 213/2/3 210/2/3 209/2/3
f 214/2/3 210/2/3 213/2/3
f 219/1/3 216/1/3 215/1/3
f 220/1/3 216/1/3 219/1/3
f 221/2/3 218/2/3 217/2/3
f 222/2/3 218/2/3 221/2/3
f 227/2/3 224/2/3 223/2/3
f 228/2/3 224/2/3 227/2/3
f 229/3/3 226/3/3 225/3/3
f 230/3/3 226/3/3 229/3/3
f 233/1/3 232/1/3 231/1/3
f 234/1/3 232/1/3 233/1/3
f 239/3/3 236/3/3 235/3/3
f 240/3/3 236/3/3 239/3/3
f 241/1/3 238/1/3 237/1/3
f 242/1/3 238/1/3 241/1/3
f 245/1/3 244/1/3 243/1/3
f 246/1/3 244/1/3 245/1/3
f 252/1/3 248/1/3 247/1/3
f 253/1/3 248/1/3 252/1/3
f 254/1/3 250/1/3 249/1/3
f 255/3/3 251/3/3 250/3/3
f 255/1/3 250/1/3 254/1/3
f 256/3/3 251/3/3 255/3/3
f 259/1/3 258/1/3 257/1/3
f 260/1/3 258/1/3 259/1/3
f 266/2/3 262/2/3 261/2/3
f 267/1/3 263/1/3 262/1/3
f 267/2/3 262/2/3 266/2/3
f 268/1/3 263/1/3 267/1/3
f 269/1/3 265/1/3 264/1/3
f 270/1/3 265/1/3 269/1/3
f 273/2/3 272/2/3 271/2/3
f 274/2/3 272/2/3 273/2/3
f 275/1/4 276/1/4 277/1/4
f 277/1/4 276/1/4 278/1/4
f 279/2/4 280/2/4 281/2/4
f 281/2/4 280/2/4 282/2/4
f 283/3/4 284/3/4 285/3/4
f 285/3/4 284/3/4 286/3/4
f 287/2/4 288/2/4 293/2/4
f 293/2/4 288/2/4 294/2/4
f 289/3/4 290/3/4 295/3/4
f 295/3/4 290/3/4 296/3/4
f 291/1/4 292/1/4 297/1/4
f 297/1/4 292/1/4 298/1/4
f 299/2/4 300/2/4 303/2/4
f 303/2/4 300/2/4 304/2/4
f 301/3/4 302/3/4 305/3/4
f 305/3/4 302/3/4 306/3/4
f 307/1/4 308/1/4 310/1/4
f 308/3/4 309/3/4 311/3/4
f 310/1/4 308/1/4 311/1/4
f 311/3/4 309/3/4 312/3/4
f 313/1/4 314/1/4 315/1/4
f 315/1/4 314/1/4 316/1/4
f 317/2/4 318/2/4 319/2/4
f 319/2/4 318/2/4 320/2/4
f 321/2/4 322/2/4 323/2/4
f 323/2/4 322/2/4 324/2/4
f 325/2/4 326/2/4 327/2/4
f 327/2/4 326/2/4 328/2/4
f 329/2/4 330/2/4 331/2/4
f 331/2/4 330/2/4 332/2/4
f 333/2/4 334/2/4 339/2/4
f 339/2/4 334/2/4 340/2/4
f 335/1/4 336/1/4 341/1/4
f 341/1/4 336/1/4 342/1/4
f 337/1/4 338/1/4 343/1/4
f 343/1/4 338/1/4 344/1/4
f 345/1/4 346/1/4 349/1/4
f 349/1/4 346/1/4 350/1/4
f 347/1/4 348/1/4 351/1/4
f 351/1/4 348/1/4 352/1/4
f 355/1/5 354/1/5 353/1/5
f 356/1/5 354/1/5 355/1/5
f 359/2/5 358/2/5 357/2/5
f 360/2/5 358/2/5 359/2/5
f 363/1/5 362/1/5 361/1/5
f 364/1/5 362/1/5 363/1/5
f 367/2/5 366/2/5 365/2/5
f 368/2/5 366/2/5 367/2/5
f 371/2/5 370/2/5 369/2/5
f 372/2/5 370/2/5 371/2/5
f 375/3/5 374/3/5 373/3/5
f 376/3/5 374/3/5 375/3/5
f 377/1/5 376/1/5 375/1/5
f 378/1/5 376/1/5 377/1/5
f 381/2/5 380/2/5 379/2/5
f 382/2/5 380/2/5 381/2/5
f 385/2/5 384/2/5 383/2/5
f 386/2/5 384/2/5 385/2/5
f 389/2/5 388/2/5 387/2/5
f 390/2/5 388/2/5 389/2/5
f 393/2/5 392/2/5 391/2/5
f 394/2/5 392/2/5 393/2/5
f 397/1/5 396/1/5 395/1/5
f 398/1/5 396/1/5 397/1/5
f 401/2/5 400/2/5 399/2/5
f 402/2/5 400/2/5 401/2/5
f 405/1/5 404/1/5 403/1/5
f 406/1/5 404/1/5 405/1/5
f 409/1/5 408/1/5 407/1/5
f 410/1/5 408/1/5 409/1/5
f 413/1/5 412/1/5 411/1/5
f 414/1/5 412/1/5 413/1/5
f 417/1/5 416/1/5 415/1/5
f 418/1/5 416/1/5 417/1/5
f 421/1/5 420/1/5 419/1/5
f 422/1/5 420/1/5 421/1/5
f 425/3/5 424/3/5 423/3/5
f 426/3/5 424/3/5 425/3/5
f 429/1/5 428/1/5 427/1/5
f 430/1/5 428/1/5 429/1/5
f 431/1/6 432/1/6 433/1/6
f 433/1/6 432/1/6 434/1/6
f 435/3/6 436/3/6 437/3/6
f 437/3/6 436/3/6 438/3/6
f 439/2/6 440/2/6 441/2/6
f 441/2/6 440/2/6 442/2/6
f 443/3/6 444/3/6 445/3/6
f 445/3/6 444/3/6 446/3/6
f 447/3/6 448/3/6 449/3/6
f 449/3/6 448/3/6 450/3/6
f 451/2/6 452/2/6 453/2/6
f 453/2/6 452/2/6 454/2/6
f 455/3/6 456/3/6 457/3/6
f 457/3/6 456/3/6 458/3/6
f 459/1/6 460/1/6 461/1/6
f 461/1/6 460/1/6 462/1/6
f 461/2/6 462/2/6 463/2/6
f 463/2/6 462/2/6 464/2/6
f 465/1/6 466/1/6 467/1/6
f 467/1/6 466/1/6 468/1/6
f 469/1/6 470/1/6 471/1/6
f 471/1/6 470/1/6 472/1/6
f 473/1/6 474/1/6 475/1/6
f 475/1/6 474/1/6 476/1/6
f 477/1/6 478/1/6 479/1/6
f 479/1/6 478/1/6 480/1/6
f 481/1/6 482/1/6 483/1/6
f 483/1/6 482/1/6 484/1/6
f 485/3/6 486/3/6 487/3/6
f 487/3/6 486/3/6 488/3/6
f 489/3/6 490/3/6 491/3/6
f 491/3/6 490/3/6 492/3/6
f 493/1/6 494/1/6 495/1/6
f 495/1/6 494/1/6 496/1/6
