# MagicaVoxel @ Ephtracy

# group
o 

# material
mtllib Crawl2.mtl
usemtl palette

# normals
vn 0 0 1
vn 0 0 -1
vn 1 0 0
vn -1 0 0
vn 0 -1 0
vn 0 1 0

# texcoords
vt 0.970703 0.5
vt 0.974609 0.5
vt 0.978516 0.5
vt 0.982422 0.5

# verts
v 0 0 0.1
v -0.1 0 0.1
v -0.2 0 0.1
v -0.5 0 0.1
v 0 0.1 0.1
v -0.1 0.1 0.1
v -0.2 0.1 0.1
v -0.5 0.1 0.1
v -0.6 0.1 0.1
v 0 0.2 0.1
v -0.1 0.2 0.1
v -0.2 0.2 0.1
v -0.4 0.2 0.1
v -0.6 0.2 0.1
v -0.7 0.2 0.1
v -1.1 0.2 0.1
v -1 0.3 0.1
v -1.1 0.3 0.1
v -1.2 0.3 0.1
v -0.2 0.4 0.1
v -0.4 0.4 0.1
v -0.5 0.4 0.1
v -0.6 0.4 0.1
v -0.9 0.4 0.1
v -1 0.4 0.1
v -1.2 0.4 0.1
v -1.3 0.4 0.1
v -0.2 0.5 0.1
v -0.5 0.5 0.1
v -1.3 0.5 0.1
v -1.4 0.5 0.1
v -0.3 0.6 0.1
v -0.5 0.6 0.1
v -0.8 0.6 0.1
v -0.9 0.6 0.1
v -1 0.6 0.1
v -1.1 0.6 0.1
v -0.3 0.7 0.1
v -0.5 0.7 0.1
v -0.6 0.7 0.1
v -0.7 0.7 0.1
v -0.8 0.7 0.1
v -1 0.7 0.1
v -1.1 0.7 0.1
v 0 0.8 0.1
v -0.1 0.8 0.1
v -0.2 0.8 0.1
v -0.4 0.8 0.1
v -0.5 0.8 0.1
v -0.6 0.8 0.1
v -0.7 0.8 0.1
v -1.4 0.8 0.1
v -1.5 0.8 0.1
v -0.1 0.9 0.1
v -0.2 0.9 0.1
v -0.4 0.9 0.1
v -0.5 0.9 0.1
v -0.9 0.9 0.1
v -1 0.9 0.1
v -0.8 1 0.1
v -0.9 1 0.1
v -1.1 1 0.1
v -1.2 1 0.1
v -1.4 1 0.1
v -1.5 1 0.1
v -1.6 1 0.1
v -0.5 1.1 0.1
v -0.6 1.1 0.1
v -1.3 1.1 0.1
v -1.4 1.1 0.1
v -1.5 1.1 0.1
v -1.6 1.1 0.1
v -0.7 1.2 0.1
v -0.8 1.2 0.1
v -1.2 1.2 0.1
v -1.3 1.2 0.1
v -1.4 1.2 0.1
v -1.5 1.2 0.1
v -1.6 1.2 0.1
v -0.5 1.3 0.1
v -0.7 1.3 0.1
v -0.9 1.3 0.1
v -1.1 1.3 0.1
v -1.2 1.3 0.1
v -1.3 1.3 0.1
v -1.4 1.3 0.1
v -1.5 1.3 0.1
v -1.2 1.4 0.1
v -1.3 1.4 0.1
v -1.4 1.4 0.1
v -1.5 1.4 0.1
v -1.6 1.4 0.1
v -0.5 1.5 0.1
v -0.7 1.5 0.1
v -0.9 1.5 0.1
v -1.1 1.5 0.1
v -1.2 1.5 0.1
v -1.5 1.5 0.1
v 0 0 0
v -0.1 0 0
v -0.2 0 0
v -0.5 0 0
v 0 0.1 0
v -0.1 0.1 0
v -0.2 0.1 0
v -0.5 0.1 0
v -0.6 0.1 0
v 0 0.2 0
v -0.1 0.2 0
v -0.2 0.2 0
v -0.4 0.2 0
v -0.6 0.2 0
v -0.7 0.2 0
v -1.1 0.2 0
v -1 0.3 0
v -1.1 0.3 0
v -1.2 0.3 0
v -0.2 0.4 0
v -0.4 0.4 0
v -0.5 0.4 0
v -0.6 0.4 0
v -0.9 0.4 0
v -1 0.4 0
v -1.2 0.4 0
v -1.3 0.4 0
v -0.2 0.5 0
v -0.5 0.5 0
v -1.3 0.5 0
v -1.4 0.5 0
v -0.3 0.6 0
v -0.5 0.6 0
v -0.8 0.6 0
v -0.9 0.6 0
v -1 0.6 0
v -1.1 0.6 0
v -0.3 0.7 0
v -0.5 0.7 0
v -0.6 0.7 0
v -0.7 0.7 0
v -0.8 0.7 0
v -1 0.7 0
v -1.1 0.7 0
v 0 0.8 0
v -0.1 0.8 0
v -0.2 0.8 0
v -0.4 0.8 0
v -0.5 0.8 0
v -0.6 0.8 0
v -0.7 0.8 0
v -1.4 0.8 0
v -1.5 0.8 0
v -0.1 0.9 0
v -0.2 0.9 0
v -0.4 0.9 0
v -0.5 0.9 0
v -0.9 0.9 0
v -1 0.9 0
v -0.8 1 0
v -0.9 1 0
v -1.1 1 0
v -1.2 1 0
v -1.4 1 0
v -1.5 1 0
v -1.6 1 0
v -0.5 1.1 0
v -0.6 1.1 0
v -1.3 1.1 0
v -1.4 1.1 0
v -1.5 1.1 0
v -1.6 1.1 0
v -0.7 1.2 0
v -0.8 1.2 0
v -1.2 1.2 0
v -1.3 1.2 0
v -1.4 1.2 0
v -1.5 1.2 0
v -1.6 1.2 0
v -0.5 1.3 0
v -0.7 1.3 0
v -0.9 1.3 0
v -1.1 1.3 0
v -1.2 1.3 0
v -1.3 1.3 0
v -1.4 1.3 0
v -1.5 1.3 0
v -1.2 1.4 0
v -1.3 1.4 0
v -1.4 1.4 0
v -1.5 1.4 0
v -1.6 1.4 0
v -0.5 1.5 0
v -0.7 1.5 0
v -0.9 1.5 0
v -1.1 1.5 0
v -1.2 1.5 0
v -1.5 1.5 0
v 0 0 0.1
v 0 0.1 0.1
v 0 0.2 0.1
v 0 0.8 0.1
v 0 0 0
v 0 0.1 0
v 0 0.2 0
v 0 0.8 0
v -0.1 0.1 0.1
v -0.1 0.2 0.1
v -0.1 0.8 0.1
v -0.1 0.9 0.1
v -0.1 0.1 0
v -0.1 0.2 0
v -0.1 0.8 0
v -0.1 0.9 0
v -0.2 0 0.1
v -0.2 0.1 0.1
v -0.2 0 0
v -0.2 0.1 0
v -0.4 0.8 0.1
v -0.4 0.9 0.1
v -0.4 0.8 0
v -0.4 0.9 0
v -0.5 1.1 0.1
v -0.5 1.3 0.1
v -0.5 1.5 0.1
v -0.5 1.1 0
v -0.5 1.3 0
v -0.5 1.5 0
v -0.6 0.8 0.1
v -0.6 1.1 0.1
v -0.6 0.8 0
v -0.6 1.1 0
v -0.7 0.7 0.1
v -0.7 0.8 0.1
v -0.7 0.7 0
v -0.7 0.8 0
v -0.9 1 0.1
v -0.9 1.3 0.1
v -0.9 1.5 0.1
v -0.9 1 0
v -0.9 1.3 0
v -0.9 1.5 0
v -1.2 1 0.1
v -1.2 1.2 0.1
v -1.2 1.3 0.1
v -1.2 1.4 0.1
v -1.2 1.5 0.1
v -1.2 1 0
v -1.2 1.2 0
v -1.2 1.3 0
v -1.2 1.4 0
v -1.2 1.5 0
v -1.3 1.3 0.1
v -1.3 1.4 0.1
v -1.3 1.3 0
v -1.3 1.4 0
v -0.1 0 0.1
v -0.1 0.1 0.1
v -0.1 0 0
v -0.1 0.1 0
v -0.2 0.8 0.1
v -0.2 0.9 0.1
v -0.2 0.8 0
v -0.2 0.9 0
v -0.5 0 0.1
v -0.5 0.1 0.1
v -0.5 0.8 0.1
v -0.5 0.9 0.1
v -0.5 0 0
v -0.5 0.1 0
v -0.5 0.8 0
v -0.5 0.9 0
v -0.6 0.1 0.1
v -0.6 0.2 0.1
v -0.6 0.7 0.1
v -0.6 0.8 0.1
v -0.6 0.1 0
v -0.6 0.2 0
v -0.6 0.7 0
v -0.6 0.8 0
v -0.7 1.2 0.1
v -0.7 1.3 0.1
v -0.7 1.5 0.1
v -0.7 1.2 0
v -0.7 1.3 0
v -0.7 1.5 0
v -0.8 1 0.1
v -0.8 1.2 0.1
v -0.8 1 0
v -0.8 1.2 0
v -1.1 0.2 0.1
v -1.1 0.3 0.1
v -1.1 1 0.1
v -1.1 1.3 0.1
v -1.1 1.5 0.1
v -1.1 0.2 0
v -1.1 0.3 0
v -1.1 1 0
v -1.1 1.3 0
v -1.1 1.5 0
v -1.2 0.3 0.1
v -1.2 0.4 0.1
v -1.2 0.3 0
v -1.2 0.4 0
v -1.3 0.4 0.1
v -1.3 0.5 0.1
v -1.3 0.4 0
v -1.3 0.5 0
v -1.4 0.5 0.1
v -1.4 0.8 0.1
v -1.4 0.5 0
v -1.4 0.8 0
v -1.5 0.8 0.1
v -1.5 1 0.1
v -1.5 1.1 0.1
v -1.5 1.2 0.1
v -1.5 1.4 0.1
v -1.5 1.5 0.1
v -1.5 0.8 0
v -1.5 1 0
v -1.5 1.1 0
v -1.5 1.2 0
v -1.5 1.4 0
v -1.5 1.5 0
v -1.6 1 0.1
v -1.6 1.1 0.1
v -1.6 1.2 0.1
v -1.6 1.4 0.1
v -1.6 1 0
v -1.6 1.1 0
v -1.6 1.2 0
v -1.6 1.4 0
v 0 0 0.1
v 0 0 0
v -0.1 0 0.1
v -0.1 0 0
v -0.2 0 0.1
v -0.2 0 0
v -0.5 0 0.1
v -0.5 0 0
v -0.1 0.1 0.1
v -0.1 0.1 0
v -0.2 0.1 0.1
v -0.2 0.1 0
v -0.5 0.1 0.1
v -0.5 0.1 0
v -0.6 0.1 0.1
v -0.6 0.1 0
v 0 0.2 0.1
v 0 0.2 0
v -0.1 0.2 0.1
v -0.1 0.2 0
v -0.6 0.2 0.1
v -0.6 0.2 0
v -0.7 0.2 0.1
v -0.7 0.2 0
v -1.1 0.2 0.1
v -1.1 0.2 0
v -1.1 0.3 0.1
v -1.1 0.3 0
v -1.2 0.3 0.1
v -1.2 0.3 0
v -1.2 0.4 0.1
v -1.2 0.4 0
v -1.3 0.4 0.1
v -1.3 0.4 0
v -1.3 0.5 0.1
v -1.3 0.5 0
v -1.4 0.5 0.1
v -1.4 0.5 0
v -0.6 0.8 0.1
v -0.6 0.8 0
v -0.7 0.8 0.1
v -0.7 0.8 0
v -1.4 0.8 0.1
v -1.4 0.8 0
v -1.5 0.8 0.1
v -1.5 0.8 0
v -1.5 1 0.1
v -1.5 1 0
v -1.6 1 0.1
v -1.6 1 0
v -0.5 1.1 0.1
v -0.5 1.1 0
v -0.6 1.1 0.1
v -0.6 1.1 0
v -1.5 1.2 0.1
v -1.5 1.2 0
v -1.6 1.2 0.1
v -1.6 1.2 0
v -1.2 1.4 0.1
v -1.2 1.4 0
v -1.3 1.4 0.1
v -1.3 1.4 0
v 0 0.1 0.1
v 0 0.1 0
v -0.1 0.1 0.1
v -0.1 0.1 0
v -0.6 0.7 0.1
v -0.6 0.7 0
v -0.7 0.7 0.1
v -0.7 0.7 0
v 0 0.8 0.1
v 0 0.8 0
v -0.1 0.8 0.1
v -0.1 0.8 0
v -0.2 0.8 0.1
v -0.2 0.8 0
v -0.4 0.8 0.1
v -0.4 0.8 0
v -0.5 0.8 0.1
v -0.5 0.8 0
v -0.6 0.8 0.1
v -0.6 0.8 0
v -0.1 0.9 0.1
v -0.1 0.9 0
v -0.2 0.9 0.1
v -0.2 0.9 0
v -0.4 0.9 0.1
v -0.4 0.9 0
v -0.5 0.9 0.1
v -0.5 0.9 0
v -0.8 1 0.1
v -0.8 1 0
v -0.9 1 0.1
v -0.9 1 0
v -1.1 1 0.1
v -1.1 1 0
v -1.2 1 0.1
v -1.2 1 0
v -1.5 1.1 0.1
v -1.5 1.1 0
v -1.6 1.1 0.1
v -1.6 1.1 0
v -0.7 1.2 0.1
v -0.7 1.2 0
v -0.8 1.2 0.1
v -0.8 1.2 0
v -1.2 1.3 0.1
v -1.2 1.3 0
v -1.3 1.3 0.1
v -1.3 1.3 0
v -1.5 1.4 0.1
v -1.5 1.4 0
v -1.6 1.4 0.1
v -1.6 1.4 0
v -0.5 1.5 0.1
v -0.5 1.5 0
v -0.7 1.5 0.1
v -0.7 1.5 0
v -0.9 1.5 0.1
v -0.9 1.5 0
v -1.1 1.5 0.1
v -1.1 1.5 0
v -1.2 1.5 0.1
v -1.2 1.5 0
v -1.5 1.5 0.1
v -1.5 1.5 0

# faces
f 5/1/1 2/1/1 1/1/1
f 6/1/1 2/1/1 5/1/1
f 7/2/1 4/2/1 3/2/1
f 8/2/1 4/2/1 7/2/1
f 11/1/1 7/1/1 6/1/1
f 12/2/1 9/2/1 8/2/1
f 12/2/1 8/2/1 7/2/1
f 12/1/1 7/1/1 11/1/1
f 13/2/1 9/2/1 12/2/1
f 14/2/1 9/2/1 13/2/1
f 17/1/1 16/1/1 15/1/1
f 18/1/1 16/1/1 17/1/1
f 20/2/1 11/2/1 10/2/1
f 20/2/1 12/2/1 11/2/1
f 20/1/1 13/1/1 12/1/1
f 21/2/1 14/2/1 13/2/1
f 21/1/1 13/1/1 20/1/1
f 22/2/1 14/2/1 21/2/1
f 23/3/1 15/3/1 14/3/1
f 23/2/1 14/2/1 22/2/1
f 24/1/1 17/1/1 15/1/1
f 25/2/1 19/2/1 18/2/1
f 25/1/1 17/1/1 24/1/1
f 25/2/1 18/2/1 17/2/1
f 26/2/1 19/2/1 25/2/1
f 28/2/1 20/2/1 10/2/1
f 28/2/1 22/2/1 21/2/1
f 28/2/1 21/2/1 20/2/1
f 29/3/1 23/3/1 22/3/1
f 29/2/1 22/2/1 28/2/1
f 30/2/1 27/2/1 26/2/1
f 30/2/1 26/2/1 25/2/1
f 30/2/1 25/2/1 24/2/1
f 32/3/1 29/3/1 28/3/1
f 33/3/1 23/3/1 29/3/1
f 33/3/1 29/3/1 32/3/1
f 34/1/1 24/1/1 15/1/1
f 35/2/1 31/2/1 30/2/1
f 35/1/1 24/1/1 34/1/1
f 35/2/1 30/2/1 24/2/1
f 36/2/1 31/2/1 35/2/1
f 37/2/1 31/2/1 36/2/1
f 38/3/1 32/3/1 28/3/1
f 38/4/1 33/4/1 32/4/1
f 39/3/1 23/3/1 33/3/1
f 39/4/1 33/4/1 38/4/1
f 40/3/1 15/3/1 23/3/1
f 40/3/1 23/3/1 39/3/1
f 41/1/1 34/1/1 15/1/1
f 41/3/1 15/3/1 40/3/1
f 42/2/1 35/2/1 34/2/1
f 42/1/1 34/1/1 41/1/1
f 42/2/1 36/2/1 35/2/1
f 43/3/1 37/3/1 36/3/1
f 43/2/1 36/2/1 42/2/1
f 44/2/1 31/2/1 37/2/1
f 44/3/1 37/3/1 43/3/1
f 45/2/1 28/2/1 10/2/1
f 46/2/1 28/2/1 45/2/1
f 47/3/1 38/3/1 28/3/1
f 47/2/1 28/2/1 46/2/1
f 47/3/1 39/3/1 38/3/1
f 47/3/1 40/3/1 39/3/1
f 48/3/1 40/3/1 47/3/1
f 49/3/1 40/3/1 48/3/1
f 50/3/1 40/3/1 49/3/1
f 51/1/1 43/1/1 42/1/1
f 51/1/1 42/1/1 41/1/1
f 52/2/1 31/2/1 44/2/1
f 52/2/1 44/2/1 43/2/1
f 54/2/1 47/2/1 46/2/1
f 55/2/1 47/2/1 54/2/1
f 56/3/1 49/3/1 48/3/1
f 57/3/1 49/3/1 56/3/1
f 58/1/1 51/1/1 50/1/1
f 58/1/1 43/1/1 51/1/1
f 59/2/1 53/2/1 52/2/1
f 59/1/1 43/1/1 58/1/1
f 59/2/1 52/2/1 43/2/1
f 60/1/1 58/1/1 50/1/1
f 61/2/1 59/2/1 58/2/1
f 61/1/1 58/1/1 60/1/1
f 62/2/1 53/2/1 59/2/1
f 62/2/1 59/2/1 61/2/1
f 63/2/1 53/2/1 62/2/1
f 64/2/1 53/2/1 63/2/1
f 65/2/1 53/2/1 64/2/1
f 68/1/1 60/1/1 50/1/1
f 69/2/1 64/2/1 63/2/1
f 70/1/1 66/1/1 65/1/1
f 70/2/1 64/2/1 69/2/1
f 70/1/1 65/1/1 64/1/1
f 71/1/1 66/1/1 70/1/1
f 72/1/1 66/1/1 71/1/1
f 73/1/1 68/1/1 67/1/1
f 73/1/1 60/1/1 68/1/1
f 74/1/1 60/1/1 73/1/1
f 75/2/1 69/2/1 63/2/1
f 76/1/1 71/1/1 70/1/1
f 76/2/1 69/2/1 75/2/1
f 76/1/1 70/1/1 69/1/1
f 77/1/1 71/1/1 76/1/1
f 78/1/1 71/1/1 77/1/1
f 80/1/1 73/1/1 67/1/1
f 81/1/1 73/1/1 80/1/1
f 82/1/1 62/1/1 61/1/1
f 83/1/1 62/1/1 82/1/1
f 84/1/1 76/1/1 75/1/1
f 84/1/1 77/1/1 76/1/1
f 85/1/1 77/1/1 84/1/1
f 86/2/1 78/2/1 77/2/1
f 86/1/1 77/1/1 85/1/1
f 87/1/1 79/1/1 78/1/1
f 87/2/1 78/2/1 86/2/1
f 89/2/1 86/2/1 85/2/1
f 90/1/1 87/1/1 86/1/1
f 90/2/1 86/2/1 89/2/1
f 91/1/1 79/1/1 87/1/1
f 91/1/1 87/1/1 90/1/1
f 92/1/1 79/1/1 91/1/1
f 93/3/1 81/3/1 80/3/1
f 94/3/1 81/3/1 93/3/1
f 95/3/1 83/3/1 82/3/1
f 96/3/1 83/3/1 95/3/1
f 97/1/1 89/1/1 88/1/1
f 97/1/1 90/1/1 89/1/1
f 97/1/1 91/1/1 90/1/1
f 98/1/1 91/1/1 97/1/1
f 99/1/2 100/1/2 103/1/2
f 103/1/2 100/1/2 104/1/2
f 101/2/2 102/2/2 105/2/2
f 105/2/2 102/2/2 106/2/2
f 104/1/2 105/1/2 109/1/2
f 106/2/2 107/2/2 110/2/2
f 105/2/2 106/2/2 110/2/2
f 109/1/2 105/1/2 110/1/2
f 110/2/2 107/2/2 111/2/2
f 111/2/2 107/2/2 112/2/2
f 113/1/2 114/1/2 115/1/2
f 115/1/2 114/1/2 116/1/2
f 108/2/2 109/2/2 118/2/2
f 109/2/2 110/2/2 118/2/2
f 110/1/2 111/1/2 118/1/2
f 111/2/2 112/2/2 119/2/2
f 118/1/2 111/1/2 119/1/2
f 119/2/2 112/2/2 120/2/2
f 112/3/2 113/3/2 121/3/2
f 120/2/2 112/2/2 121/2/2
f 113/1/2 115/1/2 122/1/2
f 116/2/2 117/2/2 123/2/2
f 122/1/2 115/1/2 123/1/2
f 115/2/2 116/2/2 123/2/2
f 123/2/2 117/2/2 124/2/2
f 108/2/2 118/2/2 126/2/2
f 119/2/2 120/2/2 126/2/2
f 118/2/2 119/2/2 126/2/2
f 120/3/2 121/3/2 127/3/2
f 126/2/2 120/2/2 127/2/2
f 124/2/2 125/2/2 128/2/2
f 123/2/2 124/2/2 128/2/2
f 122/2/2 123/2/2 128/2/2
f 126/3/2 127/3/2 130/3/2
f 127/3/2 121/3/2 131/3/2
f 130/3/2 127/3/2 131/3/2
f 113/1/2 122/1/2 132/1/2
f 128/2/2 129/2/2 133/2/2
f 132/1/2 122/1/2 133/1/2
f 122/2/2 128/2/2 133/2/2
f 133/2/2 129/2/2 134/2/2
f 134/2/2 129/2/2 135/2/2
f 126/3/2 130/3/2 136/3/2
f 130/4/2 131/4/2 136/4/2
f 131/3/2 121/3/2 137/3/2
f 136/4/2 131/4/2 137/4/2
f 121/3/2 113/3/2 138/3/2
f 137/3/2 121/3/2 138/3/2
f 113/1/2 132/1/2 139/1/2
f 138/3/2 113/3/2 139/3/2
f 132/2/2 133/2/2 140/2/2
f 139/1/2 132/1/2 140/1/2
f 133/2/2 134/2/2 140/2/2
f 134/3/2 135/3/2 141/3/2
f 140/2/2 134/2/2 141/2/2
f 135/2/2 129/2/2 142/2/2
f 141/3/2 135/3/2 142/3/2
f 108/2/2 126/2/2 143/2/2
f 143/2/2 126/2/2 144/2/2
f 126/3/2 136/3/2 145/3/2
f 144/2/2 126/2/2 145/2/2
f 136/3/2 137/3/2 145/3/2
f 137/3/2 138/3/2 145/3/2
f 145/3/2 138/3/2 146/3/2
f 146/3/2 138/3/2 147/3/2
f 147/3/2 138/3/2 148/3/2
f 140/1/2 141/1/2 149/1/2
f 139/1/2 140/1/2 149/1/2
f 142/2/2 129/2/2 150/2/2
f 141/2/2 142/2/2 150/2/2
f 144/2/2 145/2/2 152/2/2
f 152/2/2 145/2/2 153/2/2
f 146/3/2 147/3/2 154/3/2
f 154/3/2 147/3/2 155/3/2
f 148/1/2 149/1/2 156/1/2
f 149/1/2 141/1/2 156/1/2
f 150/2/2 151/2/2 157/2/2
f 156/1/2 141/1/2 157/1/2
f 141/2/2 150/2/2 157/2/2
f 148/1/2 156/1/2 158/1/2
f 156/2/2 157/2/2 159/2/2
f 158/1/2 156/1/2 159/1/2
f 157/2/2 151/2/2 160/2/2
f 159/2/2 157/2/2 160/2/2
f 160/2/2 151/2/2 161/2/2
f 161/2/2 151/2/2 162/2/2
f 162/2/2 151/2/2 163/2/2
f 148/1/2 158/1/2 166/1/2
f 161/2/2 162/2/2 167/2/2
f 163/1/2 164/1/2 168/1/2
f 167/2/2 162/2/2 168/2/2
f 162/1/2 163/1/2 168/1/2
f 168/1/2 164/1/2 169/1/2
f 169/1/2 164/1/2 170/1/2
f 165/1/2 166/1/2 171/1/2
f 166/1/2 158/1/2 171/1/2
f 171/1/2 158/1/2 172/1/2
f 161/2/2 167/2/2 173/2/2
f 168/1/2 169/1/2 174/1/2
f 173/2/2 167/2/2 174/2/2
f 167/1/2 168/1/2 174/1/2
f 174/1/2 169/1/2 175/1/2
f 175/1/2 169/1/2 176/1/2
f 165/1/2 171/1/2 178/1/2
f 178/1/2 171/1/2 179/1/2
f 159/1/2 160/1/2 180/1/2
f 180/1/2 160/1/2 181/1/2
f 173/1/2 174/1/2 182/1/2
f 174/1/2 175/1/2 182/1/2
f 182/1/2 175/1/2 183/1/2
f 175/2/2 176/2/2 184/2/2
f 183/1/2 175/1/2 184/1/2
f 176/1/2 177/1/2 185/1/2
f 184/2/2 176/2/2 185/2/2
f 183/2/2 184/2/2 187/2/2
f 184/1/2 185/1/2 188/1/2
f 187/2/2 184/2/2 188/2/2
f 185/1/2 177/1/2 189/1/2
f 188/1/2 185/1/2 189/1/2
f 189/1/2 177/1/2 190/1/2
f 178/3/2 179/3/2 191/3/2
f 191/3/2 179/3/2 192/3/2
f 180/3/2 181/3/2 193/3/2
f 193/3/2 181/3/2 194/3/2
f 186/1/2 187/1/2 195/1/2
f 187/1/2 188/1/2 195/1/2
f 188/1/2 189/1/2 195/1/2
f 195/1/2 189/1/2 196/1/2
f 201/1/3 198/1/3 197/1/3
f 202/1/3 198/1/3 201/1/3
f 203/2/3 200/2/3 199/2/3
f 204/2/3 200/2/3 203/2/3
f 209/1/3 206/1/3 205/1/3
f 210/1/3 206/1/3 209/1/3
f 211/2/3 208/2/3 207/2/3
f 212/2/3 208/2/3 211/2/3
f 215/2/3 214/2/3 213/2/3
f 216/2/3 214/2/3 215/2/3
f 219/3/3 218/3/3 217/3/3
f 220/3/3 218/3/3 219/3/3
f 224/1/3 222/1/3 221/1/3
f 225/3/3 223/3/3 222/3/3
f 225/1/3 222/1/3 224/1/3
f 226/3/3 223/3/3 225/3/3
f 229/1/3 228/1/3 227/1/3
f 230/1/3 228/1/3 229/1/3
f 233/1/3 232/1/3 231/1/3
f 234/1/3 232/1/3 233/1/3
f 238/1/3 236/1/3 235/1/3
f 239/3/3 237/3/3 236/3/3
f 239/1/3 236/1/3 238/1/3
f 240/3/3 237/3/3 239/3/3
f 246/2/3 242/2/3 241/2/3
f 247/1/3 243/1/3 242/1/3
f 247/2/3 242/2/3 246/2/3
f 248/1/3 243/1/3 247/1/3
f 249/1/3 245/1/3 244/1/3
f 250/1/3 245/1/3 249/1/3
f 253/2/3 252/2/3 251/2/3
f 254/2/3 252/2/3 253/2/3
f 255/1/4 256/1/4 257/1/4
f 257/1/4 256/1/4 258/1/4
f 259/2/4 260/2/4 261/2/4
f 261/2/4 260/2/4 262/2/4
f 263/2/4 264/2/4 267/2/4
f 267/2/4 264/2/4 268/2/4
f 265/3/4 266/3/4 269/3/4
f 269/3/4 266/3/4 270/3/4
f 271/2/4 272/2/4 275/2/4
f 275/2/4 272/2/4 276/2/4
f 273/3/4 274/3/4 277/3/4
f 277/3/4 274/3/4 278/3/4
f 279/1/4 280/1/4 282/1/4
f 280/3/4 281/3/4 283/3/4
f 282/1/4 280/1/4 283/1/4
f 283/3/4 281/3/4 284/3/4
f 285/1/4 286/1/4 287/1/4
f 287/1/4 286/1/4 288/1/4
f 289/1/4 290/1/4 294/1/4
f 294/1/4 290/1/4 295/1/4
f 291/1/4 292/1/4 296/1/4
f 292/3/4 293/3/4 297/3/4
f 296/1/4 292/1/4 297/1/4
f 297/3/4 293/3/4 298/3/4
f 299/2/4 300/2/4 301/2/4
f 301/2/4 300/2/4 302/2/4
f 303/2/4 304/2/4 305/2/4
f 305/2/4 304/2/4 306/2/4
f 307/2/4 308/2/4 309/2/4
f 309/2/4 308/2/4 310/2/4
f 311/2/4 312/2/4 317/2/4
f 317/2/4 312/2/4 318/2/4
f 313/1/4 314/1/4 319/1/4
f 319/1/4 314/1/4 320/1/4
f 315/1/4 316/1/4 321/1/4
f 321/1/4 316/1/4 322/1/4
f 323/1/4 324/1/4 327/1/4
f 327/1/4 324/1/4 328/1/4
f 325/1/4 326/1/4 329/1/4
f 329/1/4 326/1/4 330/1/4
f 333/1/5 332/1/5 331/1/5
f 334/1/5 332/1/5 333/1/5
f 337/2/5 336/2/5 335/2/5
f 338/2/5 336/2/5 337/2/5
f 341/1/5 340/1/5 339/1/5
f 342/1/5 340/1/5 341/1/5
f 345/2/5 344/2/5 343/2/5
f 346/2/5 344/2/5 345/2/5
f 349/2/5 348/2/5 347/2/5
f 350/2/5 348/2/5 349/2/5
f 353/3/5 352/3/5 351/3/5
f 354/3/5 352/3/5 353/3/5
f 355/1/5 354/1/5 353/1/5
f 356/1/5 354/1/5 355/1/5
f 359/2/5 358/2/5 357/2/5
f 360/2/5 358/2/5 359/2/5
f 363/2/5 362/2/5 361/2/5
f 364/2/5 362/2/5 363/2/5
f 367/2/5 366/2/5 365/2/5
f 368/2/5 366/2/5 367/2/5
f 371/1/5 370/1/5 369/1/5
f 372/1/5 370/1/5 371/1/5
f 375/2/5 374/2/5 373/2/5
f 376/2/5 374/2/5 375/2/5
f 379/1/5 378/1/5 377/1/5
f 380/1/5 378/1/5 379/1/5
f 383/1/5 382/1/5 381/1/5
f 384/1/5 382/1/5 383/1/5
f 387/1/5 386/1/5 385/1/5
f 388/1/5 386/1/5 387/1/5
f 391/1/5 390/1/5 389/1/5
f 392/1/5 390/1/5 391/1/5
f 393/1/6 394/1/6 395/1/6
f 395/1/6 394/1/6 396/1/6
f 397/3/6 398/3/6 399/3/6
f 399/3/6 398/3/6 400/3/6
f 401/2/6 402/2/6 403/2/6
f 403/2/6 402/2/6 404/2/6
f 405/3/6 406/3/6 407/3/6
f 407/3/6 406/3/6 408/3/6
f 409/3/6 410/3/6 411/3/6
f 411/3/6 410/3/6 412/3/6
f 413/2/6 414/2/6 415/2/6
f 415/2/6 414/2/6 416/2/6
f 417/3/6 418/3/6 419/3/6
f 419/3/6 418/3/6 420/3/6
f 421/1/6 422/1/6 423/1/6
f 423/1/6 422/1/6 424/1/6
f 425/2/6 426/2/6 427/2/6
f 427/2/6 426/2/6 428/2/6
f 429/1/6 430/1/6 431/1/6
f 431/1/6 430/1/6 432/1/6
f 433/1/6 434/1/6 435/1/6
f 435/1/6 434/1/6 436/1/6
f 437/1/6 438/1/6 439/1/6
f 439/1/6 438/1/6 440/1/6
f 441/1/6 442/1/6 443/1/6
f 443/1/6 442/1/6 444/1/6
f 445/3/6 446/3/6 447/3/6
f 447/3/6 446/3/6 448/3/6
f 449/3/6 450/3/6 451/3/6
f 451/3/6 450/3/6 452/3/6
f 453/1/6 454/1/6 455/1/6
f 455/1/6 454/1/6 456/1/6
