# MagicaVoxel @ Ephtracy

# group
o 

# material
mtllib Crawl3.mtl
usemtl palette

# normals
vn -1 0 0
vn 1 0 0
vn 0 0 1
vn 0 0 -1
vn 0 -1 0
vn 0 1 0

# texcoords
vt 0.970703 0.5
vt 0.974609 0.5
vt 0.978516 0.5
vt 0.982422 0.5

# verts
v -0.1 0.5 0.7
v -0.1 0.5 0.6
v -0.1 0.5 0.5
v -0.1 0.5 0.2
v -0.1 0.6 0.7
v -0.1 0.6 0.6
v -0.1 0.6 0.5
v -0.1 0.6 0.2
v -0.1 0.6 0.1
v -0.1 0.7 0.7
v -0.1 0.7 0.6
v -0.1 0.7 0.5
v -0.1 0.7 0.3
v -0.1 0.7 0.1
v -0.1 0.7 0
v -0.1 0.7 -0.4
v -0.1 0.7 -0.6
v -0.1 0.8 -0.3
v -0.1 0.8 -0.4
v -0.1 0.8 -0.6
v -0.1 0.8 -0.7
v -0.1 0.9 0.5
v -0.1 0.9 0.3
v -0.1 0.9 0.2
v -0.1 0.9 0.1
v -0.1 0.9 -0.2
v -0.1 0.9 -0.3
v -0.1 0.9 -0.7
v -0.1 0.9 -0.8
v -0.1 1 0.5
v -0.1 1 0.2
v -0.1 1.1 0.4
v -0.1 1.1 0.2
v -0.1 1.1 -0.1
v -0.1 1.1 -0.2
v -0.1 1.1 -0.3
v -0.1 1.1 -0.4
v -0.1 1.1 -0.8
v -0.1 1.1 -0.9
v -0.1 1.2 0.4
v -0.1 1.2 0.2
v -0.1 1.2 0.1
v -0.1 1.2 0
v -0.1 1.2 -0.1
v -0.1 1.2 -0.3
v -0.1 1.2 -0.4
v -0.1 1.3 0.7
v -0.1 1.3 0.6
v -0.1 1.3 0.5
v -0.1 1.3 0.3
v -0.1 1.3 0.2
v -0.1 1.3 0.1
v -0.1 1.3 0
v -0.1 1.3 -0.8
v -0.1 1.3 -0.9
v -0.1 1.4 0.6
v -0.1 1.4 0.5
v -0.1 1.4 0.3
v -0.1 1.4 0.2
v -0.1 1.4 -0.2
v -0.1 1.4 -0.3
v -0.1 1.5 -0.2
v -0.1 1.5 -0.4
v -0.1 1.5 -0.5
v -0.1 1.5 -0.7
v -0.1 1.5 -0.8
v -0.1 1.5 -0.9
v -0.1 1.6 0.1
v -0.1 1.6 0
v -0.1 1.6 -0.4
v -0.1 1.6 -0.5
v -0.1 1.6 -0.6
v -0.1 1.6 -0.7
v -0.1 1.6 -0.8
v -0.1 1.6 -0.9
v -0.1 1.7 -0.2
v -0.1 1.7 -0.3
v -0.1 1.7 -0.5
v -0.1 1.7 -0.6
v -0.1 1.7 -0.7
v -0.1 1.7 -0.8
v -0.1 1.7 -0.9
v -0.1 1.8 0
v -0.1 1.8 -0.2
v -0.1 1.8 -0.3
v -0.1 1.8 -0.5
v -0.1 1.8 -0.6
v -0.1 1.8 -0.7
v -0.1 1.8 -0.8
v -0.1 1.9 -0.5
v -0.1 1.9 -0.6
v -0.1 1.9 -0.7
v -0.1 1.9 -0.8
v -0.1 1.9 -0.9
v -0.1 2 0
v -0.1 2 -0.2
v -0.1 2 -0.3
v -0.1 2 -0.5
v -0.1 2 -0.8
v 0 0.5 0.7
v 0 0.5 0.6
v 0 0.5 0.5
v 0 0.5 0.2
v 0 0.6 0.7
v 0 0.6 0.6
v 0 0.6 0.5
v 0 0.6 0.2
v 0 0.6 0.1
v 0 0.7 0.7
v 0 0.7 0.6
v 0 0.7 0.5
v 0 0.7 0.3
v 0 0.7 0.1
v 0 0.7 0
v 0 0.7 -0.4
v 0 0.7 -0.6
v 0 0.8 -0.3
v 0 0.8 -0.4
v 0 0.8 -0.6
v 0 0.8 -0.7
v 0 0.9 0.5
v 0 0.9 0.3
v 0 0.9 0.2
v 0 0.9 0.1
v 0 0.9 -0.2
v 0 0.9 -0.3
v 0 0.9 -0.7
v 0 0.9 -0.8
v 0 1 0.5
v 0 1 0.2
v 0 1.1 0.4
v 0 1.1 0.2
v 0 1.1 -0.1
v 0 1.1 -0.2
v 0 1.1 -0.3
v 0 1.1 -0.4
v 0 1.1 -0.8
v 0 1.1 -0.9
v 0 1.2 0.4
v 0 1.2 0.2
v 0 1.2 0.1
v 0 1.2 0
v 0 1.2 -0.1
v 0 1.2 -0.3
v 0 1.2 -0.4
v 0 1.3 0.7
v 0 1.3 0.6
v 0 1.3 0.5
v 0 1.3 0.3
v 0 1.3 0.2
v 0 1.3 0.1
v 0 1.3 0
v 0 1.3 -0.8
v 0 1.3 -0.9
v 0 1.4 0.6
v 0 1.4 0.5
v 0 1.4 0.3
v 0 1.4 0.2
v 0 1.4 -0.2
v 0 1.4 -0.3
v 0 1.5 -0.2
v 0 1.5 -0.4
v 0 1.5 -0.5
v 0 1.5 -0.7
v 0 1.5 -0.8
v 0 1.5 -0.9
v 0 1.6 0.1
v 0 1.6 0
v 0 1.6 -0.4
v 0 1.6 -0.5
v 0 1.6 -0.6
v 0 1.6 -0.7
v 0 1.6 -0.8
v 0 1.6 -0.9
v 0 1.7 -0.2
v 0 1.7 -0.3
v 0 1.7 -0.5
v 0 1.7 -0.6
v 0 1.7 -0.7
v 0 1.7 -0.8
v 0 1.7 -0.9
v 0 1.8 0
v 0 1.8 -0.2
v 0 1.8 -0.3
v 0 1.8 -0.5
v 0 1.8 -0.6
v 0 1.8 -0.7
v 0 1.8 -0.8
v 0 1.9 -0.5
v 0 1.9 -0.6
v 0 1.9 -0.7
v 0 1.9 -0.8
v 0 1.9 -0.9
v 0 2 0
v 0 2 -0.2
v 0 2 -0.3
v 0 2 -0.5
v 0 2 -0.8
v -0.1 0.5 0.7
v -0.1 0.6 0.7
v -0.1 0.7 0.7
v -0.1 1.3 0.7
v 0 0.5 0.7
v 0 0.6 0.7
v 0 0.7 0.7
v 0 1.3 0.7
v -0.1 0.6 0.6
v -0.1 0.7 0.6
v -0.1 1.3 0.6
v -0.1 1.4 0.6
v 0 0.6 0.6
v 0 0.7 0.6
v 0 1.3 0.6
v 0 1.4 0.6
v -0.1 0.5 0.5
v -0.1 0.6 0.5
v 0 0.5 0.5
v 0 0.6 0.5
v -0.1 1.3 0.3
v -0.1 1.4 0.3
v 0 1.3 0.3
v 0 1.4 0.3
v -0.1 1.3 0.1
v -0.1 1.6 0.1
v 0 1.3 0.1
v 0 1.6 0.1
v -0.1 1.2 0
v -0.1 1.3 0
v -0.1 1.6 0
v -0.1 1.8 0
v -0.1 2 0
v 0 1.2 0
v 0 1.3 0
v 0 1.6 0
v 0 1.8 0
v 0 2 0
v -0.1 1.7 -0.3
v -0.1 1.8 -0.3
v -0.1 2 -0.3
v 0 1.7 -0.3
v 0 1.8 -0.3
v 0 2 -0.3
v -0.1 1.5 -0.5
v -0.1 1.6 -0.5
v 0 1.5 -0.5
v 0 1.6 -0.5
v -0.1 1.8 -0.6
v -0.1 1.9 -0.6
v 0 1.8 -0.6
v 0 1.9 -0.6
v -0.1 0.5 0.6
v -0.1 0.6 0.6
v 0 0.5 0.6
v 0 0.6 0.6
v -0.1 1.3 0.5
v -0.1 1.4 0.5
v 0 1.3 0.5
v 0 1.4 0.5
v -0.1 0.5 0.2
v -0.1 0.6 0.2
v -0.1 1.3 0.2
v -0.1 1.4 0.2
v 0 0.5 0.2
v 0 0.6 0.2
v 0 1.3 0.2
v 0 1.4 0.2
v -0.1 0.6 0.1
v -0.1 0.7 0.1
v -0.1 1.2 0.1
v -0.1 1.3 0.1
v 0 0.6 0.1
v 0 0.7 0.1
v 0 1.2 0.1
v 0 1.3 0.1
v -0.1 1.7 -0.2
v -0.1 1.8 -0.2
v -0.1 2 -0.2
v 0 1.7 -0.2
v 0 1.8 -0.2
v 0 2 -0.2
v -0.1 1.5 -0.4
v -0.1 1.6 -0.4
v 0 1.5 -0.4
v 0 1.6 -0.4
v -0.1 1.8 -0.5
v -0.1 1.9 -0.5
v 0 1.8 -0.5
v 0 1.9 -0.5
v -0.1 0.7 -0.6
v -0.1 0.8 -0.6
v 0 0.7 -0.6
v 0 0.8 -0.6
v -0.1 0.8 -0.7
v -0.1 0.9 -0.7
v 0 0.8 -0.7
v 0 0.9 -0.7
v -0.1 0.9 -0.8
v -0.1 1.1 -0.8
v -0.1 1.3 -0.8
v -0.1 1.5 -0.8
v -0.1 1.6 -0.8
v -0.1 1.7 -0.8
v -0.1 1.9 -0.8
v -0.1 2 -0.8
v 0 0.9 -0.8
v 0 1.1 -0.8
v 0 1.3 -0.8
v 0 1.5 -0.8
v 0 1.6 -0.8
v 0 1.7 -0.8
v 0 1.9 -0.8
v 0 2 -0.8
v -0.1 1.1 -0.9
v -0.1 1.3 -0.9
v -0.1 1.5 -0.9
v -0.1 1.6 -0.9
v -0.1 1.7 -0.9
v -0.1 1.9 -0.9
v 0 1.1 -0.9
v 0 1.3 -0.9
v 0 1.5 -0.9
v 0 1.6 -0.9
v 0 1.7 -0.9
v 0 1.9 -0.9
v -0.1 0.5 0.7
v 0 0.5 0.7
v -0.1 0.5 0.6
v 0 0.5 0.6
v -0.1 0.5 0.5
v 0 0.5 0.5
v -0.1 0.5 0.2
v 0 0.5 0.2
v -0.1 0.6 0.6
v 0 0.6 0.6
v -0.1 0.6 0.5
v 0 0.6 0.5
v -0.1 0.6 0.2
v 0 0.6 0.2
v -0.1 0.6 0.1
v 0 0.6 0.1
v -0.1 0.7 0.7
v 0 0.7 0.7
v -0.1 0.7 0.6
v 0 0.7 0.6
v -0.1 0.7 0.1
v 0 0.7 0.1
v -0.1 0.7 0
v 0 0.7 0
v -0.1 0.7 -0.4
v 0 0.7 -0.4
v -0.1 0.7 -0.6
v 0 0.7 -0.6
v -0.1 0.8 -0.6
v 0 0.8 -0.6
v -0.1 0.8 -0.7
v 0 0.8 -0.7
v -0.1 0.9 -0.7
v 0 0.9 -0.7
v -0.1 0.9 -0.8
v 0 0.9 -0.8
v -0.1 1.1 -0.8
v 0 1.1 -0.8
v -0.1 1.1 -0.9
v 0 1.1 -0.9
v -0.1 1.3 0.1
v 0 1.3 0.1
v -0.1 1.3 0
v 0 1.3 0
v -0.1 1.5 -0.8
v 0 1.5 -0.8
v -0.1 1.5 -0.9
v 0 1.5 -0.9
v -0.1 1.6 -0.4
v 0 1.6 -0.4
v -0.1 1.6 -0.5
v 0 1.6 -0.5
v -0.1 1.7 -0.8
v 0 1.7 -0.8
v -0.1 1.7 -0.9
v 0 1.7 -0.9
v -0.1 1.9 -0.5
v 0 1.9 -0.5
v -0.1 1.9 -0.6
v 0 1.9 -0.6
v -0.1 0.6 0.7
v 0 0.6 0.7
v -0.1 0.6 0.6
v 0 0.6 0.6
v -0.1 1.2 0.1
v 0 1.2 0.1
v -0.1 1.2 0
v 0 1.2 0
v -0.1 1.3 0.7
v 0 1.3 0.7
v -0.1 1.3 0.6
v 0 1.3 0.6
v -0.1 1.3 0.5
v 0 1.3 0.5
v -0.1 1.3 0.3
v 0 1.3 0.3
v -0.1 1.3 0.2
v 0 1.3 0.2
v -0.1 1.3 0.1
v 0 1.3 0.1
v -0.1 1.3 -0.8
v 0 1.3 -0.8
v -0.1 1.3 -0.9
v 0 1.3 -0.9
v -0.1 1.4 0.6
v 0 1.4 0.6
v -0.1 1.4 0.5
v 0 1.4 0.5
v -0.1 1.4 0.3
v 0 1.4 0.3
v -0.1 1.4 0.2
v 0 1.4 0.2
v -0.1 1.5 -0.4
v 0 1.5 -0.4
v -0.1 1.5 -0.5
v 0 1.5 -0.5
v -0.1 1.6 0.1
v 0 1.6 0.1
v -0.1 1.6 0
v 0 1.6 0
v -0.1 1.6 -0.8
v 0 1.6 -0.8
v -0.1 1.6 -0.9
v 0 1.6 -0.9
v -0.1 1.7 -0.2
v 0 1.7 -0.2
v -0.1 1.7 -0.3
v 0 1.7 -0.3
v -0.1 1.8 -0.5
v 0 1.8 -0.5
v -0.1 1.8 -0.6
v 0 1.8 -0.6
v -0.1 1.9 -0.8
v 0 1.9 -0.8
v -0.1 1.9 -0.9
v 0 1.9 -0.9
v -0.1 2 0
v 0 2 0
v -0.1 2 -0.2
v 0 2 -0.2
v -0.1 2 -0.3
v 0 2 -0.3
v -0.1 2 -0.5
v 0 2 -0.5
v -0.1 2 -0.8
v 0 2 -0.8

# faces
f 5/1/1 2/1/1 1/1/1
f 6/1/1 2/1/1 5/1/1
f 7/2/1 4/2/1 3/2/1
f 8/2/1 4/2/1 7/2/1
f 11/1/1 7/1/1 6/1/1
f 12/2/1 9/2/1 8/2/1
f 12/2/1 8/2/1 7/2/1
f 12/1/1 7/1/1 11/1/1
f 13/2/1 9/2/1 12/2/1
f 14/2/1 9/2/1 13/2/1
f 18/1/1 16/1/1 15/1/1
f 19/2/1 17/2/1 16/2/1
f 19/1/1 16/1/1 18/1/1
f 20/2/1 17/2/1 19/2/1
f 22/2/1 11/2/1 10/2/1
f 22/2/1 12/2/1 11/2/1
f 22/1/1 13/1/1 12/1/1
f 23/2/1 14/2/1 13/2/1
f 23/1/1 13/1/1 22/1/1
f 24/2/1 14/2/1 23/2/1
f 25/3/1 15/3/1 14/3/1
f 25/2/1 14/2/1 24/2/1
f 26/1/1 18/1/1 15/1/1
f 27/2/1 21/2/1 20/2/1
f 27/1/1 18/1/1 26/1/1
f 27/2/1 20/2/1 19/2/1
f 27/2/1 19/2/1 18/2/1
f 28/2/1 21/2/1 27/2/1
f 30/2/1 23/2/1 22/2/1
f 30/2/1 22/2/1 10/2/1
f 30/2/1 24/2/1 23/2/1
f 31/3/1 25/3/1 24/3/1
f 31/2/1 24/2/1 30/2/1
f 32/3/1 31/3/1 30/3/1
f 33/3/1 25/3/1 31/3/1
f 33/3/1 31/3/1 32/3/1
f 34/1/1 26/1/1 15/1/1
f 35/2/1 29/2/1 28/2/1
f 35/1/1 26/1/1 34/1/1
f 35/2/1 28/2/1 27/2/1
f 35/2/1 27/2/1 26/2/1
f 36/2/1 29/2/1 35/2/1
f 37/2/1 29/2/1 36/2/1
f 38/2/1 29/2/1 37/2/1
f 40/4/1 33/4/1 32/4/1
f 40/3/1 32/3/1 30/3/1
f 41/3/1 25/3/1 33/3/1
f 41/4/1 33/4/1 40/4/1
f 42/3/1 15/3/1 25/3/1
f 42/3/1 25/3/1 41/3/1
f 43/1/1 34/1/1 15/1/1
f 43/3/1 15/3/1 42/3/1
f 44/2/1 35/2/1 34/2/1
f 44/1/1 34/1/1 43/1/1
f 44/2/1 36/2/1 35/2/1
f 45/3/1 37/3/1 36/3/1
f 45/2/1 36/2/1 44/2/1
f 46/2/1 39/2/1 38/2/1
f 46/3/1 37/3/1 45/3/1
f 46/2/1 38/2/1 37/2/1
f 47/2/1 30/2/1 10/2/1
f 48/2/1 30/2/1 47/2/1
f 49/3/1 40/3/1 30/3/1
f 49/2/1 30/2/1 48/2/1
f 49/3/1 42/3/1 41/3/1
f 49/3/1 41/3/1 40/3/1
f 50/3/1 42/3/1 49/3/1
f 51/3/1 42/3/1 50/3/1
f 52/3/1 42/3/1 51/3/1
f 53/1/1 45/1/1 44/1/1
f 53/1/1 44/1/1 43/1/1
f 54/2/1 39/2/1 46/2/1
f 54/2/1 46/2/1 45/2/1
f 55/2/1 39/2/1 54/2/1
f 56/2/1 49/2/1 48/2/1
f 57/2/1 49/2/1 56/2/1
f 58/3/1 51/3/1 50/3/1
f 59/3/1 51/3/1 58/3/1
f 60/1/1 53/1/1 52/1/1
f 60/1/1 45/1/1 53/1/1
f 61/2/1 54/2/1 45/2/1
f 61/1/1 45/1/1 60/1/1
f 62/1/1 60/1/1 52/1/1
f 62/2/1 61/2/1 60/2/1
f 63/2/1 54/2/1 61/2/1
f 63/2/1 61/2/1 62/2/1
f 64/2/1 54/2/1 63/2/1
f 65/2/1 54/2/1 64/2/1
f 66/2/1 54/2/1 65/2/1
f 68/1/1 62/1/1 52/1/1
f 68/1/1 63/1/1 62/1/1
f 69/1/1 63/1/1 68/1/1
f 70/1/1 63/1/1 69/1/1
f 71/2/1 65/2/1 64/2/1
f 72/2/1 65/2/1 71/2/1
f 73/1/1 67/1/1 66/1/1
f 73/2/1 65/2/1 72/2/1
f 73/1/1 66/1/1 65/1/1
f 74/1/1 67/1/1 73/1/1
f 75/1/1 67/1/1 74/1/1
f 76/1/1 71/1/1 70/1/1
f 76/1/1 70/1/1 69/1/1
f 77/1/1 71/1/1 76/1/1
f 78/2/1 72/2/1 71/2/1
f 78/1/1 71/1/1 77/1/1
f 79/1/1 74/1/1 73/1/1
f 79/2/1 72/2/1 78/2/1
f 79/1/1 73/1/1 72/1/1
f 80/1/1 74/1/1 79/1/1
f 81/1/1 74/1/1 80/1/1
f 83/1/1 76/1/1 69/1/1
f 84/1/1 76/1/1 83/1/1
f 85/1/1 78/1/1 77/1/1
f 85/1/1 79/1/1 78/1/1
f 85/1/1 80/1/1 79/1/1
f 86/1/1 80/1/1 85/1/1
f 87/1/1 80/1/1 86/1/1
f 88/2/1 81/2/1 80/2/1
f 88/1/1 80/1/1 87/1/1
f 89/1/1 82/1/1 81/1/1
f 89/2/1 81/2/1 88/2/1
f 90/3/1 86/3/1 85/3/1
f 91/2/1 88/2/1 87/2/1
f 92/1/1 89/1/1 88/1/1
f 92/2/1 88/2/1 91/2/1
f 93/1/1 82/1/1 89/1/1
f 93/1/1 89/1/1 92/1/1
f 94/1/1 82/1/1 93/1/1
f 95/3/1 84/3/1 83/3/1
f 96/3/1 84/3/1 95/3/1
f 97/3/1 90/3/1 85/3/1
f 98/1/1 92/1/1 91/1/1
f 98/3/1 90/3/1 97/3/1
f 98/1/1 91/1/1 90/1/1
f 98/1/1 93/1/1 92/1/1
f 99/1/1 93/1/1 98/1/1
f 100/1/2 101/1/2 104/1/2
f 104/1/2 101/1/2 105/1/2
f 102/2/2 103/2/2 106/2/2
f 106/2/2 103/2/2 107/2/2
f 105/1/2 106/1/2 110/1/2
f 107/2/2 108/2/2 111/2/2
f 106/2/2 107/2/2 111/2/2
f 110/1/2 106/1/2 111/1/2
f 111/2/2 108/2/2 112/2/2
f 112/2/2 108/2/2 113/2/2
f 114/1/2 115/1/2 117/1/2
f 115/2/2 116/2/2 118/2/2
f 117/1/2 115/1/2 118/1/2
f 118/2/2 116/2/2 119/2/2
f 109/2/2 110/2/2 121/2/2
f 110/2/2 111/2/2 121/2/2
f 111/1/2 112/1/2 121/1/2
f 112/2/2 113/2/2 122/2/2
f 121/1/2 112/1/2 122/1/2
f 122/2/2 113/2/2 123/2/2
f 113/3/2 114/3/2 124/3/2
f 123/2/2 113/2/2 124/2/2
f 114/1/2 117/1/2 125/1/2
f 119/2/2 120/2/2 126/2/2
f 125/1/2 117/1/2 126/1/2
f 118/2/2 119/2/2 126/2/2
f 117/2/2 118/2/2 126/2/2
f 126/2/2 120/2/2 127/2/2
f 121/2/2 122/2/2 129/2/2
f 109/2/2 121/2/2 129/2/2
f 122/2/2 123/2/2 129/2/2
f 123/3/2 124/3/2 130/3/2
f 129/2/2 123/2/2 130/2/2
f 129/3/2 130/3/2 131/3/2
f 130/3/2 124/3/2 132/3/2
f 131/3/2 130/3/2 132/3/2
f 114/1/2 125/1/2 133/1/2
f 127/2/2 128/2/2 134/2/2
f 133/1/2 125/1/2 134/1/2
f 126/2/2 127/2/2 134/2/2
f 125/2/2 126/2/2 134/2/2
f 134/2/2 128/2/2 135/2/2
f 135/2/2 128/2/2 136/2/2
f 136/2/2 128/2/2 137/2/2
f 131/4/2 132/4/2 139/4/2
f 129/3/2 131/3/2 139/3/2
f 132/3/2 124/3/2 140/3/2
f 139/4/2 132/4/2 140/4/2
f 124/3/2 114/3/2 141/3/2
f 140/3/2 124/3/2 141/3/2
f 114/1/2 133/1/2 142/1/2
f 141/3/2 114/3/2 142/3/2
f 133/2/2 134/2/2 143/2/2
f 142/1/2 133/1/2 143/1/2
f 134/2/2 135/2/2 143/2/2
f 135/3/2 136/3/2 144/3/2
f 143/2/2 135/2/2 144/2/2
f 137/2/2 138/2/2 145/2/2
f 144/3/2 136/3/2 145/3/2
f 136/2/2 137/2/2 145/2/2
f 109/2/2 129/2/2 146/2/2
f 146/2/2 129/2/2 147/2/2
f 129/3/2 139/3/2 148/3/2
f 147/2/2 129/2/2 148/2/2
f 140/3/2 141/3/2 148/3/2
f 139/3/2 140/3/2 148/3/2
f 148/3/2 141/3/2 149/3/2
f 149/3/2 141/3/2 150/3/2
f 150/3/2 141/3/2 151/3/2
f 143/1/2 144/1/2 152/1/2
f 142/1/2 143/1/2 152/1/2
f 145/2/2 138/2/2 153/2/2
f 144/2/2 145/2/2 153/2/2
f 153/2/2 138/2/2 154/2/2
f 147/2/2 148/2/2 155/2/2
f 155/2/2 148/2/2 156/2/2
f 149/3/2 150/3/2 157/3/2
f 157/3/2 150/3/2 158/3/2
f 151/1/2 152/1/2 159/1/2
f 152/1/2 144/1/2 159/1/2
f 144/2/2 153/2/2 160/2/2
f 159/1/2 144/1/2 160/1/2
f 151/1/2 159/1/2 161/1/2
f 159/2/2 160/2/2 161/2/2
f 160/2/2 153/2/2 162/2/2
f 161/2/2 160/2/2 162/2/2
f 162/2/2 153/2/2 163/2/2
f 163/2/2 153/2/2 164/2/2
f 164/2/2 153/2/2 165/2/2
f 151/1/2 161/1/2 167/1/2
f 161/1/2 162/1/2 167/1/2
f 167/1/2 162/1/2 168/1/2
f 168/1/2 162/1/2 169/1/2
f 163/2/2 164/2/2 170/2/2
f 170/2/2 164/2/2 171/2/2
f 165/1/2 166/1/2 172/1/2
f 171/2/2 164/2/2 172/2/2
f 164/1/2 165/1/2 172/1/2
f 172/1/2 166/1/2 173/1/2
f 173/1/2 166/1/2 174/1/2
f 169/1/2 170/1/2 175/1/2
f 168/1/2 169/1/2 175/1/2
f 175/1/2 170/1/2 176/1/2
f 170/2/2 171/2/2 177/2/2
f 176/1/2 170/1/2 177/1/2
f 172/1/2 173/1/2 178/1/2
f 177/2/2 171/2/2 178/2/2
f 171/1/2 172/1/2 178/1/2
f 178/1/2 173/1/2 179/1/2
f 179/1/2 173/1/2 180/1/2
f 168/1/2 175/1/2 182/1/2
f 182/1/2 175/1/2 183/1/2
f 176/1/2 177/1/2 184/1/2
f 177/1/2 178/1/2 184/1/2
f 178/1/2 179/1/2 184/1/2
f 184/1/2 179/1/2 185/1/2
f 185/1/2 179/1/2 186/1/2
f 179/2/2 180/2/2 187/2/2
f 186/1/2 179/1/2 187/1/2
f 180/1/2 181/1/2 188/1/2
f 187/2/2 180/2/2 188/2/2
f 184/3/2 185/3/2 189/3/2
f 186/2/2 187/2/2 190/2/2
f 187/1/2 188/1/2 191/1/2
f 190/2/2 187/2/2 191/2/2
f 188/1/2 181/1/2 192/1/2
f 191/1/2 188/1/2 192/1/2
f 192/1/2 181/1/2 193/1/2
f 182/3/2 183/3/2 194/3/2
f 194/3/2 183/3/2 195/3/2
f 184/3/2 189/3/2 196/3/2
f 190/1/2 191/1/2 197/1/2
f 196/3/2 189/3/2 197/3/2
f 189/1/2 190/1/2 197/1/2
f 191/1/2 192/1/2 197/1/2
f 197/1/2 192/1/2 198/1/2
f 203/1/3 200/1/3 199/1/3
f 204/1/3 200/1/3 203/1/3
f 205/2/3 202/2/3 201/2/3
f 206/2/3 202/2/3 205/2/3
f 211/1/3 208/1/3 207/1/3
f 212/1/3 208/1/3 211/1/3
f 213/2/3 210/2/3 209/2/3
f 214/2/3 210/2/3 213/2/3
f 217/2/3 216/2/3 215/2/3
f 218/2/3 216/2/3 217/2/3
f 221/3/3 220/3/3 219/3/3
f 222/3/3 220/3/3 221/3/3
f 225/1/3 224/1/3 223/1/3
f 226/1/3 224/1/3 225/1/3
f 232/1/3 228/1/3 227/1/3
f 233/1/3 228/1/3 232/1/3
f 234/1/3 230/1/3 229/1/3
f 235/3/3 231/3/3 230/3/3
f 235/1/3 230/1/3 234/1/3
f 236/3/3 231/3/3 235/3/3
f 240/1/3 238/1/3 237/1/3
f 241/3/3 239/3/3 238/3/3
f 241/1/3 238/1/3 240/1/3
f 242/3/3 239/3/3 241/3/3
f 245/2/3 244/2/3 243/2/3
f 246/2/3 244/2/3 245/2/3
f 249/2/3 248/2/3 247/2/3
f 250/2/3 248/2/3 249/2/3
f 251/1/4 252/1/4 253/1/4
f 253/1/4 252/1/4 254/1/4
f 255/2/4 256/2/4 257/2/4
f 257/2/4 256/2/4 258/2/4
f 259/2/4 260/2/4 263/2/4
f 263/2/4 260/2/4 264/2/4
f 261/3/4 262/3/4 265/3/4
f 265/3/4 262/3/4 266/3/4
f 267/2/4 268/2/4 271/2/4
f 271/2/4 268/2/4 272/2/4
f 269/3/4 270/3/4 273/3/4
f 273/3/4 270/3/4 274/3/4
f 275/1/4 276/1/4 278/1/4
f 276/3/4 277/3/4 279/3/4
f 278/1/4 276/1/4 279/1/4
f 279/3/4 277/3/4 280/3/4
f 281/1/4 282/1/4 283/1/4
f 283/1/4 282/1/4 284/1/4
f 285/3/4 286/3/4 287/3/4
f 287/3/4 286/3/4 288/3/4
f 289/2/4 290/2/4 291/2/4
f 291/2/4 290/2/4 292/2/4
f 293/2/4 294/2/4 295/2/4
f 295/2/4 294/2/4 296/2/4
f 297/2/4 298/2/4 305/2/4
f 305/2/4 298/2/4 306/2/4
f 299/2/4 300/2/4 307/2/4
f 307/2/4 300/2/4 308/2/4
f 301/1/4 302/1/4 309/1/4
f 309/1/4 302/1/4 310/1/4
f 303/1/4 304/1/4 311/1/4
f 311/1/4 304/1/4 312/1/4
f 313/2/4 314/2/4 319/2/4
f 319/2/4 314/2/4 320/2/4
f 315/1/4 316/1/4 321/1/4
f 321/1/4 316/1/4 322/1/4
f 317/1/4 318/1/4 323/1/4
f 323/1/4 318/1/4 324/1/4
f 327/1/5 326/1/5 325/1/5
f 328/1/5 326/1/5 327/1/5
f 331/2/5 330/2/5 329/2/5
f 332/2/5 330/2/5 331/2/5
f 335/1/5 334/1/5 333/1/5
f 336/1/5 334/1/5 335/1/5
f 339/2/5 338/2/5 337/2/5
f 340/2/5 338/2/5 339/2/5
f 343/2/5 342/2/5 341/2/5
f 344/2/5 342/2/5 343/2/5
f 347/3/5 346/3/5 345/3/5
f 348/3/5 346/3/5 347/3/5
f 349/1/5 348/1/5 347/1/5
f 350/1/5 348/1/5 349/1/5
f 351/2/5 350/2/5 349/2/5
f 352/2/5 350/2/5 351/2/5
f 355/2/5 354/2/5 353/2/5
f 356/2/5 354/2/5 355/2/5
f 359/2/5 358/2/5 357/2/5
f 360/2/5 358/2/5 359/2/5
f 363/2/5 362/2/5 361/2/5
f 364/2/5 362/2/5 363/2/5
f 367/1/5 366/1/5 365/1/5
f 368/1/5 366/1/5 367/1/5
f 371/1/5 370/1/5 369/1/5
f 372/1/5 370/1/5 371/1/5
f 375/1/5 374/1/5 373/1/5
f 376/1/5 374/1/5 375/1/5
f 379/1/5 378/1/5 377/1/5
f 380/1/5 378/1/5 379/1/5
f 383/1/5 382/1/5 381/1/5
f 384/1/5 382/1/5 383/1/5
f 385/1/6 386/1/6 387/1/6
f 387/1/6 386/1/6 388/1/6
f 389/3/6 390/3/6 391/3/6
f 391/3/6 390/3/6 392/3/6
f 393/2/6 394/2/6 395/2/6
f 395/2/6 394/2/6 396/2/6
f 397/3/6 398/3/6 399/3/6
f 399/3/6 398/3/6 400/3/6
f 401/3/6 402/3/6 403/3/6
f 403/3/6 402/3/6 404/3/6
f 405/2/6 406/2/6 407/2/6
f 407/2/6 406/2/6 408/2/6
f 409/2/6 410/2/6 411/2/6
f 411/2/6 410/2/6 412/2/6
f 413/3/6 414/3/6 415/3/6
f 415/3/6 414/3/6 416/3/6
f 417/2/6 418/2/6 419/2/6
f 419/2/6 418/2/6 420/2/6
f 421/1/6 422/1/6 423/1/6
f 423/1/6 422/1/6 424/1/6
f 425/1/6 426/1/6 427/1/6
f 427/1/6 426/1/6 428/1/6
f 429/1/6 430/1/6 431/1/6
f 431/1/6 430/1/6 432/1/6
f 433/1/6 434/1/6 435/1/6
f 435/1/6 434/1/6 436/1/6
f 437/1/6 438/1/6 439/1/6
f 439/1/6 438/1/6 440/1/6
f 441/3/6 442/3/6 443/3/6
f 443/3/6 442/3/6 444/3/6
f 445/3/6 446/3/6 447/3/6
f 447/3/6 446/3/6 448/3/6
f 447/1/6 448/1/6 449/1/6
f 449/1/6 448/1/6 450/1/6
