# MagicaVoxel @ Ephtracy

# group
o 

# material
mtllib Crawl1.mtl
usemtl palette

# normals
vn -1 0 0
vn 1 0 0
vn 0 0 1
vn 0 0 -1
vn 0 -1 0
vn 0 1 0

# texcoords
vt 0.908203 0.5
vt 0.912109 0.5
vt 0.916016 0.5
vt 0.919922 0.5

# verts
v -0.1 0 0.3
v -0.1 0 0.2
v -0.1 0 0.1
v -0.1 0 -0.2
v -0.1 0.1 0.3
v -0.1 0.1 0.2
v -0.1 0.1 0.1
v -0.1 0.1 -0.2
v -0.1 0.1 -0.3
v -0.1 0.1 -0.6
v -0.1 0.2 0.3
v -0.1 0.2 0.2
v -0.1 0.2 -0.6
v -0.1 0.2 -0.7
v -0.1 0.3 0.1
v -0.1 0.3 0
v -0.1 0.3 -0.7
v -0.1 0.3 -0.8
v -0.1 0.4 0
v -0.1 0.4 -0.1
v -0.1 0.4 -0.6
v -0.1 0.4 -0.7
v -0.1 0.4 -0.8
v -0.1 0.4 -0.9
v -0.1 0.5 0.1
v -0.1 0.5 -0.1
v -0.1 0.5 -0.9
v -0.1 0.5 -1
v -0.1 0.6 0.1
v -0.1 0.6 -0.1
v -0.1 0.6 -1
v -0.1 0.6 -1.1
v -0.1 0.7 0.1
v -0.1 0.7 -0.1
v -0.1 0.7 -0.4
v -0.1 0.7 -0.5
v -0.1 0.7 -0.6
v -0.1 0.7 -0.7
v -0.1 0.8 0.3
v -0.1 0.8 0.2
v -0.1 0.8 0.1
v -0.1 0.8 -0.1
v -0.1 0.8 -0.2
v -0.1 0.8 -0.3
v -0.1 0.8 -0.4
v -0.1 0.8 -0.5
v -0.1 0.8 -0.6
v -0.1 0.8 -1.1
v -0.1 0.8 -1.2
v -0.1 0.9 0.2
v -0.1 0.9 0.1
v -0.1 0.9 -0.1
v -0.1 0.9 -0.2
v -0.1 0.9 -0.3
v -0.1 0.9 -0.7
v -0.1 0.9 -0.8
v -0.1 1 -0.1
v -0.1 1 -0.2
v -0.1 1 -0.5
v -0.1 1 -0.6
v -0.1 1 -0.8
v -0.1 1 -0.9
v -0.1 1 -1.1
v -0.1 1 -1.2
v -0.1 1 -1.3
v -0.1 1.1 0
v -0.1 1.1 -0.1
v -0.1 1.1 -1
v -0.1 1.1 -1.1
v -0.1 1.1 -1.2
v -0.1 1.1 -1.3
v -0.1 1.2 -0.2
v -0.1 1.2 -0.3
v -0.1 1.2 -0.9
v -0.1 1.2 -1
v -0.1 1.2 -1.1
v -0.1 1.2 -1.2
v -0.1 1.2 -1.3
v -0.1 1.3 0.1
v -0.1 1.3 0
v -0.1 1.3 -0.1
v -0.1 1.3 -0.2
v -0.1 1.3 -0.3
v -0.1 1.3 -0.5
v -0.1 1.3 -0.9
v -0.1 1.3 -1
v -0.1 1.3 -1.1
v -0.1 1.3 -1.2
v -0.1 1.4 -0.9
v -0.1 1.4 -1
v -0.1 1.4 -1.1
v -0.1 1.4 -1.2
v -0.1 1.4 -1.3
v -0.1 1.5 0.1
v -0.1 1.5 -0.1
v -0.1 1.5 -0.3
v -0.1 1.5 -0.5
v -0.1 1.5 -0.9
v -0.1 1.5 -1.2
v 0 0 0.3
v 0 0 0.2
v 0 0 0.1
v 0 0 -0.2
v 0 0.1 0.3
v 0 0.1 0.2
v 0 0.1 0.1
v 0 0.1 -0.2
v 0 0.1 -0.3
v 0 0.1 -0.6
v 0 0.2 0.3
v 0 0.2 0.2
v 0 0.2 -0.6
v 0 0.2 -0.7
v 0 0.3 0.1
v 0 0.3 0
v 0 0.3 -0.7
v 0 0.3 -0.8
v 0 0.4 0
v 0 0.4 -0.1
v 0 0.4 -0.6
v 0 0.4 -0.7
v 0 0.4 -0.8
v 0 0.4 -0.9
v 0 0.5 0.1
v 0 0.5 -0.1
v 0 0.5 -0.9
v 0 0.5 -1
v 0 0.6 0.1
v 0 0.6 -0.1
v 0 0.6 -1
v 0 0.6 -1.1
v 0 0.7 0.1
v 0 0.7 -0.1
v 0 0.7 -0.4
v 0 0.7 -0.5
v 0 0.7 -0.6
v 0 0.7 -0.7
v 0 0.8 0.3
v 0 0.8 0.2
v 0 0.8 0.1
v 0 0.8 -0.1
v 0 0.8 -0.2
v 0 0.8 -0.3
v 0 0.8 -0.4
v 0 0.8 -0.5
v 0 0.8 -0.6
v 0 0.8 -1.1
v 0 0.8 -1.2
v 0 0.9 0.2
v 0 0.9 0.1
v 0 0.9 -0.1
v 0 0.9 -0.2
v 0 0.9 -0.3
v 0 0.9 -0.7
v 0 0.9 -0.8
v 0 1 -0.1
v 0 1 -0.2
v 0 1 -0.5
v 0 1 -0.6
v 0 1 -0.8
v 0 1 -0.9
v 0 1 -1.1
v 0 1 -1.2
v 0 1 -1.3
v 0 1.1 0
v 0 1.1 -0.1
v 0 1.1 -1
v 0 1.1 -1.1
v 0 1.1 -1.2
v 0 1.1 -1.3
v 0 1.2 -0.2
v 0 1.2 -0.3
v 0 1.2 -0.9
v 0 1.2 -1
v 0 1.2 -1.1
v 0 1.2 -1.2
v 0 1.2 -1.3
v 0 1.3 0.1
v 0 1.3 0
v 0 1.3 -0.1
v 0 1.3 -0.2
v 0 1.3 -0.3
v 0 1.3 -0.5
v 0 1.3 -0.9
v 0 1.3 -1
v 0 1.3 -1.1
v 0 1.3 -1.2
v 0 1.4 -0.9
v 0 1.4 -1
v 0 1.4 -1.1
v 0 1.4 -1.2
v 0 1.4 -1.3
v 0 1.5 0.1
v 0 1.5 -0.1
v 0 1.5 -0.3
v 0 1.5 -0.5
v 0 1.5 -0.9
v 0 1.5 -1.2
v -0.1 0 0.3
v -0.1 0.1 0.3
v -0.1 0.2 0.3
v -0.1 0.8 0.3
v 0 0 0.3
v 0 0.1 0.3
v 0 0.2 0.3
v 0 0.8 0.3
v -0.1 0.1 0.2
v -0.1 0.2 0.2
v -0.1 0.8 0.2
v -0.1 0.9 0.2
v 0 0.1 0.2
v 0 0.2 0.2
v 0 0.8 0.2
v 0 0.9 0.2
v -0.1 0 0.1
v -0.1 0.1 0.1
v -0.1 1.3 0.1
v -0.1 1.5 0.1
v 0 0 0.1
v 0 0.1 0.1
v 0 1.3 0.1
v 0 1.5 0.1
v -0.1 1.1 0
v -0.1 1.3 0
v 0 1.1 0
v 0 1.3 0
v -0.1 1 -0.1
v -0.1 1.1 -0.1
v 0 1 -0.1
v 0 1.1 -0.1
v -0.1 0.9 -0.2
v -0.1 1 -0.2
v 0 0.9 -0.2
v 0 1 -0.2
v -0.1 0.8 -0.3
v -0.1 0.9 -0.3
v -0.1 1.2 -0.3
v -0.1 1.3 -0.3
v -0.1 1.5 -0.3
v 0 0.8 -0.3
v 0 0.9 -0.3
v 0 1.2 -0.3
v 0 1.3 -0.3
v 0 1.5 -0.3
v -0.1 1 -0.9
v -0.1 1.2 -0.9
v -0.1 1.3 -0.9
v -0.1 1.4 -0.9
v -0.1 1.5 -0.9
v 0 1 -0.9
v 0 1.2 -0.9
v 0 1.3 -0.9
v 0 1.4 -0.9
v 0 1.5 -0.9
v -0.1 1.3 -1
v -0.1 1.4 -1
v 0 1.3 -1
v 0 1.4 -1
v -0.1 0 0.2
v -0.1 0.1 0.2
v 0 0 0.2
v 0 0.1 0.2
v -0.1 1.3 -0.1
v -0.1 1.5 -0.1
v 0 1.3 -0.1
v 0 1.5 -0.1
v -0.1 0 -0.2
v -0.1 0.1 -0.2
v -0.1 0.8 -0.2
v -0.1 0.9 -0.2
v -0.1 1.2 -0.2
v -0.1 1.3 -0.2
v 0 0 -0.2
v 0 0.1 -0.2
v 0 0.8 -0.2
v 0 0.9 -0.2
v 0 1.2 -0.2
v 0 1.3 -0.2
v -0.1 1 -0.5
v -0.1 1.3 -0.5
v -0.1 1.5 -0.5
v 0 1 -0.5
v 0 1.3 -0.5
v 0 1.5 -0.5
v -0.1 0.1 -0.6
v -0.1 0.2 -0.6
v 0 0.1 -0.6
v 0 0.2 -0.6
v -0.1 0.2 -0.7
v -0.1 0.3 -0.7
v 0 0.2 -0.7
v 0 0.3 -0.7
v -0.1 0.3 -0.8
v -0.1 0.4 -0.8
v 0 0.3 -0.8
v 0 0.4 -0.8
v -0.1 0.4 -0.9
v -0.1 0.5 -0.9
v 0 0.4 -0.9
v 0 0.5 -0.9
v -0.1 0.5 -1
v -0.1 0.6 -1
v 0 0.5 -1
v 0 0.6 -1
v -0.1 0.6 -1.1
v -0.1 0.8 -1.1
v 0 0.6 -1.1
v 0 0.8 -1.1
v -0.1 0.8 -1.2
v -0.1 1 -1.2
v -0.1 1.1 -1.2
v -0.1 1.2 -1.2
v -0.1 1.4 -1.2
v -0.1 1.5 -1.2
v 0 0.8 -1.2
v 0 1 -1.2
v 0 1.1 -1.2
v 0 1.2 -1.2
v 0 1.4 -1.2
v 0 1.5 -1.2
v -0.1 1 -1.3
v -0.1 1.1 -1.3
v -0.1 1.2 -1.3
v -0.1 1.4 -1.3
v 0 1 -1.3
v 0 1.1 -1.3
v 0 1.2 -1.3
v 0 1.4 -1.3
v -0.1 0 0.3
v 0 0 0.3
v -0.1 0 0.2
v 0 0 0.2
v -0.1 0 0.1
v 0 0 0.1
v -0.1 0 -0.2
v 0 0 -0.2
v -0.1 0.1 0.2
v 0 0.1 0.2
v -0.1 0.1 0.1
v 0 0.1 0.1
v -0.1 0.1 -0.2
v 0 0.1 -0.2
v -0.1 0.1 -0.3
v 0 0.1 -0.3
v -0.1 0.1 -0.6
v 0 0.1 -0.6
v -0.1 0.2 0.3
v 0 0.2 0.3
v -0.1 0.2 0.2
v 0 0.2 0.2
v -0.1 0.2 -0.6
v 0 0.2 -0.6
v -0.1 0.2 -0.7
v 0 0.2 -0.7
v -0.1 0.3 -0.7
v 0 0.3 -0.7
v -0.1 0.3 -0.8
v 0 0.3 -0.8
v -0.1 0.4 -0.8
v 0 0.4 -0.8
v -0.1 0.4 -0.9
v 0 0.4 -0.9
v -0.1 0.5 -0.9
v 0 0.5 -0.9
v -0.1 0.5 -1
v 0 0.5 -1
v -0.1 0.6 -1
v 0 0.6 -1
v -0.1 0.6 -1.1
v 0 0.6 -1.1
v -0.1 0.8 -1.1
v 0 0.8 -1.1
v -0.1 0.8 -1.2
v 0 0.8 -1.2
v -0.1 0.9 -0.2
v 0 0.9 -0.2
v -0.1 0.9 -0.3
v 0 0.9 -0.3
v -0.1 1 -0.1
v 0 1 -0.1
v -0.1 1 -0.2
v 0 1 -0.2
v -0.1 1 -1.2
v 0 1 -1.2
v -0.1 1 -1.3
v 0 1 -1.3
v -0.1 1.1 0
v 0 1.1 0
v -0.1 1.1 -0.1
v 0 1.1 -0.1
v -0.1 1.2 -1.2
v 0 1.2 -1.2
v -0.1 1.2 -1.3
v 0 1.2 -1.3
v -0.1 1.3 0.1
v 0 1.3 0.1
v -0.1 1.3 0
v 0 1.3 0
v -0.1 1.4 -0.9
v 0 1.4 -0.9
v -0.1 1.4 -1
v 0 1.4 -1
v -0.1 0.1 0.3
v 0 0.1 0.3
v -0.1 0.1 0.2
v 0 0.1 0.2
v -0.1 0.8 0.3
v 0 0.8 0.3
v -0.1 0.8 0.2
v 0 0.8 0.2
v -0.1 0.8 -0.2
v 0 0.8 -0.2
v -0.1 0.8 -0.3
v 0 0.8 -0.3
v -0.1 0.9 0.2
v 0 0.9 0.2
v -0.1 0.9 0.1
v 0 0.9 0.1
v -0.1 0.9 -0.1
v 0 0.9 -0.1
v -0.1 0.9 -0.2
v 0 0.9 -0.2
v -0.1 1 -0.5
v 0 1 -0.5
v -0.1 1 -0.6
v 0 1 -0.6
v -0.1 1 -0.8
v 0 1 -0.8
v -0.1 1 -0.9
v 0 1 -0.9
v -0.1 1.1 -1.2
v 0 1.1 -1.2
v -0.1 1.1 -1.3
v 0 1.1 -1.3
v -0.1 1.2 -0.2
v 0 1.2 -0.2
v -0.1 1.2 -0.3
v 0 1.2 -0.3
v -0.1 1.3 -0.1
v 0 1.3 -0.1
v -0.1 1.3 -0.2
v 0 1.3 -0.2
v -0.1 1.3 -0.9
v 0 1.3 -0.9
v -0.1 1.3 -1
v 0 1.3 -1
v -0.1 1.4 -1.2
v 0 1.4 -1.2
v -0.1 1.4 -1.3
v 0 1.4 -1.3
v -0.1 1.5 0.1
v 0 1.5 0.1
v -0.1 1.5 -0.1
v 0 1.5 -0.1
v -0.1 1.5 -0.3
v 0 1.5 -0.3
v -0.1 1.5 -0.5
v 0 1.5 -0.5
v -0.1 1.5 -0.9
v 0 1.5 -0.9
v -0.1 1.5 -1.2
v 0 1.5 -1.2

# faces
f 5/1/1 2/1/1 1/1/1
f 6/1/1 2/1/1 5/1/1
f 7/2/1 4/2/1 3/2/1
f 8/2/1 4/2/1 7/2/1
f 12/2/1 7/2/1 6/2/1
f 12/2/1 9/2/1 8/2/1
f 12/2/1 8/2/1 7/2/1
f 13/4/1 10/4/1 9/4/1
f 15/2/1 12/2/1 11/2/1
f 15/2/1 9/2/1 12/2/1
f 16/2/1 9/2/1 15/2/1
f 17/4/1 14/4/1 13/4/1
f 19/2/1 9/2/1 16/2/1
f 19/1/1 16/1/1 15/1/1
f 20/2/1 9/2/1 19/2/1
f 21/4/1 13/4/1 9/4/1
f 21/4/1 17/4/1 13/4/1
f 22/2/1 18/2/1 17/2/1
f 22/4/1 17/4/1 21/4/1
f 23/2/1 18/2/1 22/2/1
f 25/2/1 15/2/1 11/2/1
f 25/1/1 20/1/1 19/1/1
f 25/1/1 19/1/1 15/1/1
f 26/2/1 9/2/1 20/2/1
f 26/1/1 20/1/1 25/1/1
f 27/2/1 24/2/1 23/2/1
f 27/2/1 23/2/1 22/2/1
f 27/2/1 22/2/1 21/2/1
f 29/2/1 25/2/1 11/2/1
f 29/3/1 26/3/1 25/3/1
f 30/2/1 9/2/1 26/2/1
f 30/3/1 26/3/1 29/3/1
f 31/2/1 28/2/1 27/2/1
f 33/2/1 29/2/1 11/2/1
f 33/1/1 30/1/1 29/1/1
f 34/2/1 9/2/1 30/2/1
f 34/1/1 30/1/1 33/1/1
f 35/4/1 21/4/1 9/4/1
f 36/4/1 21/4/1 35/4/1
f 37/2/1 32/2/1 31/2/1
f 37/4/1 21/4/1 36/4/1
f 37/2/1 27/2/1 21/2/1
f 37/2/1 31/2/1 27/2/1
f 38/2/1 32/2/1 37/2/1
f 39/2/1 33/2/1 11/2/1
f 40/2/1 33/2/1 39/2/1
f 41/3/1 34/3/1 33/3/1
f 41/2/1 33/2/1 40/2/1
f 42/2/1 9/2/1 34/2/1
f 42/3/1 34/3/1 41/3/1
f 43/2/1 9/2/1 42/2/1
f 44/4/1 35/4/1 9/4/1
f 44/2/1 9/2/1 43/2/1
f 45/2/1 36/2/1 35/2/1
f 45/4/1 35/4/1 44/4/1
f 46/4/1 37/4/1 36/4/1
f 46/2/1 36/2/1 45/2/1
f 46/4/1 38/4/1 37/4/1
f 47/4/1 38/4/1 46/4/1
f 48/2/1 32/2/1 38/2/1
f 50/2/1 41/2/1 40/2/1
f 51/1/1 42/1/1 41/1/1
f 51/2/1 41/2/1 50/2/1
f 52/2/1 43/2/1 42/2/1
f 52/1/1 42/1/1 51/1/1
f 53/2/1 43/2/1 52/2/1
f 54/2/1 47/2/1 46/2/1
f 54/2/1 45/2/1 44/2/1
f 54/2/1 46/2/1 45/2/1
f 55/2/1 49/2/1 48/2/1
f 55/4/1 38/4/1 47/4/1
f 55/2/1 48/2/1 38/2/1
f 56/2/1 49/2/1 55/2/1
f 58/2/1 54/2/1 53/2/1
f 59/2/1 47/2/1 54/2/1
f 59/2/1 54/2/1 58/2/1
f 60/4/1 56/4/1 55/4/1
f 60/2/1 47/2/1 59/2/1
f 60/4/1 55/4/1 47/4/1
f 61/2/1 49/2/1 56/2/1
f 61/4/1 56/4/1 60/4/1
f 62/2/1 49/2/1 61/2/1
f 63/2/1 49/2/1 62/2/1
f 64/2/1 49/2/1 63/2/1
f 67/2/1 58/2/1 57/2/1
f 67/2/1 59/2/1 58/2/1
f 68/2/1 63/2/1 62/2/1
f 69/1/1 65/1/1 64/1/1
f 69/2/1 63/2/1 68/2/1
f 69/1/1 64/1/1 63/1/1
f 70/1/1 65/1/1 69/1/1
f 71/1/1 65/1/1 70/1/1
f 72/2/1 67/2/1 66/2/1
f 72/2/1 59/2/1 67/2/1
f 73/2/1 59/2/1 72/2/1
f 74/2/1 68/2/1 62/2/1
f 75/1/1 70/1/1 69/1/1
f 75/2/1 68/2/1 74/2/1
f 75/1/1 69/1/1 68/1/1
f 76/1/1 70/1/1 75/1/1
f 77/1/1 70/1/1 76/1/1
f 80/2/1 72/2/1 66/2/1
f 81/2/1 72/2/1 80/2/1
f 82/2/1 72/2/1 81/2/1
f 83/2/1 59/2/1 73/2/1
f 84/2/1 59/2/1 83/2/1
f 85/1/1 75/1/1 74/1/1
f 85/1/1 76/1/1 75/1/1
f 86/1/1 76/1/1 85/1/1
f 87/2/1 77/2/1 76/2/1
f 87/1/1 76/1/1 86/1/1
f 88/1/1 78/1/1 77/1/1
f 88/2/1 77/2/1 87/2/1
f 90/2/1 87/2/1 86/2/1
f 91/1/1 88/1/1 87/1/1
f 91/2/1 87/2/1 90/2/1
f 92/1/1 78/1/1 88/1/1
f 92/1/1 88/1/1 91/1/1
f 93/1/1 78/1/1 92/1/1
f 94/1/1 80/1/1 79/1/1
f 94/1/1 81/1/1 80/1/1
f 95/1/1 81/1/1 94/1/1
f 96/1/1 84/1/1 83/1/1
f 97/1/1 84/1/1 96/1/1
f 98/1/1 91/1/1 90/1/1
f 98/1/1 90/1/1 89/1/1
f 98/1/1 92/1/1 91/1/1
f 99/1/1 92/1/1 98/1/1
f 100/1/2 101/1/2 104/1/2
f 104/1/2 101/1/2 105/1/2
f 102/2/2 103/2/2 106/2/2
f 106/2/2 103/2/2 107/2/2
f 105/2/2 106/2/2 111/2/2
f 107/2/2 108/2/2 111/2/2
f 106/2/2 107/2/2 111/2/2
f 108/4/2 109/4/2 112/4/2
f 110/2/2 111/2/2 114/2/2
f 111/2/2 108/2/2 114/2/2
f 114/2/2 108/2/2 115/2/2
f 112/4/2 113/4/2 116/4/2
f 115/2/2 108/2/2 118/2/2
f 114/1/2 115/1/2 118/1/2
f 118/2/2 108/2/2 119/2/2
f 108/4/2 112/4/2 120/4/2
f 112/4/2 116/4/2 120/4/2
f 116/2/2 117/2/2 121/2/2
f 120/4/2 116/4/2 121/4/2
f 121/2/2 117/2/2 122/2/2
f 110/2/2 114/2/2 124/2/2
f 118/1/2 119/1/2 124/1/2
f 114/1/2 118/1/2 124/1/2
f 119/2/2 108/2/2 125/2/2
f 124/1/2 119/1/2 125/1/2
f 122/2/2 123/2/2 126/2/2
f 121/2/2 122/2/2 126/2/2
f 120/2/2 121/2/2 126/2/2
f 110/2/2 124/2/2 128/2/2
f 124/3/2 125/3/2 128/3/2
f 125/2/2 108/2/2 129/2/2
f 128/3/2 125/3/2 129/3/2
f 126/2/2 127/2/2 130/2/2
f 110/2/2 128/2/2 132/2/2
f 128/1/2 129/1/2 132/1/2
f 129/2/2 108/2/2 133/2/2
f 132/1/2 129/1/2 133/1/2
f 108/4/2 120/4/2 134/4/2
f 134/4/2 120/4/2 135/4/2
f 130/2/2 131/2/2 136/2/2
f 135/4/2 120/4/2 136/4/2
f 120/2/2 126/2/2 136/2/2
f 126/2/2 130/2/2 136/2/2
f 136/2/2 131/2/2 137/2/2
f 110/2/2 132/2/2 138/2/2
f 138/2/2 132/2/2 139/2/2
f 132/3/2 133/3/2 140/3/2
f 139/2/2 132/2/2 140/2/2
f 133/2/2 108/2/2 141/2/2
f 140/3/2 133/3/2 141/3/2
f 141/2/2 108/2/2 142/2/2
f 108/4/2 134/4/2 143/4/2
f 142/2/2 108/2/2 143/2/2
f 134/2/2 135/2/2 144/2/2
f 143/4/2 134/4/2 144/4/2
f 135/4/2 136/4/2 145/4/2
f 144/2/2 135/2/2 145/2/2
f 136/4/2 137/4/2 145/4/2
f 145/4/2 137/4/2 146/4/2
f 137/2/2 131/2/2 147/2/2
f 139/2/2 140/2/2 149/2/2
f 140/1/2 141/1/2 150/1/2
f 149/2/2 140/2/2 150/2/2
f 141/2/2 142/2/2 151/2/2
f 150/1/2 141/1/2 151/1/2
f 151/2/2 142/2/2 152/2/2
f 145/2/2 146/2/2 153/2/2
f 143/2/2 144/2/2 153/2/2
f 144/2/2 145/2/2 153/2/2
f 147/2/2 148/2/2 154/2/2
f 146/4/2 137/4/2 154/4/2
f 137/2/2 147/2/2 154/2/2
f 154/2/2 148/2/2 155/2/2
f 152/2/2 153/2/2 157/2/2
f 153/2/2 146/2/2 158/2/2
f 157/2/2 153/2/2 158/2/2
f 154/4/2 155/4/2 159/4/2
f 158/2/2 146/2/2 159/2/2
f 146/4/2 154/4/2 159/4/2
f 155/2/2 148/2/2 160/2/2
f 159/4/2 155/4/2 160/4/2
f 160/2/2 148/2/2 161/2/2
f 161/2/2 148/2/2 162/2/2
f 162/2/2 148/2/2 163/2/2
f 156/2/2 157/2/2 166/2/2
f 157/2/2 158/2/2 166/2/2
f 161/2/2 162/2/2 167/2/2
f 163/1/2 164/1/2 168/1/2
f 167/2/2 162/2/2 168/2/2
f 162/1/2 163/1/2 168/1/2
f 168/1/2 164/1/2 169/1/2
f 169/1/2 164/1/2 170/1/2
f 165/2/2 166/2/2 171/2/2
f 166/2/2 158/2/2 171/2/2
f 171/2/2 158/2/2 172/2/2
f 161/2/2 167/2/2 173/2/2
f 168/1/2 169/1/2 174/1/2
f 173/2/2 167/2/2 174/2/2
f 167/1/2 168/1/2 174/1/2
f 174/1/2 169/1/2 175/1/2
f 175/1/2 169/1/2 176/1/2
f 165/2/2 171/2/2 179/2/2
f 179/2/2 171/2/2 180/2/2
f 180/2/2 171/2/2 181/2/2
f 172/2/2 158/2/2 182/2/2
f 182/2/2 158/2/2 183/2/2
f 173/1/2 174/1/2 184/1/2
f 174/1/2 175/1/2 184/1/2
f 184/1/2 175/1/2 185/1/2
f 175/2/2 176/2/2 186/2/2
f 185/1/2 175/1/2 186/1/2
f 176/1/2 177/1/2 187/1/2
f 186/2/2 176/2/2 187/2/2
f 185/2/2 186/2/2 189/2/2
f 186/1/2 187/1/2 190/1/2
f 189/2/2 186/2/2 190/2/2
f 187/1/2 177/1/2 191/1/2
f 190/1/2 187/1/2 191/1/2
f 191/1/2 177/1/2 192/1/2
f 178/1/2 179/1/2 193/1/2
f 179/1/2 180/1/2 193/1/2
f 193/1/2 180/1/2 194/1/2
f 182/1/2 183/1/2 195/1/2
f 195/1/2 183/1/2 196/1/2
f 189/1/2 190/1/2 197/1/2
f 188/1/2 189/1/2 197/1/2
f 190/1/2 191/1/2 197/1/2
f 197/1/2 191/1/2 198/1/2
f 203/1/3 200/1/3 199/1/3
f 204/1/3 200/1/3 203/1/3
f 205/2/3 202/2/3 201/2/3
f 206/2/3 202/2/3 205/2/3
f 211/2/3 208/2/3 207/2/3
f 212/2/3 208/2/3 211/2/3
f 213/2/3 210/2/3 209/2/3
f 214/2/3 210/2/3 213/2/3
f 219/2/3 216/2/3 215/2/3
f 220/2/3 216/2/3 219/2/3
f 221/1/3 218/1/3 217/1/3
f 222/1/3 218/1/3 221/1/3
f 225/2/3 224/2/3 223/2/3
f 226/2/3 224/2/3 225/2/3
f 229/2/3 228/2/3 227/2/3
f 230/2/3 228/2/3 229/2/3
f 233/2/3 232/2/3 231/2/3
f 234/2/3 232/2/3 233/2/3
f 240/2/3 236/2/3 235/2/3
f 241/2/3 236/2/3 240/2/3
f 242/2/3 238/2/3 237/2/3
f 243/1/3 239/1/3 238/1/3
f 243/2/3 238/2/3 242/2/3
f 244/1/3 239/1/3 243/1/3
f 250/2/3 246/2/3 245/2/3
f 251/1/3 247/1/3 246/1/3
f 251/2/3 246/2/3 250/2/3
f 252/1/3 247/1/3 251/1/3
f 253/1/3 249/1/3 248/1/3
f 254/1/3 249/1/3 253/1/3
f 257/2/3 256/2/3 255/2/3
f 258/2/3 256/2/3 257/2/3
f 259/1/4 260/1/4 261/1/4
f 261/1/4 260/1/4 262/1/4
f 263/1/4 264/1/4 265/1/4
f 265/1/4 264/1/4 266/1/4
f 267/2/4 268/2/4 273/2/4
f 273/2/4 268/2/4 274/2/4
f 269/2/4 270/2/4 275/2/4
f 275/2/4 270/2/4 276/2/4
f 271/2/4 272/2/4 277/2/4
f 277/2/4 272/2/4 278/2/4
f 279/2/4 280/2/4 282/2/4
f 280/1/4 281/1/4 283/1/4
f 282/2/4 280/2/4 283/2/4
f 283/1/4 281/1/4 284/1/4
f 285/4/4 286/4/4 287/4/4
f 287/4/4 286/4/4 288/4/4
f 289/4/4 290/4/4 291/4/4
f 291/4/4 290/4/4 292/4/4
f 293/2/4 294/2/4 295/2/4
f 295/2/4 294/2/4 296/2/4
f 297/2/4 298/2/4 299/2/4
f 299/2/4 298/2/4 300/2/4
f 301/2/4 302/2/4 303/2/4
f 303/2/4 302/2/4 304/2/4
f 305/2/4 306/2/4 307/2/4
f 307/2/4 306/2/4 308/2/4
f 309/2/4 310/2/4 315/2/4
f 315/2/4 310/2/4 316/2/4
f 311/1/4 312/1/4 317/1/4
f 317/1/4 312/1/4 318/1/4
f 313/1/4 314/1/4 319/1/4
f 319/1/4 314/1/4 320/1/4
f 321/1/4 322/1/4 325/1/4
f 325/1/4 322/1/4 326/1/4
f 323/1/4 324/1/4 327/1/4
f 327/1/4 324/1/4 328/1/4
f 331/1/5 330/1/5 329/1/5
f 332/1/5 330/1/5 331/1/5
f 335/2/5 334/2/5 333/2/5
f 336/2/5 334/2/5 335/2/5
f 339/2/5 338/2/5 337/2/5
f 340/2/5 338/2/5 339/2/5
f 343/2/5 342/2/5 341/2/5
f 344/2/5 342/2/5 343/2/5
f 345/4/5 344/4/5 343/4/5
f 346/4/5 344/4/5 345/4/5
f 349/2/5 348/2/5 347/2/5
f 350/2/5 348/2/5 349/2/5
f 353/4/5 352/4/5 351/4/5
f 354/4/5 352/4/5 353/4/5
f 357/2/5 356/2/5 355/2/5
f 358/2/5 356/2/5 357/2/5
f 361/2/5 360/2/5 359/2/5
f 362/2/5 360/2/5 361/2/5
f 365/2/5 364/2/5 363/2/5
f 366/2/5 364/2/5 365/2/5
f 369/2/5 368/2/5 367/2/5
f 370/2/5 368/2/5 369/2/5
f 373/2/5 372/2/5 371/2/5
f 374/2/5 372/2/5 373/2/5
f 377/2/5 376/2/5 375/2/5
f 378/2/5 376/2/5 377/2/5
f 381/2/5 380/2/5 379/2/5
f 382/2/5 380/2/5 381/2/5
f 385/1/5 384/1/5 383/1/5
f 386/1/5 384/1/5 385/1/5
f 389/2/5 388/2/5 387/2/5
f 390/2/5 388/2/5 389/2/5
f 393/1/5 392/1/5 391/1/5
f 394/1/5 392/1/5 393/1/5
f 397/1/5 396/1/5 395/1/5
f 398/1/5 396/1/5 397/1/5
f 401/1/5 400/1/5 399/1/5
f 402/1/5 400/1/5 401/1/5
f 403/1/6 404/1/6 405/1/6
f 405/1/6 404/1/6 406/1/6
f 407/2/6 408/2/6 409/2/6
f 409/2/6 408/2/6 410/2/6
f 411/2/6 412/2/6 413/2/6
f 413/2/6 412/2/6 414/2/6
f 415/2/6 416/2/6 417/2/6
f 417/2/6 416/2/6 418/2/6
f 417/1/6 418/1/6 419/1/6
f 419/1/6 418/1/6 420/1/6
f 419/2/6 420/2/6 421/2/6
f 421/2/6 420/2/6 422/2/6
f 423/2/6 424/2/6 425/2/6
f 425/2/6 424/2/6 426/2/6
f 425/4/6 426/4/6 427/4/6
f 427/4/6 426/4/6 428/4/6
f 427/2/6 428/2/6 429/2/6
f 429/2/6 428/2/6 430/2/6
f 431/1/6 432/1/6 433/1/6
f 433/1/6 432/1/6 434/1/6
f 435/2/6 436/2/6 437/2/6
f 437/2/6 436/2/6 438/2/6
f 439/2/6 440/2/6 441/2/6
f 441/2/6 440/2/6 442/2/6
f 443/1/6 444/1/6 445/1/6
f 445/1/6 444/1/6 446/1/6
f 447/1/6 448/1/6 449/1/6
f 449/1/6 448/1/6 450/1/6
f 451/1/6 452/1/6 453/1/6
f 453/1/6 452/1/6 454/1/6
f 455/1/6 456/1/6 457/1/6
f 457/1/6 456/1/6 458/1/6
f 459/1/6 460/1/6 461/1/6
f 461/1/6 460/1/6 462/1/6
