# MagicaVoxel @ Ephtracy

# group
o 

# material
mtllib Crawl2.mtl
usemtl palette

# normals
vn -1 0 0
vn 1 0 0
vn 0 0 1
vn 0 0 -1
vn 0 -1 0
vn 0 1 0

# texcoords
vt 0.908203 0.5
vt 0.912109 0.5
vt 0.916016 0.5
vt 0.919922 0.5

# verts
v -0.1 0 0.3
v -0.1 0 0.2
v -0.1 0 0.1
v -0.1 0 -0.2
v -0.1 0.1 0.3
v -0.1 0.1 0.2
v -0.1 0.1 0.1
v -0.1 0.1 -0.2
v -0.1 0.1 -0.3
v -0.1 0.2 0.3
v -0.1 0.2 0.2
v -0.1 0.2 -0.3
v -0.1 0.2 -0.8
v -0.1 0.3 -0.7
v -0.1 0.3 -0.8
v -0.1 0.3 -0.9
v -0.1 0.4 0.1
v -0.1 0.4 0
v -0.1 0.4 -0.6
v -0.1 0.4 -0.7
v -0.1 0.4 -0.9
v -0.1 0.4 -1
v -0.1 0.5 0
v -0.1 0.5 -0.1
v -0.1 0.5 -1
v -0.1 0.5 -1.1
v -0.1 0.6 0.1
v -0.1 0.6 -0.1
v -0.1 0.6 -0.6
v -0.1 0.6 -0.7
v -0.1 0.7 0.1
v -0.1 0.7 -0.1
v -0.1 0.7 -0.4
v -0.1 0.7 -0.6
v -0.1 0.8 0.1
v -0.1 0.8 -0.1
v -0.1 0.8 -0.7
v -0.1 0.8 -0.8
v -0.1 0.8 -1.1
v -0.1 0.8 -1.2
v -0.1 0.9 0.3
v -0.1 0.9 0.2
v -0.1 0.9 0.1
v -0.1 0.9 -0.1
v -0.1 0.9 -0.2
v -0.1 0.9 -0.3
v -0.1 0.9 -0.4
v -0.1 0.9 -0.5
v -0.1 0.9 -0.6
v -0.1 0.9 -0.8
v -0.1 0.9 -0.9
v -0.1 1 0.2
v -0.1 1 0.1
v -0.1 1 -0.1
v -0.1 1 -0.2
v -0.1 1 -0.5
v -0.1 1 -0.6
v -0.1 1 -0.8
v -0.1 1 -0.9
v -0.1 1 -1.1
v -0.1 1 -1.2
v -0.1 1 -1.3
v -0.1 1.1 -0.2
v -0.1 1.1 -0.3
v -0.1 1.1 -1
v -0.1 1.1 -1.1
v -0.1 1.1 -1.2
v -0.1 1.1 -1.3
v -0.1 1.2 -0.4
v -0.1 1.2 -0.5
v -0.1 1.2 -0.9
v -0.1 1.2 -1
v -0.1 1.2 -1.1
v -0.1 1.2 -1.2
v -0.1 1.2 -1.3
v -0.1 1.3 -0.2
v -0.1 1.3 -0.4
v -0.1 1.3 -0.6
v -0.1 1.3 -0.8
v -0.1 1.3 -0.9
v -0.1 1.3 -1
v -0.1 1.3 -1.1
v -0.1 1.3 -1.2
v -0.1 1.4 -0.9
v -0.1 1.4 -1
v -0.1 1.4 -1.1
v -0.1 1.4 -1.2
v -0.1 1.4 -1.3
v -0.1 1.5 -0.2
v -0.1 1.5 -0.4
v -0.1 1.5 -0.6
v -0.1 1.5 -0.8
v -0.1 1.5 -0.9
v -0.1 1.5 -1.2
v 0 0 0.3
v 0 0 0.2
v 0 0 0.1
v 0 0 -0.2
v 0 0.1 0.3
v 0 0.1 0.2
v 0 0.1 0.1
v 0 0.1 -0.2
v 0 0.1 -0.3
v 0 0.2 0.3
v 0 0.2 0.2
v 0 0.2 -0.3
v 0 0.2 -0.8
v 0 0.3 -0.7
v 0 0.3 -0.8
v 0 0.3 -0.9
v 0 0.4 0.1
v 0 0.4 0
v 0 0.4 -0.6
v 0 0.4 -0.7
v 0 0.4 -0.9
v 0 0.4 -1
v 0 0.5 0
v 0 0.5 -0.1
v 0 0.5 -1
v 0 0.5 -1.1
v 0 0.6 0.1
v 0 0.6 -0.1
v 0 0.6 -0.6
v 0 0.6 -0.7
v 0 0.7 0.1
v 0 0.7 -0.1
v 0 0.7 -0.4
v 0 0.7 -0.6
v 0 0.8 0.1
v 0 0.8 -0.1
v 0 0.8 -0.7
v 0 0.8 -0.8
v 0 0.8 -1.1
v 0 0.8 -1.2
v 0 0.9 0.3
v 0 0.9 0.2
v 0 0.9 0.1
v 0 0.9 -0.1
v 0 0.9 -0.2
v 0 0.9 -0.3
v 0 0.9 -0.4
v 0 0.9 -0.5
v 0 0.9 -0.6
v 0 0.9 -0.8
v 0 0.9 -0.9
v 0 1 0.2
v 0 1 0.1
v 0 1 -0.1
v 0 1 -0.2
v 0 1 -0.5
v 0 1 -0.6
v 0 1 -0.8
v 0 1 -0.9
v 0 1 -1.1
v 0 1 -1.2
v 0 1 -1.3
v 0 1.1 -0.2
v 0 1.1 -0.3
v 0 1.1 -1
v 0 1.1 -1.1
v 0 1.1 -1.2
v 0 1.1 -1.3
v 0 1.2 -0.4
v 0 1.2 -0.5
v 0 1.2 -0.9
v 0 1.2 -1
v 0 1.2 -1.1
v 0 1.2 -1.2
v 0 1.2 -1.3
v 0 1.3 -0.2
v 0 1.3 -0.4
v 0 1.3 -0.6
v 0 1.3 -0.8
v 0 1.3 -0.9
v 0 1.3 -1
v 0 1.3 -1.1
v 0 1.3 -1.2
v 0 1.4 -0.9
v 0 1.4 -1
v 0 1.4 -1.1
v 0 1.4 -1.2
v 0 1.4 -1.3
v 0 1.5 -0.2
v 0 1.5 -0.4
v 0 1.5 -0.6
v 0 1.5 -0.8
v 0 1.5 -0.9
v 0 1.5 -1.2
v -0.1 0 0.3
v -0.1 0.1 0.3
v -0.1 0.2 0.3
v -0.1 0.9 0.3
v 0 0 0.3
v 0 0.1 0.3
v 0 0.2 0.3
v 0 0.9 0.3
v -0.1 0.1 0.2
v -0.1 0.2 0.2
v -0.1 0.9 0.2
v -0.1 1 0.2
v 0 0.1 0.2
v 0 0.2 0.2
v 0 0.9 0.2
v 0 1 0.2
v -0.1 0 0.1
v -0.1 0.1 0.1
v 0 0 0.1
v 0 0.1 0.1
v -0.1 1.1 -0.2
v -0.1 1.3 -0.2
v -0.1 1.5 -0.2
v 0 1.1 -0.2
v 0 1.3 -0.2
v 0 1.5 -0.2
v -0.1 0.9 -0.3
v -0.1 1.1 -0.3
v 0 0.9 -0.3
v 0 1.1 -0.3
v -0.1 1 -0.6
v -0.1 1.3 -0.6
v -0.1 1.5 -0.6
v 0 1 -0.6
v 0 1.3 -0.6
v 0 1.5 -0.6
v -0.1 1 -0.9
v -0.1 1.2 -0.9
v -0.1 1.3 -0.9
v -0.1 1.4 -0.9
v -0.1 1.5 -0.9
v 0 1 -0.9
v 0 1.2 -0.9
v 0 1.3 -0.9
v 0 1.4 -0.9
v 0 1.5 -0.9
v -0.1 1.3 -1
v -0.1 1.4 -1
v 0 1.3 -1
v 0 1.4 -1
v -0.1 0 0.2
v -0.1 0.1 0.2
v 0 0 0.2
v 0 0.1 0.2
v -0.1 0 -0.2
v -0.1 0.1 -0.2
v -0.1 0.9 -0.2
v -0.1 1 -0.2
v 0 0 -0.2
v 0 0.1 -0.2
v 0 0.9 -0.2
v 0 1 -0.2
v -0.1 0.1 -0.3
v -0.1 0.2 -0.3
v 0 0.1 -0.3
v 0 0.2 -0.3
v -0.1 1.2 -0.4
v -0.1 1.3 -0.4
v -0.1 1.5 -0.4
v 0 1.2 -0.4
v 0 1.3 -0.4
v 0 1.5 -0.4
v -0.1 1 -0.5
v -0.1 1.2 -0.5
v 0 1 -0.5
v 0 1.2 -0.5
v -0.1 0.2 -0.8
v -0.1 0.3 -0.8
v -0.1 1 -0.8
v -0.1 1.3 -0.8
v -0.1 1.5 -0.8
v 0 0.2 -0.8
v 0 0.3 -0.8
v 0 1 -0.8
v 0 1.3 -0.8
v 0 1.5 -0.8
v -0.1 0.3 -0.9
v -0.1 0.4 -0.9
v 0 0.3 -0.9
v 0 0.4 -0.9
v -0.1 0.4 -1
v -0.1 0.5 -1
v 0 0.4 -1
v 0 0.5 -1
v -0.1 0.5 -1.1
v -0.1 0.8 -1.1
v 0 0.5 -1.1
v 0 0.8 -1.1
v -0.1 0.8 -1.2
v -0.1 1 -1.2
v -0.1 1.1 -1.2
v -0.1 1.2 -1.2
v -0.1 1.4 -1.2
v -0.1 1.5 -1.2
v 0 0.8 -1.2
v 0 1 -1.2
v 0 1.1 -1.2
v 0 1.2 -1.2
v 0 1.4 -1.2
v 0 1.5 -1.2
v -0.1 1 -1.3
v -0.1 1.1 -1.3
v -0.1 1.2 -1.3
v -0.1 1.4 -1.3
v 0 1 -1.3
v 0 1.1 -1.3
v 0 1.2 -1.3
v 0 1.4 -1.3
v -0.1 0 0.3
v 0 0 0.3
v -0.1 0 0.2
v 0 0 0.2
v -0.1 0 0.1
v 0 0 0.1
v -0.1 0 -0.2
v 0 0 -0.2
v -0.1 0.1 0.2
v 0 0.1 0.2
v -0.1 0.1 0.1
v 0 0.1 0.1
v -0.1 0.1 -0.2
v 0 0.1 -0.2
v -0.1 0.1 -0.3
v 0 0.1 -0.3
v -0.1 0.2 0.3
v 0 0.2 0.3
v -0.1 0.2 0.2
v 0 0.2 0.2
v -0.1 0.2 -0.3
v 0 0.2 -0.3
v -0.1 0.2 -0.8
v 0 0.2 -0.8
v -0.1 0.3 -0.8
v 0 0.3 -0.8
v -0.1 0.3 -0.9
v 0 0.3 -0.9
v -0.1 0.4 -0.9
v 0 0.4 -0.9
v -0.1 0.4 -1
v 0 0.4 -1
v -0.1 0.5 -1
v 0 0.5 -1
v -0.1 0.5 -1.1
v 0 0.5 -1.1
v -0.1 0.8 -1.1
v 0 0.8 -1.1
v -0.1 0.8 -1.2
v 0 0.8 -1.2
v -0.1 1 -1.2
v 0 1 -1.2
v -0.1 1 -1.3
v 0 1 -1.3
v -0.1 1.1 -0.2
v 0 1.1 -0.2
v -0.1 1.1 -0.3
v 0 1.1 -0.3
v -0.1 1.2 -1.2
v 0 1.2 -1.2
v -0.1 1.2 -1.3
v 0 1.2 -1.3
v -0.1 1.4 -0.9
v 0 1.4 -0.9
v -0.1 1.4 -1
v 0 1.4 -1
v -0.1 0.1 0.3
v 0 0.1 0.3
v -0.1 0.1 0.2
v 0 0.1 0.2
v -0.1 0.9 0.3
v 0 0.9 0.3
v -0.1 0.9 0.2
v 0 0.9 0.2
v -0.1 0.9 -0.2
v 0 0.9 -0.2
v -0.1 0.9 -0.3
v 0 0.9 -0.3
v -0.1 1 0.2
v 0 1 0.2
v -0.1 1 0.1
v 0 1 0.1
v -0.1 1 -0.1
v 0 1 -0.1
v -0.1 1 -0.2
v 0 1 -0.2
v -0.1 1 -0.5
v 0 1 -0.5
v -0.1 1 -0.6
v 0 1 -0.6
v -0.1 1 -0.8
v 0 1 -0.8
v -0.1 1 -0.9
v 0 1 -0.9
v -0.1 1.1 -1.2
v 0 1.1 -1.2
v -0.1 1.1 -1.3
v 0 1.1 -1.3
v -0.1 1.2 -0.4
v 0 1.2 -0.4
v -0.1 1.2 -0.5
v 0 1.2 -0.5
v -0.1 1.3 -0.9
v 0 1.3 -0.9
v -0.1 1.3 -1
v 0 1.3 -1
v -0.1 1.4 -1.2
v 0 1.4 -1.2
v -0.1 1.4 -1.3
v 0 1.4 -1.3
v -0.1 1.5 -0.2
v 0 1.5 -0.2
v -0.1 1.5 -0.4
v 0 1.5 -0.4
v -0.1 1.5 -0.6
v 0 1.5 -0.6
v -0.1 1.5 -0.8
v 0 1.5 -0.8
v -0.1 1.5 -0.9
v 0 1.5 -0.9
v -0.1 1.5 -1.2
v 0 1.5 -1.2

# faces
f 5/1/1 2/1/1 1/1/1
f 6/1/1 2/1/1 5/1/1
f 7/2/1 4/2/1 3/2/1
f 8/2/1 4/2/1 7/2/1
f 11/2/1 9/2/1 8/2/1
f 11/2/1 8/2/1 7/2/1
f 11/2/1 7/2/1 6/2/1
f 12/2/1 9/2/1 11/2/1
f 14/4/1 13/4/1 12/4/1
f 15/4/1 13/4/1 14/4/1
f 17/2/1 11/2/1 10/2/1
f 17/2/1 12/2/1 11/2/1
f 18/2/1 12/2/1 17/2/1
f 19/4/1 14/4/1 12/4/1
f 20/2/1 16/2/1 15/2/1
f 20/4/1 14/4/1 19/4/1
f 20/2/1 15/2/1 14/2/1
f 21/2/1 16/2/1 20/2/1
f 23/1/1 18/1/1 17/1/1
f 23/2/1 12/2/1 18/2/1
f 24/2/1 12/2/1 23/2/1
f 25/2/1 22/2/1 21/2/1
f 25/2/1 21/2/1 20/2/1
f 25/2/1 20/2/1 19/2/1
f 27/1/1 24/1/1 23/1/1
f 27/2/1 17/2/1 10/2/1
f 27/1/1 23/1/1 17/1/1
f 28/2/1 12/2/1 24/2/1
f 28/1/1 24/1/1 27/1/1
f 29/4/1 19/4/1 12/4/1
f 29/2/1 26/2/1 25/2/1
f 29/2/1 25/2/1 19/2/1
f 30/2/1 26/2/1 29/2/1
f 31/2/1 27/2/1 10/2/1
f 31/3/1 28/3/1 27/3/1
f 32/2/1 12/2/1 28/2/1
f 32/3/1 28/3/1 31/3/1
f 33/4/1 30/4/1 29/4/1
f 33/4/1 29/4/1 12/4/1
f 34/4/1 30/4/1 33/4/1
f 35/2/1 31/2/1 10/2/1
f 35/1/1 32/1/1 31/1/1
f 36/2/1 12/2/1 32/2/1
f 36/1/1 32/1/1 35/1/1
f 37/4/1 30/4/1 34/4/1
f 37/2/1 26/2/1 30/2/1
f 38/2/1 26/2/1 37/2/1
f 39/2/1 26/2/1 38/2/1
f 41/2/1 35/2/1 10/2/1
f 42/2/1 35/2/1 41/2/1
f 43/3/1 36/3/1 35/3/1
f 43/2/1 35/2/1 42/2/1
f 44/2/1 12/2/1 36/2/1
f 44/3/1 36/3/1 43/3/1
f 45/2/1 12/2/1 44/2/1
f 46/4/1 33/4/1 12/4/1
f 46/2/1 12/2/1 45/2/1
f 47/2/1 34/2/1 33/2/1
f 47/4/1 33/4/1 46/4/1
f 48/2/1 34/2/1 47/2/1
f 49/4/1 37/4/1 34/4/1
f 49/2/1 34/2/1 48/2/1
f 49/4/1 38/4/1 37/4/1
f 50/2/1 40/2/1 39/2/1
f 50/4/1 38/4/1 49/4/1
f 50/2/1 39/2/1 38/2/1
f 51/2/1 40/2/1 50/2/1
f 52/2/1 43/2/1 42/2/1
f 53/1/1 44/1/1 43/1/1
f 53/2/1 43/2/1 52/2/1
f 54/2/1 45/2/1 44/2/1
f 54/1/1 44/1/1 53/1/1
f 55/2/1 45/2/1 54/2/1
f 56/4/1 51/4/1 50/4/1
f 56/4/1 49/4/1 48/4/1
f 56/4/1 50/4/1 49/4/1
f 56/2/1 48/2/1 47/2/1
f 56/2/1 47/2/1 46/2/1
f 57/4/1 51/4/1 56/4/1
f 58/4/1 51/4/1 57/4/1
f 59/2/1 40/2/1 51/2/1
f 59/4/1 51/4/1 58/4/1
f 60/2/1 40/2/1 59/2/1
f 61/2/1 40/2/1 60/2/1
f 64/2/1 56/2/1 46/2/1
f 65/2/1 60/2/1 59/2/1
f 66/1/1 62/1/1 61/1/1
f 66/2/1 60/2/1 65/2/1
f 66/1/1 61/1/1 60/1/1
f 67/1/1 62/1/1 66/1/1
f 68/1/1 62/1/1 67/1/1
f 69/2/1 56/2/1 64/2/1
f 69/2/1 64/2/1 63/2/1
f 70/2/1 56/2/1 69/2/1
f 71/2/1 65/2/1 59/2/1
f 72/1/1 67/1/1 66/1/1
f 72/2/1 65/2/1 71/2/1
f 72/1/1 66/1/1 65/1/1
f 73/1/1 67/1/1 72/1/1
f 74/1/1 67/1/1 73/1/1
f 76/2/1 69/2/1 63/2/1
f 77/2/1 69/2/1 76/2/1
f 78/2/1 58/2/1 57/2/1
f 79/2/1 58/2/1 78/2/1
f 80/1/1 72/1/1 71/1/1
f 80/1/1 73/1/1 72/1/1
f 81/1/1 73/1/1 80/1/1
f 82/2/1 74/2/1 73/2/1
f 82/1/1 73/1/1 81/1/1
f 83/1/1 75/1/1 74/1/1
f 83/2/1 74/2/1 82/2/1
f 85/2/1 82/2/1 81/2/1
f 86/1/1 83/1/1 82/1/1
f 86/2/1 82/2/1 85/2/1
f 87/1/1 75/1/1 83/1/1
f 87/1/1 83/1/1 86/1/1
f 88/1/1 75/1/1 87/1/1
f 89/1/1 77/1/1 76/1/1
f 90/1/1 77/1/1 89/1/1
f 91/1/1 79/1/1 78/1/1
f 92/1/1 79/1/1 91/1/1
f 93/1/1 85/1/1 84/1/1
f 93/1/1 86/1/1 85/1/1
f 93/1/1 87/1/1 86/1/1
f 94/1/1 87/1/1 93/1/1
f 95/1/2 96/1/2 99/1/2
f 99/1/2 96/1/2 100/1/2
f 97/2/2 98/2/2 101/2/2
f 101/2/2 98/2/2 102/2/2
f 102/2/2 103/2/2 105/2/2
f 101/2/2 102/2/2 105/2/2
f 100/2/2 101/2/2 105/2/2
f 105/2/2 103/2/2 106/2/2
f 106/4/2 107/4/2 108/4/2
f 108/4/2 107/4/2 109/4/2
f 104/2/2 105/2/2 111/2/2
f 105/2/2 106/2/2 111/2/2
f 111/2/2 106/2/2 112/2/2
f 106/4/2 108/4/2 113/4/2
f 109/2/2 110/2/2 114/2/2
f 113/4/2 108/4/2 114/4/2
f 108/2/2 109/2/2 114/2/2
f 114/2/2 110/2/2 115/2/2
f 111/1/2 112/1/2 117/1/2
f 112/2/2 106/2/2 117/2/2
f 117/2/2 106/2/2 118/2/2
f 115/2/2 116/2/2 119/2/2
f 114/2/2 115/2/2 119/2/2
f 113/2/2 114/2/2 119/2/2
f 117/1/2 118/1/2 121/1/2
f 104/2/2 111/2/2 121/2/2
f 111/1/2 117/1/2 121/1/2
f 118/2/2 106/2/2 122/2/2
f 121/1/2 118/1/2 122/1/2
f 106/4/2 113/4/2 123/4/2
f 119/2/2 120/2/2 123/2/2
f 113/2/2 119/2/2 123/2/2
f 123/2/2 120/2/2 124/2/2
f 104/2/2 121/2/2 125/2/2
f 121/3/2 122/3/2 125/3/2
f 122/2/2 106/2/2 126/2/2
f 125/3/2 122/3/2 126/3/2
f 123/4/2 124/4/2 127/4/2
f 106/4/2 123/4/2 127/4/2
f 127/4/2 124/4/2 128/4/2
f 104/2/2 125/2/2 129/2/2
f 125/1/2 126/1/2 129/1/2
f 126/2/2 106/2/2 130/2/2
f 129/1/2 126/1/2 130/1/2
f 128/4/2 124/4/2 131/4/2
f 124/2/2 120/2/2 131/2/2
f 131/2/2 120/2/2 132/2/2
f 132/2/2 120/2/2 133/2/2
f 104/2/2 129/2/2 135/2/2
f 135/2/2 129/2/2 136/2/2
f 129/3/2 130/3/2 137/3/2
f 136/2/2 129/2/2 137/2/2
f 130/2/2 106/2/2 138/2/2
f 137/3/2 130/3/2 138/3/2
f 138/2/2 106/2/2 139/2/2
f 106/4/2 127/4/2 140/4/2
f 139/2/2 106/2/2 140/2/2
f 127/2/2 128/2/2 141/2/2
f 140/4/2 127/4/2 141/4/2
f 141/2/2 128/2/2 142/2/2
f 128/4/2 131/4/2 143/4/2
f 142/2/2 128/2/2 143/2/2
f 131/4/2 132/4/2 143/4/2
f 133/2/2 134/2/2 144/2/2
f 143/4/2 132/4/2 144/4/2
f 132/2/2 133/2/2 144/2/2
f 144/2/2 134/2/2 145/2/2
f 136/2/2 137/2/2 146/2/2
f 137/1/2 138/1/2 147/1/2
f 146/2/2 137/2/2 147/2/2
f 138/2/2 139/2/2 148/2/2
f 147/1/2 138/1/2 148/1/2
f 148/2/2 139/2/2 149/2/2
f 144/4/2 145/4/2 150/4/2
f 142/4/2 143/4/2 150/4/2
f 143/4/2 144/4/2 150/4/2
f 141/2/2 142/2/2 150/2/2
f 140/2/2 141/2/2 150/2/2
f 150/4/2 145/4/2 151/4/2
f 151/4/2 145/4/2 152/4/2
f 145/2/2 134/2/2 153/2/2
f 152/4/2 145/4/2 153/4/2
f 153/2/2 134/2/2 154/2/2
f 154/2/2 134/2/2 155/2/2
f 140/2/2 150/2/2 158/2/2
f 153/2/2 154/2/2 159/2/2
f 155/1/2 156/1/2 160/1/2
f 159/2/2 154/2/2 160/2/2
f 154/1/2 155/1/2 160/1/2
f 160/1/2 156/1/2 161/1/2
f 161/1/2 156/1/2 162/1/2
f 158/2/2 150/2/2 163/2/2
f 157/2/2 158/2/2 163/2/2
f 163/2/2 150/2/2 164/2/2
f 153/2/2 159/2/2 165/2/2
f 160/1/2 161/1/2 166/1/2
f 165/2/2 159/2/2 166/2/2
f 159/1/2 160/1/2 166/1/2
f 166/1/2 161/1/2 167/1/2
f 167/1/2 161/1/2 168/1/2
f 157/2/2 163/2/2 170/2/2
f 170/2/2 163/2/2 171/2/2
f 151/2/2 152/2/2 172/2/2
f 172/2/2 152/2/2 173/2/2
f 165/1/2 166/1/2 174/1/2
f 166/1/2 167/1/2 174/1/2
f 174/1/2 167/1/2 175/1/2
f 167/2/2 168/2/2 176/2/2
f 175/1/2 167/1/2 176/1/2
f 168/1/2 169/1/2 177/1/2
f 176/2/2 168/2/2 177/2/2
f 175/2/2 176/2/2 179/2/2
f 176/1/2 177/1/2 180/1/2
f 179/2/2 176/2/2 180/2/2
f 177/1/2 169/1/2 181/1/2
f 180/1/2 177/1/2 181/1/2
f 181/1/2 169/1/2 182/1/2
f 170/1/2 171/1/2 183/1/2
f 183/1/2 171/1/2 184/1/2
f 172/1/2 173/1/2 185/1/2
f 185/1/2 173/1/2 186/1/2
f 178/1/2 179/1/2 187/1/2
f 179/1/2 180/1/2 187/1/2
f 180/1/2 181/1/2 187/1/2
f 187/1/2 181/1/2 188/1/2
f 193/1/3 190/1/3 189/1/3
f 194/1/3 190/1/3 193/1/3
f 195/2/3 192/2/3 191/2/3
f 196/2/3 192/2/3 195/2/3
f 201/2/3 198/2/3 197/2/3
f 202/2/3 198/2/3 201/2/3
f 203/2/3 200/2/3 199/2/3
f 204/2/3 200/2/3 203/2/3
f 207/2/3 206/2/3 205/2/3
f 208/2/3 206/2/3 207/2/3
f 212/2/3 210/2/3 209/2/3
f 213/1/3 211/1/3 210/1/3
f 213/2/3 210/2/3 212/2/3
f 214/1/3 211/1/3 213/1/3
f 217/2/3 216/2/3 215/2/3
f 218/2/3 216/2/3 217/2/3
f 222/2/3 220/2/3 219/2/3
f 223/1/3 221/1/3 220/1/3
f 223/2/3 220/2/3 222/2/3
f 224/1/3 221/1/3 223/1/3
f 230/2/3 226/2/3 225/2/3
f 231/1/3 227/1/3 226/1/3
f 231/2/3 226/2/3 230/2/3
f 232/1/3 227/1/3 231/1/3
f 233/1/3 229/1/3 228/1/3
f 234/1/3 229/1/3 233/1/3
f 237/2/3 236/2/3 235/2/3
f 238/2/3 236/2/3 237/2/3
f 239/1/4 240/1/4 241/1/4
f 241/1/4 240/1/4 242/1/4
f 243/2/4 244/2/4 247/2/4
f 247/2/4 244/2/4 248/2/4
f 245/2/4 246/2/4 249/2/4
f 249/2/4 246/2/4 250/2/4
f 251/2/4 252/2/4 253/2/4
f 253/2/4 252/2/4 254/2/4
f 255/2/4 256/2/4 258/2/4
f 256/1/4 257/1/4 259/1/4
f 258/2/4 256/2/4 259/2/4
f 259/1/4 257/1/4 260/1/4
f 261/2/4 262/2/4 263/2/4
f 263/2/4 262/2/4 264/2/4
f 265/4/4 266/4/4 270/4/4
f 270/4/4 266/4/4 271/4/4
f 267/2/4 268/2/4 272/2/4
f 268/1/4 269/1/4 273/1/4
f 272/2/4 268/2/4 273/2/4
f 273/1/4 269/1/4 274/1/4
f 275/2/4 276/2/4 277/2/4
f 277/2/4 276/2/4 278/2/4
f 279/2/4 280/2/4 281/2/4
f 281/2/4 280/2/4 282/2/4
f 283/2/4 284/2/4 285/2/4
f 285/2/4 284/2/4 286/2/4
f 287/2/4 288/2/4 293/2/4
f 293/2/4 288/2/4 294/2/4
f 289/1/4 290/1/4 295/1/4
f 295/1/4 290/1/4 296/1/4
f 291/1/4 292/1/4 297/1/4
f 297/1/4 292/1/4 298/1/4
f 299/1/4 300/1/4 303/1/4
f 303/1/4 300/1/4 304/1/4
f 301/1/4 302/1/4 305/1/4
f 305/1/4 302/1/4 306/1/4
f 309/1/5 308/1/5 307/1/5
f 310/1/5 308/1/5 309/1/5
f 313/2/5 312/2/5 311/2/5
f 314/2/5 312/2/5 313/2/5
f 317/2/5 316/2/5 315/2/5
f 318/2/5 316/2/5 317/2/5
f 321/2/5 320/2/5 319/2/5
f 322/2/5 320/2/5 321/2/5
f 325/2/5 324/2/5 323/2/5
f 326/2/5 324/2/5 325/2/5
f 329/4/5 328/4/5 327/4/5
f 330/4/5 328/4/5 329/4/5
f 333/2/5 332/2/5 331/2/5
f 334/2/5 332/2/5 333/2/5
f 337/2/5 336/2/5 335/2/5
f 338/2/5 336/2/5 337/2/5
f 341/2/5 340/2/5 339/2/5
f 342/2/5 340/2/5 341/2/5
f 345/2/5 344/2/5 343/2/5
f 346/2/5 344/2/5 345/2/5
f 349/1/5 348/1/5 347/1/5
f 350/1/5 348/1/5 349/1/5
f 353/2/5 352/2/5 351/2/5
f 354/2/5 352/2/5 353/2/5
f 357/1/5 356/1/5 355/1/5
f 358/1/5 356/1/5 357/1/5
f 361/1/5 360/1/5 359/1/5
f 362/1/5 360/1/5 361/1/5
f 363/1/6 364/1/6 365/1/6
f 365/1/6 364/1/6 366/1/6
f 367/2/6 368/2/6 369/2/6
f 369/2/6 368/2/6 370/2/6
f 371/2/6 372/2/6 373/2/6
f 373/2/6 372/2/6 374/2/6
f 375/2/6 376/2/6 377/2/6
f 377/2/6 376/2/6 378/2/6
f 377/1/6 378/1/6 379/1/6
f 379/1/6 378/1/6 380/1/6
f 379/2/6 380/2/6 381/2/6
f 381/2/6 380/2/6 382/2/6
f 383/4/6 384/4/6 385/4/6
f 385/4/6 384/4/6 386/4/6
f 387/4/6 388/4/6 389/4/6
f 389/4/6 388/4/6 390/4/6
f 391/1/6 392/1/6 393/1/6
f 393/1/6 392/1/6 394/1/6
f 395/2/6 396/2/6 397/2/6
f 397/2/6 396/2/6 398/2/6
f 399/1/6 400/1/6 401/1/6
f 401/1/6 400/1/6 402/1/6
f 403/1/6 404/1/6 405/1/6
f 405/1/6 404/1/6 406/1/6
f 407/1/6 408/1/6 409/1/6
f 409/1/6 408/1/6 410/1/6
f 411/1/6 412/1/6 413/1/6
f 413/1/6 412/1/6 414/1/6
f 415/1/6 416/1/6 417/1/6
f 417/1/6 416/1/6 418/1/6
