# MagicaVoxel @ Ephtracy

# group
o 

# material
mtllib Crawl4.mtl
usemtl palette

# normals
vn -1 0 0
vn 1 0 0
vn 0 0 1
vn 0 0 -1
vn 0 -1 0
vn 0 1 0

# texcoords
vt 0.908203 0.5
vt 0.912109 0.5
vt 0.916016 0.5
vt 0.919922 0.5

# verts
v -0.1 0 0.3
v -0.1 0 0.2
v -0.1 0 0.1
v -0.1 0 -0.2
v -0.1 0.1 0.3
v -0.1 0.1 0.2
v -0.1 0.1 0.1
v -0.1 0.1 -0.2
v -0.1 0.1 -0.3
v -0.1 0.2 0.3
v -0.1 0.2 0.2
v -0.1 0.2 -0.3
v -0.1 0.2 -0.7
v -0.1 0.3 -0.7
v -0.1 0.3 -1
v -0.1 0.3 -1.1
v -0.1 0.4 0.1
v -0.1 0.4 0
v -0.1 0.4 -1
v -0.1 0.4 -1.1
v -0.1 0.4 -1.2
v -0.1 0.5 0
v -0.1 0.5 -0.1
v -0.1 0.5 -0.7
v -0.1 0.5 -0.8
v -0.1 0.5 -1.1
v -0.1 0.5 -1.2
v -0.1 0.5 -1.3
v -0.1 0.6 0.1
v -0.1 0.6 -0.1
v -0.1 0.7 0.1
v -0.1 0.7 -0.1
v -0.1 0.7 -0.4
v -0.1 0.7 -0.6
v -0.1 0.8 0.1
v -0.1 0.8 -0.1
v -0.1 0.8 -0.8
v -0.1 0.8 -0.9
v -0.1 0.9 0.3
v -0.1 0.9 0.2
v -0.1 0.9 0.1
v -0.1 0.9 -0.1
v -0.1 0.9 -0.2
v -0.1 0.9 -0.3
v -0.1 0.9 -0.4
v -0.1 0.9 -0.9
v -0.1 0.9 -1
v -0.1 0.9 -1.1
v -0.1 0.9 -1.2
v -0.1 1 0.2
v -0.1 1 0.1
v -0.1 1 -0.1
v -0.1 1 -0.2
v -0.1 1 -0.5
v -0.1 1 -0.6
v -0.1 1 -0.8
v -0.1 1 -1
v -0.1 1 -1.2
v -0.1 1 -1.3
v -0.1 1.1 -0.2
v -0.1 1.1 -0.3
v -0.1 1.2 -0.4
v -0.1 1.2 -0.5
v -0.1 1.2 -1.2
v -0.1 1.2 -1.3
v -0.1 1.3 -0.2
v -0.1 1.3 -0.4
v -0.1 1.3 -0.6
v -0.1 1.3 -0.8
v -0.1 1.3 -1.1
v -0.1 1.3 -1.2
v -0.1 1.4 -0.9
v -0.1 1.4 -1
v -0.1 1.4 -1.1
v -0.1 1.4 -1.2
v -0.1 1.4 -1.3
v -0.1 1.5 -0.2
v -0.1 1.5 -0.4
v -0.1 1.5 -0.6
v -0.1 1.5 -0.8
v -0.1 1.5 -0.9
v -0.1 1.5 -1.2
v 0 0 0.3
v 0 0 0.2
v 0 0 0.1
v 0 0 -0.2
v 0 0.1 0.3
v 0 0.1 0.2
v 0 0.1 0.1
v 0 0.1 -0.2
v 0 0.1 -0.3
v 0 0.2 0.3
v 0 0.2 0.2
v 0 0.2 -0.3
v 0 0.2 -0.7
v 0 0.3 -0.7
v 0 0.3 -1
v 0 0.3 -1.1
v 0 0.4 0.1
v 0 0.4 0
v 0 0.4 -1
v 0 0.4 -1.1
v 0 0.4 -1.2
v 0 0.5 0
v 0 0.5 -0.1
v 0 0.5 -0.7
v 0 0.5 -0.8
v 0 0.5 -1.1
v 0 0.5 -1.2
v 0 0.5 -1.3
v 0 0.6 0.1
v 0 0.6 -0.1
v 0 0.7 0.1
v 0 0.7 -0.1
v 0 0.7 -0.4
v 0 0.7 -0.6
v 0 0.8 0.1
v 0 0.8 -0.1
v 0 0.8 -0.8
v 0 0.8 -0.9
v 0 0.9 0.3
v 0 0.9 0.2
v 0 0.9 0.1
v 0 0.9 -0.1
v 0 0.9 -0.2
v 0 0.9 -0.3
v 0 0.9 -0.4
v 0 0.9 -0.9
v 0 0.9 -1
v 0 0.9 -1.1
v 0 0.9 -1.2
v 0 1 0.2
v 0 1 0.1
v 0 1 -0.1
v 0 1 -0.2
v 0 1 -0.5
v 0 1 -0.6
v 0 1 -0.8
v 0 1 -1
v 0 1 -1.2
v 0 1 -1.3
v 0 1.1 -0.2
v 0 1.1 -0.3
v 0 1.2 -0.4
v 0 1.2 -0.5
v 0 1.2 -1.2
v 0 1.2 -1.3
v 0 1.3 -0.2
v 0 1.3 -0.4
v 0 1.3 -0.6
v 0 1.3 -0.8
v 0 1.3 -1.1
v 0 1.3 -1.2
v 0 1.4 -0.9
v 0 1.4 -1
v 0 1.4 -1.1
v 0 1.4 -1.2
v 0 1.4 -1.3
v 0 1.5 -0.2
v 0 1.5 -0.4
v 0 1.5 -0.6
v 0 1.5 -0.8
v 0 1.5 -0.9
v 0 1.5 -1.2
v -0.1 0 0.3
v -0.1 0.1 0.3
v -0.1 0.2 0.3
v -0.1 0.9 0.3
v 0 0 0.3
v 0 0.1 0.3
v 0 0.2 0.3
v 0 0.9 0.3
v -0.1 0.1 0.2
v -0.1 0.2 0.2
v -0.1 0.9 0.2
v -0.1 1 0.2
v 0 0.1 0.2
v 0 0.2 0.2
v 0 0.9 0.2
v 0 1 0.2
v -0.1 0 0.1
v -0.1 0.1 0.1
v 0 0 0.1
v 0 0.1 0.1
v -0.1 1.1 -0.2
v -0.1 1.3 -0.2
v -0.1 1.5 -0.2
v 0 1.1 -0.2
v 0 1.3 -0.2
v 0 1.5 -0.2
v -0.1 0.9 -0.3
v -0.1 1.1 -0.3
v 0 0.9 -0.3
v 0 1.1 -0.3
v -0.1 1 -0.6
v -0.1 1.3 -0.6
v -0.1 1.5 -0.6
v 0 1 -0.6
v 0 1.3 -0.6
v 0 1.5 -0.6
v -0.1 1.4 -0.9
v -0.1 1.5 -0.9
v 0 1.4 -0.9
v 0 1.5 -0.9
v -0.1 1 -1
v -0.1 1.4 -1
v 0 1 -1
v 0 1.4 -1
v -0.1 0 0.2
v -0.1 0.1 0.2
v 0 0 0.2
v 0 0.1 0.2
v -0.1 0 -0.2
v -0.1 0.1 -0.2
v -0.1 0.9 -0.2
v -0.1 1 -0.2
v 0 0 -0.2
v 0 0.1 -0.2
v 0 0.9 -0.2
v 0 1 -0.2
v -0.1 0.1 -0.3
v -0.1 0.2 -0.3
v 0 0.1 -0.3
v 0 0.2 -0.3
v -0.1 1.2 -0.4
v -0.1 1.3 -0.4
v -0.1 1.5 -0.4
v 0 1.2 -0.4
v 0 1.3 -0.4
v 0 1.5 -0.4
v -0.1 1 -0.5
v -0.1 1.2 -0.5
v 0 1 -0.5
v 0 1.2 -0.5
v -0.1 0.2 -0.7
v -0.1 0.3 -0.7
v 0 0.2 -0.7
v 0 0.3 -0.7
v -0.1 1 -0.8
v -0.1 1.3 -0.8
v -0.1 1.5 -0.8
v 0 1 -0.8
v 0 1.3 -0.8
v 0 1.5 -0.8
v -0.1 0.3 -1.1
v -0.1 0.4 -1.1
v 0 0.3 -1.1
v 0 0.4 -1.1
v -0.1 0.4 -1.2
v -0.1 0.5 -1.2
v -0.1 1 -1.2
v -0.1 1.2 -1.2
v -0.1 1.4 -1.2
v -0.1 1.5 -1.2
v 0 0.4 -1.2
v 0 0.5 -1.2
v 0 1 -1.2
v 0 1.2 -1.2
v 0 1.4 -1.2
v 0 1.5 -1.2
v -0.1 0.5 -1.3
v -0.1 1 -1.3
v -0.1 1.2 -1.3
v -0.1 1.4 -1.3
v 0 0.5 -1.3
v 0 1 -1.3
v 0 1.2 -1.3
v 0 1.4 -1.3
v -0.1 0 0.3
v 0 0 0.3
v -0.1 0 0.2
v 0 0 0.2
v -0.1 0 0.1
v 0 0 0.1
v -0.1 0 -0.2
v 0 0 -0.2
v -0.1 0.1 0.2
v 0 0.1 0.2
v -0.1 0.1 0.1
v 0 0.1 0.1
v -0.1 0.1 -0.2
v 0 0.1 -0.2
v -0.1 0.1 -0.3
v 0 0.1 -0.3
v -0.1 0.2 0.3
v 0 0.2 0.3
v -0.1 0.2 0.2
v 0 0.2 0.2
v -0.1 0.2 -0.3
v 0 0.2 -0.3
v -0.1 0.2 -0.7
v 0 0.2 -0.7
v -0.1 0.3 -0.7
v 0 0.3 -0.7
v -0.1 0.3 -1
v 0 0.3 -1
v -0.1 0.3 -1.1
v 0 0.3 -1.1
v -0.1 0.4 -1.1
v 0 0.4 -1.1
v -0.1 0.4 -1.2
v 0 0.4 -1.2
v -0.1 0.5 -1.2
v 0 0.5 -1.2
v -0.1 0.5 -1.3
v 0 0.5 -1.3
v -0.1 1.1 -0.2
v 0 1.1 -0.2
v -0.1 1.1 -0.3
v 0 1.1 -0.3
v -0.1 1.2 -1.2
v 0 1.2 -1.2
v -0.1 1.2 -1.3
v 0 1.2 -1.3
v -0.1 1.4 -0.9
v 0 1.4 -0.9
v -0.1 1.4 -1
v 0 1.4 -1
v -0.1 0.1 0.3
v 0 0.1 0.3
v -0.1 0.1 0.2
v 0 0.1 0.2
v -0.1 0.9 0.3
v 0 0.9 0.3
v -0.1 0.9 0.2
v 0 0.9 0.2
v -0.1 0.9 -0.2
v 0 0.9 -0.2
v -0.1 0.9 -0.3
v 0 0.9 -0.3
v -0.1 1 0.2
v 0 1 0.2
v -0.1 1 0.1
v 0 1 0.1
v -0.1 1 -0.1
v 0 1 -0.1
v -0.1 1 -0.2
v 0 1 -0.2
v -0.1 1 -0.5
v 0 1 -0.5
v -0.1 1 -0.6
v 0 1 -0.6
v -0.1 1 -0.8
v 0 1 -0.8
v -0.1 1 -1
v 0 1 -1
v -0.1 1 -1.2
v 0 1 -1.2
v -0.1 1 -1.3
v 0 1 -1.3
v -0.1 1.2 -0.4
v 0 1.2 -0.4
v -0.1 1.2 -0.5
v 0 1.2 -0.5
v -0.1 1.4 -1.2
v 0 1.4 -1.2
v -0.1 1.4 -1.3
v 0 1.4 -1.3
v -0.1 1.5 -0.2
v 0 1.5 -0.2
v -0.1 1.5 -0.4
v 0 1.5 -0.4
v -0.1 1.5 -0.6
v 0 1.5 -0.6
v -0.1 1.5 -0.8
v 0 1.5 -0.8
v -0.1 1.5 -0.9
v 0 1.5 -0.9
v -0.1 1.5 -1.2
v 0 1.5 -1.2

# faces
f 5/1/1 2/1/1 1/1/1
f 6/1/1 2/1/1 5/1/1
f 7/2/1 4/2/1 3/2/1
f 8/2/1 4/2/1 7/2/1
f 11/2/1 9/2/1 8/2/1
f 11/2/1 8/2/1 7/2/1
f 11/2/1 7/2/1 6/2/1
f 12/2/1 9/2/1 11/2/1
f 14/4/1 13/4/1 12/4/1
f 17/2/1 11/2/1 10/2/1
f 17/2/1 12/2/1 11/2/1
f 18/2/1 12/2/1 17/2/1
f 19/4/1 16/4/1 15/4/1
f 19/2/1 15/2/1 14/2/1
f 20/4/1 16/4/1 19/4/1
f 22/2/1 12/2/1 18/2/1
f 22/1/1 18/1/1 17/1/1
f 23/2/1 12/2/1 22/2/1
f 24/2/1 21/2/1 20/2/1
f 24/2/1 20/2/1 19/2/1
f 24/4/1 14/4/1 12/4/1
f 24/2/1 19/2/1 14/2/1
f 25/2/1 21/2/1 24/2/1
f 26/2/1 21/2/1 25/2/1
f 27/2/1 21/2/1 26/2/1
f 29/1/1 23/1/1 22/1/1
f 29/1/1 22/1/1 17/1/1
f 29/2/1 17/2/1 10/2/1
f 30/2/1 12/2/1 23/2/1
f 30/1/1 23/1/1 29/1/1
f 31/2/1 29/2/1 10/2/1
f 31/3/1 30/3/1 29/3/1
f 32/2/1 12/2/1 30/2/1
f 32/3/1 30/3/1 31/3/1
f 33/4/1 24/4/1 12/4/1
f 33/4/1 25/4/1 24/4/1
f 34/4/1 25/4/1 33/4/1
f 35/2/1 31/2/1 10/2/1
f 35/1/1 32/1/1 31/1/1
f 36/2/1 12/2/1 32/2/1
f 36/1/1 32/1/1 35/1/1
f 37/4/1 25/4/1 34/4/1
f 37/2/1 26/2/1 25/2/1
f 38/2/1 26/2/1 37/2/1
f 39/2/1 35/2/1 10/2/1
f 40/2/1 35/2/1 39/2/1
f 41/3/1 36/3/1 35/3/1
f 41/2/1 35/2/1 40/2/1
f 42/2/1 12/2/1 36/2/1
f 42/3/1 36/3/1 41/3/1
f 43/2/1 12/2/1 42/2/1
f 44/4/1 33/4/1 12/4/1
f 44/2/1 12/2/1 43/2/1
f 45/2/1 34/2/1 33/2/1
f 45/4/1 33/4/1 44/4/1
f 46/2/1 26/2/1 38/2/1
f 46/4/1 38/4/1 37/4/1
f 47/2/1 26/2/1 46/2/1
f 48/1/1 28/1/1 27/1/1
f 48/2/1 26/2/1 47/2/1
f 48/1/1 27/1/1 26/1/1
f 49/1/1 28/1/1 48/1/1
f 50/2/1 41/2/1 40/2/1
f 51/1/1 42/1/1 41/1/1
f 51/2/1 41/2/1 50/2/1
f 52/2/1 43/2/1 42/2/1
f 52/1/1 42/1/1 51/1/1
f 53/2/1 43/2/1 52/2/1
f 54/2/1 34/2/1 45/2/1
f 54/2/1 45/2/1 44/2/1
f 55/4/1 47/4/1 46/4/1
f 55/2/1 34/2/1 54/2/1
f 55/4/1 46/4/1 37/4/1
f 55/4/1 37/4/1 34/4/1
f 56/4/1 47/4/1 55/4/1
f 57/2/1 49/2/1 48/2/1
f 57/4/1 47/4/1 56/4/1
f 57/2/1 48/2/1 47/2/1
f 58/1/1 28/1/1 49/1/1
f 58/2/1 49/2/1 57/2/1
f 59/1/1 28/1/1 58/1/1
f 61/2/1 54/2/1 44/2/1
f 62/2/1 54/2/1 61/2/1
f 62/2/1 61/2/1 60/2/1
f 63/2/1 54/2/1 62/2/1
f 64/2/1 58/2/1 57/2/1
f 66/2/1 62/2/1 60/2/1
f 67/2/1 62/2/1 66/2/1
f 68/2/1 56/2/1 55/2/1
f 69/2/1 56/2/1 68/2/1
f 70/2/1 64/2/1 57/2/1
f 71/1/1 65/1/1 64/1/1
f 71/2/1 64/2/1 70/2/1
f 73/2/1 70/2/1 57/2/1
f 74/1/1 71/1/1 70/1/1
f 74/2/1 70/2/1 73/2/1
f 75/1/1 65/1/1 71/1/1
f 75/1/1 71/1/1 74/1/1
f 76/1/1 65/1/1 75/1/1
f 77/1/1 67/1/1 66/1/1
f 78/1/1 67/1/1 77/1/1
f 79/1/1 69/1/1 68/1/1
f 80/1/1 69/1/1 79/1/1
f 81/1/1 74/1/1 73/1/1
f 81/1/1 73/1/1 72/1/1
f 81/1/1 75/1/1 74/1/1
f 82/1/1 75/1/1 81/1/1
f 83/1/2 84/1/2 87/1/2
f 87/1/2 84/1/2 88/1/2
f 85/2/2 86/2/2 89/2/2
f 89/2/2 86/2/2 90/2/2
f 90/2/2 91/2/2 93/2/2
f 89/2/2 90/2/2 93/2/2
f 88/2/2 89/2/2 93/2/2
f 93/2/2 91/2/2 94/2/2
f 94/4/2 95/4/2 96/4/2
f 92/2/2 93/2/2 99/2/2
f 93/2/2 94/2/2 99/2/2
f 99/2/2 94/2/2 100/2/2
f 97/4/2 98/4/2 101/4/2
f 96/2/2 97/2/2 101/2/2
f 101/4/2 98/4/2 102/4/2
f 100/2/2 94/2/2 104/2/2
f 99/1/2 100/1/2 104/1/2
f 104/2/2 94/2/2 105/2/2
f 102/2/2 103/2/2 106/2/2
f 101/2/2 102/2/2 106/2/2
f 94/4/2 96/4/2 106/4/2
f 96/2/2 101/2/2 106/2/2
f 106/2/2 103/2/2 107/2/2
f 107/2/2 103/2/2 108/2/2
f 108/2/2 103/2/2 109/2/2
f 104/1/2 105/1/2 111/1/2
f 99/1/2 104/1/2 111/1/2
f 92/2/2 99/2/2 111/2/2
f 105/2/2 94/2/2 112/2/2
f 111/1/2 105/1/2 112/1/2
f 92/2/2 111/2/2 113/2/2
f 111/3/2 112/3/2 113/3/2
f 112/2/2 94/2/2 114/2/2
f 113/3/2 112/3/2 114/3/2
f 94/4/2 106/4/2 115/4/2
f 106/4/2 107/4/2 115/4/2
f 115/4/2 107/4/2 116/4/2
f 92/2/2 113/2/2 117/2/2
f 113/1/2 114/1/2 117/1/2
f 114/2/2 94/2/2 118/2/2
f 117/1/2 114/1/2 118/1/2
f 116/4/2 107/4/2 119/4/2
f 107/2/2 108/2/2 119/2/2
f 119/2/2 108/2/2 120/2/2
f 92/2/2 117/2/2 121/2/2
f 121/2/2 117/2/2 122/2/2
f 117/3/2 118/3/2 123/3/2
f 122/2/2 117/2/2 123/2/2
f 118/2/2 94/2/2 124/2/2
f 123/3/2 118/3/2 124/3/2
f 124/2/2 94/2/2 125/2/2
f 94/4/2 115/4/2 126/4/2
f 125/2/2 94/2/2 126/2/2
f 115/2/2 116/2/2 127/2/2
f 126/4/2 115/4/2 127/4/2
f 120/2/2 108/2/2 128/2/2
f 119/4/2 120/4/2 128/4/2
f 128/2/2 108/2/2 129/2/2
f 109/1/2 110/1/2 130/1/2
f 129/2/2 108/2/2 130/2/2
f 108/1/2 109/1/2 130/1/2
f 130/1/2 110/1/2 131/1/2
f 122/2/2 123/2/2 132/2/2
f 123/1/2 124/1/2 133/1/2
f 132/2/2 123/2/2 133/2/2
f 124/2/2 125/2/2 134/2/2
f 133/1/2 124/1/2 134/1/2
f 134/2/2 125/2/2 135/2/2
f 127/2/2 116/2/2 136/2/2
f 126/2/2 127/2/2 136/2/2
f 128/4/2 129/4/2 137/4/2
f 136/2/2 116/2/2 137/2/2
f 119/4/2 128/4/2 137/4/2
f 116/4/2 119/4/2 137/4/2
f 137/4/2 129/4/2 138/4/2
f 130/2/2 131/2/2 139/2/2
f 138/4/2 129/4/2 139/4/2
f 129/2/2 130/2/2 139/2/2
f 131/1/2 110/1/2 140/1/2
f 139/2/2 131/2/2 140/2/2
f 140/1/2 110/1/2 141/1/2
f 126/2/2 136/2/2 143/2/2
f 143/2/2 136/2/2 144/2/2
f 142/2/2 143/2/2 144/2/2
f 144/2/2 136/2/2 145/2/2
f 139/2/2 140/2/2 146/2/2
f 142/2/2 144/2/2 148/2/2
f 148/2/2 144/2/2 149/2/2
f 137/2/2 138/2/2 150/2/2
f 150/2/2 138/2/2 151/2/2
f 139/2/2 146/2/2 152/2/2
f 146/1/2 147/1/2 153/1/2
f 152/2/2 146/2/2 153/2/2
f 139/2/2 152/2/2 155/2/2
f 152/1/2 153/1/2 156/1/2
f 155/2/2 152/2/2 156/2/2
f 153/1/2 147/1/2 157/1/2
f 156/1/2 153/1/2 157/1/2
f 157/1/2 147/1/2 158/1/2
f 148/1/2 149/1/2 159/1/2
f 159/1/2 149/1/2 160/1/2
f 150/1/2 151/1/2 161/1/2
f 161/1/2 151/1/2 162/1/2
f 155/1/2 156/1/2 163/1/2
f 154/1/2 155/1/2 163/1/2
f 156/1/2 157/1/2 163/1/2
f 163/1/2 157/1/2 164/1/2
f 169/1/3 166/1/3 165/1/3
f 170/1/3 166/1/3 169/1/3
f 171/2/3 168/2/3 167/2/3
f 172/2/3 168/2/3 171/2/3
f 177/2/3 174/2/3 173/2/3
f 178/2/3 174/2/3 177/2/3
f 179/2/3 176/2/3 175/2/3
f 180/2/3 176/2/3 179/2/3
f 183/2/3 182/2/3 181/2/3
f 184/2/3 182/2/3 183/2/3
f 188/2/3 186/2/3 185/2/3
f 189/1/3 187/1/3 186/1/3
f 189/2/3 186/2/3 188/2/3
f 190/1/3 187/1/3 189/1/3
f 193/2/3 192/2/3 191/2/3
f 194/2/3 192/2/3 193/2/3
f 198/2/3 196/2/3 195/2/3
f 199/1/3 197/1/3 196/1/3
f 199/2/3 196/2/3 198/2/3
f 200/1/3 197/1/3 199/1/3
f 203/1/3 202/1/3 201/1/3
f 204/1/3 202/1/3 203/1/3
f 207/2/3 206/2/3 205/2/3
f 208/2/3 206/2/3 207/2/3
f 209/1/4 210/1/4 211/1/4
f 211/1/4 210/1/4 212/1/4
f 213/2/4 214/2/4 217/2/4
f 217/2/4 214/2/4 218/2/4
f 215/2/4 216/2/4 219/2/4
f 219/2/4 216/2/4 220/2/4
f 221/2/4 222/2/4 223/2/4
f 223/2/4 222/2/4 224/2/4
f 225/2/4 226/2/4 228/2/4
f 226/1/4 227/1/4 229/1/4
f 228/2/4 226/2/4 229/2/4
f 229/1/4 227/1/4 230/1/4
f 231/2/4 232/2/4 233/2/4
f 233/2/4 232/2/4 234/2/4
f 235/4/4 236/4/4 237/4/4
f 237/4/4 236/4/4 238/4/4
f 239/2/4 240/2/4 242/2/4
f 240/1/4 241/1/4 243/1/4
f 242/2/4 240/2/4 243/2/4
f 243/1/4 241/1/4 244/1/4
f 245/4/4 246/4/4 247/4/4
f 247/4/4 246/4/4 248/4/4
f 249/2/4 250/2/4 255/2/4
f 255/2/4 250/2/4 256/2/4
f 251/2/4 252/2/4 257/2/4
f 257/2/4 252/2/4 258/2/4
f 253/1/4 254/1/4 259/1/4
f 259/1/4 254/1/4 260/1/4
f 261/1/4 262/1/4 265/1/4
f 265/1/4 262/1/4 266/1/4
f 263/1/4 264/1/4 267/1/4
f 267/1/4 264/1/4 268/1/4
f 271/1/5 270/1/5 269/1/5
f 272/1/5 270/1/5 271/1/5
f 275/2/5 274/2/5 273/2/5
f 276/2/5 274/2/5 275/2/5
f 279/2/5 278/2/5 277/2/5
f 280/2/5 278/2/5 279/2/5
f 283/2/5 282/2/5 281/2/5
f 284/2/5 282/2/5 283/2/5
f 287/2/5 286/2/5 285/2/5
f 288/2/5 286/2/5 287/2/5
f 291/4/5 290/4/5 289/4/5
f 292/4/5 290/4/5 291/4/5
f 295/2/5 294/2/5 293/2/5
f 296/2/5 294/2/5 295/2/5
f 297/4/5 296/4/5 295/4/5
f 298/4/5 296/4/5 297/4/5
f 301/2/5 300/2/5 299/2/5
f 302/2/5 300/2/5 301/2/5
f 305/1/5 304/1/5 303/1/5
f 306/1/5 304/1/5 305/1/5
f 309/2/5 308/2/5 307/2/5
f 310/2/5 308/2/5 309/2/5
f 313/1/5 312/1/5 311/1/5
f 314/1/5 312/1/5 313/1/5
f 317/1/5 316/1/5 315/1/5
f 318/1/5 316/1/5 317/1/5
f 319/1/6 320/1/6 321/1/6
f 321/1/6 320/1/6 322/1/6
f 323/2/6 324/2/6 325/2/6
f 325/2/6 324/2/6 326/2/6
f 327/2/6 328/2/6 329/2/6
f 329/2/6 328/2/6 330/2/6
f 331/2/6 332/2/6 333/2/6
f 333/2/6 332/2/6 334/2/6
f 333/1/6 334/1/6 335/1/6
f 335/1/6 334/1/6 336/1/6
f 335/2/6 336/2/6 337/2/6
f 337/2/6 336/2/6 338/2/6
f 339/2/6 340/2/6 341/2/6
f 341/2/6 340/2/6 342/2/6
f 343/4/6 344/4/6 345/4/6
f 345/4/6 344/4/6 346/4/6
f 347/1/6 348/1/6 349/1/6
f 349/1/6 348/1/6 350/1/6
f 351/2/6 352/2/6 353/2/6
f 353/2/6 352/2/6 354/2/6
f 355/1/6 356/1/6 357/1/6
f 357/1/6 356/1/6 358/1/6
f 359/1/6 360/1/6 361/1/6
f 361/1/6 360/1/6 362/1/6
f 363/1/6 364/1/6 365/1/6
f 365/1/6 364/1/6 366/1/6
f 367/1/6 368/1/6 369/1/6
f 369/1/6 368/1/6 370/1/6
