# MagicaVoxel @ Ephtracy

# group
o 

# material
mtllib Crawl3.mtl
usemtl palette

# normals
vn -1 0 0
vn 1 0 0
vn 0 0 1
vn 0 0 -1
vn 0 -1 0
vn 0 1 0

# texcoords
vt 0.908203 0.5
vt 0.912109 0.5
vt 0.916016 0.5
vt 0.919922 0.5

# verts
v -0.1 0 0.3
v -0.1 0 0.2
v -0.1 0 0.1
v -0.1 0 -0.2
v -0.1 0.1 0.3
v -0.1 0.1 0.2
v -0.1 0.1 0.1
v -0.1 0.1 -0.2
v -0.1 0.1 -0.3
v -0.1 0.2 0.3
v -0.1 0.2 0.2
v -0.1 0.2 -0.3
v -0.1 0.2 -0.8
v -0.1 0.2 -1
v -0.1 0.3 -0.7
v -0.1 0.3 -0.8
v -0.1 0.3 -1
v -0.1 0.3 -1.1
v -0.1 0.4 0.1
v -0.1 0.4 0
v -0.1 0.4 -1.1
v -0.1 0.4 -1.2
v -0.1 0.5 0
v -0.1 0.5 -0.1
v -0.1 0.5 -0.7
v -0.1 0.5 -0.8
v -0.1 0.6 0.1
v -0.1 0.6 -0.1
v -0.1 0.6 -1.2
v -0.1 0.6 -1.3
v -0.1 0.7 0.1
v -0.1 0.7 -0.1
v -0.1 0.7 -0.4
v -0.1 0.7 -0.5
v -0.1 0.8 0.1
v -0.1 0.8 -0.1
v -0.1 0.8 -0.5
v -0.1 0.8 -0.6
v -0.1 0.8 -1.2
v -0.1 0.8 -1.3
v -0.1 0.9 0.3
v -0.1 0.9 0.2
v -0.1 0.9 0.1
v -0.1 0.9 -0.1
v -0.1 0.9 -0.2
v -0.1 0.9 -0.3
v -0.1 0.9 -0.8
v -0.1 0.9 -0.9
v -0.1 1 0.2
v -0.1 1 0.1
v -0.1 1 -0.1
v -0.1 1 -0.2
v -0.1 1 -0.9
v -0.1 1 -1
v -0.1 1 -1.1
v -0.1 1 -1.2
v -0.1 1 -1.3
v -0.1 1.1 -0.3
v -0.1 1.1 -0.4
v -0.1 1.1 -0.7
v -0.1 1.1 -1
v -0.1 1.1 -1.1
v -0.1 1.1 -1.2
v -0.1 1.1 -1.3
v -0.1 1.2 -0.6
v -0.1 1.2 -0.7
v -0.1 1.2 -0.9
v -0.1 1.2 -1
v -0.1 1.2 -1.1
v -0.1 1.2 -1.2
v -0.1 1.2 -1.3
v -0.1 1.3 -0.4
v -0.1 1.3 -0.6
v -0.1 1.3 -0.7
v -0.1 1.3 -0.9
v -0.1 1.3 -1
v -0.1 1.3 -1.1
v -0.1 1.3 -1.2
v -0.1 1.4 -0.9
v -0.1 1.4 -1
v -0.1 1.4 -1.1
v -0.1 1.4 -1.2
v -0.1 1.4 -1.3
v -0.1 1.5 -0.4
v -0.1 1.5 -0.6
v -0.1 1.5 -0.7
v -0.1 1.5 -1.2
v 0 0 0.3
v 0 0 0.2
v 0 0 0.1
v 0 0 -0.2
v 0 0.1 0.3
v 0 0.1 0.2
v 0 0.1 0.1
v 0 0.1 -0.2
v 0 0.1 -0.3
v 0 0.2 0.3
v 0 0.2 0.2
v 0 0.2 -0.3
v 0 0.2 -0.8
v 0 0.2 -1
v 0 0.3 -0.7
v 0 0.3 -0.8
v 0 0.3 -1
v 0 0.3 -1.1
v 0 0.4 0.1
v 0 0.4 0
v 0 0.4 -1.1
v 0 0.4 -1.2
v 0 0.5 0
v 0 0.5 -0.1
v 0 0.5 -0.7
v 0 0.5 -0.8
v 0 0.6 0.1
v 0 0.6 -0.1
v 0 0.6 -1.2
v 0 0.6 -1.3
v 0 0.7 0.1
v 0 0.7 -0.1
v 0 0.7 -0.4
v 0 0.7 -0.5
v 0 0.8 0.1
v 0 0.8 -0.1
v 0 0.8 -0.5
v 0 0.8 -0.6
v 0 0.8 -1.2
v 0 0.8 -1.3
v 0 0.9 0.3
v 0 0.9 0.2
v 0 0.9 0.1
v 0 0.9 -0.1
v 0 0.9 -0.2
v 0 0.9 -0.3
v 0 0.9 -0.8
v 0 0.9 -0.9
v 0 1 0.2
v 0 1 0.1
v 0 1 -0.1
v 0 1 -0.2
v 0 1 -0.9
v 0 1 -1
v 0 1 -1.1
v 0 1 -1.2
v 0 1 -1.3
v 0 1.1 -0.3
v 0 1.1 -0.4
v 0 1.1 -0.7
v 0 1.1 -1
v 0 1.1 -1.1
v 0 1.1 -1.2
v 0 1.1 -1.3
v 0 1.2 -0.6
v 0 1.2 -0.7
v 0 1.2 -0.9
v 0 1.2 -1
v 0 1.2 -1.1
v 0 1.2 -1.2
v 0 1.2 -1.3
v 0 1.3 -0.4
v 0 1.3 -0.6
v 0 1.3 -0.7
v 0 1.3 -0.9
v 0 1.3 -1
v 0 1.3 -1.1
v 0 1.3 -1.2
v 0 1.4 -0.9
v 0 1.4 -1
v 0 1.4 -1.1
v 0 1.4 -1.2
v 0 1.4 -1.3
v 0 1.5 -0.4
v 0 1.5 -0.6
v 0 1.5 -0.7
v 0 1.5 -1.2
v -0.1 0 0.3
v -0.1 0.1 0.3
v -0.1 0.2 0.3
v -0.1 0.9 0.3
v 0 0 0.3
v 0 0.1 0.3
v 0 0.2 0.3
v 0 0.9 0.3
v -0.1 0.1 0.2
v -0.1 0.2 0.2
v -0.1 0.9 0.2
v -0.1 1 0.2
v 0 0.1 0.2
v 0 0.2 0.2
v 0 0.9 0.2
v 0 1 0.2
v -0.1 0 0.1
v -0.1 0.1 0.1
v 0 0 0.1
v 0 0.1 0.1
v -0.1 0.9 -0.3
v -0.1 1.1 -0.3
v 0 0.9 -0.3
v 0 1.1 -0.3
v -0.1 1.1 -0.4
v -0.1 1.3 -0.4
v -0.1 1.5 -0.4
v 0 1.1 -0.4
v 0 1.3 -0.4
v 0 1.5 -0.4
v -0.1 1.2 -0.7
v -0.1 1.3 -0.7
v -0.1 1.5 -0.7
v 0 1.2 -0.7
v 0 1.3 -0.7
v 0 1.5 -0.7
v -0.1 1.3 -1
v -0.1 1.4 -1
v 0 1.3 -1
v 0 1.4 -1
v -0.1 0 0.2
v -0.1 0.1 0.2
v 0 0 0.2
v 0 0.1 0.2
v -0.1 0 -0.2
v -0.1 0.1 -0.2
v -0.1 0.9 -0.2
v -0.1 1 -0.2
v 0 0 -0.2
v 0 0.1 -0.2
v 0 0.9 -0.2
v 0 1 -0.2
v -0.1 0.1 -0.3
v -0.1 0.2 -0.3
v 0 0.1 -0.3
v 0 0.2 -0.3
v -0.1 1.2 -0.6
v -0.1 1.3 -0.6
v -0.1 1.5 -0.6
v 0 1.2 -0.6
v 0 1.3 -0.6
v 0 1.5 -0.6
v -0.1 1.3 -0.9
v -0.1 1.4 -0.9
v 0 1.3 -0.9
v 0 1.4 -0.9
v -0.1 0.2 -1
v -0.1 0.3 -1
v 0 0.2 -1
v 0 0.3 -1
v -0.1 0.3 -1.1
v -0.1 0.4 -1.1
v 0 0.3 -1.1
v 0 0.4 -1.1
v -0.1 0.4 -1.2
v -0.1 0.6 -1.2
v -0.1 0.8 -1.2
v -0.1 1 -1.2
v -0.1 1.1 -1.2
v -0.1 1.2 -1.2
v -0.1 1.4 -1.2
v -0.1 1.5 -1.2
v 0 0.4 -1.2
v 0 0.6 -1.2
v 0 0.8 -1.2
v 0 1 -1.2
v 0 1.1 -1.2
v 0 1.2 -1.2
v 0 1.4 -1.2
v 0 1.5 -1.2
v -0.1 0.6 -1.3
v -0.1 0.8 -1.3
v -0.1 1 -1.3
v -0.1 1.1 -1.3
v -0.1 1.2 -1.3
v -0.1 1.4 -1.3
v 0 0.6 -1.3
v 0 0.8 -1.3
v 0 1 -1.3
v 0 1.1 -1.3
v 0 1.2 -1.3
v 0 1.4 -1.3
v -0.1 0 0.3
v 0 0 0.3
v -0.1 0 0.2
v 0 0 0.2
v -0.1 0 0.1
v 0 0 0.1
v -0.1 0 -0.2
v 0 0 -0.2
v -0.1 0.1 0.2
v 0 0.1 0.2
v -0.1 0.1 0.1
v 0 0.1 0.1
v -0.1 0.1 -0.2
v 0 0.1 -0.2
v -0.1 0.1 -0.3
v 0 0.1 -0.3
v -0.1 0.2 0.3
v 0 0.2 0.3
v -0.1 0.2 0.2
v 0 0.2 0.2
v -0.1 0.2 -0.3
v 0 0.2 -0.3
v -0.1 0.2 -0.8
v 0 0.2 -0.8
v -0.1 0.2 -1
v 0 0.2 -1
v -0.1 0.3 -1
v 0 0.3 -1
v -0.1 0.3 -1.1
v 0 0.3 -1.1
v -0.1 0.4 -1.1
v 0 0.4 -1.1
v -0.1 0.4 -1.2
v 0 0.4 -1.2
v -0.1 0.6 -1.2
v 0 0.6 -1.2
v -0.1 0.6 -1.3
v 0 0.6 -1.3
v -0.1 1 -1.2
v 0 1 -1.2
v -0.1 1 -1.3
v 0 1 -1.3
v -0.1 1.2 -1.2
v 0 1.2 -1.2
v -0.1 1.2 -1.3
v 0 1.2 -1.3
v -0.1 1.4 -0.9
v 0 1.4 -0.9
v -0.1 1.4 -1
v 0 1.4 -1
v -0.1 0.1 0.3
v 0 0.1 0.3
v -0.1 0.1 0.2
v 0 0.1 0.2
v -0.1 0.8 -1.2
v 0 0.8 -1.2
v -0.1 0.8 -1.3
v 0 0.8 -1.3
v -0.1 0.9 0.3
v 0 0.9 0.3
v -0.1 0.9 0.2
v 0 0.9 0.2
v -0.1 0.9 -0.2
v 0 0.9 -0.2
v -0.1 0.9 -0.3
v 0 0.9 -0.3
v -0.1 1 0.2
v 0 1 0.2
v -0.1 1 0.1
v 0 1 0.1
v -0.1 1 -0.1
v 0 1 -0.1
v -0.1 1 -0.2
v 0 1 -0.2
v -0.1 1.1 -0.3
v 0 1.1 -0.3
v -0.1 1.1 -0.4
v 0 1.1 -0.4
v -0.1 1.1 -1.2
v 0 1.1 -1.2
v -0.1 1.1 -1.3
v 0 1.1 -1.3
v -0.1 1.2 -0.6
v 0 1.2 -0.6
v -0.1 1.2 -0.7
v 0 1.2 -0.7
v -0.1 1.3 -0.9
v 0 1.3 -0.9
v -0.1 1.3 -1
v 0 1.3 -1
v -0.1 1.4 -1.2
v 0 1.4 -1.2
v -0.1 1.4 -1.3
v 0 1.4 -1.3
v -0.1 1.5 -0.4
v 0 1.5 -0.4
v -0.1 1.5 -0.6
v 0 1.5 -0.6
v -0.1 1.5 -0.7
v 0 1.5 -0.7
v -0.1 1.5 -1.2
v 0 1.5 -1.2

# faces
f 5/1/1 2/1/1 1/1/1
f 6/1/1 2/1/1 5/1/1
f 7/2/1 4/2/1 3/2/1
f 8/2/1 4/2/1 7/2/1
f 11/2/1 9/2/1 8/2/1
f 11/2/1 8/2/1 7/2/1
f 11/2/1 7/2/1 6/2/1
f 12/2/1 9/2/1 11/2/1
f 15/4/1 13/4/1 12/4/1
f 16/2/1 14/2/1 13/2/1
f 16/4/1 13/4/1 15/4/1
f 17/2/1 14/2/1 16/2/1
f 19/2/1 11/2/1 10/2/1
f 19/2/1 12/2/1 11/2/1
f 20/2/1 12/2/1 19/2/1
f 21/2/1 18/2/1 17/2/1
f 21/2/1 17/2/1 16/2/1
f 21/2/1 16/2/1 15/2/1
f 23/2/1 12/2/1 20/2/1
f 23/1/1 20/1/1 19/1/1
f 24/2/1 12/2/1 23/2/1
f 25/2/1 22/2/1 21/2/1
f 25/2/1 21/2/1 15/2/1
f 25/4/1 15/4/1 12/4/1
f 26/2/1 22/2/1 25/2/1
f 27/1/1 24/1/1 23/1/1
f 27/1/1 23/1/1 19/1/1
f 27/2/1 19/2/1 10/2/1
f 28/2/1 12/2/1 24/2/1
f 28/1/1 24/1/1 27/1/1
f 29/2/1 22/2/1 26/2/1
f 31/2/1 27/2/1 10/2/1
f 31/3/1 28/3/1 27/3/1
f 32/2/1 12/2/1 28/2/1
f 32/3/1 28/3/1 31/3/1
f 33/4/1 26/4/1 25/4/1
f 33/4/1 25/4/1 12/4/1
f 34/4/1 26/4/1 33/4/1
f 35/2/1 31/2/1 10/2/1
f 35/1/1 32/1/1 31/1/1
f 36/2/1 12/2/1 32/2/1
f 36/1/1 32/1/1 35/1/1
f 37/4/1 26/4/1 34/4/1
f 37/2/1 34/2/1 33/2/1
f 38/4/1 26/4/1 37/4/1
f 39/2/1 30/2/1 29/2/1
f 39/2/1 29/2/1 26/2/1
f 40/2/1 30/2/1 39/2/1
f 41/2/1 35/2/1 10/2/1
f 42/2/1 35/2/1 41/2/1
f 43/3/1 36/3/1 35/3/1
f 43/2/1 35/2/1 42/2/1
f 44/2/1 12/2/1 36/2/1
f 44/3/1 36/3/1 43/3/1
f 45/2/1 12/2/1 44/2/1
f 46/4/1 33/4/1 12/4/1
f 46/2/1 12/2/1 45/2/1
f 47/4/1 26/4/1 38/4/1
f 47/2/1 39/2/1 26/2/1
f 48/2/1 39/2/1 47/2/1
f 49/2/1 43/2/1 42/2/1
f 50/1/1 44/1/1 43/1/1
f 50/2/1 43/2/1 49/2/1
f 51/2/1 45/2/1 44/2/1
f 51/1/1 44/1/1 50/1/1
f 52/2/1 45/2/1 51/2/1
f 53/2/1 39/2/1 48/2/1
f 53/4/1 48/4/1 47/4/1
f 54/2/1 39/2/1 53/2/1
f 55/2/1 39/2/1 54/2/1
f 56/2/1 39/2/1 55/2/1
f 58/4/1 33/4/1 46/4/1
f 59/2/1 38/2/1 37/2/1
f 59/4/1 33/4/1 58/4/1
f 59/2/1 37/2/1 33/2/1
f 60/4/1 54/4/1 53/4/1
f 60/4/1 53/4/1 47/4/1
f 60/4/1 47/4/1 38/4/1
f 61/2/1 55/2/1 54/2/1
f 61/4/1 54/4/1 60/4/1
f 62/1/1 57/1/1 56/1/1
f 62/2/1 55/2/1 61/2/1
f 62/1/1 56/1/1 55/1/1
f 63/1/1 57/1/1 62/1/1
f 64/1/1 57/1/1 63/1/1
f 65/4/1 60/4/1 38/4/1
f 65/2/1 38/2/1 59/2/1
f 66/2/1 61/2/1 60/2/1
f 66/4/1 60/4/1 65/4/1
f 67/2/1 61/2/1 66/2/1
f 68/1/1 63/1/1 62/1/1
f 68/2/1 61/2/1 67/2/1
f 68/1/1 62/1/1 61/1/1
f 69/1/1 63/1/1 68/1/1
f 70/1/1 63/1/1 69/1/1
f 72/2/1 65/2/1 59/2/1
f 73/2/1 65/2/1 72/2/1
f 74/2/1 67/2/1 66/2/1
f 75/1/1 68/1/1 67/1/1
f 75/2/1 67/2/1 74/2/1
f 75/1/1 69/1/1 68/1/1
f 76/1/1 69/1/1 75/1/1
f 77/2/1 70/2/1 69/2/1
f 77/1/1 69/1/1 76/1/1
f 78/1/1 71/1/1 70/1/1
f 78/2/1 70/2/1 77/2/1
f 79/1/1 75/1/1 74/1/1
f 80/2/1 77/2/1 76/2/1
f 81/1/1 78/1/1 77/1/1
f 81/2/1 77/2/1 80/2/1
f 82/1/1 71/1/1 78/1/1
f 82/1/1 78/1/1 81/1/1
f 83/1/1 71/1/1 82/1/1
f 84/1/1 73/1/1 72/1/1
f 85/1/1 73/1/1 84/1/1
f 86/1/1 79/1/1 74/1/1
f 86/1/1 81/1/1 80/1/1
f 86/1/1 80/1/1 79/1/1
f 86/1/1 82/1/1 81/1/1
f 87/1/1 82/1/1 86/1/1
f 88/1/2 89/1/2 92/1/2
f 92/1/2 89/1/2 93/1/2
f 90/2/2 91/2/2 94/2/2
f 94/2/2 91/2/2 95/2/2
f 95/2/2 96/2/2 98/2/2
f 94/2/2 95/2/2 98/2/2
f 93/2/2 94/2/2 98/2/2
f 98/2/2 96/2/2 99/2/2
f 99/4/2 100/4/2 102/4/2
f 100/2/2 101/2/2 103/2/2
f 102/4/2 100/4/2 103/4/2
f 103/2/2 101/2/2 104/2/2
f 97/2/2 98/2/2 106/2/2
f 98/2/2 99/2/2 106/2/2
f 106/2/2 99/2/2 107/2/2
f 104/2/2 105/2/2 108/2/2
f 103/2/2 104/2/2 108/2/2
f 102/2/2 103/2/2 108/2/2
f 107/2/2 99/2/2 110/2/2
f 106/1/2 107/1/2 110/1/2
f 110/2/2 99/2/2 111/2/2
f 108/2/2 109/2/2 112/2/2
f 102/2/2 108/2/2 112/2/2
f 99/4/2 102/4/2 112/4/2
f 112/2/2 109/2/2 113/2/2
f 110/1/2 111/1/2 114/1/2
f 106/1/2 110/1/2 114/1/2
f 97/2/2 106/2/2 114/2/2
f 111/2/2 99/2/2 115/2/2
f 114/1/2 111/1/2 115/1/2
f 113/2/2 109/2/2 116/2/2
f 97/2/2 114/2/2 118/2/2
f 114/3/2 115/3/2 118/3/2
f 115/2/2 99/2/2 119/2/2
f 118/3/2 115/3/2 119/3/2
f 112/4/2 113/4/2 120/4/2
f 99/4/2 112/4/2 120/4/2
f 120/4/2 113/4/2 121/4/2
f 97/2/2 118/2/2 122/2/2
f 118/1/2 119/1/2 122/1/2
f 119/2/2 99/2/2 123/2/2
f 122/1/2 119/1/2 123/1/2
f 121/4/2 113/4/2 124/4/2
f 120/2/2 121/2/2 124/2/2
f 124/4/2 113/4/2 125/4/2
f 116/2/2 117/2/2 126/2/2
f 113/2/2 116/2/2 126/2/2
f 126/2/2 117/2/2 127/2/2
f 97/2/2 122/2/2 128/2/2
f 128/2/2 122/2/2 129/2/2
f 122/3/2 123/3/2 130/3/2
f 129/2/2 122/2/2 130/2/2
f 123/2/2 99/2/2 131/2/2
f 130/3/2 123/3/2 131/3/2
f 131/2/2 99/2/2 132/2/2
f 99/4/2 120/4/2 133/4/2
f 132/2/2 99/2/2 133/2/2
f 125/4/2 113/4/2 134/4/2
f 113/2/2 126/2/2 134/2/2
f 134/2/2 126/2/2 135/2/2
f 129/2/2 130/2/2 136/2/2
f 130/1/2 131/1/2 137/1/2
f 136/2/2 130/2/2 137/2/2
f 131/2/2 132/2/2 138/2/2
f 137/1/2 131/1/2 138/1/2
f 138/2/2 132/2/2 139/2/2
f 135/2/2 126/2/2 140/2/2
f 134/4/2 135/4/2 140/4/2
f 140/2/2 126/2/2 141/2/2
f 141/2/2 126/2/2 142/2/2
f 142/2/2 126/2/2 143/2/2
f 133/4/2 120/4/2 145/4/2
f 124/2/2 125/2/2 146/2/2
f 145/4/2 120/4/2 146/4/2
f 120/2/2 124/2/2 146/2/2
f 140/4/2 141/4/2 147/4/2
f 134/4/2 140/4/2 147/4/2
f 125/4/2 134/4/2 147/4/2
f 141/2/2 142/2/2 148/2/2
f 147/4/2 141/4/2 148/4/2
f 143/1/2 144/1/2 149/1/2
f 148/2/2 142/2/2 149/2/2
f 142/1/2 143/1/2 149/1/2
f 149/1/2 144/1/2 150/1/2
f 150/1/2 144/1/2 151/1/2
f 125/4/2 147/4/2 152/4/2
f 146/2/2 125/2/2 152/2/2
f 147/2/2 148/2/2 153/2/2
f 152/4/2 147/4/2 153/4/2
f 153/2/2 148/2/2 154/2/2
f 149/1/2 150/1/2 155/1/2
f 154/2/2 148/2/2 155/2/2
f 148/1/2 149/1/2 155/1/2
f 155/1/2 150/1/2 156/1/2
f 156/1/2 150/1/2 157/1/2
f 146/2/2 152/2/2 159/2/2
f 159/2/2 152/2/2 160/2/2
f 153/2/2 154/2/2 161/2/2
f 154/1/2 155/1/2 162/1/2
f 161/2/2 154/2/2 162/2/2
f 155/1/2 156/1/2 162/1/2
f 162/1/2 156/1/2 163/1/2
f 156/2/2 157/2/2 164/2/2
f 163/1/2 156/1/2 164/1/2
f 157/1/2 158/1/2 165/1/2
f 164/2/2 157/2/2 165/2/2
f 161/1/2 162/1/2 166/1/2
f 163/2/2 164/2/2 167/2/2
f 164/1/2 165/1/2 168/1/2
f 167/2/2 164/2/2 168/2/2
f 165/1/2 158/1/2 169/1/2
f 168/1/2 165/1/2 169/1/2
f 169/1/2 158/1/2 170/1/2
f 159/1/2 160/1/2 171/1/2
f 171/1/2 160/1/2 172/1/2
f 161/1/2 166/1/2 173/1/2
f 167/1/2 168/1/2 173/1/2
f 166/1/2 167/1/2 173/1/2
f 168/1/2 169/1/2 173/1/2
f 173/1/2 169/1/2 174/1/2
f 179/1/3 176/1/3 175/1/3
f 180/1/3 176/1/3 179/1/3
f 181/2/3 178/2/3 177/2/3
f 182/2/3 178/2/3 181/2/3
f 187/2/3 184/2/3 183/2/3
f 188/2/3 184/2/3 187/2/3
f 189/2/3 186/2/3 185/2/3
f 190/2/3 186/2/3 189/2/3
f 193/2/3 192/2/3 191/2/3
f 194/2/3 192/2/3 193/2/3
f 197/4/3 196/4/3 195/4/3
f 198/4/3 196/4/3 197/4/3
f 202/2/3 200/2/3 199/2/3
f 203/1/3 201/1/3 200/1/3
f 203/2/3 200/2/3 202/2/3
f 204/1/3 201/1/3 203/1/3
f 208/2/3 206/2/3 205/2/3
f 209/1/3 207/1/3 206/1/3
f 209/2/3 206/2/3 208/2/3
f 210/1/3 207/1/3 209/1/3
f 213/2/3 212/2/3 211/2/3
f 214/2/3 212/2/3 213/2/3
f 215/1/4 216/1/4 217/1/4
f 217/1/4 216/1/4 218/1/4
f 219/2/4 220/2/4 223/2/4
f 223/2/4 220/2/4 224/2/4
f 221/2/4 222/2/4 225/2/4
f 225/2/4 222/2/4 226/2/4
f 227/2/4 228/2/4 229/2/4
f 229/2/4 228/2/4 230/2/4
f 231/2/4 232/2/4 234/2/4
f 232/1/4 233/1/4 235/1/4
f 234/2/4 232/2/4 235/2/4
f 235/1/4 233/1/4 236/1/4
f 237/1/4 238/1/4 239/1/4
f 239/1/4 238/1/4 240/1/4
f 241/2/4 242/2/4 243/2/4
f 243/2/4 242/2/4 244/2/4
f 245/2/4 246/2/4 247/2/4
f 247/2/4 246/2/4 248/2/4
f 249/2/4 250/2/4 257/2/4
f 257/2/4 250/2/4 258/2/4
f 251/2/4 252/2/4 259/2/4
f 259/2/4 252/2/4 260/2/4
f 253/1/4 254/1/4 261/1/4
f 261/1/4 254/1/4 262/1/4
f 255/1/4 256/1/4 263/1/4
f 263/1/4 256/1/4 264/1/4
f 265/2/4 266/2/4 271/2/4
f 271/2/4 266/2/4 272/2/4
f 267/1/4 268/1/4 273/1/4
f 273/1/4 268/1/4 274/1/4
f 269/1/4 270/1/4 275/1/4
f 275/1/4 270/1/4 276/1/4
f 279/1/5 278/1/5 277/1/5
f 280/1/5 278/1/5 279/1/5
f 283/2/5 282/2/5 281/2/5
f 284/2/5 282/2/5 283/2/5
f 287/2/5 286/2/5 285/2/5
f 288/2/5 286/2/5 287/2/5
f 291/2/5 290/2/5 289/2/5
f 292/2/5 290/2/5 291/2/5
f 295/2/5 294/2/5 293/2/5
f 296/2/5 294/2/5 295/2/5
f 299/4/5 298/4/5 297/4/5
f 300/4/5 298/4/5 299/4/5
f 301/2/5 300/2/5 299/2/5
f 302/2/5 300/2/5 301/2/5
f 305/2/5 304/2/5 303/2/5
f 306/2/5 304/2/5 305/2/5
f 309/2/5 308/2/5 307/2/5
f 310/2/5 308/2/5 309/2/5
f 313/2/5 312/2/5 311/2/5
f 314/2/5 312/2/5 313/2/5
f 317/1/5 316/1/5 315/1/5
f 318/1/5 316/1/5 317/1/5
f 321/1/5 320/1/5 319/1/5
f 322/1/5 320/1/5 321/1/5
f 325/1/5 324/1/5 323/1/5
f 326/1/5 324/1/5 325/1/5
f 327/1/6 328/1/6 329/1/6
f 329/1/6 328/1/6 330/1/6
f 331/2/6 332/2/6 333/2/6
f 333/2/6 332/2/6 334/2/6
f 335/2/6 336/2/6 337/2/6
f 337/2/6 336/2/6 338/2/6
f 339/2/6 340/2/6 341/2/6
f 341/2/6 340/2/6 342/2/6
f 343/2/6 344/2/6 345/2/6
f 345/2/6 344/2/6 346/2/6
f 345/1/6 346/1/6 347/1/6
f 347/1/6 346/1/6 348/1/6
f 347/2/6 348/2/6 349/2/6
f 349/2/6 348/2/6 350/2/6
f 351/4/6 352/4/6 353/4/6
f 353/4/6 352/4/6 354/4/6
f 355/1/6 356/1/6 357/1/6
f 357/1/6 356/1/6 358/1/6
f 359/4/6 360/4/6 361/4/6
f 361/4/6 360/4/6 362/4/6
f 363/1/6 364/1/6 365/1/6
f 365/1/6 364/1/6 366/1/6
f 367/1/6 368/1/6 369/1/6
f 369/1/6 368/1/6 370/1/6
f 371/1/6 372/1/6 373/1/6
f 373/1/6 372/1/6 374/1/6
f 375/1/6 376/1/6 377/1/6
f 377/1/6 376/1/6 378/1/6
