# MagicaVoxel @ Ephtracy

# group
o 

# material
mtllib Climb2.mtl
usemtl palette

# normals
vn 0 0 1
vn 0 0 -1
vn 1 0 0
vn -1 0 0
vn 0 -1 0
vn 0 1 0

# texcoords
vt 0.970703 0.5
vt 0.974609 0.5
vt 0.978516 0.5

# verts
v -0.8 0 0.1
v -1 0 0.1
v 0 0.1 0.1
v -0.2 0.1 0.1
v -0.8 0.1 0.1
v -0.9 0.1 0.1
v -1 0.1 0.1
v -1.1 0.1 0.1
v -0.2 0.2 0.1
v -0.3 0.2 0.1
v -0.7 0.2 0.1
v -0.8 0.2 0.1
v -0.9 0.2 0.1
v -1 0.2 0.1
v -0.3 0.3 0.1
v -0.5 0.3 0.1
v -0.6 0.3 0.1
v -0.7 0.3 0.1
v -1 0.3 0.1
v -1.1 0.3 0.1
v 0 0.4 0.1
v -0.2 0.4 0.1
v -0.5 0.4 0.1
v -0.6 0.4 0.1
v -0.9 0.4 0.1
v -1 0.4 0.1
v -0.2 0.5 0.1
v -0.3 0.5 0.1
v -0.4 0.5 0.1
v -0.5 0.5 0.1
v -0.7 0.5 0.1
v -0.8 0.5 0.1
v -0.3 0.6 0.1
v -0.4 0.6 0.1
v -0.5 0.6 0.1
v -0.7 0.6 0.1
v -0.8 0.6 0.1
v -0.9 0.6 0.1
v -0.1 0.7 0.1
v -0.3 0.7 0.1
v -0.4 0.7 0.1
v -0.5 0.7 0.1
v -0.7 0.7 0.1
v -0.8 0.7 0.1
v -0.9 0.7 0.1
v -1.1 0.7 0.1
v 0 0.8 0.1
v -0.1 0.8 0.1
v -0.2 0.8 0.1
v -1 0.8 0.1
v -1.1 0.8 0.1
v -1.2 0.8 0.1
v -0.4 0.9 0.1
v -0.5 0.9 0.1
v -0.7 0.9 0.1
v -0.8 0.9 0.1
v 0 1 0.1
v -0.2 1 0.1
v -0.3 1 0.1
v -0.4 1 0.1
v -0.5 1 0.1
v -0.7 1 0.1
v -0.8 1 0.1
v -0.9 1 0.1
v -1 1 0.1
v -1.2 1 0.1
v -0.2 1.1 0.1
v -0.3 1.1 0.1
v -0.4 1.1 0.1
v -0.5 1.1 0.1
v -0.7 1.1 0.1
v -0.8 1.1 0.1
v -0.9 1.1 0.1
v -1 1.1 0.1
v -0.5 1.2 0.1
v -0.7 1.2 0.1
v -0.2 1.3 0.1
v -0.3 1.3 0.1
v -0.9 1.3 0.1
v -1 1.3 0.1
v -0.1 1.5 0.1
v -0.2 1.5 0.1
v -0.3 1.5 0.1
v -0.9 1.5 0.1
v -1 1.5 0.1
v -1.1 1.5 0.1
v -0.1 1.6 0.1
v -0.2 1.6 0.1
v -0.3 1.6 0.1
v -0.9 1.6 0.1
v -1 1.6 0.1
v -1.1 1.6 0.1
v -0.8 0 0
v -1 0 0
v 0 0.1 0
v -0.2 0.1 0
v -0.8 0.1 0
v -0.9 0.1 0
v -1 0.1 0
v -1.1 0.1 0
v -0.2 0.2 0
v -0.3 0.2 0
v -0.7 0.2 0
v -0.8 0.2 0
v -0.9 0.2 0
v -1 0.2 0
v -0.3 0.3 0
v -0.5 0.3 0
v -0.6 0.3 0
v -0.7 0.3 0
v -1 0.3 0
v -1.1 0.3 0
v 0 0.4 0
v -0.2 0.4 0
v -0.5 0.4 0
v -0.6 0.4 0
v -0.9 0.4 0
v -1 0.4 0
v -0.2 0.5 0
v -0.3 0.5 0
v -0.4 0.5 0
v -0.5 0.5 0
v -0.7 0.5 0
v -0.8 0.5 0
v -0.3 0.6 0
v -0.4 0.6 0
v -0.5 0.6 0
v -0.7 0.6 0
v -0.8 0.6 0
v -0.9 0.6 0
v -0.1 0.7 0
v -0.3 0.7 0
v -0.4 0.7 0
v -0.5 0.7 0
v -0.7 0.7 0
v -0.8 0.7 0
v -0.9 0.7 0
v -1.1 0.7 0
v 0 0.8 0
v -0.1 0.8 0
v -0.2 0.8 0
v -1 0.8 0
v -1.1 0.8 0
v -1.2 0.8 0
v -0.4 0.9 0
v -0.5 0.9 0
v -0.7 0.9 0
v -0.8 0.9 0
v 0 1 0
v -0.2 1 0
v -0.3 1 0
v -0.4 1 0
v -0.5 1 0
v -0.7 1 0
v -0.8 1 0
v -0.9 1 0
v -1 1 0
v -1.2 1 0
v -0.2 1.1 0
v -0.3 1.1 0
v -0.4 1.1 0
v -0.5 1.1 0
v -0.7 1.1 0
v -0.8 1.1 0
v -0.9 1.1 0
v -1 1.1 0
v -0.5 1.2 0
v -0.7 1.2 0
v -0.2 1.3 0
v -0.3 1.3 0
v -0.9 1.3 0
v -1 1.3 0
v -0.1 1.5 0
v -0.2 1.5 0
v -0.3 1.5 0
v -0.9 1.5 0
v -1 1.5 0
v -1.1 1.5 0
v -0.1 1.6 0
v -0.2 1.6 0
v -0.3 1.6 0
v -0.9 1.6 0
v -1 1.6 0
v -1.1 1.6 0
v 0 0.1 0.1
v 0 0.4 0.1
v 0 0.8 0.1
v 0 1 0.1
v 0 0.1 0
v 0 0.4 0
v 0 0.8 0
v 0 1 0
v -0.1 0.7 0.1
v -0.1 0.8 0.1
v -0.1 1.5 0.1
v -0.1 1.6 0.1
v -0.1 0.7 0
v -0.1 0.8 0
v -0.1 1.5 0
v -0.1 1.6 0
v -0.2 0.4 0.1
v -0.2 0.5 0.1
v -0.2 1.1 0.1
v -0.2 1.3 0.1
v -0.2 1.5 0.1
v -0.2 0.4 0
v -0.2 0.5 0
v -0.2 1.1 0
v -0.2 1.3 0
v -0.2 1.5 0
v -0.3 0.5 0.1
v -0.3 0.6 0.1
v -0.3 0.7 0.1
v -0.3 1 0.1
v -0.3 1.1 0.1
v -0.3 1.5 0.1
v -0.3 1.6 0.1
v -0.3 0.5 0
v -0.3 0.6 0
v -0.3 0.7 0
v -0.3 1 0
v -0.3 1.1 0
v -0.3 1.5 0
v -0.3 1.6 0
v -0.6 0.3 0.1
v -0.6 0.4 0.1
v -0.6 0.3 0
v -0.6 0.4 0
v -0.7 0.2 0.1
v -0.7 0.3 0.1
v -0.7 0.2 0
v -0.7 0.3 0
v -0.8 0 0.1
v -0.8 0.1 0.1
v -0.8 0.2 0.1
v -0.8 0 0
v -0.8 0.1 0
v -0.8 0.2 0
v -1 1.5 0.1
v -1 1.6 0.1
v -1 1.5 0
v -1 1.6 0
v -0.2 0.1 0.1
v -0.2 0.2 0.1
v -0.2 1.5 0.1
v -0.2 1.6 0.1
v -0.2 0.1 0
v -0.2 0.2 0
v -0.2 1.5 0
v -0.2 1.6 0
v -0.3 0.2 0.1
v -0.3 0.3 0.1
v -0.3 0.2 0
v -0.3 0.3 0
v -0.5 0.3 0.1
v -0.5 0.4 0.1
v -0.5 0.3 0
v -0.5 0.4 0
v -0.9 0.4 0.1
v -0.9 0.6 0.1
v -0.9 0.7 0.1
v -0.9 1 0.1
v -0.9 1.1 0.1
v -0.9 1.5 0.1
v -0.9 1.6 0.1
v -0.9 0.4 0
v -0.9 0.6 0
v -0.9 0.7 0
v -0.9 1 0
v -0.9 1.1 0
v -0.9 1.5 0
v -0.9 1.6 0
v -1 0 0.1
v -1 0.1 0.1
v -1 0.3 0.1
v -1 0.4 0.1
v -1 1.1 0.1
v -1 1.3 0.1
v -1 1.5 0.1
v -1 0 0
v -1 0.1 0
v -1 0.3 0
v -1 0.4 0
v -1 1.1 0
v -1 1.3 0
v -1 1.5 0
v -1.1 0.1 0.1
v -1.1 0.3 0.1
v -1.1 0.7 0.1
v -1.1 0.8 0.1
v -1.1 1.5 0.1
v -1.1 1.6 0.1
v -1.1 0.1 0
v -1.1 0.3 0
v -1.1 0.7 0
v -1.1 0.8 0
v -1.1 1.5 0
v -1.1 1.6 0
v -1.2 0.8 0.1
v -1.2 1 0.1
v -1.2 0.8 0
v -1.2 1 0
v -0.8 0 0.1
v -0.8 0 0
v -1 0 0.1
v -1 0 0
v 0 0.1 0.1
v 0 0.1 0
v -0.2 0.1 0.1
v -0.2 0.1 0
v -1 0.1 0.1
v -1 0.1 0
v -1.1 0.1 0.1
v -1.1 0.1 0
v -0.2 0.2 0.1
v -0.2 0.2 0
v -0.3 0.2 0.1
v -0.3 0.2 0
v -0.7 0.2 0.1
v -0.7 0.2 0
v -0.8 0.2 0.1
v -0.8 0.2 0
v -0.3 0.3 0.1
v -0.3 0.3 0
v -0.5 0.3 0.1
v -0.5 0.3 0
v -0.6 0.3 0.1
v -0.6 0.3 0
v -0.7 0.3 0.1
v -0.7 0.3 0
v -0.5 0.4 0.1
v -0.5 0.4 0
v -0.6 0.4 0.1
v -0.6 0.4 0
v -0.1 0.7 0.1
v -0.1 0.7 0
v -0.3 0.7 0.1
v -0.3 0.7 0
v -0.9 0.7 0.1
v -0.9 0.7 0
v -1.1 0.7 0.1
v -1.1 0.7 0
v 0 0.8 0.1
v 0 0.8 0
v -0.1 0.8 0.1
v -0.1 0.8 0
v -1.1 0.8 0.1
v -1.1 0.8 0
v -1.2 0.8 0.1
v -1.2 0.8 0
v -0.2 1.1 0.1
v -0.2 1.1 0
v -0.3 1.1 0.1
v -0.3 1.1 0
v -0.9 1.1 0.1
v -0.9 1.1 0
v -1 1.1 0.1
v -1 1.1 0
v -0.1 1.5 0.1
v -0.1 1.5 0
v -0.2 1.5 0.1
v -0.2 1.5 0
v -1 1.5 0.1
v -1 1.5 0
v -1.1 1.5 0.1
v -1.1 1.5 0
v -1 0.3 0.1
v -1 0.3 0
v -1.1 0.3 0.1
v -1.1 0.3 0
v 0 0.4 0.1
v 0 0.4 0
v -0.2 0.4 0.1
v -0.2 0.4 0
v -0.9 0.4 0.1
v -0.9 0.4 0
v -1 0.4 0.1
v -1 0.4 0
v -0.2 0.5 0.1
v -0.2 0.5 0
v -0.3 0.5 0.1
v -0.3 0.5 0
v 0 1 0.1
v 0 1 0
v -0.2 1 0.1
v -0.2 1 0
v -0.3 1 0.1
v -0.3 1 0
v -0.9 1 0.1
v -0.9 1 0
v -1 1 0.1
v -1 1 0
v -1.2 1 0.1
v -1.2 1 0
v -0.2 1.5 0.1
v -0.2 1.5 0
v -0.3 1.5 0.1
v -0.3 1.5 0
v -0.9 1.5 0.1
v -0.9 1.5 0
v -1 1.5 0.1
v -1 1.5 0
v -0.1 1.6 0.1
v -0.1 1.6 0
v -0.2 1.6 0.1
v -0.2 1.6 0
v -0.3 1.6 0.1
v -0.3 1.6 0
v -0.9 1.6 0.1
v -0.9 1.6 0
v -1 1.6 0.1
v -1 1.6 0
v -1.1 1.6 0.1
v -1.1 1.6 0

# faces
f 5/1/1 2/1/1 1/1/1
f 6/1/1 2/1/1 5/1/1
f 7/1/1 2/1/1 6/1/1
f 9/1/1 4/1/1 3/1/1
f 12/2/1 6/2/1 5/2/1
f 13/1/1 8/1/1 7/1/1
f 13/1/1 7/1/1 6/1/1
f 13/2/1 6/2/1 12/2/1
f 14/1/1 8/1/1 13/1/1
f 15/2/1 10/2/1 9/2/1
f 18/2/1 12/2/1 11/2/1
f 18/2/1 13/2/1 12/2/1
f 18/2/1 14/2/1 13/2/1
f 19/1/1 8/1/1 14/1/1
f 19/2/1 14/2/1 18/2/1
f 20/1/1 8/1/1 19/1/1
f 21/1/1 9/1/1 3/1/1
f 22/2/1 16/2/1 15/2/1
f 22/1/1 9/1/1 21/1/1
f 22/2/1 15/2/1 9/2/1
f 23/2/1 16/2/1 22/2/1
f 24/2/1 18/2/1 17/2/1
f 24/2/1 19/2/1 18/2/1
f 25/2/1 19/2/1 24/2/1
f 26/2/1 19/2/1 25/2/1
f 27/2/1 23/2/1 22/2/1
f 27/2/1 25/2/1 24/2/1
f 27/2/1 24/2/1 23/2/1
f 28/2/1 25/2/1 27/2/1
f 29/2/1 25/2/1 28/2/1
f 30/2/1 25/2/1 29/2/1
f 31/2/1 25/2/1 30/2/1
f 32/2/1 25/2/1 31/2/1
f 33/2/1 29/2/1 28/2/1
f 34/3/1 30/3/1 29/3/1
f 34/2/1 29/2/1 33/2/1
f 35/2/1 31/2/1 30/2/1
f 35/3/1 30/3/1 34/3/1
f 36/3/1 32/3/1 31/3/1
f 36/2/1 31/2/1 35/2/1
f 37/2/1 25/2/1 32/2/1
f 37/3/1 32/3/1 36/3/1
f 38/2/1 25/2/1 37/2/1
f 40/1/1 34/1/1 33/1/1
f 41/2/1 35/2/1 34/2/1
f 41/1/1 34/1/1 40/1/1
f 42/1/1 36/1/1 35/1/1
f 42/2/1 35/2/1 41/2/1
f 43/2/1 37/2/1 36/2/1
f 43/1/1 36/1/1 42/1/1
f 44/1/1 38/1/1 37/1/1
f 44/2/1 37/2/1 43/2/1
f 45/1/1 38/1/1 44/1/1
f 48/1/1 41/1/1 40/1/1
f 48/1/1 40/1/1 39/1/1
f 48/1/1 42/1/1 41/1/1
f 49/1/1 42/1/1 48/1/1
f 50/1/1 45/1/1 44/1/1
f 50/1/1 46/1/1 45/1/1
f 50/1/1 44/1/1 43/1/1
f 51/1/1 46/1/1 50/1/1
f 53/1/1 42/1/1 49/1/1
f 54/2/1 43/2/1 42/2/1
f 54/1/1 42/1/1 53/1/1
f 55/1/1 50/1/1 43/1/1
f 55/2/1 43/2/1 54/2/1
f 56/1/1 50/1/1 55/1/1
f 57/3/1 49/3/1 48/3/1
f 57/3/1 48/3/1 47/3/1
f 58/1/1 53/1/1 49/1/1
f 58/3/1 49/3/1 57/3/1
f 59/1/1 53/1/1 58/1/1
f 60/2/1 54/2/1 53/2/1
f 60/1/1 53/1/1 59/1/1
f 61/1/1 55/1/1 54/1/1
f 61/2/1 54/2/1 60/2/1
f 62/2/1 56/2/1 55/2/1
f 62/1/1 55/1/1 61/1/1
f 63/1/1 50/1/1 56/1/1
f 63/2/1 56/2/1 62/2/1
f 64/1/1 50/1/1 63/1/1
f 65/3/1 52/3/1 51/3/1
f 65/1/1 50/1/1 64/1/1
f 65/3/1 51/3/1 50/3/1
f 66/3/1 52/3/1 65/3/1
f 68/2/1 60/2/1 59/2/1
f 69/1/1 63/1/1 62/1/1
f 69/1/1 62/1/1 61/1/1
f 69/2/1 60/2/1 68/2/1
f 69/1/1 61/1/1 60/1/1
f 70/1/1 63/1/1 69/1/1
f 71/1/1 63/1/1 70/1/1
f 72/2/1 64/2/1 63/2/1
f 72/1/1 63/1/1 71/1/1
f 73/2/1 64/2/1 72/2/1
f 75/3/1 71/3/1 70/3/1
f 75/2/1 68/2/1 67/2/1
f 75/2/1 69/2/1 68/2/1
f 75/2/1 70/2/1 69/2/1
f 76/2/1 74/2/1 73/2/1
f 76/3/1 71/3/1 75/3/1
f 76/2/1 73/2/1 72/2/1
f 76/2/1 72/2/1 71/2/1
f 77/2/1 75/2/1 67/2/1
f 77/2/1 76/2/1 75/2/1
f 78/2/1 76/2/1 77/2/1
f 79/2/1 74/2/1 76/2/1
f 79/2/1 76/2/1 78/2/1
f 80/2/1 74/2/1 79/2/1
f 82/1/1 78/1/1 77/1/1
f 83/2/1 79/2/1 78/2/1
f 83/1/1 78/1/1 82/1/1
f 84/1/1 80/1/1 79/1/1
f 84/2/1 79/2/1 83/2/1
f 85/1/1 80/1/1 84/1/1
f 87/1/1 82/1/1 81/1/1
f 88/1/1 82/1/1 87/1/1
f 89/2/1 84/2/1 83/2/1
f 90/2/1 84/2/1 89/2/1
f 91/1/1 86/1/1 85/1/1
f 92/1/1 86/1/1 91/1/1
f 93/1/2 94/1/2 97/1/2
f 97/1/2 94/1/2 98/1/2
f 98/1/2 94/1/2 99/1/2
f 95/1/2 96/1/2 101/1/2
f 97/2/2 98/2/2 104/2/2
f 99/1/2 100/1/2 105/1/2
f 98/1/2 99/1/2 105/1/2
f 104/2/2 98/2/2 105/2/2
f 105/1/2 100/1/2 106/1/2
f 101/2/2 102/2/2 107/2/2
f 103/2/2 104/2/2 110/2/2
f 104/2/2 105/2/2 110/2/2
f 105/2/2 106/2/2 110/2/2
f 106/1/2 100/1/2 111/1/2
f 110/2/2 106/2/2 111/2/2
f 111/1/2 100/1/2 112/1/2
f 95/1/2 101/1/2 113/1/2
f 107/2/2 108/2/2 114/2/2
f 113/1/2 101/1/2 114/1/2
f 101/2/2 107/2/2 114/2/2
f 114/2/2 108/2/2 115/2/2
f 109/2/2 110/2/2 116/2/2
f 110/2/2 111/2/2 116/2/2
f 116/2/2 111/2/2 117/2/2
f 117/2/2 111/2/2 118/2/2
f 114/2/2 115/2/2 119/2/2
f 116/2/2 117/2/2 119/2/2
f 115/2/2 116/2/2 119/2/2
f 119/2/2 117/2/2 120/2/2
f 120/2/2 117/2/2 121/2/2
f 121/2/2 117/2/2 122/2/2
f 122/2/2 117/2/2 123/2/2
f 123/2/2 117/2/2 124/2/2
f 120/2/2 121/2/2 125/2/2
f 121/3/2 122/3/2 126/3/2
f 125/2/2 121/2/2 126/2/2
f 122/2/2 123/2/2 127/2/2
f 126/3/2 122/3/2 127/3/2
f 123/3/2 124/3/2 128/3/2
f 127/2/2 123/2/2 128/2/2
f 124/2/2 117/2/2 129/2/2
f 128/3/2 124/3/2 129/3/2
f 129/2/2 117/2/2 130/2/2
f 125/1/2 126/1/2 132/1/2
f 126/2/2 127/2/2 133/2/2
f 132/1/2 126/1/2 133/1/2
f 127/1/2 128/1/2 134/1/2
f 133/2/2 127/2/2 134/2/2
f 128/2/2 129/2/2 135/2/2
f 134/1/2 128/1/2 135/1/2
f 129/1/2 130/1/2 136/1/2
f 135/2/2 129/2/2 136/2/2
f 136/1/2 130/1/2 137/1/2
f 132/1/2 133/1/2 140/1/2
f 131/1/2 132/1/2 140/1/2
f 133/1/2 134/1/2 140/1/2
f 140/1/2 134/1/2 141/1/2
f 136/1/2 137/1/2 142/1/2
f 137/1/2 138/1/2 142/1/2
f 135/1/2 136/1/2 142/1/2
f 142/1/2 138/1/2 143/1/2
f 141/1/2 134/1/2 145/1/2
f 134/2/2 135/2/2 146/2/2
f 145/1/2 134/1/2 146/1/2
f 135/1/2 142/1/2 147/1/2
f 146/2/2 135/2/2 147/2/2
f 147/1/2 142/1/2 148/1/2
f 140/3/2 141/3/2 149/3/2
f 139/3/2 140/3/2 149/3/2
f 141/1/2 145/1/2 150/1/2
f 149/3/2 141/3/2 150/3/2
f 150/1/2 145/1/2 151/1/2
f 145/2/2 146/2/2 152/2/2
f 151/1/2 145/1/2 152/1/2
f 146/1/2 147/1/2 153/1/2
f 152/2/2 146/2/2 153/2/2
f 147/2/2 148/2/2 154/2/2
f 153/1/2 147/1/2 154/1/2
f 148/1/2 142/1/2 155/1/2
f 154/2/2 148/2/2 155/2/2
f 155/1/2 142/1/2 156/1/2
f 143/3/2 144/3/2 157/3/2
f 156/1/2 142/1/2 157/1/2
f 142/3/2 143/3/2 157/3/2
f 157/3/2 144/3/2 158/3/2
f 151/2/2 152/2/2 160/2/2
f 154/1/2 155/1/2 161/1/2
f 153/1/2 154/1/2 161/1/2
f 160/2/2 152/2/2 161/2/2
f 152/1/2 153/1/2 161/1/2
f 161/1/2 155/1/2 162/1/2
f 162/1/2 155/1/2 163/1/2
f 155/2/2 156/2/2 164/2/2
f 163/1/2 155/1/2 164/1/2
f 164/2/2 156/2/2 165/2/2
f 162/3/2 163/3/2 167/3/2
f 159/2/2 160/2/2 167/2/2
f 160/2/2 161/2/2 167/2/2
f 161/2/2 162/2/2 167/2/2
f 165/2/2 166/2/2 168/2/2
f 167/3/2 163/3/2 168/3/2
f 164/2/2 165/2/2 168/2/2
f 163/2/2 164/2/2 168/2/2
f 159/2/2 167/2/2 169/2/2
f 167/2/2 168/2/2 169/2/2
f 169/2/2 168/2/2 170/2/2
f 168/2/2 166/2/2 171/2/2
f 170/2/2 168/2/2 171/2/2
f 171/2/2 166/2/2 172/2/2
f 169/1/2 170/1/2 174/1/2
f 170/2/2 171/2/2 175/2/2
f 174/1/2 170/1/2 175/1/2
f 171/1/2 172/1/2 176/1/2
f 175/2/2 171/2/2 176/2/2
f 176/1/2 172/1/2 177/1/2
f 173/1/2 174/1/2 179/1/2
f 179/1/2 174/1/2 180/1/2
f 175/2/2 176/2/2 181/2/2
f 181/2/2 176/2/2 182/2/2
f 177/1/2 178/1/2 183/1/2
f 183/1/2 178/1/2 184/1/2
f 189/1/3 186/1/3 185/1/3
f 190/1/3 186/1/3 189/1/3
f 191/3/3 188/3/3 187/3/3
f 192/3/3 188/3/3 191/3/3
f 197/1/3 194/1/3 193/1/3
f 198/1/3 194/1/3 197/1/3
f 199/1/3 196/1/3 195/1/3
f 200/1/3 196/1/3 199/1/3
f 206/2/3 202/2/3 201/2/3
f 207/2/3 202/2/3 206/2/3
f 208/2/3 204/2/3 203/2/3
f 209/1/3 205/1/3 204/1/3
f 209/2/3 204/2/3 208/2/3
f 210/1/3 205/1/3 209/1/3
f 218/2/3 212/2/3 211/2/3
f 219/1/3 213/1/3 212/1/3
f 219/2/3 212/2/3 218/2/3
f 220/1/3 213/1/3 219/1/3
f 221/2/3 215/2/3 214/2/3
f 222/2/3 215/2/3 221/2/3
f 223/2/3 217/2/3 216/2/3
f 224/2/3 217/2/3 223/2/3
f 227/2/3 226/2/3 225/2/3
f 228/2/3 226/2/3 227/2/3
f 231/2/3 230/2/3 229/2/3
f 232/2/3 230/2/3 231/2/3
f 236/1/3 234/1/3 233/1/3
f 237/2/3 235/2/3 234/2/3
f 237/1/3 234/1/3 236/1/3
f 238/2/3 235/2/3 237/2/3
f 241/1/3 240/1/3 239/1/3
f 242/1/3 240/1/3 241/1/3
f 243/1/4 244/1/4 247/1/4
f 247/1/4 244/1/4 248/1/4
f 245/1/4 246/1/4 249/1/4
f 249/1/4 246/1/4 250/1/4
f 251/2/4 252/2/4 253/2/4
f 253/2/4 252/2/4 254/2/4
f 255/2/4 256/2/4 257/2/4
f 257/2/4 256/2/4 258/2/4
f 259/2/4 260/2/4 266/2/4
f 260/1/4 261/1/4 267/1/4
f 266/2/4 260/2/4 267/2/4
f 267/1/4 261/1/4 268/1/4
f 262/2/4 263/2/4 269/2/4
f 269/2/4 263/2/4 270/2/4
f 264/2/4 265/2/4 271/2/4
f 271/2/4 265/2/4 272/2/4
f 273/1/4 274/1/4 280/1/4
f 280/1/4 274/1/4 281/1/4
f 275/2/4 276/2/4 282/2/4
f 282/2/4 276/2/4 283/2/4
f 277/2/4 278/2/4 284/2/4
f 278/1/4 279/1/4 285/1/4
f 284/2/4 278/2/4 285/2/4
f 285/1/4 279/1/4 286/1/4
f 287/1/4 288/1/4 293/1/4
f 293/1/4 288/1/4 294/1/4
f 289/1/4 290/1/4 295/1/4
f 295/1/4 290/1/4 296/1/4
f 291/1/4 292/1/4 297/1/4
f 297/1/4 292/1/4 298/1/4
f 299/3/4 300/3/4 301/3/4
f 301/3/4 300/3/4 302/3/4
f 305/1/5 304/1/5 303/1/5
f 306/1/5 304/1/5 305/1/5
f 309/1/5 308/1/5 307/1/5
f 310/1/5 308/1/5 309/1/5
f 313/1/5 312/1/5 311/1/5
f 314/1/5 312/1/5 313/1/5
f 317/2/5 316/2/5 315/2/5
f 318/2/5 316/2/5 317/2/5
f 321/2/5 320/2/5 319/2/5
f 322/2/5 320/2/5 321/2/5
f 325/2/5 324/2/5 323/2/5
f 326/2/5 324/2/5 325/2/5
f 329/2/5 328/2/5 327/2/5
f 330/2/5 328/2/5 329/2/5
f 333/2/5 332/2/5 331/2/5
f 334/2/5 332/2/5 333/2/5
f 337/1/5 336/1/5 335/1/5
f 338/1/5 336/1/5 337/1/5
f 341/1/5 340/1/5 339/1/5
f 342/1/5 340/1/5 341/1/5
f 345/3/5 344/3/5 343/3/5
f 346/3/5 344/3/5 345/3/5
f 349/3/5 348/3/5 347/3/5
f 350/3/5 348/3/5 349/3/5
f 353/2/5 352/2/5 351/2/5
f 354/2/5 352/2/5 353/2/5
f 357/2/5 356/2/5 355/2/5
f 358/2/5 356/2/5 357/2/5
f 361/1/5 360/1/5 359/1/5
f 362/1/5 360/1/5 361/1/5
f 365/1/5 364/1/5 363/1/5
f 366/1/5 364/1/5 365/1/5
f 367/1/6 368/1/6 369/1/6
f 369/1/6 368/1/6 370/1/6
f 371/1/6 372/1/6 373/1/6
f 373/1/6 372/1/6 374/1/6
f 375/2/6 376/2/6 377/2/6
f 377/2/6 376/2/6 378/2/6
f 379/2/6 380/2/6 381/2/6
f 381/2/6 380/2/6 382/2/6
f 383/3/6 384/3/6 385/3/6
f 385/3/6 384/3/6 386/3/6
f 385/1/6 386/1/6 387/1/6
f 387/1/6 386/1/6 388/1/6
f 389/1/6 390/1/6 391/1/6
f 391/1/6 390/1/6 392/1/6
f 391/3/6 392/3/6 393/3/6
f 393/3/6 392/3/6 394/3/6
f 395/1/6 396/1/6 397/1/6
f 397/1/6 396/1/6 398/1/6
f 399/1/6 400/1/6 401/1/6
f 401/1/6 400/1/6 402/1/6
f 403/1/6 404/1/6 405/1/6
f 405/1/6 404/1/6 406/1/6
f 407/2/6 408/2/6 409/2/6
f 409/2/6 408/2/6 410/2/6
f 411/1/6 412/1/6 413/1/6
f 413/1/6 412/1/6 414/1/6
