# MagicaVoxel @ Ephtracy

# group
o 

# material
mtllib Climb3.mtl
usemtl palette

# normals
vn -1 0 0
vn 1 0 0
vn 0 0 1
vn 0 0 -1
vn 0 -1 0
vn 0 1 0

# texcoords
vt 0.970703 0.5
vt 0.974609 0.5
vt 0.978516 0.5

# verts
v 0.3 0 0.4
v 0.3 0 0.1
v 0.3 0 -0.1
v 0.3 0 -0.4
v 0.3 0.1 0.4
v 0.3 0.1 0.3
v 0.3 0.1 -0.3
v 0.3 0.1 -0.4
v 0.3 0.2 0.3
v 0.3 0.2 0.1
v 0.3 0.2 -0.1
v 0.3 0.2 -0.3
v 0.3 0.3 0.1
v 0.3 0.3 -0.1
v 0.3 0.5 0.2
v 0.3 0.5 0.1
v 0.3 0.5 -0.1
v 0.3 0.5 -0.2
v 0.3 0.6 0.3
v 0.3 0.6 0.2
v 0.3 0.6 0.1
v 0.3 0.6 -0.1
v 0.3 0.6 -0.2
v 0.3 0.6 -0.3
v 0.3 0.7 0.4
v 0.3 0.7 0.3
v 0.3 0.7 0.2
v 0.3 0.7 0.1
v 0.3 0.7 -0.1
v 0.3 0.7 -0.2
v 0.3 0.7 -0.3
v 0.3 0.7 -0.4
v 0.3 0.8 0.6
v 0.3 0.8 0.4
v 0.3 0.8 -0.4
v 0.3 0.8 -0.5
v 0.3 0.9 0.2
v 0.3 0.9 0.1
v 0.3 0.9 -0.1
v 0.3 0.9 -0.2
v 0.3 0.9 -0.5
v 0.3 0.9 -0.6
v 0.3 1 0.6
v 0.3 1 0.4
v 0.3 1 0.3
v 0.3 1 0.2
v 0.3 1 0.1
v 0.3 1 -0.1
v 0.3 1 -0.2
v 0.3 1 -0.3
v 0.3 1 -0.4
v 0.3 1 -0.6
v 0.3 1 -0.7
v 0.3 1.1 0.2
v 0.3 1.1 0.1
v 0.3 1.1 -0.1
v 0.3 1.1 -0.2
v 0.3 1.1 -0.4
v 0.3 1.1 -0.5
v 0.3 1.2 0.4
v 0.3 1.2 0.3
v 0.3 1.2 0.1
v 0.3 1.2 -0.1
v 0.3 1.2 -0.3
v 0.3 1.2 -0.4
v 0.3 1.2 -0.5
v 0.3 1.2 -0.7
v 0.3 1.3 0.4
v 0.3 1.3 0.3
v 0.3 1.3 -0.3
v 0.3 1.3 -0.4
v 0.3 1.4 -0.5
v 0.3 1.4 -0.7
v 0.3 1.5 0.5
v 0.3 1.5 0.4
v 0.3 1.5 0.3
v 0.3 1.5 -0.3
v 0.3 1.5 -0.4
v 0.3 1.5 -0.5
v 0.3 1.6 0.5
v 0.3 1.6 0.4
v 0.3 1.6 0.3
v 0.3 1.6 -0.3
v 0.3 1.6 -0.4
v 0.3 1.6 -0.5
v 0.4 0 0.4
v 0.4 0 0.1
v 0.4 0 -0.1
v 0.4 0 -0.4
v 0.4 0.1 0.4
v 0.4 0.1 0.3
v 0.4 0.1 -0.3
v 0.4 0.1 -0.4
v 0.4 0.2 0.3
v 0.4 0.2 0.1
v 0.4 0.2 -0.1
v 0.4 0.2 -0.3
v 0.4 0.3 0.1
v 0.4 0.3 -0.1
v 0.4 0.5 0.2
v 0.4 0.5 0.1
v 0.4 0.5 -0.1
v 0.4 0.5 -0.2
v 0.4 0.6 0.3
v 0.4 0.6 0.2
v 0.4 0.6 0.1
v 0.4 0.6 -0.1
v 0.4 0.6 -0.2
v 0.4 0.6 -0.3
v 0.4 0.7 0.4
v 0.4 0.7 0.3
v 0.4 0.7 0.2
v 0.4 0.7 0.1
v 0.4 0.7 -0.1
v 0.4 0.7 -0.2
v 0.4 0.7 -0.3
v 0.4 0.7 -0.4
v 0.4 0.8 0.6
v 0.4 0.8 0.4
v 0.4 0.8 -0.4
v 0.4 0.8 -0.5
v 0.4 0.9 0.2
v 0.4 0.9 0.1
v 0.4 0.9 -0.1
v 0.4 0.9 -0.2
v 0.4 0.9 -0.5
v 0.4 0.9 -0.6
v 0.4 1 0.6
v 0.4 1 0.4
v 0.4 1 0.3
v 0.4 1 0.2
v 0.4 1 0.1
v 0.4 1 -0.1
v 0.4 1 -0.2
v 0.4 1 -0.3
v 0.4 1 -0.4
v 0.4 1 -0.6
v 0.4 1 -0.7
v 0.4 1.1 0.2
v 0.4 1.1 0.1
v 0.4 1.1 -0.1
v 0.4 1.1 -0.2
v 0.4 1.1 -0.4
v 0.4 1.1 -0.5
v 0.4 1.2 0.4
v 0.4 1.2 0.3
v 0.4 1.2 0.1
v 0.4 1.2 -0.1
v 0.4 1.2 -0.3
v 0.4 1.2 -0.4
v 0.4 1.2 -0.5
v 0.4 1.2 -0.7
v 0.4 1.3 0.4
v 0.4 1.3 0.3
v 0.4 1.3 -0.3
v 0.4 1.3 -0.4
v 0.4 1.4 -0.5
v 0.4 1.4 -0.7
v 0.4 1.5 0.5
v 0.4 1.5 0.4
v 0.4 1.5 0.3
v 0.4 1.5 -0.3
v 0.4 1.5 -0.4
v 0.4 1.5 -0.5
v 0.4 1.6 0.5
v 0.4 1.6 0.4
v 0.4 1.6 0.3
v 0.4 1.6 -0.3
v 0.4 1.6 -0.4
v 0.4 1.6 -0.5
v 0.3 0.8 0.6
v 0.3 1 0.6
v 0.4 0.8 0.6
v 0.4 1 0.6
v 0.3 1.5 0.5
v 0.3 1.6 0.5
v 0.4 1.5 0.5
v 0.4 1.6 0.5
v 0.3 0 0.4
v 0.3 0.1 0.4
v 0.3 0.7 0.4
v 0.3 0.8 0.4
v 0.3 1.2 0.4
v 0.3 1.3 0.4
v 0.3 1.5 0.4
v 0.4 0 0.4
v 0.4 0.1 0.4
v 0.4 0.7 0.4
v 0.4 0.8 0.4
v 0.4 1.2 0.4
v 0.4 1.3 0.4
v 0.4 1.5 0.4
v 0.3 0.1 0.3
v 0.3 0.2 0.3
v 0.3 0.6 0.3
v 0.3 0.7 0.3
v 0.3 1 0.3
v 0.3 1.2 0.3
v 0.3 1.5 0.3
v 0.3 1.6 0.3
v 0.4 0.1 0.3
v 0.4 0.2 0.3
v 0.4 0.6 0.3
v 0.4 0.7 0.3
v 0.4 1 0.3
v 0.4 1.2 0.3
v 0.4 1.5 0.3
v 0.4 1.6 0.3
v 0.3 0 -0.1
v 0.3 0.2 -0.1
v 0.3 0.3 -0.1
v 0.4 0 -0.1
v 0.4 0.2 -0.1
v 0.4 0.3 -0.1
v 0.3 1 -0.4
v 0.3 1.1 -0.4
v 0.3 1.5 -0.4
v 0.3 1.6 -0.4
v 0.4 1 -0.4
v 0.4 1.1 -0.4
v 0.4 1.5 -0.4
v 0.4 1.6 -0.4
v 0.3 1.1 -0.5
v 0.3 1.2 -0.5
v 0.3 1.4 -0.5
v 0.4 1.1 -0.5
v 0.4 1.2 -0.5
v 0.4 1.4 -0.5
v 0.3 1.5 0.4
v 0.3 1.6 0.4
v 0.4 1.5 0.4
v 0.4 1.6 0.4
v 0.3 0 0.1
v 0.3 0.2 0.1
v 0.3 0.3 0.1
v 0.4 0 0.1
v 0.4 0.2 0.1
v 0.4 0.3 0.1
v 0.3 0.1 -0.3
v 0.3 0.2 -0.3
v 0.3 0.6 -0.3
v 0.3 0.7 -0.3
v 0.3 1 -0.3
v 0.3 1.2 -0.3
v 0.3 1.5 -0.3
v 0.3 1.6 -0.3
v 0.4 0.1 -0.3
v 0.4 0.2 -0.3
v 0.4 0.6 -0.3
v 0.4 0.7 -0.3
v 0.4 1 -0.3
v 0.4 1.2 -0.3
v 0.4 1.5 -0.3
v 0.4 1.6 -0.3
v 0.3 0 -0.4
v 0.3 0.1 -0.4
v 0.3 0.7 -0.4
v 0.3 0.8 -0.4
v 0.3 1.2 -0.4
v 0.3 1.3 -0.4
v 0.3 1.5 -0.4
v 0.4 0 -0.4
v 0.4 0.1 -0.4
v 0.4 0.7 -0.4
v 0.4 0.8 -0.4
v 0.4 1.2 -0.4
v 0.4 1.3 -0.4
v 0.4 1.5 -0.4
v 0.3 0.8 -0.5
v 0.3 0.9 -0.5
v 0.3 1.5 -0.5
v 0.3 1.6 -0.5
v 0.4 0.8 -0.5
v 0.4 0.9 -0.5
v 0.4 1.5 -0.5
v 0.4 1.6 -0.5
v 0.3 0.9 -0.6
v 0.3 1 -0.6
v 0.4 0.9 -0.6
v 0.4 1 -0.6
v 0.3 1 -0.7
v 0.3 1.2 -0.7
v 0.3 1.4 -0.7
v 0.4 1 -0.7
v 0.4 1.2 -0.7
v 0.4 1.4 -0.7
v 0.3 0 0.4
v 0.4 0 0.4
v 0.3 0 0.1
v 0.4 0 0.1
v 0.3 0 -0.1
v 0.4 0 -0.1
v 0.3 0 -0.4
v 0.4 0 -0.4
v 0.3 0.3 0.1
v 0.4 0.3 0.1
v 0.3 0.3 -0.1
v 0.4 0.3 -0.1
v 0.3 0.7 0.4
v 0.4 0.7 0.4
v 0.3 0.7 0.3
v 0.4 0.7 0.3
v 0.3 0.7 -0.3
v 0.4 0.7 -0.3
v 0.3 0.7 -0.4
v 0.4 0.7 -0.4
v 0.3 0.8 0.6
v 0.4 0.8 0.6
v 0.3 0.8 0.4
v 0.4 0.8 0.4
v 0.3 0.8 -0.4
v 0.4 0.8 -0.4
v 0.3 0.8 -0.5
v 0.4 0.8 -0.5
v 0.3 0.9 -0.5
v 0.4 0.9 -0.5
v 0.3 0.9 -0.6
v 0.4 0.9 -0.6
v 0.3 1 -0.6
v 0.4 1 -0.6
v 0.3 1 -0.7
v 0.4 1 -0.7
v 0.3 1.2 0.4
v 0.4 1.2 0.4
v 0.3 1.2 0.3
v 0.4 1.2 0.3
v 0.3 1.2 -0.3
v 0.4 1.2 -0.3
v 0.3 1.2 -0.4
v 0.4 1.2 -0.4
v 0.3 1.5 0.5
v 0.4 1.5 0.5
v 0.3 1.5 0.4
v 0.4 1.5 0.4
v 0.3 1.5 -0.4
v 0.4 1.5 -0.4
v 0.3 1.5 -0.5
v 0.4 1.5 -0.5
v 0.3 0.1 0.4
v 0.4 0.1 0.4
v 0.3 0.1 0.3
v 0.4 0.1 0.3
v 0.3 0.1 -0.3
v 0.4 0.1 -0.3
v 0.3 0.1 -0.4
v 0.4 0.1 -0.4
v 0.3 1 0.6
v 0.4 1 0.6
v 0.3 1 0.4
v 0.4 1 0.4
v 0.3 1 0.3
v 0.4 1 0.3
v 0.3 1 -0.3
v 0.4 1 -0.3
v 0.3 1 -0.4
v 0.4 1 -0.4
v 0.3 1.1 -0.4
v 0.4 1.1 -0.4
v 0.3 1.1 -0.5
v 0.4 1.1 -0.5
v 0.3 1.4 -0.5
v 0.4 1.4 -0.5
v 0.3 1.4 -0.7
v 0.4 1.4 -0.7
v 0.3 1.5 0.4
v 0.4 1.5 0.4
v 0.3 1.5 0.3
v 0.4 1.5 0.3
v 0.3 1.5 -0.3
v 0.4 1.5 -0.3
v 0.3 1.5 -0.4
v 0.4 1.5 -0.4
v 0.3 1.6 0.5
v 0.4 1.6 0.5
v 0.3 1.6 0.4
v 0.4 1.6 0.4
v 0.3 1.6 0.3
v 0.4 1.6 0.3
v 0.3 1.6 -0.3
v 0.4 1.6 -0.3
v 0.3 1.6 -0.4
v 0.4 1.6 -0.4
v 0.3 1.6 -0.5
v 0.4 1.6 -0.5

# faces
f 5/1/1 2/1/1 1/1/1
f 6/1/1 2/1/1 5/1/1
f 7/1/1 4/1/1 3/1/1
f 8/1/1 4/1/1 7/1/1
f 9/1/1 2/1/1 6/1/1
f 10/1/1 2/1/1 9/1/1
f 11/1/1 7/1/1 3/1/1
f 12/1/1 7/1/1 11/1/1
f 13/2/1 10/2/1 9/2/1
f 14/2/1 12/2/1 11/2/1
f 15/2/1 13/2/1 9/2/1
f 15/2/1 14/2/1 13/2/1
f 16/2/1 14/2/1 15/2/1
f 17/2/1 12/2/1 14/2/1
f 17/2/1 14/2/1 16/2/1
f 18/2/1 12/2/1 17/2/1
f 19/2/1 15/2/1 9/2/1
f 20/3/1 16/3/1 15/3/1
f 20/2/1 15/2/1 19/2/1
f 21/2/1 17/2/1 16/2/1
f 21/3/1 16/3/1 20/3/1
f 22/3/1 18/3/1 17/3/1
f 22/2/1 17/2/1 21/2/1
f 23/2/1 12/2/1 18/2/1
f 23/3/1 18/3/1 22/3/1
f 24/2/1 12/2/1 23/2/1
f 26/1/1 20/1/1 19/1/1
f 27/2/1 21/2/1 20/2/1
f 27/1/1 20/1/1 26/1/1
f 28/1/1 22/1/1 21/1/1
f 28/2/1 21/2/1 27/2/1
f 29/2/1 23/2/1 22/2/1
f 29/1/1 22/1/1 28/1/1
f 30/1/1 24/1/1 23/1/1
f 30/2/1 23/2/1 29/2/1
f 31/1/1 24/1/1 30/1/1
f 34/1/1 27/1/1 26/1/1
f 34/1/1 26/1/1 25/1/1
f 34/1/1 28/1/1 27/1/1
f 35/1/1 31/1/1 30/1/1
f 35/1/1 32/1/1 31/1/1
f 35/1/1 30/1/1 29/1/1
f 37/1/1 28/1/1 34/1/1
f 38/2/1 29/2/1 28/2/1
f 38/1/1 28/1/1 37/1/1
f 39/1/1 35/1/1 29/1/1
f 39/2/1 29/2/1 38/2/1
f 39/1/1 36/1/1 35/1/1
f 40/1/1 36/1/1 39/1/1
f 41/1/1 36/1/1 40/1/1
f 43/3/1 34/3/1 33/3/1
f 44/1/1 37/1/1 34/1/1
f 44/3/1 34/3/1 43/3/1
f 45/1/1 37/1/1 44/1/1
f 46/2/1 38/2/1 37/2/1
f 46/1/1 37/1/1 45/1/1
f 47/1/1 39/1/1 38/1/1
f 47/2/1 38/2/1 46/2/1
f 48/2/1 40/2/1 39/2/1
f 48/1/1 39/1/1 47/1/1
f 49/1/1 42/1/1 41/1/1
f 49/2/1 40/2/1 48/2/1
f 49/1/1 41/1/1 40/1/1
f 50/1/1 42/1/1 49/1/1
f 51/1/1 42/1/1 50/1/1
f 52/1/1 42/1/1 51/1/1
f 54/1/1 48/1/1 47/1/1
f 54/2/1 46/2/1 45/2/1
f 54/1/1 47/1/1 46/1/1
f 54/1/1 49/1/1 48/1/1
f 55/1/1 49/1/1 54/1/1
f 56/1/1 49/1/1 55/1/1
f 57/2/1 50/2/1 49/2/1
f 57/1/1 49/1/1 56/1/1
f 58/1/1 53/1/1 52/1/1
f 58/1/1 52/1/1 51/1/1
f 59/1/1 53/1/1 58/1/1
f 61/2/1 54/2/1 45/2/1
f 61/2/1 55/2/1 54/2/1
f 62/3/1 56/3/1 55/3/1
f 62/2/1 55/2/1 61/2/1
f 63/2/1 57/2/1 56/2/1
f 63/3/1 56/3/1 62/3/1
f 64/2/1 50/2/1 57/2/1
f 64/2/1 57/2/1 63/2/1
f 66/1/1 53/1/1 59/1/1
f 67/1/1 53/1/1 66/1/1
f 68/2/1 63/2/1 62/2/1
f 68/2/1 62/2/1 61/2/1
f 68/2/1 61/2/1 60/2/1
f 68/2/1 65/2/1 64/2/1
f 68/2/1 64/2/1 63/2/1
f 69/2/1 65/2/1 68/2/1
f 70/2/1 65/2/1 69/2/1
f 71/2/1 65/2/1 70/2/1
f 72/3/1 67/3/1 66/3/1
f 73/3/1 67/3/1 72/3/1
f 75/1/1 69/1/1 68/1/1
f 76/2/1 70/2/1 69/2/1
f 76/1/1 69/1/1 75/1/1
f 77/1/1 71/1/1 70/1/1
f 77/2/1 70/2/1 76/2/1
f 78/1/1 71/1/1 77/1/1
f 80/1/1 75/1/1 74/1/1
f 81/1/1 75/1/1 80/1/1
f 82/2/1 77/2/1 76/2/1
f 83/2/1 77/2/1 82/2/1
f 84/1/1 79/1/1 78/1/1
f 85/1/1 79/1/1 84/1/1
f 86/1/2 87/1/2 90/1/2
f 90/1/2 87/1/2 91/1/2
f 88/1/2 89/1/2 92/1/2
f 92/1/2 89/1/2 93/1/2
f 91/1/2 87/1/2 94/1/2
f 94/1/2 87/1/2 95/1/2
f 88/1/2 92/1/2 96/1/2
f 96/1/2 92/1/2 97/1/2
f 94/2/2 95/2/2 98/2/2
f 96/2/2 97/2/2 99/2/2
f 94/2/2 98/2/2 100/2/2
f 98/2/2 99/2/2 100/2/2
f 100/2/2 99/2/2 101/2/2
f 99/2/2 97/2/2 102/2/2
f 101/2/2 99/2/2 102/2/2
f 102/2/2 97/2/2 103/2/2
f 94/2/2 100/2/2 104/2/2
f 100/3/2 101/3/2 105/3/2
f 104/2/2 100/2/2 105/2/2
f 101/2/2 102/2/2 106/2/2
f 105/3/2 101/3/2 106/3/2
f 102/3/2 103/3/2 107/3/2
f 106/2/2 102/2/2 107/2/2
f 103/2/2 97/2/2 108/2/2
f 107/3/2 103/3/2 108/3/2
f 108/2/2 97/2/2 109/2/2
f 104/1/2 105/1/2 111/1/2
f 105/2/2 106/2/2 112/2/2
f 111/1/2 105/1/2 112/1/2
f 106/1/2 107/1/2 113/1/2
f 112/2/2 106/2/2 113/2/2
f 107/2/2 108/2/2 114/2/2
f 113/1/2 107/1/2 114/1/2
f 108/1/2 109/1/2 115/1/2
f 114/2/2 108/2/2 115/2/2
f 115/1/2 109/1/2 116/1/2
f 111/1/2 112/1/2 119/1/2
f 110/1/2 111/1/2 119/1/2
f 112/1/2 113/1/2 119/1/2
f 115/1/2 116/1/2 120/1/2
f 116/1/2 117/1/2 120/1/2
f 114/1/2 115/1/2 120/1/2
f 119/1/2 113/1/2 122/1/2
f 113/2/2 114/2/2 123/2/2
f 122/1/2 113/1/2 123/1/2
f 114/1/2 120/1/2 124/1/2
f 123/2/2 114/2/2 124/2/2
f 120/1/2 121/1/2 124/1/2
f 124/1/2 121/1/2 125/1/2
f 125/1/2 121/1/2 126/1/2
f 118/3/2 119/3/2 128/3/2
f 119/1/2 122/1/2 129/1/2
f 128/3/2 119/3/2 129/3/2
f 129/1/2 122/1/2 130/1/2
f 122/2/2 123/2/2 131/2/2
f 130/1/2 122/1/2 131/1/2
f 123/1/2 124/1/2 132/1/2
f 131/2/2 123/2/2 132/2/2
f 124/2/2 125/2/2 133/2/2
f 132/1/2 124/1/2 133/1/2
f 126/1/2 127/1/2 134/1/2
f 133/2/2 125/2/2 134/2/2
f 125/1/2 126/1/2 134/1/2
f 134/1/2 127/1/2 135/1/2
f 135/1/2 127/1/2 136/1/2
f 136/1/2 127/1/2 137/1/2
f 132/1/2 133/1/2 139/1/2
f 130/2/2 131/2/2 139/2/2
f 131/1/2 132/1/2 139/1/2
f 133/1/2 134/1/2 139/1/2
f 139/1/2 134/1/2 140/1/2
f 140/1/2 134/1/2 141/1/2
f 134/2/2 135/2/2 142/2/2
f 141/1/2 134/1/2 142/1/2
f 137/1/2 138/1/2 143/1/2
f 136/1/2 137/1/2 143/1/2
f 143/1/2 138/1/2 144/1/2
f 130/2/2 139/2/2 146/2/2
f 139/2/2 140/2/2 146/2/2
f 140/3/2 141/3/2 147/3/2
f 146/2/2 140/2/2 147/2/2
f 141/2/2 142/2/2 148/2/2
f 147/3/2 141/3/2 148/3/2
f 142/2/2 135/2/2 149/2/2
f 148/2/2 142/2/2 149/2/2
f 144/1/2 138/1/2 151/1/2
f 151/1/2 138/1/2 152/1/2
f 147/2/2 148/2/2 153/2/2
f 146/2/2 147/2/2 153/2/2
f 145/2/2 146/2/2 153/2/2
f 149/2/2 150/2/2 153/2/2
f 148/2/2 149/2/2 153/2/2
f 153/2/2 150/2/2 154/2/2
f 154/2/2 150/2/2 155/2/2
f 155/2/2 150/2/2 156/2/2
f 151/3/2 152/3/2 157/3/2
f 157/3/2 152/3/2 158/3/2
f 153/1/2 154/1/2 160/1/2
f 154/2/2 155/2/2 161/2/2
f 160/1/2 154/1/2 161/1/2
f 155/1/2 156/1/2 162/1/2
f 161/2/2 155/2/2 162/2/2
f 162/1/2 156/1/2 163/1/2
f 159/1/2 160/1/2 165/1/2
f 165/1/2 160/1/2 166/1/2
f 161/2/2 162/2/2 167/2/2
f 167/2/2 162/2/2 168/2/2
f 163/1/2 164/1/2 169/1/2
f 169/1/2 164/1/2 170/1/2
f 173/3/3 172/3/3 171/3/3
f 174/3/3 172/3/3 173/3/3
f 177/1/3 176/1/3 175/1/3
f 178/1/3 176/1/3 177/1/3
f 186/1/3 180/1/3 179/1/3
f 187/1/3 180/1/3 186/1/3
f 188/1/3 182/1/3 181/1/3
f 189/1/3 182/1/3 188/1/3
f 190/2/3 184/2/3 183/2/3
f 191/1/3 185/1/3 184/1/3
f 191/2/3 184/2/3 190/2/3
f 192/1/3 185/1/3 191/1/3
f 201/1/3 194/1/3 193/1/3
f 202/2/3 195/2/3 194/2/3
f 202/1/3 194/1/3 201/1/3
f 203/1/3 196/1/3 195/1/3
f 203/2/3 195/2/3 202/2/3
f 204/1/3 196/1/3 203/1/3
f 205/2/3 198/2/3 197/2/3
f 206/2/3 198/2/3 205/2/3
f 207/2/3 200/2/3 199/2/3
f 208/2/3 200/2/3 207/2/3
f 212/1/3 210/1/3 209/1/3
f 213/2/3 211/2/3 210/2/3
f 213/1/3 210/1/3 212/1/3
f 214/2/3 211/2/3 213/2/3
f 219/1/3 216/1/3 215/1/3
f 220/1/3 216/1/3 219/1/3
f 221/1/3 218/1/3 217/1/3
f 222/1/3 218/1/3 221/1/3
f 226/1/3 224/1/3 223/1/3
f 227/3/3 225/3/3 224/3/3
f 227/1/3 224/1/3 226/1/3
f 228/3/3 225/3/3 227/3/3
f 229/1/4 230/1/4 231/1/4
f 231/1/4 230/1/4 232/1/4
f 233/1/4 234/1/4 236/1/4
f 234/2/4 235/2/4 237/2/4
f 236/1/4 234/1/4 237/1/4
f 237/2/4 235/2/4 238/2/4
f 239/1/4 240/1/4 247/1/4
f 240/2/4 241/2/4 248/2/4
f 247/1/4 240/1/4 248/1/4
f 241/1/4 242/1/4 249/1/4
f 248/2/4 241/2/4 249/2/4
f 249/1/4 242/1/4 250/1/4
f 243/2/4 244/2/4 251/2/4
f 251/2/4 244/2/4 252/2/4
f 245/2/4 246/2/4 253/2/4
f 253/2/4 246/2/4 254/2/4
f 255/1/4 256/1/4 262/1/4
f 262/1/4 256/1/4 263/1/4
f 257/1/4 258/1/4 264/1/4
f 264/1/4 258/1/4 265/1/4
f 259/2/4 260/2/4 266/2/4
f 260/1/4 261/1/4 267/1/4
f 266/2/4 260/2/4 267/2/4
f 267/1/4 261/1/4 268/1/4
f 269/1/4 270/1/4 273/1/4
f 273/1/4 270/1/4 274/1/4
f 271/1/4 272/1/4 275/1/4
f 275/1/4 272/1/4 276/1/4
f 277/1/4 278/1/4 279/1/4
f 279/1/4 278/1/4 280/1/4
f 281/1/4 282/1/4 284/1/4
f 282/3/4 283/3/4 285/3/4
f 284/1/4 282/1/4 285/1/4
f 285/3/4 283/3/4 286/3/4
f 289/1/5 288/1/5 287/1/5
f 290/1/5 288/1/5 289/1/5
f 293/1/5 292/1/5 291/1/5
f 294/1/5 292/1/5 293/1/5
f 297/2/5 296/2/5 295/2/5
f 298/2/5 296/2/5 297/2/5
f 301/1/5 300/1/5 299/1/5
f 302/1/5 300/1/5 301/1/5
f 305/1/5 304/1/5 303/1/5
f 306/1/5 304/1/5 305/1/5
f 309/3/5 308/3/5 307/3/5
f 310/3/5 308/3/5 309/3/5
f 313/1/5 312/1/5 311/1/5
f 314/1/5 312/1/5 313/1/5
f 317/1/5 316/1/5 315/1/5
f 318/1/5 316/1/5 317/1/5
f 321/1/5 320/1/5 319/1/5
f 322/1/5 320/1/5 321/1/5
f 325/2/5 324/2/5 323/2/5
f 326/2/5 324/2/5 325/2/5
f 329/2/5 328/2/5 327/2/5
f 330/2/5 328/2/5 329/2/5
f 333/1/5 332/1/5 331/1/5
f 334/1/5 332/1/5 333/1/5
f 337/1/5 336/1/5 335/1/5
f 338/1/5 336/1/5 337/1/5
f 339/1/6 340/1/6 341/1/6
f 341/1/6 340/1/6 342/1/6
f 343/1/6 344/1/6 345/1/6
f 345/1/6 344/1/6 346/1/6
f 347/3/6 348/3/6 349/3/6
f 349/3/6 348/3/6 350/3/6
f 349/1/6 350/1/6 351/1/6
f 351/1/6 350/1/6 352/1/6
f 353/1/6 354/1/6 355/1/6
f 355/1/6 354/1/6 356/1/6
f 357/1/6 358/1/6 359/1/6
f 359/1/6 358/1/6 360/1/6
f 361/3/6 362/3/6 363/3/6
f 363/3/6 362/3/6 364/3/6
f 365/1/6 366/1/6 367/1/6
f 367/1/6 366/1/6 368/1/6
f 369/1/6 370/1/6 371/1/6
f 371/1/6 370/1/6 372/1/6
f 373/1/6 374/1/6 375/1/6
f 375/1/6 374/1/6 376/1/6
f 377/2/6 378/2/6 379/2/6
f 379/2/6 378/2/6 380/2/6
f 381/1/6 382/1/6 383/1/6
f 383/1/6 382/1/6 384/1/6
