# MagicaVoxel @ Ephtracy

# group
o 

# material
mtllib Climb1.mtl
usemtl palette

# normals
vn 0 0 1
vn 0 0 -1
vn 1 0 0
vn -1 0 0
vn 0 -1 0
vn 0 1 0

# texcoords
vt 0.970703 0.5
vt 0.974609 0.5
vt 0.978516 0.5

# verts
v -0.2 0 0.1
v -0.4 0 0.1
v -0.5 0 0.1
v -0.5 0.1 0.1
v -0.6 0.1 0.1
v -0.9 0.1 0.1
v -1.1 0.1 0.1
v -1.3 0.1 0.1
v -0.6 0.2 0.1
v -0.9 0.2 0.1
v -0.3 0.3 0.1
v -0.4 0.3 0.1
v -0.2 0.4 0.1
v -0.3 0.4 0.1
v -0.5 0.4 0.1
v -0.6 0.4 0.1
v -0.8 0.4 0.1
v -0.9 0.4 0.1
v -1 0.4 0.1
v -1.1 0.4 0.1
v -1.3 0.4 0.1
v -0.4 0.5 0.1
v -0.5 0.5 0.1
v -0.6 0.5 0.1
v -0.8 0.5 0.1
v -0.9 0.5 0.1
v -1 0.5 0.1
v -0.3 0.6 0.1
v -0.4 0.6 0.1
v -0.5 0.6 0.1
v -0.6 0.6 0.1
v -0.8 0.6 0.1
v -0.9 0.6 0.1
v -1 0.6 0.1
v -1.2 0.6 0.1
v -0.2 0.7 0.1
v -0.3 0.7 0.1
v -1.2 0.7 0.1
v -1.3 0.7 0.1
v -0.1 0.8 0.1
v -0.2 0.8 0.1
v -0.5 0.8 0.1
v -0.6 0.8 0.1
v -0.8 0.8 0.1
v -0.9 0.8 0.1
v -1 0.8 0.1
v -1.1 0.8 0.1
v -1.3 0.8 0.1
v 0 0.9 0.1
v -0.1 0.9 0.1
v -0.3 0.9 0.1
v -0.4 0.9 0.1
v -0.5 0.9 0.1
v -0.6 0.9 0.1
v -0.8 0.9 0.1
v -0.9 0.9 0.1
v -1 0.9 0.1
v -0.2 1 0.1
v -0.3 1 0.1
v -0.5 1 0.1
v -0.6 1 0.1
v -0.8 1 0.1
v -0.9 1 0.1
v -1.1 1 0.1
v -1.3 1 0.1
v 0 1.1 0.1
v -0.2 1.1 0.1
v -0.3 1.1 0.1
v -0.4 1.1 0.1
v -0.6 1.1 0.1
v -0.8 1.1 0.1
v -1 1.1 0.1
v -1.1 1.1 0.1
v -0.3 1.2 0.1
v -0.4 1.2 0.1
v -1 1.2 0.1
v -1.1 1.2 0.1
v 0 1.3 0.1
v -0.2 1.3 0.1
v -0.2 1.4 0.1
v -0.3 1.4 0.1
v -0.4 1.4 0.1
v -1 1.4 0.1
v -1.1 1.4 0.1
v -1.2 1.4 0.1
v -0.2 1.5 0.1
v -0.3 1.5 0.1
v -0.4 1.5 0.1
v -1 1.5 0.1
v -1.1 1.5 0.1
v -1.2 1.5 0.1
v -0.2 0 0
v -0.4 0 0
v -0.5 0 0
v -0.5 0.1 0
v -0.6 0.1 0
v -0.9 0.1 0
v -1.1 0.1 0
v -1.3 0.1 0
v -0.6 0.2 0
v -0.9 0.2 0
v -0.3 0.3 0
v -0.4 0.3 0
v -0.2 0.4 0
v -0.3 0.4 0
v -0.5 0.4 0
v -0.6 0.4 0
v -0.8 0.4 0
v -0.9 0.4 0
v -1 0.4 0
v -1.1 0.4 0
v -1.3 0.4 0
v -0.4 0.5 0
v -0.5 0.5 0
v -0.6 0.5 0
v -0.8 0.5 0
v -0.9 0.5 0
v -1 0.5 0
v -0.3 0.6 0
v -0.4 0.6 0
v -0.5 0.6 0
v -0.6 0.6 0
v -0.8 0.6 0
v -0.9 0.6 0
v -1 0.6 0
v -1.2 0.6 0
v -0.2 0.7 0
v -0.3 0.7 0
v -1.2 0.7 0
v -1.3 0.7 0
v -0.1 0.8 0
v -0.2 0.8 0
v -0.5 0.8 0
v -0.6 0.8 0
v -0.8 0.8 0
v -0.9 0.8 0
v -1 0.8 0
v -1.1 0.8 0
v -1.3 0.8 0
v 0 0.9 0
v -0.1 0.9 0
v -0.3 0.9 0
v -0.4 0.9 0
v -0.5 0.9 0
v -0.6 0.9 0
v -0.8 0.9 0
v -0.9 0.9 0
v -1 0.9 0
v -0.2 1 0
v -0.3 1 0
v -0.5 1 0
v -0.6 1 0
v -0.8 1 0
v -0.9 1 0
v -1.1 1 0
v -1.3 1 0
v 0 1.1 0
v -0.2 1.1 0
v -0.3 1.1 0
v -0.4 1.1 0
v -0.6 1.1 0
v -0.8 1.1 0
v -1 1.1 0
v -1.1 1.1 0
v -0.3 1.2 0
v -0.4 1.2 0
v -1 1.2 0
v -1.1 1.2 0
v 0 1.3 0
v -0.2 1.3 0
v -0.2 1.4 0
v -0.3 1.4 0
v -0.4 1.4 0
v -1 1.4 0
v -1.1 1.4 0
v -1.2 1.4 0
v -0.2 1.5 0
v -0.3 1.5 0
v -0.4 1.5 0
v -1 1.5 0
v -1.1 1.5 0
v -1.2 1.5 0
v 0 0.9 0.1
v 0 1.1 0.1
v 0 1.3 0.1
v 0 0.9 0
v 0 1.1 0
v 0 1.3 0
v -0.1 0.8 0.1
v -0.1 0.9 0.1
v -0.1 0.8 0
v -0.1 0.9 0
v -0.2 0 0.1
v -0.2 0.4 0.1
v -0.2 0.7 0.1
v -0.2 0.8 0.1
v -0.2 1.4 0.1
v -0.2 1.5 0.1
v -0.2 0 0
v -0.2 0.4 0
v -0.2 0.7 0
v -0.2 0.8 0
v -0.2 1.4 0
v -0.2 1.5 0
v -0.3 0.6 0.1
v -0.3 0.7 0.1
v -0.3 1.1 0.1
v -0.3 1.2 0.1
v -0.3 1.4 0.1
v -0.3 0.6 0
v -0.3 0.7 0
v -0.3 1.1 0
v -0.3 1.2 0
v -0.3 1.4 0
v -0.4 0.3 0.1
v -0.4 0.5 0.1
v -0.4 0.6 0.1
v -0.4 0.9 0.1
v -0.4 1.1 0.1
v -0.4 1.4 0.1
v -0.4 1.5 0.1
v -0.4 0.3 0
v -0.4 0.5 0
v -0.4 0.6 0
v -0.4 0.9 0
v -0.4 1.1 0
v -0.4 1.4 0
v -0.4 1.5 0
v -0.9 0.1 0.1
v -0.9 0.2 0.1
v -0.9 0.1 0
v -0.9 0.2 0
v -1.1 0.8 0.1
v -1.1 1 0.1
v -1.1 1.4 0.1
v -1.1 1.5 0.1
v -1.1 0.8 0
v -1.1 1 0
v -1.1 1.4 0
v -1.1 1.5 0
v -0.2 1 0.1
v -0.2 1.1 0.1
v -0.2 1.3 0.1
v -0.2 1 0
v -0.2 1.1 0
v -0.2 1.3 0
v -0.3 0.3 0.1
v -0.3 0.4 0.1
v -0.3 0.9 0.1
v -0.3 1 0.1
v -0.3 1.4 0.1
v -0.3 1.5 0.1
v -0.3 0.3 0
v -0.3 0.4 0
v -0.3 0.9 0
v -0.3 1 0
v -0.3 1.4 0
v -0.3 1.5 0
v -0.5 0 0.1
v -0.5 0.1 0.1
v -0.5 0 0
v -0.5 0.1 0
v -0.6 0.1 0.1
v -0.6 0.2 0.1
v -0.6 0.1 0
v -0.6 0.2 0
v -1 0.4 0.1
v -1 0.5 0.1
v -1 0.6 0.1
v -1 0.8 0.1
v -1 0.9 0.1
v -1 1.1 0.1
v -1 1.4 0.1
v -1 1.5 0.1
v -1 0.4 0
v -1 0.5 0
v -1 0.6 0
v -1 0.8 0
v -1 0.9 0
v -1 1.1 0
v -1 1.4 0
v -1 1.5 0
v -1.1 1.1 0.1
v -1.1 1.2 0.1
v -1.1 1.4 0.1
v -1.1 1.1 0
v -1.1 1.2 0
v -1.1 1.4 0
v -1.2 0.6 0.1
v -1.2 0.7 0.1
v -1.2 1.4 0.1
v -1.2 1.5 0.1
v -1.2 0.6 0
v -1.2 0.7 0
v -1.2 1.4 0
v -1.2 1.5 0
v -1.3 0.1 0.1
v -1.3 0.4 0.1
v -1.3 0.7 0.1
v -1.3 0.8 0.1
v -1.3 1 0.1
v -1.3 0.1 0
v -1.3 0.4 0
v -1.3 0.7 0
v -1.3 0.8 0
v -1.3 1 0
v -0.2 0 0.1
v -0.2 0 0
v -0.4 0 0.1
v -0.4 0 0
v -0.5 0 0.1
v -0.5 0 0
v -0.5 0.1 0.1
v -0.5 0.1 0
v -0.6 0.1 0.1
v -0.6 0.1 0
v -0.9 0.1 0.1
v -0.9 0.1 0
v -1.1 0.1 0.1
v -1.1 0.1 0
v -1.3 0.1 0.1
v -1.3 0.1 0
v -0.6 0.2 0.1
v -0.6 0.2 0
v -0.9 0.2 0.1
v -0.9 0.2 0
v -0.3 0.6 0.1
v -0.3 0.6 0
v -0.4 0.6 0.1
v -0.4 0.6 0
v -1 0.6 0.1
v -1 0.6 0
v -1.2 0.6 0.1
v -1.2 0.6 0
v -0.2 0.7 0.1
v -0.2 0.7 0
v -0.3 0.7 0.1
v -0.3 0.7 0
v -1.2 0.7 0.1
v -1.2 0.7 0
v -1.3 0.7 0.1
v -1.3 0.7 0
v -0.1 0.8 0.1
v -0.1 0.8 0
v -0.2 0.8 0.1
v -0.2 0.8 0
v 0 0.9 0.1
v 0 0.9 0
v -0.1 0.9 0.1
v -0.1 0.9 0
v -0.3 1.1 0.1
v -0.3 1.1 0
v -0.4 1.1 0.1
v -0.4 1.1 0
v -1 1.1 0.1
v -1 1.1 0
v -1.1 1.1 0.1
v -1.1 1.1 0
v -0.2 1.4 0.1
v -0.2 1.4 0
v -0.3 1.4 0.1
v -0.3 1.4 0
v -1.1 1.4 0.1
v -1.1 1.4 0
v -1.2 1.4 0.1
v -1.2 1.4 0
v -0.3 0.3 0.1
v -0.3 0.3 0
v -0.4 0.3 0.1
v -0.4 0.3 0
v -0.2 0.4 0.1
v -0.2 0.4 0
v -0.3 0.4 0.1
v -0.3 0.4 0
v -1 0.4 0.1
v -1 0.4 0
v -1.1 0.4 0.1
v -1.1 0.4 0
v -1.3 0.4 0.1
v -1.3 0.4 0
v -1 0.8 0.1
v -1 0.8 0
v -1.1 0.8 0.1
v -1.1 0.8 0
v -0.3 0.9 0.1
v -0.3 0.9 0
v -0.4 0.9 0.1
v -0.4 0.9 0
v -0.2 1 0.1
v -0.2 1 0
v -0.3 1 0.1
v -0.3 1 0
v -1.1 1 0.1
v -1.1 1 0
v -1.3 1 0.1
v -1.3 1 0
v 0 1.3 0.1
v 0 1.3 0
v -0.2 1.3 0.1
v -0.2 1.3 0
v -0.3 1.4 0.1
v -0.3 1.4 0
v -0.4 1.4 0.1
v -0.4 1.4 0
v -1 1.4 0.1
v -1 1.4 0
v -1.1 1.4 0.1
v -1.1 1.4 0
v -0.2 1.5 0.1
v -0.2 1.5 0
v -0.3 1.5 0.1
v -0.3 1.5 0
v -0.4 1.5 0.1
v -0.4 1.5 0
v -1 1.5 0.1
v -1 1.5 0
v -1.1 1.5 0.1
v -1.1 1.5 0
v -1.2 1.5 0.1
v -1.2 1.5 0

# faces
f 4/2/1 3/2/1 2/2/1
f 9/2/1 5/2/1 4/2/1
f 10/2/1 7/2/1 6/2/1
f 11/1/1 2/1/1 1/1/1
f 12/2/1 10/2/1 9/2/1
f 12/1/1 2/1/1 11/1/1
f 12/2/1 4/2/1 2/2/1
f 12/2/1 9/2/1 4/2/1
f 13/1/1 11/1/1 1/1/1
f 14/1/1 11/1/1 13/1/1
f 15/2/1 10/2/1 12/2/1
f 16/2/1 10/2/1 15/2/1
f 17/2/1 10/2/1 16/2/1
f 18/2/1 7/2/1 10/2/1
f 18/2/1 10/2/1 17/2/1
f 19/2/1 7/2/1 18/2/1
f 20/1/1 8/1/1 7/1/1
f 20/2/1 7/2/1 19/2/1
f 21/1/1 8/1/1 20/1/1
f 22/2/1 15/2/1 12/2/1
f 23/3/1 16/3/1 15/3/1
f 23/2/1 15/2/1 22/2/1
f 24/2/1 17/2/1 16/2/1
f 24/3/1 16/3/1 23/3/1
f 25/3/1 18/3/1 17/3/1
f 25/2/1 17/2/1 24/2/1
f 26/2/1 19/2/1 18/2/1
f 26/3/1 18/3/1 25/3/1
f 27/2/1 19/2/1 26/2/1
f 29/1/1 23/1/1 22/1/1
f 30/2/1 24/2/1 23/2/1
f 30/1/1 23/1/1 29/1/1
f 31/1/1 25/1/1 24/1/1
f 31/2/1 24/2/1 30/2/1
f 32/2/1 26/2/1 25/2/1
f 32/1/1 25/1/1 31/1/1
f 33/1/1 27/1/1 26/1/1
f 33/2/1 26/2/1 32/2/1
f 34/1/1 27/1/1 33/1/1
f 37/1/1 30/1/1 29/1/1
f 37/1/1 29/1/1 28/1/1
f 37/1/1 31/1/1 30/1/1
f 38/1/1 34/1/1 33/1/1
f 38/1/1 35/1/1 34/1/1
f 38/1/1 33/1/1 32/1/1
f 41/1/1 37/1/1 36/1/1
f 42/1/1 31/1/1 37/1/1
f 42/1/1 37/1/1 41/1/1
f 43/2/1 32/2/1 31/2/1
f 43/1/1 31/1/1 42/1/1
f 44/1/1 39/1/1 38/1/1
f 44/2/1 32/2/1 43/2/1
f 44/1/1 38/1/1 32/1/1
f 45/1/1 39/1/1 44/1/1
f 46/1/1 39/1/1 45/1/1
f 47/1/1 39/1/1 46/1/1
f 48/1/1 39/1/1 47/1/1
f 50/1/1 41/1/1 40/1/1
f 50/1/1 42/1/1 41/1/1
f 51/1/1 42/1/1 50/1/1
f 52/1/1 42/1/1 51/1/1
f 53/2/1 43/2/1 42/2/1
f 53/1/1 42/1/1 52/1/1
f 54/1/1 44/1/1 43/1/1
f 54/2/1 43/2/1 53/2/1
f 55/2/1 45/2/1 44/2/1
f 55/1/1 44/1/1 54/1/1
f 56/1/1 46/1/1 45/1/1
f 56/2/1 45/2/1 55/2/1
f 57/1/1 46/1/1 56/1/1
f 58/1/1 50/1/1 49/1/1
f 58/1/1 51/1/1 50/1/1
f 59/1/1 51/1/1 58/1/1
f 60/2/1 53/2/1 52/2/1
f 60/1/1 54/1/1 53/1/1
f 60/1/1 55/1/1 54/1/1
f 60/1/1 56/1/1 55/1/1
f 61/1/1 56/1/1 60/1/1
f 62/1/1 56/1/1 61/1/1
f 63/2/1 57/2/1 56/2/1
f 63/1/1 56/1/1 62/1/1
f 64/3/1 48/3/1 47/3/1
f 65/3/1 48/3/1 64/3/1
f 66/1/1 58/1/1 49/1/1
f 67/1/1 58/1/1 66/1/1
f 69/2/1 60/2/1 52/2/1
f 69/2/1 61/2/1 60/2/1
f 70/3/1 62/3/1 61/3/1
f 70/2/1 61/2/1 69/2/1
f 71/2/1 63/2/1 62/2/1
f 71/3/1 62/3/1 70/3/1
f 72/2/1 57/2/1 63/2/1
f 72/2/1 63/2/1 71/2/1
f 74/2/1 71/2/1 70/2/1
f 74/2/1 73/2/1 72/2/1
f 74/2/1 72/2/1 71/2/1
f 74/2/1 70/2/1 69/2/1
f 74/2/1 69/2/1 68/2/1
f 75/2/1 73/2/1 74/2/1
f 76/2/1 73/2/1 75/2/1
f 77/2/1 73/2/1 76/2/1
f 78/3/1 67/3/1 66/3/1
f 79/3/1 67/3/1 78/3/1
f 81/1/1 75/1/1 74/1/1
f 82/2/1 76/2/1 75/2/1
f 82/1/1 75/1/1 81/1/1
f 83/1/1 77/1/1 76/1/1
f 83/2/1 76/2/1 82/2/1
f 84/1/1 77/1/1 83/1/1
f 86/1/1 81/1/1 80/1/1
f 87/1/1 81/1/1 86/1/1
f 88/2/1 83/2/1 82/2/1
f 89/2/1 83/2/1 88/2/1
f 90/1/1 85/1/1 84/1/1
f 91/1/1 85/1/1 90/1/1
f 93/2/2 94/2/2 95/2/2
f 95/2/2 96/2/2 100/2/2
f 97/2/2 98/2/2 101/2/2
f 92/1/2 93/1/2 102/1/2
f 100/2/2 101/2/2 103/2/2
f 102/1/2 93/1/2 103/1/2
f 93/2/2 95/2/2 103/2/2
f 95/2/2 100/2/2 103/2/2
f 92/1/2 102/1/2 104/1/2
f 104/1/2 102/1/2 105/1/2
f 103/2/2 101/2/2 106/2/2
f 106/2/2 101/2/2 107/2/2
f 107/2/2 101/2/2 108/2/2
f 101/2/2 98/2/2 109/2/2
f 108/2/2 101/2/2 109/2/2
f 109/2/2 98/2/2 110/2/2
f 98/1/2 99/1/2 111/1/2
f 110/2/2 98/2/2 111/2/2
f 111/1/2 99/1/2 112/1/2
f 103/2/2 106/2/2 113/2/2
f 106/3/2 107/3/2 114/3/2
f 113/2/2 106/2/2 114/2/2
f 107/2/2 108/2/2 115/2/2
f 114/3/2 107/3/2 115/3/2
f 108/3/2 109/3/2 116/3/2
f 115/2/2 108/2/2 116/2/2
f 109/2/2 110/2/2 117/2/2
f 116/3/2 109/3/2 117/3/2
f 117/2/2 110/2/2 118/2/2
f 113/1/2 114/1/2 120/1/2
f 114/2/2 115/2/2 121/2/2
f 120/1/2 114/1/2 121/1/2
f 115/1/2 116/1/2 122/1/2
f 121/2/2 115/2/2 122/2/2
f 116/2/2 117/2/2 123/2/2
f 122/1/2 116/1/2 123/1/2
f 117/1/2 118/1/2 124/1/2
f 123/2/2 117/2/2 124/2/2
f 124/1/2 118/1/2 125/1/2
f 120/1/2 121/1/2 128/1/2
f 119/1/2 120/1/2 128/1/2
f 121/1/2 122/1/2 128/1/2
f 124/1/2 125/1/2 129/1/2
f 125/1/2 126/1/2 129/1/2
f 123/1/2 124/1/2 129/1/2
f 127/1/2 128/1/2 132/1/2
f 128/1/2 122/1/2 133/1/2
f 132/1/2 128/1/2 133/1/2
f 122/2/2 123/2/2 134/2/2
f 133/1/2 122/1/2 134/1/2
f 129/1/2 130/1/2 135/1/2
f 134/2/2 123/2/2 135/2/2
f 123/1/2 129/1/2 135/1/2
f 135/1/2 130/1/2 136/1/2
f 136/1/2 130/1/2 137/1/2
f 137/1/2 130/1/2 138/1/2
f 138/1/2 130/1/2 139/1/2
f 131/1/2 132/1/2 141/1/2
f 132/1/2 133/1/2 141/1/2
f 141/1/2 133/1/2 142/1/2
f 142/1/2 133/1/2 143/1/2
f 133/2/2 134/2/2 144/2/2
f 143/1/2 133/1/2 144/1/2
f 134/1/2 135/1/2 145/1/2
f 144/2/2 134/2/2 145/2/2
f 135/2/2 136/2/2 146/2/2
f 145/1/2 135/1/2 146/1/2
f 136/1/2 137/1/2 147/1/2
f 146/2/2 136/2/2 147/2/2
f 147/1/2 137/1/2 148/1/2
f 140/1/2 141/1/2 149/1/2
f 141/1/2 142/1/2 149/1/2
f 149/1/2 142/1/2 150/1/2
f 143/2/2 144/2/2 151/2/2
f 144/1/2 145/1/2 151/1/2
f 145/1/2 146/1/2 151/1/2
f 146/1/2 147/1/2 151/1/2
f 151/1/2 147/1/2 152/1/2
f 152/1/2 147/1/2 153/1/2
f 147/2/2 148/2/2 154/2/2
f 153/1/2 147/1/2 154/1/2
f 138/3/2 139/3/2 155/3/2
f 155/3/2 139/3/2 156/3/2
f 140/1/2 149/1/2 157/1/2
f 157/1/2 149/1/2 158/1/2
f 143/2/2 151/2/2 160/2/2
f 151/2/2 152/2/2 160/2/2
f 152/3/2 153/3/2 161/3/2
f 160/2/2 152/2/2 161/2/2
f 153/2/2 154/2/2 162/2/2
f 161/3/2 153/3/2 162/3/2
f 154/2/2 148/2/2 163/2/2
f 162/2/2 154/2/2 163/2/2
f 161/2/2 162/2/2 165/2/2
f 163/2/2 164/2/2 165/2/2
f 162/2/2 163/2/2 165/2/2
f 160/2/2 161/2/2 165/2/2
f 159/2/2 160/2/2 165/2/2
f 165/2/2 164/2/2 166/2/2
f 166/2/2 164/2/2 167/2/2
f 167/2/2 164/2/2 168/2/2
f 157/3/2 158/3/2 169/3/2
f 169/3/2 158/3/2 170/3/2
f 165/1/2 166/1/2 172/1/2
f 166/2/2 167/2/2 173/2/2
f 172/1/2 166/1/2 173/1/2
f 167/1/2 168/1/2 174/1/2
f 173/2/2 167/2/2 174/2/2
f 174/1/2 168/1/2 175/1/2
f 171/1/2 172/1/2 177/1/2
f 177/1/2 172/1/2 178/1/2
f 173/2/2 174/2/2 179/2/2
f 179/2/2 174/2/2 180/2/2
f 175/1/2 176/1/2 181/1/2
f 181/1/2 176/1/2 182/1/2
f 186/1/3 184/1/3 183/1/3
f 187/3/3 185/3/3 184/3/3
f 187/1/3 184/1/3 186/1/3
f 188/3/3 185/3/3 187/3/3
f 191/1/3 190/1/3 189/1/3
f 192/1/3 190/1/3 191/1/3
f 199/1/3 194/1/3 193/1/3
f 200/1/3 194/1/3 199/1/3
f 201/1/3 196/1/3 195/1/3
f 202/1/3 196/1/3 201/1/3
f 203/1/3 198/1/3 197/1/3
f 204/1/3 198/1/3 203/1/3
f 210/1/3 206/1/3 205/1/3
f 211/1/3 206/1/3 210/1/3
f 212/2/3 208/2/3 207/2/3
f 213/1/3 209/1/3 208/1/3
f 213/2/3 208/2/3 212/2/3
f 214/1/3 209/1/3 213/1/3
f 222/2/3 216/2/3 215/2/3
f 223/1/3 217/1/3 216/1/3
f 223/2/3 216/2/3 222/2/3
f 224/1/3 217/1/3 223/1/3
f 225/2/3 219/2/3 218/2/3
f 226/2/3 219/2/3 225/2/3
f 227/2/3 221/2/3 220/2/3
f 228/2/3 221/2/3 227/2/3
f 231/2/3 230/2/3 229/2/3
f 232/2/3 230/2/3 231/2/3
f 237/3/3 234/3/3 233/3/3
f 238/3/3 234/3/3 237/3/3
f 239/1/3 236/1/3 235/1/3
f 240/1/3 236/1/3 239/1/3
f 241/1/4 242/1/4 244/1/4
f 242/3/4 243/3/4 245/3/4
f 244/1/4 242/1/4 245/1/4
f 245/3/4 243/3/4 246/3/4
f 247/1/4 248/1/4 253/1/4
f 253/1/4 248/1/4 254/1/4
f 249/1/4 250/1/4 255/1/4
f 255/1/4 250/1/4 256/1/4
f 251/1/4 252/1/4 257/1/4
f 257/1/4 252/1/4 258/1/4
f 259/2/4 260/2/4 261/2/4
f 261/2/4 260/2/4 262/2/4
f 263/2/4 264/2/4 265/2/4
f 265/2/4 264/2/4 266/2/4
f 267/2/4 268/2/4 275/2/4
f 268/1/4 269/1/4 276/1/4
f 275/2/4 268/2/4 276/2/4
f 276/1/4 269/1/4 277/1/4
f 270/1/4 271/1/4 278/1/4
f 271/2/4 272/2/4 279/2/4
f 278/1/4 271/1/4 279/1/4
f 279/2/4 272/2/4 280/2/4
f 273/2/4 274/2/4 281/2/4
f 281/2/4 274/2/4 282/2/4
f 283/2/4 284/2/4 286/2/4
f 284/1/4 285/1/4 287/1/4
f 286/2/4 284/2/4 287/2/4
f 287/1/4 285/1/4 288/1/4
f 289/1/4 290/1/4 293/1/4
f 293/1/4 290/1/4 294/1/4
f 291/1/4 292/1/4 295/1/4
f 295/1/4 292/1/4 296/1/4
f 297/1/4 298/1/4 302/1/4
f 302/1/4 298/1/4 303/1/4
f 299/1/4 300/1/4 304/1/4
f 300/3/4 301/3/4 305/3/4
f 304/1/4 300/1/4 305/1/4
f 305/3/4 301/3/4 306/3/4
f 309/1/5 308/1/5 307/1/5
f 310/1/5 308/1/5 309/1/5
f 311/2/5 310/2/5 309/2/5
f 312/2/5 310/2/5 311/2/5
f 315/2/5 314/2/5 313/2/5
f 316/2/5 314/2/5 315/2/5
f 319/2/5 318/2/5 317/2/5
f 320/2/5 318/2/5 319/2/5
f 321/1/5 320/1/5 319/1/5
f 322/1/5 320/1/5 321/1/5
f 325/2/5 324/2/5 323/2/5
f 326/2/5 324/2/5 325/2/5
f 329/1/5 328/1/5 327/1/5
f 330/1/5 328/1/5 329/1/5
f 333/1/5 332/1/5 331/1/5
f 334/1/5 332/1/5 333/1/5
f 337/1/5 336/1/5 335/1/5
f 338/1/5 336/1/5 337/1/5
f 341/1/5 340/1/5 339/1/5
f 342/1/5 340/1/5 341/1/5
f 345/1/5 344/1/5 343/1/5
f 346/1/5 344/1/5 345/1/5
f 349/1/5 348/1/5 347/1/5
f 350/1/5 348/1/5 349/1/5
f 353/2/5 352/2/5 351/2/5
f 354/2/5 352/2/5 353/2/5
f 357/2/5 356/2/5 355/2/5
f 358/2/5 356/2/5 357/2/5
f 361/1/5 360/1/5 359/1/5
f 362/1/5 360/1/5 361/1/5
f 365/1/5 364/1/5 363/1/5
f 366/1/5 364/1/5 365/1/5
f 367/1/6 368/1/6 369/1/6
f 369/1/6 368/1/6 370/1/6
f 371/1/6 372/1/6 373/1/6
f 373/1/6 372/1/6 374/1/6
f 375/2/6 376/2/6 377/2/6
f 377/2/6 376/2/6 378/2/6
f 377/1/6 378/1/6 379/1/6
f 379/1/6 378/1/6 380/1/6
f 381/1/6 382/1/6 383/1/6
f 383/1/6 382/1/6 384/1/6
f 385/1/6 386/1/6 387/1/6
f 387/1/6 386/1/6 388/1/6
f 389/1/6 390/1/6 391/1/6
f 391/1/6 390/1/6 392/1/6
f 393/3/6 394/3/6 395/3/6
f 395/3/6 394/3/6 396/3/6
f 397/3/6 398/3/6 399/3/6
f 399/3/6 398/3/6 400/3/6
f 401/1/6 402/1/6 403/1/6
f 403/1/6 402/1/6 404/1/6
f 405/1/6 406/1/6 407/1/6
f 407/1/6 406/1/6 408/1/6
f 409/1/6 410/1/6 411/1/6
f 411/1/6 410/1/6 412/1/6
f 413/2/6 414/2/6 415/2/6
f 415/2/6 414/2/6 416/2/6
f 417/1/6 418/1/6 419/1/6
f 419/1/6 418/1/6 420/1/6
