# MagicaVoxel @ Ephtracy

# group
o 

# material
mtllib Run2.mtl
usemtl palette

# normals
vn 0 0 1
vn 0 0 -1
vn 1 0 0
vn -1 0 0
vn 0 -1 0
vn 0 1 0

# texcoords
vt 0.908203 0.5
vt 0.912109 0.5
vt 0.916016 0.5
vt 0.919922 0.5

# verts
v -0.1 0 0
v -0.4 0 0
v 0.2 0.1 0
v -0.1 0.1 0
v -0.2 0.1 0
v 0.2 0.2 0
v 0.1 0.2 0
v -0.2 0.2 0
v -0.4 0.2 0
v 0.1 0.3 0
v -0.1 0.3 0
v -0.2 0.3 0
v 0.2 0.4 0
v 0.1 0.4 0
v -0.1 0.4 0
v -0.2 0.4 0
v -0.3 0.4 0
v -0.4 0.4 0
v -0.5 0.4 0
v 0.4 0.5 0
v 0.2 0.5 0
v -0.3 0.5 0
v -0.4 0.5 0
v -0.1 0.6 0
v -0.2 0.6 0
v -0.4 0.6 0
v -0.5 0.6 0
v 0.4 0.7 0
v 0.3 0.7 0
v 0.2 0.7 0
v -0.2 0.7 0
v -0.3 0.7 0
v -0.1 0.8 0
v -0.2 0.8 0
v -0.4 0.8 0
v -0.5 0.8 0
v 0.3 0.9 0
v 0.2 0.9 0
v -0.1 0.9 0
v -0.4 0.9 0
v -0.5 0.9 0
v 0.3 1 0
v 0.2 1 0
v -0.2 1 0
v 0.4 1.1 0
v 0.3 1.1 0
v -0.2 1.1 0
v -0.4 1.1 0
v 0.4 1.2 0
v 0.3 1.2 0
v 0.2 1.2 0
v 0.1 1.2 0
v 0 1.2 0
v -0.1 1.2 0
v -0.4 1.2 0
v -0.5 1.2 0
v -0.1 1.3 0
v -0.2 1.3 0
v 0.4 1.4 0
v 0.3 1.4 0
v 0.2 1.4 0
v 0.1 1.4 0
v 0 1.4 0
v -0.2 1.4 0
v -0.4 1.4 0
v -0.5 1.4 0
v 0.4 1.5 0
v 0.3 1.5 0
v -0.3 1.5 0
v -0.4 1.5 0
v -0.5 1.5 0
v -0.6 1.5 0
v 0.3 1.6 0
v -0.3 1.6 0
v -0.4 1.6 0
v -0.5 1.6 0
v -0.6 1.6 0
v -0.1 0 -0.1
v -0.4 0 -0.1
v 0.2 0.1 -0.1
v -0.1 0.1 -0.1
v -0.2 0.1 -0.1
v 0.2 0.2 -0.1
v 0.1 0.2 -0.1
v -0.2 0.2 -0.1
v -0.4 0.2 -0.1
v 0.1 0.3 -0.1
v -0.1 0.3 -0.1
v -0.2 0.3 -0.1
v 0.2 0.4 -0.1
v 0.1 0.4 -0.1
v -0.1 0.4 -0.1
v -0.2 0.4 -0.1
v -0.3 0.4 -0.1
v -0.4 0.4 -0.1
v -0.5 0.4 -0.1
v 0.4 0.5 -0.1
v 0.2 0.5 -0.1
v -0.3 0.5 -0.1
v -0.4 0.5 -0.1
v -0.1 0.6 -0.1
v -0.2 0.6 -0.1
v -0.4 0.6 -0.1
v -0.5 0.6 -0.1
v 0.4 0.7 -0.1
v 0.3 0.7 -0.1
v 0.2 0.7 -0.1
v -0.2 0.7 -0.1
v -0.3 0.7 -0.1
v -0.1 0.8 -0.1
v -0.2 0.8 -0.1
v -0.4 0.8 -0.1
v -0.5 0.8 -0.1
v 0.3 0.9 -0.1
v 0.2 0.9 -0.1
v -0.1 0.9 -0.1
v -0.4 0.9 -0.1
v -0.5 0.9 -0.1
v 0.3 1 -0.1
v 0.2 1 -0.1
v -0.2 1 -0.1
v 0.4 1.1 -0.1
v 0.3 1.1 -0.1
v -0.2 1.1 -0.1
v -0.4 1.1 -0.1
v 0.4 1.2 -0.1
v 0.3 1.2 -0.1
v 0.2 1.2 -0.1
v 0.1 1.2 -0.1
v 0 1.2 -0.1
v -0.1 1.2 -0.1
v -0.4 1.2 -0.1
v -0.5 1.2 -0.1
v -0.1 1.3 -0.1
v -0.2 1.3 -0.1
v 0.4 1.4 -0.1
v 0.3 1.4 -0.1
v 0.2 1.4 -0.1
v 0.1 1.4 -0.1
v 0 1.4 -0.1
v -0.2 1.4 -0.1
v -0.4 1.4 -0.1
v -0.5 1.4 -0.1
v 0.4 1.5 -0.1
v 0.3 1.5 -0.1
v -0.3 1.5 -0.1
v -0.4 1.5 -0.1
v -0.5 1.5 -0.1
v -0.6 1.5 -0.1
v 0.3 1.6 -0.1
v -0.3 1.6 -0.1
v -0.4 1.6 -0.1
v -0.5 1.6 -0.1
v -0.6 1.6 -0.1
v 0.4 0.5 0
v 0.4 0.7 0
v 0.4 1.1 0
v 0.4 1.2 0
v 0.4 1.4 0
v 0.4 1.5 0
v 0.4 0.5 -0.1
v 0.4 0.7 -0.1
v 0.4 1.1 -0.1
v 0.4 1.2 -0.1
v 0.4 1.4 -0.1
v 0.4 1.5 -0.1
v 0.3 0.7 0
v 0.3 0.9 0
v 0.3 1 0
v 0.3 1.1 0
v 0.3 1.5 0
v 0.3 1.6 0
v 0.3 0.7 -0.1
v 0.3 0.9 -0.1
v 0.3 1 -0.1
v 0.3 1.1 -0.1
v 0.3 1.5 -0.1
v 0.3 1.6 -0.1
v 0.2 0.1 0
v 0.2 0.2 0
v 0.2 0.4 0
v 0.2 0.5 0
v 0.2 0.9 0
v 0.2 1 0
v 0.2 0.1 -0.1
v 0.2 0.2 -0.1
v 0.2 0.4 -0.1
v 0.2 0.5 -0.1
v 0.2 0.9 -0.1
v 0.2 1 -0.1
v 0.1 0.2 0
v 0.1 0.3 0
v 0.1 0.4 0
v 0.1 0.2 -0.1
v 0.1 0.3 -0.1
v 0.1 0.4 -0.1
v -0.1 0 0
v -0.1 0.1 0
v -0.1 0 -0.1
v -0.1 0.1 -0.1
v -0.2 0.1 0
v -0.2 0.2 0
v -0.2 0.3 0
v -0.2 0.1 -0.1
v -0.2 0.2 -0.1
v -0.2 0.3 -0.1
v -0.4 1.5 0
v -0.4 1.6 0
v -0.4 1.5 -0.1
v -0.4 1.6 -0.1
v -0.1 0.1 0
v -0.1 0.3 0
v -0.1 0.1 -0.1
v -0.1 0.3 -0.1
v -0.3 1.5 0
v -0.3 1.6 0
v -0.3 1.5 -0.1
v -0.3 1.6 -0.1
v -0.4 0 0
v -0.4 0.2 0
v -0.4 0.4 0
v -0.4 0.9 0
v -0.4 1.1 0
v -0.4 1.2 0
v -0.4 1.4 0
v -0.4 1.5 0
v -0.4 0 -0.1
v -0.4 0.2 -0.1
v -0.4 0.4 -0.1
v -0.4 0.9 -0.1
v -0.4 1.1 -0.1
v -0.4 1.2 -0.1
v -0.4 1.4 -0.1
v -0.4 1.5 -0.1
v -0.5 0.4 0
v -0.5 0.6 0
v -0.5 0.8 0
v -0.5 0.9 0
v -0.5 1.2 0
v -0.5 1.4 0
v -0.5 0.4 -0.1
v -0.5 0.6 -0.1
v -0.5 0.8 -0.1
v -0.5 0.9 -0.1
v -0.5 1.2 -0.1
v -0.5 1.4 -0.1
v -0.6 1.5 0
v -0.6 1.6 0
v -0.6 1.5 -0.1
v -0.6 1.6 -0.1
v -0.1 0 0
v -0.1 0 -0.1
v -0.4 0 0
v -0.4 0 -0.1
v 0.2 0.1 0
v 0.2 0.1 -0.1
v -0.1 0.1 0
v -0.1 0.1 -0.1
v -0.1 0.3 0
v -0.1 0.3 -0.1
v -0.2 0.3 0
v -0.2 0.3 -0.1
v 0.2 0.4 0
v 0.2 0.4 -0.1
v 0.1 0.4 0
v 0.1 0.4 -0.1
v -0.4 0.4 0
v -0.4 0.4 -0.1
v -0.5 0.4 0
v -0.5 0.4 -0.1
v 0.4 0.5 0
v 0.4 0.5 -0.1
v 0.2 0.5 0
v 0.2 0.5 -0.1
v 0.3 1 0
v 0.3 1 -0.1
v 0.2 1 0
v 0.2 1 -0.1
v 0.4 1.1 0
v 0.4 1.1 -0.1
v 0.3 1.1 0
v 0.3 1.1 -0.1
v -0.4 1.2 0
v -0.4 1.2 -0.1
v -0.5 1.2 0
v -0.5 1.2 -0.1
v -0.4 1.5 0
v -0.4 1.5 -0.1
v -0.5 1.5 0
v -0.5 1.5 -0.1
v -0.6 1.5 0
v -0.6 1.5 -0.1
v -0.1 0.1 0
v -0.1 0.1 -0.1
v -0.2 0.1 0
v -0.2 0.1 -0.1
v 0.2 0.2 0
v 0.2 0.2 -0.1
v 0.1 0.2 0
v 0.1 0.2 -0.1
v 0.4 0.7 0
v 0.4 0.7 -0.1
v 0.3 0.7 0
v 0.3 0.7 -0.1
v 0.3 0.9 0
v 0.3 0.9 -0.1
v 0.2 0.9 0
v 0.2 0.9 -0.1
v -0.4 0.9 0
v -0.4 0.9 -0.1
v -0.5 0.9 0
v -0.5 0.9 -0.1
v -0.4 1.4 0
v -0.4 1.4 -0.1
v -0.5 1.4 0
v -0.5 1.4 -0.1
v 0.4 1.5 0
v 0.4 1.5 -0.1
v 0.3 1.5 0
v 0.3 1.5 -0.1
v -0.3 1.5 0
v -0.3 1.5 -0.1
v -0.4 1.5 0
v -0.4 1.5 -0.1
v 0.3 1.6 0
v 0.3 1.6 -0.1
v -0.3 1.6 0
v -0.3 1.6 -0.1
v -0.4 1.6 0
v -0.4 1.6 -0.1
v -0.5 1.6 0
v -0.5 1.6 -0.1
v -0.6 1.6 0
v -0.6 1.6 -0.1

# faces
f 4/1/1 2/1/1 1/1/1
f 5/1/1 2/1/1 4/1/1
f 6/1/1 4/1/1 3/1/1
f 7/1/1 4/1/1 6/1/1
f 8/1/1 2/1/1 5/1/1
f 9/1/1 2/1/1 8/1/1
f 10/1/1 4/1/1 7/1/1
f 11/1/1 4/1/1 10/1/1
f 12/2/1 9/2/1 8/2/1
f 14/2/1 11/2/1 10/2/1
f 15/4/1 12/4/1 11/4/1
f 15/2/1 11/2/1 14/2/1
f 16/2/1 9/2/1 12/2/1
f 16/4/1 12/4/1 15/4/1
f 17/2/1 9/2/1 16/2/1
f 18/2/1 9/2/1 17/2/1
f 21/4/1 14/4/1 13/4/1
f 21/4/1 15/4/1 14/4/1
f 22/4/1 18/4/1 17/4/1
f 22/4/1 19/4/1 18/4/1
f 22/1/1 17/1/1 16/1/1
f 22/1/1 16/1/1 15/1/1
f 23/4/1 19/4/1 22/4/1
f 24/4/1 15/4/1 21/4/1
f 24/1/1 22/1/1 15/1/1
f 25/1/1 22/1/1 24/1/1
f 26/4/1 19/4/1 23/4/1
f 26/2/1 23/2/1 22/2/1
f 27/4/1 19/4/1 26/4/1
f 28/1/1 21/1/1 20/1/1
f 29/1/1 21/1/1 28/1/1
f 30/4/1 25/4/1 24/4/1
f 30/1/1 21/1/1 29/1/1
f 30/4/1 24/4/1 21/4/1
f 31/1/1 22/1/1 25/1/1
f 31/4/1 25/4/1 30/4/1
f 32/2/1 26/2/1 22/2/1
f 32/1/1 22/1/1 31/1/1
f 32/2/1 27/2/1 26/2/1
f 33/4/1 31/4/1 30/4/1
f 34/2/1 32/2/1 31/2/1
f 34/4/1 31/4/1 33/4/1
f 35/2/1 27/2/1 32/2/1
f 35/2/1 32/2/1 34/2/1
f 36/2/1 27/2/1 35/2/1
f 37/2/1 30/2/1 29/2/1
f 38/4/1 33/4/1 30/4/1
f 38/2/1 30/2/1 37/2/1
f 39/2/1 34/2/1 33/2/1
f 39/4/1 33/4/1 38/4/1
f 39/2/1 35/2/1 34/2/1
f 40/4/1 36/4/1 35/4/1
f 40/2/1 35/2/1 39/2/1
f 41/4/1 36/4/1 40/4/1
f 43/4/1 39/4/1 38/4/1
f 43/4/1 40/4/1 39/4/1
f 44/4/1 40/4/1 43/4/1
f 46/2/1 43/2/1 42/2/1
f 46/2/1 44/2/1 43/2/1
f 47/4/1 40/4/1 44/4/1
f 47/2/1 44/2/1 46/2/1
f 48/4/1 40/4/1 47/4/1
f 49/2/1 46/2/1 45/2/1
f 49/2/1 47/2/1 46/2/1
f 49/2/1 48/2/1 47/2/1
f 50/2/1 48/2/1 49/2/1
f 51/2/1 48/2/1 50/2/1
f 52/2/1 48/2/1 51/2/1
f 53/2/1 48/2/1 52/2/1
f 54/2/1 48/2/1 53/2/1
f 55/2/1 48/2/1 54/2/1
f 57/2/1 55/2/1 54/2/1
f 57/2/1 56/2/1 55/2/1
f 57/1/1 54/1/1 53/1/1
f 58/2/1 56/2/1 57/2/1
f 59/1/1 50/1/1 49/1/1
f 60/3/1 51/3/1 50/3/1
f 60/1/1 50/1/1 59/1/1
f 61/1/1 52/1/1 51/1/1
f 61/3/1 51/3/1 60/3/1
f 62/3/1 53/3/1 52/3/1
f 62/1/1 52/1/1 61/1/1
f 63/1/1 57/1/1 53/1/1
f 63/3/1 53/3/1 62/3/1
f 63/1/1 58/1/1 57/1/1
f 64/2/1 56/2/1 58/2/1
f 64/1/1 58/1/1 63/1/1
f 65/2/1 56/2/1 64/2/1
f 66/2/1 56/2/1 65/2/1
f 67/2/1 61/2/1 60/2/1
f 67/2/1 63/2/1 62/2/1
f 67/2/1 65/2/1 64/2/1
f 67/2/1 64/2/1 63/2/1
f 67/2/1 62/2/1 61/2/1
f 67/2/1 60/2/1 59/2/1
f 68/2/1 65/2/1 67/2/1
f 69/2/1 65/2/1 68/2/1
f 70/2/1 65/2/1 69/2/1
f 73/2/1 69/2/1 68/2/1
f 74/2/1 69/2/1 73/2/1
f 75/2/1 71/2/1 70/2/1
f 76/1/1 72/1/1 71/1/1
f 76/2/1 71/2/1 75/2/1
f 77/1/1 72/1/1 76/1/1
f 78/1/2 79/1/2 81/1/2
f 81/1/2 79/1/2 82/1/2
f 80/1/2 81/1/2 83/1/2
f 83/1/2 81/1/2 84/1/2
f 82/1/2 79/1/2 85/1/2
f 85/1/2 79/1/2 86/1/2
f 84/1/2 81/1/2 87/1/2
f 87/1/2 81/1/2 88/1/2
f 85/2/2 86/2/2 89/2/2
f 87/2/2 88/2/2 91/2/2
f 88/4/2 89/4/2 92/4/2
f 91/2/2 88/2/2 92/2/2
f 89/2/2 86/2/2 93/2/2
f 92/4/2 89/4/2 93/4/2
f 93/2/2 86/2/2 94/2/2
f 94/2/2 86/2/2 95/2/2
f 90/4/2 91/4/2 98/4/2
f 91/4/2 92/4/2 98/4/2
f 94/4/2 95/4/2 99/4/2
f 95/4/2 96/4/2 99/4/2
f 93/1/2 94/1/2 99/1/2
f 92/1/2 93/1/2 99/1/2
f 99/4/2 96/4/2 100/4/2
f 98/4/2 92/4/2 101/4/2
f 92/1/2 99/1/2 101/1/2
f 101/1/2 99/1/2 102/1/2
f 100/4/2 96/4/2 103/4/2
f 99/2/2 100/2/2 103/2/2
f 103/4/2 96/4/2 104/4/2
f 97/1/2 98/1/2 105/1/2
f 105/1/2 98/1/2 106/1/2
f 101/4/2 102/4/2 107/4/2
f 106/1/2 98/1/2 107/1/2
f 98/4/2 101/4/2 107/4/2
f 102/1/2 99/1/2 108/1/2
f 107/4/2 102/4/2 108/4/2
f 99/2/2 103/2/2 109/2/2
f 108/1/2 99/1/2 109/1/2
f 103/2/2 104/2/2 109/2/2
f 107/4/2 108/4/2 110/4/2
f 108/2/2 109/2/2 111/2/2
f 110/4/2 108/4/2 111/4/2
f 109/2/2 104/2/2 112/2/2
f 111/2/2 109/2/2 112/2/2
f 112/2/2 104/2/2 113/2/2
f 106/2/2 107/2/2 114/2/2
f 107/4/2 110/4/2 115/4/2
f 114/2/2 107/2/2 115/2/2
f 110/2/2 111/2/2 116/2/2
f 115/4/2 110/4/2 116/4/2
f 111/2/2 112/2/2 116/2/2
f 112/4/2 113/4/2 117/4/2
f 116/2/2 112/2/2 117/2/2
f 117/4/2 113/4/2 118/4/2
f 115/4/2 116/4/2 120/4/2
f 116/4/2 117/4/2 120/4/2
f 120/4/2 117/4/2 121/4/2
f 119/2/2 120/2/2 123/2/2
f 120/2/2 121/2/2 123/2/2
f 121/4/2 117/4/2 124/4/2
f 123/2/2 121/2/2 124/2/2
f 124/4/2 117/4/2 125/4/2
f 122/2/2 123/2/2 126/2/2
f 123/2/2 124/2/2 126/2/2
f 124/2/2 125/2/2 126/2/2
f 126/2/2 125/2/2 127/2/2
f 127/2/2 125/2/2 128/2/2
f 128/2/2 125/2/2 129/2/2
f 129/2/2 125/2/2 130/2/2
f 130/2/2 125/2/2 131/2/2
f 131/2/2 125/2/2 132/2/2
f 131/2/2 132/2/2 134/2/2
f 132/2/2 133/2/2 134/2/2
f 130/1/2 131/1/2 134/1/2
f 134/2/2 133/2/2 135/2/2
f 126/1/2 127/1/2 136/1/2
f 127/3/2 128/3/2 137/3/2
f 136/1/2 127/1/2 137/1/2
f 128/1/2 129/1/2 138/1/2
f 137/3/2 128/3/2 138/3/2
f 129/3/2 130/3/2 139/3/2
f 138/1/2 129/1/2 139/1/2
f 130/1/2 134/1/2 140/1/2
f 139/3/2 130/3/2 140/3/2
f 134/1/2 135/1/2 140/1/2
f 135/2/2 133/2/2 141/2/2
f 140/1/2 135/1/2 141/1/2
f 141/2/2 133/2/2 142/2/2
f 142/2/2 133/2/2 143/2/2
f 137/2/2 138/2/2 144/2/2
f 139/2/2 140/2/2 144/2/2
f 141/2/2 142/2/2 144/2/2
f 140/2/2 141/2/2 144/2/2
f 138/2/2 139/2/2 144/2/2
f 136/2/2 137/2/2 144/2/2
f 144/2/2 142/2/2 145/2/2
f 145/2/2 142/2/2 146/2/2
f 146/2/2 142/2/2 147/2/2
f 145/2/2 146/2/2 150/2/2
f 150/2/2 146/2/2 151/2/2
f 147/2/2 148/2/2 152/2/2
f 148/1/2 149/1/2 153/1/2
f 152/2/2 148/2/2 153/2/2
f 153/1/2 149/1/2 154/1/2
f 161/1/3 156/1/3 155/1/3
f 162/1/3 156/1/3 161/1/3
f 163/2/3 158/2/3 157/2/3
f 164/1/3 159/1/3 158/1/3
f 164/2/3 158/2/3 163/2/3
f 165/2/3 160/2/3 159/2/3
f 165/1/3 159/1/3 164/1/3
f 166/2/3 160/2/3 165/2/3
f 173/2/3 168/2/3 167/2/3
f 174/2/3 168/2/3 173/2/3
f 175/2/3 170/2/3 169/2/3
f 176/2/3 170/2/3 175/2/3
f 177/2/3 172/2/3 171/2/3
f 178/2/3 172/2/3 177/2/3
f 185/1/3 180/1/3 179/1/3
f 186/1/3 180/1/3 185/1/3
f 187/4/3 182/4/3 181/4/3
f 188/4/3 182/4/3 187/4/3
f 189/4/3 184/4/3 183/4/3
f 190/4/3 184/4/3 189/4/3
f 194/1/3 192/1/3 191/1/3
f 195/2/3 193/2/3 192/2/3
f 195/1/3 192/1/3 194/1/3
f 196/2/3 193/2/3 195/2/3
f 199/1/3 198/1/3 197/1/3
f 200/1/3 198/1/3 199/1/3
f 204/1/3 202/1/3 201/1/3
f 205/2/3 203/2/3 202/2/3
f 205/1/3 202/1/3 204/1/3
f 206/2/3 203/2/3 205/2/3
f 209/2/3 208/2/3 207/2/3
f 210/2/3 208/2/3 209/2/3
f 211/1/4 212/1/4 213/1/4
f 213/1/4 212/1/4 214/1/4
f 215/2/4 216/2/4 217/2/4
f 217/2/4 216/2/4 218/2/4
f 219/1/4 220/1/4 227/1/4
f 220/2/4 221/2/4 228/2/4
f 227/1/4 220/1/4 228/1/4
f 228/2/4 221/2/4 229/2/4
f 222/4/4 223/4/4 230/4/4
f 223/2/4 224/2/4 231/2/4
f 230/4/4 223/4/4 231/4/4
f 231/2/4 224/2/4 232/2/4
f 225/2/4 226/2/4 233/2/4
f 233/2/4 226/2/4 234/2/4
f 235/4/4 236/4/4 241/4/4
f 236/2/4 237/2/4 242/2/4
f 241/4/4 236/4/4 242/4/4
f 237/4/4 238/4/4 243/4/4
f 242/2/4 237/2/4 243/2/4
f 243/4/4 238/4/4 244/4/4
f 239/2/4 240/2/4 245/2/4
f 245/2/4 240/2/4 246/2/4
f 247/1/4 248/1/4 249/1/4
f 249/1/4 248/1/4 250/1/4
f 253/1/5 252/1/5 251/1/5
f 254/1/5 252/1/5 253/1/5
f 257/1/5 256/1/5 255/1/5
f 258/1/5 256/1/5 257/1/5
f 261/4/5 260/4/5 259/4/5
f 262/4/5 260/4/5 261/4/5
f 265/4/5 264/4/5 263/4/5
f 266/4/5 264/4/5 265/4/5
f 269/4/5 268/4/5 267/4/5
f 270/4/5 268/4/5 269/4/5
f 273/1/5 272/1/5 271/1/5
f 274/1/5 272/1/5 273/1/5
f 277/2/5 276/2/5 275/2/5
f 278/2/5 276/2/5 277/2/5
f 281/2/5 280/2/5 279/2/5
f 282/2/5 280/2/5 281/2/5
f 285/2/5 284/2/5 283/2/5
f 286/2/5 284/2/5 285/2/5
f 289/2/5 288/2/5 287/2/5
f 290/2/5 288/2/5 289/2/5
f 291/1/5 290/1/5 289/1/5
f 292/1/5 290/1/5 291/1/5
f 293/1/6 294/1/6 295/1/6
f 295/1/6 294/1/6 296/1/6
f 297/1/6 298/1/6 299/1/6
f 299/1/6 298/1/6 300/1/6
f 301/1/6 302/1/6 303/1/6
f 303/1/6 302/1/6 304/1/6
f 305/2/6 306/2/6 307/2/6
f 307/2/6 306/2/6 308/2/6
f 309/4/6 310/4/6 311/4/6
f 311/4/6 310/4/6 312/4/6
f 313/2/6 314/2/6 315/2/6
f 315/2/6 314/2/6 316/2/6
f 317/2/6 318/2/6 319/2/6
f 319/2/6 318/2/6 320/2/6
f 321/2/6 322/2/6 323/2/6
f 323/2/6 322/2/6 324/2/6
f 325/2/6 326/2/6 327/2/6
f 327/2/6 326/2/6 328/2/6
f 329/2/6 330/2/6 331/2/6
f 331/2/6 330/2/6 332/2/6
f 331/1/6 332/1/6 333/1/6
f 333/1/6 332/1/6 334/1/6
