# MagicaVoxel @ Ephtracy

# group
o 

# material
mtllib Win1.mtl
usemtl palette

# normals
vn 0 0 1
vn 0 0 -1
vn 1 0 0
vn -1 0 0
vn 0 -1 0
vn 0 1 0

# texcoords
vt 0.970703 0.5
vt 0.974609 0.5
vt 0.978516 0.5
vt 0.982422 0.5

# verts
v -0.4 0 0.1
v -0.7 0 0.1
v -0.9 0 0.1
v -1.2 0 0.1
v -0.4 0.1 0.1
v -0.5 0.1 0.1
v -1.1 0.1 0.1
v -1.2 0.1 0.1
v -0.5 0.2 0.1
v -0.7 0.2 0.1
v -0.9 0.2 0.1
v -1.1 0.2 0.1
v -0.7 0.3 0.1
v -0.9 0.3 0.1
v -1.1 0.3 0.1
v -1.2 0.3 0.1
v -0.5 0.5 0.1
v -0.6 0.5 0.1
v -0.9 0.5 0.1
v -1 0.5 0.1
v -1.3 0.5 0.1
v -1.5 0.5 0.1
v -0.4 0.6 0.1
v -0.5 0.6 0.1
v -0.6 0.6 0.1
v -0.9 0.6 0.1
v -1 0.6 0.1
v -1.2 0.6 0.1
v -1.3 0.6 0.1
v -0.3 0.7 0.1
v -0.4 0.7 0.1
v -0.9 0.7 0.1
v -1 0.7 0.1
v -1.1 0.7 0.1
v -1.3 0.7 0.1
v -1.4 0.7 0.1
v -1.5 0.7 0.1
v -0.6 0.8 0.1
v -0.7 0.8 0.1
v -1 0.8 0.1
v -1.1 0.8 0.1
v -1.2 0.8 0.1
v -1.4 0.8 0.1
v -0.5 0.9 0.1
v -0.6 0.9 0.1
v -0.7 0.9 0.1
v -1.1 0.9 0.1
v -1.2 0.9 0.1
v 0 1 0.1
v -0.1 1 0.1
v -0.5 1 0.1
v -0.6 1 0.1
v -0.8 1 0.1
v -1.1 1 0.1
v -1.2 1 0.1
v 0 1.1 0.1
v -0.1 1.1 0.1
v -0.3 1.1 0.1
v -0.5 1.1 0.1
v -0.6 1.1 0.1
v -0.8 1.1 0.1
v -1 1.1 0.1
v -1.1 1.1 0.1
v -1.2 1.1 0.1
v -1.3 1.1 0.1
v -0.6 1.2 0.1
v -0.7 1.2 0.1
v -0.8 1.2 0.1
v -0.9 1.2 0.1
v -1.1 1.2 0.1
v -1.2 1.2 0.1
v 0 1.3 0.1
v -0.1 1.3 0.1
v -0.3 1.3 0.1
v -0.5 1.3 0.1
v 0 1.4 0.1
v -0.1 1.4 0.1
v -0.2 1.4 0.1
v -0.3 1.4 0.1
v -0.5 1.4 0.1
v -0.6 1.4 0.1
v -0.7 1.4 0.1
v -0.8 1.4 0.1
v -0.9 1.4 0.1
v -1 1.4 0.1
v -1.2 1.4 0.1
v -1.3 1.4 0.1
v -0.2 1.5 0.1
v -0.3 1.5 0.1
v -0.5 1.5 0.1
v -0.6 1.5 0.1
v -1.1 1.5 0.1
v -1.2 1.5 0.1
v -1.3 1.5 0.1
v -0.6 1.6 0.1
v -1.1 1.6 0.1
v -1.2 1.6 0.1
v -1.3 1.6 0.1
v -0.4 0 0
v -0.7 0 0
v -0.9 0 0
v -1.2 0 0
v -0.4 0.1 0
v -0.5 0.1 0
v -1.1 0.1 0
v -1.2 0.1 0
v -0.5 0.2 0
v -0.7 0.2 0
v -0.9 0.2 0
v -1.1 0.2 0
v -0.7 0.3 0
v -0.9 0.3 0
v -1.1 0.3 0
v -1.2 0.3 0
v -0.5 0.5 0
v -0.6 0.5 0
v -0.9 0.5 0
v -1 0.5 0
v -1.3 0.5 0
v -1.5 0.5 0
v -0.4 0.6 0
v -0.5 0.6 0
v -0.6 0.6 0
v -0.9 0.6 0
v -1 0.6 0
v -1.2 0.6 0
v -1.3 0.6 0
v -0.3 0.7 0
v -0.4 0.7 0
v -0.9 0.7 0
v -1 0.7 0
v -1.1 0.7 0
v -1.3 0.7 0
v -1.4 0.7 0
v -1.5 0.7 0
v -0.6 0.8 0
v -0.7 0.8 0
v -1 0.8 0
v -1.1 0.8 0
v -1.2 0.8 0
v -1.4 0.8 0
v -0.5 0.9 0
v -0.6 0.9 0
v -0.7 0.9 0
v -1.1 0.9 0
v -1.2 0.9 0
v 0 1 0
v -0.1 1 0
v -0.5 1 0
v -0.6 1 0
v -0.8 1 0
v -1.1 1 0
v -1.2 1 0
v 0 1.1 0
v -0.1 1.1 0
v -0.3 1.1 0
v -0.5 1.1 0
v -0.6 1.1 0
v -0.8 1.1 0
v -1 1.1 0
v -1.1 1.1 0
v -1.2 1.1 0
v -1.3 1.1 0
v -0.6 1.2 0
v -0.7 1.2 0
v -0.8 1.2 0
v -0.9 1.2 0
v -1.1 1.2 0
v -1.2 1.2 0
v 0 1.3 0
v -0.1 1.3 0
v -0.3 1.3 0
v -0.5 1.3 0
v 0 1.4 0
v -0.1 1.4 0
v -0.2 1.4 0
v -0.3 1.4 0
v -0.5 1.4 0
v -0.6 1.4 0
v -0.7 1.4 0
v -0.8 1.4 0
v -0.9 1.4 0
v -1 1.4 0
v -1.2 1.4 0
v -1.3 1.4 0
v -0.2 1.5 0
v -0.3 1.5 0
v -0.5 1.5 0
v -0.6 1.5 0
v -1.1 1.5 0
v -1.2 1.5 0
v -1.3 1.5 0
v -0.6 1.6 0
v -1.1 1.6 0
v -1.2 1.6 0
v -1.3 1.6 0
v 0 1 0.1
v 0 1.1 0.1
v 0 1.3 0.1
v 0 1.4 0.1
v 0 1 0
v 0 1.1 0
v 0 1.3 0
v 0 1.4 0
v -0.2 1.4 0.1
v -0.2 1.5 0.1
v -0.2 1.4 0
v -0.2 1.5 0
v -0.3 0.7 0.1
v -0.3 1.1 0.1
v -0.3 1.3 0.1
v -0.3 0.7 0
v -0.3 1.1 0
v -0.3 1.3 0
v -0.4 0 0.1
v -0.4 0.1 0.1
v -0.4 0.6 0.1
v -0.4 0.7 0.1
v -0.4 0 0
v -0.4 0.1 0
v -0.4 0.6 0
v -0.4 0.7 0
v -0.5 0.1 0.1
v -0.5 0.2 0.1
v -0.5 0.5 0.1
v -0.5 0.6 0.1
v -0.5 1.3 0.1
v -0.5 1.4 0.1
v -0.5 1.5 0.1
v -0.5 0.1 0
v -0.5 0.2 0
v -0.5 0.5 0
v -0.5 0.6 0
v -0.5 1.3 0
v -0.5 1.4 0
v -0.5 1.5 0
v -0.6 0.9 0.1
v -0.6 1 0.1
v -0.6 1.5 0.1
v -0.6 1.6 0.1
v -0.6 0.9 0
v -0.6 1 0
v -0.6 1.5 0
v -0.6 1.6 0
v -0.9 0 0.1
v -0.9 0.2 0.1
v -0.9 0.3 0.1
v -0.9 0 0
v -0.9 0.2 0
v -0.9 0.3 0
v -1.2 1.5 0.1
v -1.2 1.6 0.1
v -1.2 1.5 0
v -1.2 1.6 0
v -1.3 0.5 0.1
v -1.3 0.6 0.1
v -1.3 0.5 0
v -1.3 0.6 0
v -0.1 1 0.1
v -0.1 1.1 0.1
v -0.1 1.3 0.1
v -0.1 1.4 0.1
v -0.1 1 0
v -0.1 1.1 0
v -0.1 1.3 0
v -0.1 1.4 0
v -0.3 1.4 0.1
v -0.3 1.5 0.1
v -0.3 1.4 0
v -0.3 1.5 0
v -0.5 0.9 0.1
v -0.5 1 0.1
v -0.5 0.9 0
v -0.5 1 0
v -0.7 0 0.1
v -0.7 0.2 0.1
v -0.7 0.3 0.1
v -0.7 0 0
v -0.7 0.2 0
v -0.7 0.3 0
v -1.1 0.1 0.1
v -1.1 0.2 0.1
v -1.1 0.3 0.1
v -1.1 0.9 0.1
v -1.1 1 0.1
v -1.1 1.5 0.1
v -1.1 1.6 0.1
v -1.1 0.1 0
v -1.1 0.2 0
v -1.1 0.3 0
v -1.1 0.9 0
v -1.1 1 0
v -1.1 1.5 0
v -1.1 1.6 0
v -1.2 0 0.1
v -1.2 0.1 0.1
v -1.2 0.3 0.1
v -1.2 0.6 0.1
v -1.2 0.8 0.1
v -1.2 0.9 0.1
v -1.2 1 0.1
v -1.2 1.1 0.1
v -1.2 1.4 0.1
v -1.2 1.5 0.1
v -1.2 0 0
v -1.2 0.1 0
v -1.2 0.3 0
v -1.2 0.6 0
v -1.2 0.8 0
v -1.2 0.9 0
v -1.2 1 0
v -1.2 1.1 0
v -1.2 1.4 0
v -1.2 1.5 0
v -1.3 1.1 0.1
v -1.3 1.4 0.1
v -1.3 1.5 0.1
v -1.3 1.6 0.1
v -1.3 1.1 0
v -1.3 1.4 0
v -1.3 1.5 0
v -1.3 1.6 0
v -1.4 0.7 0.1
v -1.4 0.8 0.1
v -1.4 0.7 0
v -1.4 0.8 0
v -1.5 0.5 0.1
v -1.5 0.7 0.1
v -1.5 0.5 0
v -1.5 0.7 0
v -0.4 0 0.1
v -0.4 0 0
v -0.7 0 0.1
v -0.7 0 0
v -0.9 0 0.1
v -0.9 0 0
v -1.2 0 0.1
v -1.2 0 0
v -0.7 0.3 0.1
v -0.7 0.3 0
v -0.9 0.3 0.1
v -0.9 0.3 0
v -1.1 0.3 0.1
v -1.1 0.3 0
v -1.2 0.3 0.1
v -1.2 0.3 0
v -1.3 0.5 0.1
v -1.3 0.5 0
v -1.5 0.5 0.1
v -1.5 0.5 0
v -0.4 0.6 0.1
v -0.4 0.6 0
v -0.5 0.6 0.1
v -0.5 0.6 0
v -1.2 0.6 0.1
v -1.2 0.6 0
v -1.3 0.6 0.1
v -1.3 0.6 0
v -0.3 0.7 0.1
v -0.3 0.7 0
v -0.4 0.7 0.1
v -0.4 0.7 0
v 0 1 0.1
v 0 1 0
v -0.1 1 0.1
v -0.1 1 0
v -0.5 1 0.1
v -0.5 1 0
v -0.6 1 0.1
v -0.6 1 0
v -1.1 1 0.1
v -1.1 1 0
v -1.2 1 0.1
v -1.2 1 0
v -1.2 1.1 0.1
v -1.2 1.1 0
v -1.3 1.1 0.1
v -1.3 1.1 0
v 0 1.3 0.1
v 0 1.3 0
v -0.1 1.3 0.1
v -0.1 1.3 0
v -0.2 1.4 0.1
v -0.2 1.4 0
v -0.3 1.4 0.1
v -0.3 1.4 0
v -1.2 1.5 0.1
v -1.2 1.5 0
v -1.3 1.5 0.1
v -1.3 1.5 0
v -0.4 0.1 0.1
v -0.4 0.1 0
v -0.5 0.1 0.1
v -0.5 0.1 0
v -1.1 0.1 0.1
v -1.1 0.1 0
v -1.2 0.1 0.1
v -1.2 0.1 0
v -1.4 0.7 0.1
v -1.4 0.7 0
v -1.5 0.7 0.1
v -1.5 0.7 0
v -1.2 0.8 0.1
v -1.2 0.8 0
v -1.4 0.8 0.1
v -1.4 0.8 0
v -0.5 0.9 0.1
v -0.5 0.9 0
v -0.6 0.9 0.1
v -0.6 0.9 0
v -1.1 0.9 0.1
v -1.1 0.9 0
v -1.2 0.9 0.1
v -1.2 0.9 0
v 0 1.1 0.1
v 0 1.1 0
v -0.1 1.1 0.1
v -0.1 1.1 0
v -0.3 1.3 0.1
v -0.3 1.3 0
v -0.5 1.3 0.1
v -0.5 1.3 0
v 0 1.4 0.1
v 0 1.4 0
v -0.1 1.4 0.1
v -0.1 1.4 0
v -1.2 1.4 0.1
v -1.2 1.4 0
v -1.3 1.4 0.1
v -1.3 1.4 0
v -0.2 1.5 0.1
v -0.2 1.5 0
v -0.3 1.5 0.1
v -0.3 1.5 0
v -0.5 1.5 0.1
v -0.5 1.5 0
v -0.6 1.5 0.1
v -0.6 1.5 0
v -1.1 1.5 0.1
v -1.1 1.5 0
v -1.2 1.5 0.1
v -1.2 1.5 0
v -0.6 1.6 0.1
v -0.6 1.6 0
v -1.1 1.6 0.1
v -1.1 1.6 0
v -1.2 1.6 0.1
v -1.2 1.6 0
v -1.3 1.6 0.1
v -1.3 1.6 0

# faces
f 5/1/1 2/1/1 1/1/1
f 6/1/1 2/1/1 5/1/1
f 7/1/1 4/1/1 3/1/1
f 8/1/1 4/1/1 7/1/1
f 9/1/1 2/1/1 6/1/1
f 10/1/1 2/1/1 9/1/1
f 11/1/1 7/1/1 3/1/1
f 12/1/1 7/1/1 11/1/1
f 13/2/1 10/2/1 9/2/1
f 14/2/1 12/2/1 11/2/1
f 15/2/1 12/2/1 14/2/1
f 17/2/1 15/2/1 14/2/1
f 17/2/1 16/2/1 15/2/1
f 17/2/1 14/2/1 13/2/1
f 17/2/1 13/2/1 9/2/1
f 18/2/1 16/2/1 17/2/1
f 19/2/1 16/2/1 18/2/1
f 20/2/1 16/2/1 19/2/1
f 24/3/1 18/3/1 17/3/1
f 25/2/1 19/2/1 18/2/1
f 25/3/1 18/3/1 24/3/1
f 26/3/1 20/3/1 19/3/1
f 26/2/1 19/2/1 25/2/1
f 27/2/1 16/2/1 20/2/1
f 27/3/1 20/3/1 26/3/1
f 28/2/1 16/2/1 27/2/1
f 29/3/1 22/3/1 21/3/1
f 31/1/1 24/1/1 23/1/1
f 32/1/1 26/1/1 25/1/1
f 32/2/1 27/2/1 26/2/1
f 33/1/1 28/1/1 27/1/1
f 33/2/1 27/2/1 32/2/1
f 33/1/1 29/1/1 28/1/1
f 34/1/1 29/1/1 33/1/1
f 35/3/1 22/3/1 29/3/1
f 35/1/1 29/1/1 34/1/1
f 36/3/1 22/3/1 35/3/1
f 37/3/1 22/3/1 36/3/1
f 38/1/1 32/1/1 25/1/1
f 38/2/1 25/2/1 24/2/1
f 38/1/1 33/1/1 32/1/1
f 39/1/1 33/1/1 38/1/1
f 40/2/1 34/2/1 33/2/1
f 40/1/1 33/1/1 39/1/1
f 41/1/1 36/1/1 35/1/1
f 41/2/1 34/2/1 40/2/1
f 41/1/1 35/1/1 34/1/1
f 42/1/1 36/1/1 41/1/1
f 43/1/1 36/1/1 42/1/1
f 44/1/1 31/1/1 30/1/1
f 44/1/1 24/1/1 31/1/1
f 44/2/1 39/2/1 38/2/1
f 44/2/1 38/2/1 24/2/1
f 45/2/1 39/2/1 44/2/1
f 46/1/1 40/1/1 39/1/1
f 46/2/1 39/2/1 45/2/1
f 46/1/1 41/1/1 40/1/1
f 47/2/1 42/2/1 41/2/1
f 47/1/1 41/1/1 46/1/1
f 48/2/1 42/2/1 47/2/1
f 51/1/1 44/1/1 30/1/1
f 52/3/1 46/3/1 45/3/1
f 52/3/1 47/3/1 46/3/1
f 53/3/1 47/3/1 52/3/1
f 54/3/1 47/3/1 53/3/1
f 56/3/1 50/3/1 49/3/1
f 57/3/1 50/3/1 56/3/1
f 58/1/1 51/1/1 30/1/1
f 59/3/1 52/3/1 51/3/1
f 59/1/1 51/1/1 58/1/1
f 60/4/1 53/4/1 52/4/1
f 60/3/1 52/3/1 59/3/1
f 61/3/1 54/3/1 53/3/1
f 61/4/1 53/4/1 60/4/1
f 62/3/1 54/3/1 61/3/1
f 63/2/1 55/2/1 54/2/1
f 63/3/1 54/3/1 62/3/1
f 64/2/1 55/2/1 63/2/1
f 66/3/1 62/3/1 61/3/1
f 66/3/1 59/3/1 58/3/1
f 66/3/1 61/3/1 60/3/1
f 66/3/1 60/3/1 59/3/1
f 67/3/1 62/3/1 66/3/1
f 68/3/1 62/3/1 67/3/1
f 69/3/1 62/3/1 68/3/1
f 70/2/1 64/2/1 63/2/1
f 70/2/1 65/2/1 64/2/1
f 70/2/1 63/2/1 62/2/1
f 71/2/1 65/2/1 70/2/1
f 74/3/1 66/3/1 58/3/1
f 75/3/1 66/3/1 74/3/1
f 76/3/1 73/3/1 72/3/1
f 77/3/1 73/3/1 76/3/1
f 80/3/1 66/3/1 75/3/1
f 81/4/1 67/4/1 66/4/1
f 81/3/1 66/3/1 80/3/1
f 82/3/1 68/3/1 67/3/1
f 82/4/1 67/4/1 81/4/1
f 83/4/1 69/4/1 68/4/1
f 83/3/1 68/3/1 82/3/1
f 84/3/1 62/3/1 69/3/1
f 84/4/1 69/4/1 83/4/1
f 85/2/1 70/2/1 62/2/1
f 85/3/1 62/3/1 84/3/1
f 86/1/1 71/1/1 70/1/1
f 86/2/1 65/2/1 71/2/1
f 87/2/1 65/2/1 86/2/1
f 88/3/1 79/3/1 78/3/1
f 89/3/1 79/3/1 88/3/1
f 90/2/1 83/2/1 82/2/1
f 90/2/1 82/2/1 81/2/1
f 90/2/1 81/2/1 80/2/1
f 90/2/1 84/2/1 83/2/1
f 90/2/1 85/2/1 84/2/1
f 91/2/1 85/2/1 90/2/1
f 92/1/1 86/1/1 70/1/1
f 92/2/1 85/2/1 91/2/1
f 92/2/1 70/2/1 85/2/1
f 93/1/1 86/1/1 92/1/1
f 95/2/1 92/2/1 91/2/1
f 96/2/1 92/2/1 95/2/1
f 97/1/1 94/1/1 93/1/1
f 98/1/1 94/1/1 97/1/1
f 99/1/2 100/1/2 103/1/2
f 103/1/2 100/1/2 104/1/2
f 101/1/2 102/1/2 105/1/2
f 105/1/2 102/1/2 106/1/2
f 104/1/2 100/1/2 107/1/2
f 107/1/2 100/1/2 108/1/2
f 101/1/2 105/1/2 109/1/2
f 109/1/2 105/1/2 110/1/2
f 107/2/2 108/2/2 111/2/2
f 109/2/2 110/2/2 112/2/2
f 112/2/2 110/2/2 113/2/2
f 112/2/2 113/2/2 115/2/2
f 113/2/2 114/2/2 115/2/2
f 111/2/2 112/2/2 115/2/2
f 107/2/2 111/2/2 115/2/2
f 115/2/2 114/2/2 116/2/2
f 116/2/2 114/2/2 117/2/2
f 117/2/2 114/2/2 118/2/2
f 115/3/2 116/3/2 122/3/2
f 116/2/2 117/2/2 123/2/2
f 122/3/2 116/3/2 123/3/2
f 117/3/2 118/3/2 124/3/2
f 123/2/2 117/2/2 124/2/2
f 118/2/2 114/2/2 125/2/2
f 124/3/2 118/3/2 125/3/2
f 125/2/2 114/2/2 126/2/2
f 119/3/2 120/3/2 127/3/2
f 121/1/2 122/1/2 129/1/2
f 123/1/2 124/1/2 130/1/2
f 124/2/2 125/2/2 130/2/2
f 125/1/2 126/1/2 131/1/2
f 130/2/2 125/2/2 131/2/2
f 126/1/2 127/1/2 131/1/2
f 131/1/2 127/1/2 132/1/2
f 127/3/2 120/3/2 133/3/2
f 132/1/2 127/1/2 133/1/2
f 133/3/2 120/3/2 134/3/2
f 134/3/2 120/3/2 135/3/2
f 123/1/2 130/1/2 136/1/2
f 122/2/2 123/2/2 136/2/2
f 130/1/2 131/1/2 136/1/2
f 136/1/2 131/1/2 137/1/2
f 131/2/2 132/2/2 138/2/2
f 137/1/2 131/1/2 138/1/2
f 133/1/2 134/1/2 139/1/2
f 138/2/2 132/2/2 139/2/2
f 132/1/2 133/1/2 139/1/2
f 139/1/2 134/1/2 140/1/2
f 140/1/2 134/1/2 141/1/2
f 128/1/2 129/1/2 142/1/2
f 129/1/2 122/1/2 142/1/2
f 136/2/2 137/2/2 142/2/2
f 122/2/2 136/2/2 142/2/2
f 142/2/2 137/2/2 143/2/2
f 137/1/2 138/1/2 144/1/2
f 143/2/2 137/2/2 144/2/2
f 138/1/2 139/1/2 144/1/2
f 139/2/2 140/2/2 145/2/2
f 144/1/2 139/1/2 145/1/2
f 145/2/2 140/2/2 146/2/2
f 128/1/2 142/1/2 149/1/2
f 143/3/2 144/3/2 150/3/2
f 144/3/2 145/3/2 150/3/2
f 150/3/2 145/3/2 151/3/2
f 151/3/2 145/3/2 152/3/2
f 147/3/2 148/3/2 154/3/2
f 154/3/2 148/3/2 155/3/2
f 128/1/2 149/1/2 156/1/2
f 149/3/2 150/3/2 157/3/2
f 156/1/2 149/1/2 157/1/2
f 150/4/2 151/4/2 158/4/2
f 157/3/2 150/3/2 158/3/2
f 151/3/2 152/3/2 159/3/2
f 158/4/2 151/4/2 159/4/2
f 159/3/2 152/3/2 160/3/2
f 152/2/2 153/2/2 161/2/2
f 160/3/2 152/3/2 161/3/2
f 161/2/2 153/2/2 162/2/2
f 159/3/2 160/3/2 164/3/2
f 156/3/2 157/3/2 164/3/2
f 158/3/2 159/3/2 164/3/2
f 157/3/2 158/3/2 164/3/2
f 164/3/2 160/3/2 165/3/2
f 165/3/2 160/3/2 166/3/2
f 166/3/2 160/3/2 167/3/2
f 161/2/2 162/2/2 168/2/2
f 162/2/2 163/2/2 168/2/2
f 160/2/2 161/2/2 168/2/2
f 168/2/2 163/2/2 169/2/2
f 156/3/2 164/3/2 172/3/2
f 172/3/2 164/3/2 173/3/2
f 170/3/2 171/3/2 174/3/2
f 174/3/2 171/3/2 175/3/2
f 173/3/2 164/3/2 178/3/2
f 164/4/2 165/4/2 179/4/2
f 178/3/2 164/3/2 179/3/2
f 165/3/2 166/3/2 180/3/2
f 179/4/2 165/4/2 180/4/2
f 166/4/2 167/4/2 181/4/2
f 180/3/2 166/3/2 181/3/2
f 167/3/2 160/3/2 182/3/2
f 181/4/2 167/4/2 182/4/2
f 160/2/2 168/2/2 183/2/2
f 182/3/2 160/3/2 183/3/2
f 168/1/2 169/1/2 184/1/2
f 169/2/2 163/2/2 184/2/2
f 184/2/2 163/2/2 185/2/2
f 176/3/2 177/3/2 186/3/2
f 186/3/2 177/3/2 187/3/2
f 180/2/2 181/2/2 188/2/2
f 179/2/2 180/2/2 188/2/2
f 178/2/2 179/2/2 188/2/2
f 181/2/2 182/2/2 188/2/2
f 182/2/2 183/2/2 188/2/2
f 188/2/2 183/2/2 189/2/2
f 168/1/2 184/1/2 190/1/2
f 189/2/2 183/2/2 190/2/2
f 183/2/2 168/2/2 190/2/2
f 190/1/2 184/1/2 191/1/2
f 189/2/2 190/2/2 193/2/2
f 193/2/2 190/2/2 194/2/2
f 191/1/2 192/1/2 195/1/2
f 195/1/2 192/1/2 196/1/2
f 201/3/3 198/3/3 197/3/3
f 202/3/3 198/3/3 201/3/3
f 203/3/3 200/3/3 199/3/3
f 204/3/3 200/3/3 203/3/3
f 207/3/3 206/3/3 205/3/3
f 208/3/3 206/3/3 207/3/3
f 212/1/3 210/1/3 209/1/3
f 213/3/3 211/3/3 210/3/3
f 213/1/3 210/1/3 212/1/3
f 214/3/3 211/3/3 213/3/3
f 219/1/3 216/1/3 215/1/3
f 220/1/3 216/1/3 219/1/3
f 221/1/3 218/1/3 217/1/3
f 222/1/3 218/1/3 221/1/3
f 230/1/3 224/1/3 223/1/3
f 231/2/3 225/2/3 224/2/3
f 231/1/3 224/1/3 230/1/3
f 232/3/3 226/3/3 225/3/3
f 232/2/3 225/2/3 231/2/3
f 233/3/3 226/3/3 232/3/3
f 234/3/3 228/3/3 227/3/3
f 235/2/3 229/2/3 228/2/3
f 235/3/3 228/3/3 234/3/3
f 236/2/3 229/2/3 235/2/3
f 241/3/3 238/3/3 237/3/3
f 242/3/3 238/3/3 241/3/3
f 243/2/3 240/2/3 239/2/3
f 244/2/3 240/2/3 243/2/3
f 248/1/3 246/1/3 245/1/3
f 249/2/3 247/2/3 246/2/3
f 249/1/3 246/1/3 248/1/3
f 250/2/3 247/2/3 249/2/3
f 253/1/3 252/1/3 251/1/3
f 254/1/3 252/1/3 253/1/3
f 257/3/3 256/3/3 255/3/3
f 258/3/3 256/3/3 257/3/3
f 259/3/4 260/3/4 263/3/4
f 263/3/4 260/3/4 264/3/4
f 261/3/4 262/3/4 265/3/4
f 265/3/4 262/3/4 266/3/4
f 267/3/4 268/3/4 269/3/4
f 269/3/4 268/3/4 270/3/4
f 271/1/4 272/1/4 273/1/4
f 273/1/4 272/1/4 274/1/4
f 275/1/4 276/1/4 278/1/4
f 276/2/4 277/2/4 279/2/4
f 278/1/4 276/1/4 279/1/4
f 279/2/4 277/2/4 280/2/4
f 281/1/4 282/1/4 288/1/4
f 282/2/4 283/2/4 289/2/4
f 288/1/4 282/1/4 289/1/4
f 289/2/4 283/2/4 290/2/4
f 284/3/4 285/3/4 291/3/4
f 291/3/4 285/3/4 292/3/4
f 286/2/4 287/2/4 293/2/4
f 293/2/4 287/2/4 294/2/4
f 295/1/4 296/1/4 305/1/4
f 305/1/4 296/1/4 306/1/4
f 297/2/4 298/2/4 307/2/4
f 307/2/4 298/2/4 308/2/4
f 299/2/4 300/2/4 309/2/4
f 309/2/4 300/2/4 310/2/4
f 301/2/4 302/2/4 311/2/4
f 311/2/4 302/2/4 312/2/4
f 303/1/4 304/1/4 313/1/4
f 313/1/4 304/1/4 314/1/4
f 315/2/4 316/2/4 319/2/4
f 319/2/4 316/2/4 320/2/4
f 317/1/4 318/1/4 321/1/4
f 321/1/4 318/1/4 322/1/4
f 323/1/4 324/1/4 325/1/4
f 325/1/4 324/1/4 326/1/4
f 327/3/4 328/3/4 329/3/4
f 329/3/4 328/3/4 330/3/4
f 333/1/5 332/1/5 331/1/5
f 334/1/5 332/1/5 333/1/5
f 337/1/5 336/1/5 335/1/5
f 338/1/5 336/1/5 337/1/5
f 341/2/5 340/2/5 339/2/5
f 342/2/5 340/2/5 341/2/5
f 345/2/5 344/2/5 343/2/5
f 346/2/5 344/2/5 345/2/5
f 349/3/5 348/3/5 347/3/5
f 350/3/5 348/3/5 349/3/5
f 353/1/5 352/1/5 351/1/5
f 354/1/5 352/1/5 353/1/5
f 357/1/5 356/1/5 355/1/5
f 358/1/5 356/1/5 357/1/5
f 361/1/5 360/1/5 359/1/5
f 362/1/5 360/1/5 361/1/5
f 365/3/5 364/3/5 363/3/5
f 366/3/5 364/3/5 365/3/5
f 369/3/5 368/3/5 367/3/5
f 370/3/5 368/3/5 369/3/5
f 373/2/5 372/2/5 371/2/5
f 374/2/5 372/2/5 373/2/5
f 377/2/5 376/2/5 375/2/5
f 378/2/5 376/2/5 377/2/5
f 381/3/5 380/3/5 379/3/5
f 382/3/5 380/3/5 381/3/5
f 385/3/5 384/3/5 383/3/5
f 386/3/5 384/3/5 385/3/5
f 389/1/5 388/1/5 387/1/5
f 390/1/5 388/1/5 389/1/5
f 391/1/6 392/1/6 393/1/6
f 393/1/6 392/1/6 394/1/6
f 395/1/6 396/1/6 397/1/6
f 397/1/6 396/1/6 398/1/6
f 399/3/6 400/3/6 401/3/6
f 401/3/6 400/3/6 402/3/6
f 403/1/6 404/1/6 405/1/6
f 405/1/6 404/1/6 406/1/6
f 407/2/6 408/2/6 409/2/6
f 409/2/6 408/2/6 410/2/6
f 411/2/6 412/2/6 413/2/6
f 413/2/6 412/2/6 414/2/6
f 415/3/6 416/3/6 417/3/6
f 417/3/6 416/3/6 418/3/6
f 419/3/6 420/3/6 421/3/6
f 421/3/6 420/3/6 422/3/6
f 423/3/6 424/3/6 425/3/6
f 425/3/6 424/3/6 426/3/6
f 427/2/6 428/2/6 429/2/6
f 429/2/6 428/2/6 430/2/6
f 431/3/6 432/3/6 433/3/6
f 433/3/6 432/3/6 434/3/6
f 435/2/6 436/2/6 437/2/6
f 437/2/6 436/2/6 438/2/6
f 439/1/6 440/1/6 441/1/6
f 441/1/6 440/1/6 442/1/6
f 443/2/6 444/2/6 445/2/6
f 445/2/6 444/2/6 446/2/6
f 447/1/6 448/1/6 449/1/6
f 449/1/6 448/1/6 450/1/6
